<svg width="65" height="65" viewBox="0 0 65 65" fill="none" xmlns="http://www.w3.org/2000/svg">
<g id="Setting">
<g id="Group 35313">
<g id="Group 34043">
<rect id="Rectangle 1253" width="64.0158" height="64.0158" rx="18.582" fill="#FFF1D7"/>
<g id="Group">
<path id="Vector" d="M36.0272 45.9784H27.9672C27.7839 45.9784 27.6037 46.0253 27.4437 46.1146C27.2836 46.2038 27.1491 46.3326 27.0528 46.4885C26.9565 46.6444 26.9017 46.8224 26.8936 47.0055C26.8855 47.1885 26.9244 47.3707 27.0065 47.5345L27.7286 48.9767C28.0832 49.6913 28.6306 50.2924 29.3089 50.7122C29.9873 51.1319 30.7696 51.3534 31.5673 51.3517H32.427C33.2239 51.3545 34.0058 51.1347 34.6844 50.717C35.363 50.2992 35.9115 49.7002 36.2679 48.9874L36.99 47.5452C37.0722 47.3812 37.1111 47.1989 37.1029 47.0157C37.0946 46.8324 37.0396 46.6543 36.9431 46.4983C36.8466 46.3423 36.7117 46.2136 36.5514 46.1245C36.3911 46.0354 36.2106 45.9888 36.0272 45.9891V45.9784Z" fill="#FFC147"/>
<path id="Vector_2" d="M31.9977 12.6638C29.0275 12.6682 26.1361 13.6191 23.7431 15.3785C21.35 17.1378 19.58 19.6141 18.6899 22.4477C17.7998 25.2814 17.836 28.325 18.7932 31.1367C19.7504 33.9484 21.5788 36.3819 24.013 38.0838C24.1556 38.1828 24.2722 38.3148 24.3527 38.4687C24.4331 38.6225 24.4751 38.7936 24.4751 38.9672V40.605C24.4751 41.175 24.7015 41.7217 25.1046 42.1248C25.5077 42.5279 26.0544 42.7543 26.6244 42.7543H37.371C37.941 42.7543 38.4877 42.5279 38.8908 42.1248C39.2939 41.7217 39.5203 41.175 39.5203 40.605V38.9651C39.5203 38.7914 39.5623 38.6204 39.6427 38.4665C39.7232 38.3127 39.8398 38.1806 39.9824 38.0817C42.4227 36.3833 44.2571 33.9502 45.2182 31.1367C46.1794 28.3232 46.2173 25.2764 45.3262 22.4399C44.4352 19.6034 42.6618 17.1255 40.2644 15.3671C37.867 13.6087 34.9708 12.6616 31.9977 12.6638Z" fill="#FFC147"/>
</g>
</g>
</g>
</g>
</svg>
