<svg width="17" height="18" viewBox="0 0 17 18" fill="none" xmlns="http://www.w3.org/2000/svg">
<path d="M7.07427 1.52083C7.66704 1.1786 8.39735 1.1786 8.99012 1.52083L14.0304 4.43081C14.6231 4.77305 14.9883 5.40552 14.9883 6.08999V11.9099C14.9883 12.5944 14.6231 13.2269 14.0304 13.5691L8.99012 16.4791C8.39735 16.8213 7.66703 16.8213 7.07427 16.4791L2.03403 13.5691C1.44127 13.2269 1.07611 12.5944 1.07611 11.9099V6.08999C1.07611 5.40552 1.44127 4.77305 2.03403 4.43081L7.07427 1.52083Z" fill="#C5C5C5"/>
<path d="M7.2941 3.2126C7.75276 2.94779 8.31785 2.9478 8.77651 3.2126L12.6764 5.46423C13.1351 5.72904 13.4176 6.21842 13.4176 6.74803V11.2513C13.4176 11.7809 13.1351 12.2703 12.6764 12.5351L8.7765 14.7867C8.31785 15.0515 7.75276 15.0515 7.2941 14.7867L3.39417 12.5351C2.93551 12.2703 2.65296 11.7809 2.65296 11.2513V6.74803C2.65296 6.21842 2.93551 5.72904 3.39417 5.46423L7.2941 3.2126Z" fill="#898989"/>
<path d="M7.54254 5.19267C7.84429 5.01845 8.21606 5.01845 8.5178 5.19267L11.0835 6.67398C11.3853 6.8482 11.5711 7.17016 11.5711 7.51858V10.4812C11.5711 10.8296 11.3853 11.1516 11.0835 11.3258L8.5178 12.8071C8.21606 12.9813 7.84429 12.9813 7.54254 12.8071L4.97683 11.3258C4.67508 11.1516 4.4892 10.8296 4.4892 10.4812V7.51858C4.4892 7.17016 4.67508 6.8482 4.97683 6.67398L7.54254 5.19267Z" fill="#4F4F4F"/>
</svg>
