<svg width="49" height="48" viewBox="0 0 49 48" fill="none" xmlns="http://www.w3.org/2000/svg">
<path d="M8.81445 13.7255V33.3335C8.81445 37.6652 15.8375 41.1767 24.5009 41.1767C33.1642 41.1767 40.1873 37.6652 40.1873 33.3335V13.7255M8.81445 13.7255C8.81445 18.0572 15.8375 21.5687 24.5009 21.5687C33.1642 21.5687 40.1873 18.0572 40.1873 13.7255M8.81445 13.7255C8.81445 9.39384 15.8375 5.88232 24.5009 5.88232C33.1642 5.88232 40.1873 9.39384 40.1873 13.7255M40.1873 23.5295C40.1873 27.8612 33.1642 31.3727 24.5009 31.3727C15.8375 31.3727 8.81445 27.8612 8.81445 23.5295" stroke="url(#paint0_linear_734_6094)" stroke-width="3.9216"/>
<defs>
<linearGradient id="paint0_linear_734_6094" x1="24.5009" y1="5.88232" x2="24.5009" y2="41.1767" gradientUnits="userSpaceOnUse">
<stop stop-color="#C642DB"/>
<stop offset="1" stop-color="#0C66E4"/>
</linearGradient>
</defs>
</svg>
