<svg width="1689" height="1014" viewBox="0 0 1689 1014" fill="none" xmlns="http://www.w3.org/2000/svg">
<g clipPath="url(#clip0_27_1992)">
<rect width="1689" height="1013.99" fill="#070719"/>
<g clipPath="url(#clip1_27_1992)">
<g style="mix-blend-mode:screen">
<g style="mix-blend-mode:screen" filter="url(#filter1_f_27_1992)">
<ellipse cx="551.271" cy="341.319" rx="557.135" ry="187.667" fill="url(#paint0_linear_27_1992)"/>
</g>
<g style="mix-blend-mode:screen" filter="url(#filter2_f_27_1992)">
<ellipse cx="534.562" cy="341.319" rx="413.244" ry="187.667" fill="url(#paint1_linear_27_1992)"/>
</g>
<g style="mix-blend-mode:hard-light" opacity="0.6" filter="url(#filter3_f_27_1992)">
<ellipse cx="534.562" cy="341.319" rx="413.244" ry="187.667" fill="url(#paint2_linear_27_1992)"/>
</g>
<g style="mix-blend-mode:overlay" filter="url(#filter4_f_27_1992)">
<ellipse cx="673.904" cy="297.833" rx="283.759" ry="98.4129" fill="white"/>
</g>
</g>
</g>
<path d="M-159.003 132.54L1242.78 132.54" stroke="url(#paint3_linear_27_1992)" stroke-opacity="0.4" stroke-width="0.938333"/>
<path d="M-159.003 132.54L1242.78 132.54" stroke="white" stroke-opacity="0.05" stroke-width="0.938333"/>
<g clipPath="url(#clip2_27_1992)">
<g clipPath="url(#clip3_27_1992)">
<path d="M1510.31 865.864C1528.65 875.731 1540.08 894.872 1540.08 915.695M1360.81 864.957C1375.66 875.581 1384.47 892.719 1384.47 910.979M461.334 864.964C446.412 875.58 437.549 892.761 437.549 911.074M313.511 865.871C295.157 875.732 283.707 894.882 283.707 915.718M1820.82 868.475C1843.34 876.516 1858.38 897.85 1858.38 921.766M162.3 867.154C141.544 876.093 128.096 896.525 128.096 919.125M1664.1 867.169C1684.88 876.098 1698.35 896.542 1698.35 919.158M5.59389 868.461C-16.9137 876.512 -31.9346 897.837 -31.9346 921.741M-51.6763 841.871L161.07 777.989L253.339 777.97L75.1238 841.714L-51.6763 841.871ZM85.6615 841.701L263.847 777.968L364.968 777.947L217.311 841.538L85.6615 841.701ZM373.184 774.408L273.74 774.429L415.789 723.622H491.11L373.184 774.408ZM226.278 841.526L373.914 777.945L473.468 777.924L355.385 841.366L226.278 841.526ZM480.053 774.386L382.129 774.406L500.052 723.622H574.538L480.053 774.386ZM362.875 841.357L480.943 777.922L580.673 777.901L491.695 841.197L362.875 841.357ZM585.646 774.364L487.528 774.384L582.011 723.622H656.978L585.646 774.364ZM497.806 841.19L586.776 777.9L691.367 777.878L631.878 841.023L497.806 841.19ZM694.699 774.341L591.749 774.362L663.079 723.622H742.482L694.699 774.341ZM636.742 841.017L696.227 777.877L801.736 777.855L772.228 840.849L636.742 841.017ZM803.392 774.318L699.559 774.34L747.341 723.622H827.14L803.392 774.318ZM776.135 840.844L805.641 777.854L910.569 777.832V840.678L776.135 840.844ZM910.569 774.296L807.298 774.317L831.045 723.622H910.569V774.296ZM914.106 840.673V777.831L1019.01 777.809L1048.38 840.507L914.106 840.673ZM1017.36 774.273L914.106 774.295V723.622H993.63L1017.36 774.273ZM1052.28 840.502L1022.92 777.809L1128.97 777.786L1188.06 840.333L1052.28 840.502ZM1125.63 774.25L1021.26 774.272L997.535 723.622H1077.8L1125.63 774.25ZM1192.92 840.327L1133.83 777.785L1235.88 777.764L1323.12 840.166L1192.92 840.327ZM1230.94 774.228L1130.49 774.249L1082.66 723.622H1160.2L1230.94 774.228ZM1329.18 840.158L1241.96 777.763L1342.79 777.741L1458.5 839.998L1329.18 840.158ZM1336.22 774.206L1237.02 774.227L1166.28 723.622H1242.2L1336.22 774.206ZM1465.95 839.989L1350.25 777.74L1451.45 777.719L1595.99 839.827L1465.95 839.989ZM1443.22 774.184L1343.68 774.205L1249.66 723.622H1325.55L1443.22 774.184ZM1604.92 839.816L1460.4 777.717L1561.28 777.696L1734.83 839.655L1604.92 839.816ZM1551.38 774.161L1452.18 774.182L1334.51 723.622H1409.82L1551.38 774.161ZM1745.31 839.642L1571.79 777.693L1660.07 777.675L1865.85 839.493L1745.31 839.642ZM1648.3 774.141L1561.89 774.159L1420.34 723.622H1480.14L1648.3 774.141ZM1755.19 843.167L1877.57 843.015L1972.29 871.47C1995.47 878.432 2011.34 899.769 2011.34 923.969V987.982H1860.15V921.766C1860.15 897.103 1844.64 875.102 1821.41 866.81L1755.19 843.167ZM1860.15 991.519H2011.34V1131.21H1860.15V991.519ZM1860.15 1134.75H2011.34V1279.75H1860.15V1134.75ZM1860.15 1283.29H2011.34V1430.06H1860.15V1283.29ZM1860.15 1433.59H2011.34V1583.9H1860.15V1433.59ZM1856.61 1433.59V1583.9H1700.11V1433.59H1856.61ZM1696.58 1433.59V1583.9H1541.85V1433.59H1696.58ZM1538.32 1433.59V1583.9H1386.24V1433.59H1538.32ZM1382.7 1433.59V1583.9H1231.52V1433.59H1382.7ZM1227.98 1433.59V1583.9H1071.48V1433.59H1227.98ZM1067.95 1433.59V1583.9H914.106V1433.59H1067.95ZM910.569 1433.59V1583.9H756.727V1433.59H910.569ZM753.19 1433.59V1583.9H597.58V1433.59H753.19ZM594.043 1433.59V1583.9H439.317V1433.59H594.043ZM435.781 1433.59V1583.9H285.475V1433.59H435.781ZM281.939 1433.59V1583.9H129.865V1433.59H281.939ZM126.328 1433.59V1583.9H-30.1663V1433.59H126.328ZM-33.7029 1433.59V1583.9H-189.313V1433.59H-33.7029ZM-33.7029 1430.06H-189.313V1283.29H-33.7029V1430.06ZM-33.7029 1279.75H-189.313V1134.75H-33.7029V1279.75ZM-33.7029 1131.21H-189.313V991.519H-33.7029V1131.21ZM-33.7029 987.982H-189.313V923.975C-189.313 899.772 -173.441 878.434 -150.261 871.473L-63.5032 845.422L65.2016 845.263L4.99835 866.796C-18.2126 875.098 -33.7029 897.09 -33.7029 921.741V987.982ZM6.18942 870.126L75.7393 845.25L209.075 845.084L161.601 865.53C140.195 874.748 126.328 895.819 126.328 919.125V987.982H-30.1663V921.741C-30.1663 898.584 -15.6148 877.925 6.18942 870.126ZM162.999 868.778L218.042 845.073L348.787 844.911L312.674 864.314C293.747 874.483 281.939 894.231 281.939 915.718V987.982H129.865V919.125C129.865 897.232 142.892 877.438 162.999 868.778ZM314.348 867.429L356.277 844.902L486.714 844.74L460.309 863.523C444.92 874.471 435.781 892.188 435.781 911.074V987.982H285.475V915.718C285.475 895.534 296.568 876.982 314.348 867.429ZM462.359 866.405L492.826 844.732L628.542 844.564L609.924 864.326C599.724 875.153 594.043 889.466 594.043 904.341V987.982H439.317V911.074C439.317 893.333 447.903 876.689 462.359 866.405ZM612.498 866.752L633.406 844.558L770.57 844.388L758.701 869.727C755.071 877.475 753.19 885.925 753.19 894.481V987.982H597.58V904.341C597.58 890.368 602.916 876.922 612.498 866.752ZM761.903 871.228L774.478 844.383L910.569 844.214V881.884V987.982H756.727V894.481C756.727 886.444 758.494 878.505 761.903 871.228ZM914.106 881.884V844.21L1050.04 844.041L1062.77 871.228C1066.18 878.505 1067.95 886.444 1067.95 894.481V987.982H914.106V881.884ZM1065.97 869.727L1053.94 844.036L1191.4 843.866L1213.01 866.742C1222.62 876.918 1227.98 890.387 1227.98 904.387V987.982H1071.48V894.481C1071.48 885.925 1069.6 877.475 1065.97 869.727ZM1215.58 864.313L1196.26 843.86L1328.05 843.696L1359.78 866.395C1374.17 876.687 1382.7 893.289 1382.7 910.979V987.982H1231.52V904.387C1231.52 889.484 1225.81 875.146 1215.58 864.313ZM1361.84 863.518L1334.12 843.689L1465.06 843.527L1509.47 867.422C1527.24 876.98 1538.32 895.523 1538.32 915.695V987.982H1386.24V910.979C1386.24 892.148 1377.15 874.475 1361.84 863.518ZM1511.15 864.307L1472.51 843.517L1604.2 843.354L1663.4 868.794C1683.53 877.443 1696.58 897.249 1696.58 919.158V987.982H1541.85V915.695C1541.85 894.221 1530.06 874.482 1511.15 864.307ZM1664.8 865.544L1613.13 843.343L1744.7 843.18L1820.22 870.14C1842.04 877.93 1856.61 898.597 1856.61 921.766V987.982H1700.11V919.158C1700.11 895.835 1686.23 874.752 1664.8 865.544ZM1700.11 991.519H1856.61V1131.21H1700.11V991.519ZM1700.11 1134.75H1856.61V1279.75H1700.11V1134.75ZM1700.11 1283.29H1856.61V1430.06H1700.11V1283.29ZM1696.58 1283.29V1430.06H1541.85V1283.29H1696.58ZM1538.32 1283.29V1430.06H1386.24V1283.29H1538.32ZM1382.7 1283.29V1430.06H1231.52V1283.29H1382.7ZM1227.98 1283.29V1430.06H1071.48V1283.29H1227.98ZM1067.95 1283.29V1430.06H914.106V1283.29H1067.95ZM910.569 1283.29V1430.06H756.727V1283.29H910.569ZM753.19 1283.29V1430.06H597.58V1283.29H753.19ZM594.043 1283.29V1430.06H439.317V1283.29H594.043ZM435.781 1283.29V1430.06H285.475V1283.29H435.781ZM281.939 1283.29V1430.06H129.865V1283.29H281.939ZM126.328 1283.29V1430.06H-30.1663V1283.29H126.328ZM126.328 1279.75H-30.1663V1134.75H126.328V1279.75ZM126.328 1131.21H-30.1663V991.519H126.328V1131.21ZM129.865 1131.21V991.519H281.939V1131.21H129.865ZM285.475 1131.21V991.519H435.781V1131.21H285.475ZM439.317 1131.21V991.519H594.043V1131.21H439.317ZM597.58 1131.21V991.519H753.19V1131.21H597.58ZM756.727 1131.21V991.519H910.569V1131.21H756.727ZM914.106 1131.21V991.519H1067.95V1131.21H914.106ZM1071.48 1131.21V991.519H1227.98V1131.21H1071.48ZM1231.52 1131.21V991.519H1382.7V1131.21H1231.52ZM1386.24 1131.21V991.519H1538.32V1131.21H1386.24ZM1541.85 1131.21V991.519H1696.58V1131.21H1541.85ZM1541.85 1134.75H1696.58V1279.75H1541.85V1134.75ZM1538.32 1134.75V1279.75H1386.24V1134.75H1538.32ZM1382.7 1134.75V1279.75H1231.52V1134.75H1382.7ZM1227.98 1134.75V1279.75H1071.48V1134.75H1227.98ZM1067.95 1134.75V1279.75H914.106V1134.75H1067.95ZM910.569 1134.75V1279.75H756.727V1134.75H910.569ZM753.19 1134.75V1279.75H597.58V1134.75H753.19ZM594.043 1134.75V1279.75H439.317V1134.75H594.043ZM435.781 1134.75V1279.75H285.475V1134.75H435.781ZM281.939 1134.75V1279.75H129.865V1134.75H281.939ZM798.082 581.273L836.029 569.555L803.266 581.273H798.082ZM786.63 584.81H793.379L737.259 604.883H721.631L786.63 584.81ZM747.761 604.883L803.88 584.81H813.429L766.821 604.883H747.761ZM710.179 608.419H727.372L665.34 630.606H638.332L710.179 608.419ZM675.841 630.606L737.873 608.419H758.609L707.09 630.606H675.841ZM626.88 634.143H655.453L570.808 664.419H528.841L626.88 634.143ZM581.309 664.419L665.954 634.143H698.878L628.579 664.419H581.309ZM517.389 667.955H560.92L415.175 720.085H348.583L517.389 667.955ZM425.677 720.085L571.421 667.955H620.367L499.322 720.085H425.677ZM581.121 720.085H508.264L629.308 667.955H678.147L581.121 720.085ZM684.73 664.419H637.52L707.82 634.143H741.081L684.73 664.419ZM747.663 630.606H716.032L767.55 608.419H788.959L747.663 630.606ZM795.542 604.883H775.762L822.37 584.81H832.902L795.542 604.883ZM839.485 581.273H830.582L867.759 565.263L869.3 565.255L839.485 581.273ZM846.957 581.273L876.845 565.215L879.679 565.201L857.085 581.273H846.957ZM884.688 561.638L883.493 561.644L888.341 559.039L884.688 561.638ZM863.186 581.273L885.826 565.168L891.791 565.137L876.589 581.273H863.186ZM895.14 561.583L890.834 561.606L903.824 552.365L895.14 561.583ZM881.448 581.273L896.674 565.112L901.4 565.087L893.818 581.273H881.448ZM903.061 561.542L900.023 561.558L906.051 555.159L903.061 561.542ZM897.724 581.273L905.315 565.067L910.569 565.039V581.273H897.724ZM910.569 561.503L906.976 561.521L910.569 553.851V561.503ZM914.106 581.273V565.021L919.325 564.994L926.951 581.273H914.106ZM917.672 561.466L914.106 561.484V553.851L917.672 561.466ZM930.856 581.273L923.221 564.973L927.894 564.949L943.316 581.273H930.856ZM924.569 561.43L921.568 561.445L918.603 555.114L924.569 561.43ZM948.182 581.273L932.735 564.924L938.312 564.895L961.208 581.273H948.182ZM933.404 561.383L929.41 561.404L921.024 552.528L933.404 561.383ZM967.287 581.273L944.347 564.863L947.097 564.849L977.624 581.273H967.287ZM940.587 561.346L939.438 561.352L935.921 558.836L940.587 561.346ZM985.089 581.273L954.489 564.81L955.947 564.803L994.278 581.273H985.089ZM1003.24 581.273L964.797 564.756L964.827 564.756L1011.09 581.273H1003.24ZM813.767 581.273L858.394 565.312L858.708 565.31L821.641 581.273H813.767ZM1021.61 581.273L996.802 572.416L1025.11 581.273H1021.61ZM1031.52 584.81H1036.42L1100.58 604.883H1087.74L1031.52 584.81ZM1097.65 608.419H1111.88L1182.81 630.606H1159.8L1097.65 608.419ZM1169.7 634.143H1194.11L1290.89 664.419H1254.51L1169.7 634.143ZM1264.41 667.955H1302.19L1468.82 720.085H1410.43L1264.41 667.955ZM1253.89 667.955L1399.91 720.085H1326.28L1204.96 667.955H1253.89ZM1196.01 667.955L1317.32 720.085H1243.09L1146.2 667.955H1196.01ZM1138.73 667.955L1235.62 720.085H1161.33L1088.46 667.955H1138.73ZM1082.38 667.955L1155.25 720.085H1079.32L1030.07 667.955H1082.38ZM1025.21 667.955L1074.46 720.085H995.878L971.46 667.955H1025.21ZM967.554 667.955L991.973 720.085H914.106V667.955H967.554ZM910.569 667.955V720.085H832.702L857.12 667.955H910.569ZM853.215 667.955L828.796 720.085H750.673L799.785 667.955H853.215ZM794.926 667.955L745.814 720.085H668.05L741.332 667.955H794.926ZM735.231 667.955L661.949 720.085H588.593L685.62 667.955H735.231ZM740.203 664.419H692.202L748.553 634.143H782.763L740.203 664.419ZM787.734 630.606H755.136L796.432 608.419H818.924L787.734 630.606ZM823.896 604.883H803.014L840.375 584.81H852.113L823.896 604.883ZM829.997 604.883L858.214 584.81H873.257L854.347 604.883H829.997ZM859.206 604.883L878.116 584.81H892.162L882.759 604.883H859.206ZM886.665 604.883L896.067 584.81H910.569V604.883H886.665ZM914.106 604.883V584.81H928.607L938.01 604.883H914.106ZM941.915 604.883L932.513 584.81H946.657L965.621 604.883H941.915ZM970.486 604.883L951.523 584.81H966.152L994.212 604.883H970.486ZM1000.29 604.883L972.231 584.81H984.198L1021.51 604.883H1000.29ZM1028.97 604.883L991.662 584.81H1002.51L1049.22 604.883H1028.97ZM1058.18 604.883L1011.47 584.81H1021L1077.22 604.883H1058.18ZM1066.41 608.419H1087.13L1149.28 630.606H1118.05L1066.41 608.419ZM1126.28 634.143H1159.18L1243.99 664.419H1196.73L1126.28 634.143ZM1117.32 634.143L1187.78 664.419H1139.63L1083.35 634.143H1117.32ZM1075.89 634.143L1132.16 664.419H1083.52L1041.19 634.143H1075.89ZM1035.11 634.143L1077.44 664.419H1026.73L998.129 634.143H1035.11ZM993.264 634.143L1021.87 664.419H969.803L955.621 634.143H993.264ZM951.716 634.143L965.898 664.419H914.106V634.143H951.716ZM910.569 634.143V664.419H858.777L872.958 634.143H910.569ZM869.053 634.143L854.871 664.419H803.117L831.639 634.143H869.053ZM826.781 634.143L798.258 664.419H746.304L788.864 634.143H826.781ZM830.112 630.606H793.836L825.026 608.419H851.015L830.112 630.606ZM834.971 630.606L855.874 608.419H881.103L870.71 630.606H834.971ZM874.615 630.606L885.008 608.419H910.569V630.606H874.615ZM914.106 630.606V608.419H939.666L950.059 630.606H914.106ZM953.965 630.606L943.572 608.419H968.962L989.923 630.606H953.965ZM994.788 630.606L973.827 608.419H999.155L1030.17 630.606H994.788ZM1036.25 630.606L1005.23 608.419H1028.08L1069.32 630.606H1036.25ZM1076.78 630.606L1035.54 608.419H1057.45L1109.09 630.606H1076.78ZM405.288 723.622L263.233 774.431L172.537 774.45L345.597 721.007V723.622H405.288Z" stroke="url(#paint4_linear_27_1992)" stroke-width="3.5366"/>
</g>
<path d="M1510.48 93.1634C1528.82 83.297 1540.26 64.156 1540.26 43.3324M1360.99 94.0711C1375.84 83.4471 1384.65 66.3091 1384.65 48.0489M461.51 94.0634C446.587 83.4481 437.724 66.2672 437.724 47.9541M313.687 93.1566C295.332 83.2953 283.882 64.1454 283.882 43.3098M1820.99 90.5528C1843.52 82.5115 1858.55 61.1778 1858.55 37.2615M162.475 91.8738C141.719 82.9347 128.272 62.5024 128.272 39.9029M1664.28 91.8589C1685.05 82.9301 1698.52 62.486 1698.52 39.8698M5.76918 90.5666C-16.7384 82.5161 -31.7593 61.1906 -31.7593 37.2867M-51.501 117.157L161.245 181.038L253.515 181.058L75.2991 117.314L-51.501 117.157ZM85.8368 117.327L264.022 181.06L365.143 181.081L217.486 117.49L85.8368 117.327ZM373.359 184.619L273.915 184.599L415.964 235.406H491.286L373.359 184.619ZM226.453 117.501L374.089 181.083L473.643 181.104L355.56 117.662L226.453 117.501ZM480.228 184.642L382.305 184.621L500.227 235.406H574.714L480.228 184.642ZM363.05 117.671L481.118 181.105L580.849 181.126L491.87 117.831L363.05 117.671ZM585.822 184.664L487.703 184.643L582.186 235.406H657.153L585.822 184.664ZM497.982 117.838L586.952 181.128L691.542 181.15L632.053 118.005L497.982 117.838ZM694.875 184.687L591.925 184.665L663.254 235.406H742.658L694.875 184.687ZM636.917 118.011L696.402 181.151L801.911 181.173L772.403 118.179L636.917 118.011ZM803.568 184.71L699.735 184.688L747.517 235.406H827.315L803.568 184.71ZM776.311 118.183L805.817 181.174L910.744 181.196V118.35L776.311 118.183ZM910.744 184.732L807.473 184.711L831.22 235.406H910.744V184.732ZM914.281 118.355V181.196L1019.19 181.218L1048.56 118.521L914.281 118.355ZM1017.53 184.755L914.281 184.733V235.406H993.805L1017.53 184.755ZM1052.46 118.526L1023.09 181.219L1129.14 181.242L1188.23 118.694L1052.46 118.526ZM1125.8 184.777L1021.44 184.756L997.71 235.406H1077.97L1125.8 184.777ZM1193.09 118.7L1134.01 181.243L1236.06 181.264L1323.29 118.862L1193.09 118.7ZM1231.12 184.8L1130.67 184.778L1082.84 235.406H1160.37L1231.12 184.8ZM1329.36 118.869L1242.14 181.265L1342.96 181.286L1458.68 119.03L1329.36 118.869ZM1336.39 184.822L1237.19 184.801L1166.45 235.406H1242.37L1336.39 184.822ZM1466.12 119.039L1350.42 181.288L1451.63 181.309L1596.17 119.2L1466.12 119.039ZM1443.4 184.844L1343.85 184.823L1249.84 235.406H1325.73L1443.4 184.844ZM1605.1 119.211L1460.58 181.311L1561.46 181.332L1735.01 119.373L1605.1 119.211ZM1551.56 184.867L1452.35 184.846L1334.69 235.406H1409.99L1551.56 184.867ZM1745.49 119.386L1571.97 181.335L1660.24 181.353L1866.02 119.535L1745.49 119.386ZM1648.48 184.887L1562.07 184.869L1420.51 235.406H1480.31L1648.48 184.887ZM1755.36 115.861L1877.75 116.013L1972.46 87.5582C1995.64 80.5956 2011.51 59.2588 2011.51 35.0587V-28.9544H1860.32V37.2615C1860.32 61.9252 1844.81 83.9256 1821.59 92.2181L1755.36 115.861ZM1860.32 -32.4911H2011.51V-172.187H1860.32V-32.4911ZM1860.32 -175.723H2011.51V-320.724H1860.32V-175.723ZM1860.32 -324.26H2011.51V-471.029H1860.32V-324.26ZM1860.32 -474.566H2011.51V-624.871H1860.32V-474.566ZM1856.78 -474.566V-624.871H1700.29V-474.566H1856.78ZM1696.75 -474.566V-624.871H1542.03V-474.566H1696.75ZM1538.49 -474.566V-624.871H1386.42V-474.566H1538.49ZM1382.88 -474.566V-624.871H1231.69V-474.566H1382.88ZM1228.15 -474.566V-624.871H1071.66V-474.566H1228.15ZM1068.12 -474.566V-624.871H914.281V-474.566H1068.12ZM910.744 -474.566V-624.871H756.902V-474.566H910.744ZM753.366 -474.566V-624.871H597.755V-474.566H753.366ZM594.219 -474.566V-624.871H439.492V-474.566H594.219ZM435.956 -474.566V-624.871H285.65V-474.566H435.956ZM282.114 -474.566V-624.871H130.04V-474.566H282.114ZM126.503 -474.566V-624.871H-29.991V-474.566H126.503ZM-33.5276 -474.566V-624.871H-189.138V-474.566H-33.5276ZM-33.5276 -471.029H-189.138V-324.26H-33.5276V-471.029ZM-33.5276 -320.724H-189.138V-175.723H-33.5276V-320.724ZM-33.5276 -172.187H-189.138V-32.4911H-33.5276V-172.187ZM-33.5276 -28.9544H-189.138V35.053C-189.138 59.2558 -173.266 80.5942 -150.085 87.5545L-63.3279 113.605L65.3769 113.765L5.17365 92.2316C-18.0373 83.9296 -33.5276 61.9377 -33.5276 37.2867V-28.9544ZM6.36472 88.9016L75.9146 113.778L209.25 113.943L161.776 93.4979C140.371 84.2794 126.503 63.2086 126.503 39.9029V-28.9544H-29.991V37.2867C-29.991 60.4436 -15.4395 81.1027 6.36472 88.9016ZM163.175 90.2497L218.217 113.955L348.963 114.117L312.85 94.7143C293.922 84.5449 282.114 64.7965 282.114 43.3098V-28.9544H130.04V39.9029C130.04 61.7961 143.067 81.5899 163.175 90.2497ZM314.523 91.5988L356.452 114.126L486.89 114.288L460.484 95.5043C445.096 84.5573 435.956 66.8395 435.956 47.9541V-28.9544H285.65V43.3098C285.65 63.4943 296.743 82.0458 314.523 91.5988ZM462.535 92.6225L493.001 114.295L628.717 114.464L610.099 94.7014C599.899 83.8747 594.219 69.5615 594.219 54.6868V-28.9544H439.492V47.9541C439.492 65.6949 448.078 82.3389 462.535 92.6225ZM612.673 92.2763L633.582 114.47L770.745 114.64L758.876 89.3004C755.247 81.553 753.366 73.1025 753.366 64.5473V-28.9544H597.755V54.6868C597.755 68.66 603.091 82.1057 612.673 92.2763ZM762.078 87.8002L774.653 114.645L910.744 114.814V77.1435V-28.9544H756.902V64.5473C756.902 72.584 758.669 80.5224 762.078 87.8002ZM914.281 77.1435V114.818L1050.21 114.987L1062.95 87.8002C1066.36 80.5224 1068.12 72.584 1068.12 64.5473V-28.9544H914.281V77.1435ZM1066.15 89.3004L1054.12 114.991L1191.57 115.162L1213.18 92.2862C1222.8 82.1099 1228.15 68.6408 1228.15 54.6412V-28.9544H1071.66V64.5473C1071.66 73.1025 1069.78 81.5531 1066.15 89.3004ZM1215.75 94.7149L1196.43 115.168L1328.23 115.331L1359.96 92.6329C1374.34 82.3409 1382.88 65.7385 1382.88 48.0489V-28.9544H1231.69V54.6412C1231.69 69.544 1225.99 83.882 1215.75 94.7149ZM1362.01 95.5093L1334.29 115.339L1465.23 115.501L1509.65 91.6061C1527.41 82.0481 1538.49 63.5053 1538.49 43.3324V-28.9544H1386.42V48.0489C1386.42 66.8797 1377.33 84.5533 1362.01 95.5093ZM1511.32 94.7206L1472.68 115.511L1604.37 115.674L1663.58 90.2342C1683.71 81.5845 1696.75 61.7793 1696.75 39.8698V-28.9544H1542.03V43.3324C1542.03 64.8068 1530.23 84.5459 1511.32 94.7206ZM1664.97 93.4835L1613.31 115.685L1744.88 115.848L1820.4 88.8875C1842.22 81.0975 1856.78 60.4305 1856.78 37.2615V-28.9544H1700.29V39.8698C1700.29 63.1928 1686.4 84.2758 1664.97 93.4835ZM1700.29 -32.4911H1856.78V-172.187H1700.29V-32.4911ZM1700.29 -175.723H1856.78V-320.724H1700.29V-175.723ZM1700.29 -324.26H1856.78V-471.029H1700.29V-324.26ZM1696.75 -324.26V-471.029H1542.03V-324.26H1696.75ZM1538.49 -324.26V-471.029H1386.42V-324.26H1538.49ZM1382.88 -324.26V-471.029H1231.69V-324.26H1382.88ZM1228.15 -324.26V-471.029H1071.66V-324.26H1228.15ZM1068.12 -324.26V-471.029H914.281V-324.26H1068.12ZM910.744 -324.26V-471.029H756.902V-324.26H910.744ZM753.366 -324.26V-471.029H597.755V-324.26H753.366ZM594.219 -324.26V-471.029H439.492V-324.26H594.219ZM435.956 -324.26V-471.029H285.65V-324.26H435.956ZM282.114 -324.26V-471.029H130.04V-324.26H282.114ZM126.503 -324.26V-471.029H-29.991V-324.26H126.503ZM126.503 -320.724H-29.991V-175.723H126.503V-320.724ZM126.503 -172.187H-29.991V-32.4911H126.503V-172.187ZM130.04 -172.187V-32.4911H282.114V-172.187H130.04ZM285.65 -172.187V-32.4911H435.956V-172.187H285.65ZM439.492 -172.187V-32.4911H594.219V-172.187H439.492ZM597.755 -172.187V-32.4911H753.366V-172.187H597.755ZM756.902 -172.187V-32.4911H910.744V-172.187H756.902ZM914.281 -172.187V-32.4911H1068.12V-172.187H914.281ZM1071.66 -172.187V-32.4911H1228.15V-172.187H1071.66ZM1231.69 -172.187V-32.4911H1382.88V-172.187H1231.69ZM1386.42 -172.187V-32.4911H1538.49V-172.187H1386.42ZM1542.03 -172.187V-32.4911H1696.75V-172.187H1542.03ZM1542.03 -175.723H1696.75V-320.724H1542.03V-175.723ZM1538.49 -175.723V-320.724H1386.42V-175.723H1538.49ZM1382.88 -175.723V-320.724H1231.69V-175.723H1382.88ZM1228.15 -175.723V-320.724H1071.66V-175.723H1228.15ZM1068.12 -175.723V-320.724H914.281V-175.723H1068.12ZM910.744 -175.723V-320.724H756.902V-175.723H910.744ZM753.366 -175.723V-320.724H597.755V-175.723H753.366ZM594.219 -175.723V-320.724H439.492V-175.723H594.219ZM435.956 -175.723V-320.724H285.65V-175.723H435.956ZM282.114 -175.723V-320.724H130.04V-175.723H282.114ZM798.257 377.754L836.204 389.473L803.442 377.754H798.257ZM786.805 374.218H793.554L737.435 354.145H721.806L786.805 374.218ZM747.936 354.145L804.055 374.218H813.605L766.996 354.145H747.936ZM710.354 350.609H727.547L665.516 328.421H638.507L710.354 350.609ZM676.017 328.421L738.048 350.609H758.784L707.266 328.421H676.017ZM627.055 324.885H655.628L570.983 294.609H529.017L627.055 324.885ZM581.484 294.609L666.129 324.885H699.054L628.754 294.609H581.484ZM517.564 291.073H561.095L415.351 238.943H348.759L517.564 291.073ZM425.852 238.943L571.596 291.073H620.542L499.498 238.943H425.852ZM581.296 238.943H508.439L629.483 291.073H678.323L581.296 238.943ZM684.905 294.609H637.695L707.995 324.885H741.256L684.905 294.609ZM747.839 328.421H716.207L767.726 350.609H789.135L747.839 328.421ZM795.717 354.145H775.937L822.546 374.218H833.077L795.717 354.145ZM839.66 377.754H830.758L867.934 393.765L869.475 393.773L839.66 377.754ZM847.132 377.754L877.021 393.813L879.855 393.827L857.26 377.754H847.132ZM884.863 397.39L883.668 397.384L888.516 399.989L884.863 397.39ZM863.361 377.754L886.001 393.859L891.967 393.891L876.765 377.754H863.361ZM895.315 397.445L891.01 397.422L903.999 406.662L895.315 397.445ZM881.624 377.754L896.85 393.916L901.576 393.941L893.994 377.754H881.624ZM903.236 397.486L900.198 397.47L906.226 403.869L903.236 397.486ZM897.899 377.754L905.491 393.961L910.744 393.989V377.754H897.899ZM910.744 397.525L907.151 397.506L910.744 405.177V397.525ZM914.281 377.754V394.007L919.5 394.034L927.126 377.754H914.281ZM917.848 397.562L914.281 397.544V405.177L917.848 397.562ZM931.031 377.754L923.396 394.055L928.069 394.079L943.491 377.754H931.031ZM924.744 397.598L921.743 397.583L918.778 403.914L924.744 397.598ZM948.357 377.754L932.911 394.104L938.487 394.133L961.384 377.754H948.357ZM933.579 397.644L929.586 397.623L921.199 406.5L933.579 397.644ZM967.462 377.754L944.522 394.165L947.272 394.179L977.8 377.754H967.462ZM940.762 397.682L939.614 397.676L936.097 400.192L940.762 397.682ZM985.264 377.754L954.664 394.218L956.122 394.225L994.453 377.754H985.264ZM1003.41 377.754L964.972 394.272L965.002 394.272L1011.27 377.754H1003.41ZM813.943 377.754L858.569 393.716L858.884 393.718L821.817 377.754H813.943ZM1021.79 377.754L996.978 386.611L1025.29 377.754H1021.79ZM1031.69 374.218H1036.59L1100.76 354.145H1087.92L1031.69 374.218ZM1097.82 350.609H1112.06L1182.98 328.421H1159.97L1097.82 350.609ZM1169.88 324.885H1194.29L1291.06 294.609H1254.68L1169.88 324.885ZM1264.59 291.073H1302.37L1469 238.943H1410.6L1264.59 291.073ZM1254.07 291.073L1400.09 238.943H1326.46L1205.14 291.073H1254.07ZM1196.18 291.073L1317.5 238.943H1243.26L1146.37 291.073H1196.18ZM1138.91 291.073L1235.8 238.943H1161.51L1088.64 291.073H1138.91ZM1082.56 291.073L1155.43 238.943H1079.5L1030.25 291.073H1082.56ZM1025.38 291.073L1074.63 238.943H996.054L971.635 291.073H1025.38ZM967.73 291.073L992.148 238.943H914.281V291.073H967.73ZM910.744 291.073V238.943H832.877L857.296 291.073H910.744ZM853.39 291.073L828.971 238.943H750.849L799.96 291.073H853.39ZM795.101 291.073L745.99 238.943H668.226L741.508 291.073H795.101ZM735.406 291.073L662.125 238.943H588.769L685.795 291.073H735.406ZM740.378 294.609H692.378L748.728 324.885H782.938L740.378 294.609ZM787.91 328.421H755.311L796.607 350.609H819.1L787.91 328.421ZM824.071 354.145H803.19L840.55 374.218H852.289L824.071 354.145ZM830.173 354.145L858.39 374.218H873.433L854.522 354.145H830.173ZM859.381 354.145L878.292 374.218H892.337L882.935 354.145H859.381ZM886.84 354.145L896.242 374.218H910.744V354.145H886.84ZM914.281 354.145V374.218H928.783L938.185 354.145H914.281ZM942.09 354.145L932.688 374.218H946.833L965.796 354.145H942.09ZM970.661 354.145L951.698 374.218H966.327L994.387 354.145H970.661ZM1000.47 354.145L972.406 374.218H984.373L1021.68 354.145H1000.47ZM1029.14 354.145L991.837 374.218H1002.68L1049.4 354.145H1029.14ZM1058.36 354.145L1011.64 374.218H1021.17L1077.4 354.145H1058.36ZM1066.59 350.609H1087.3L1149.45 328.421H1118.22L1066.59 350.609ZM1126.45 324.885H1159.36L1244.16 294.609H1196.91L1126.45 324.885ZM1117.49 324.885L1187.95 294.609H1139.8L1083.53 324.885H1117.49ZM1076.07 324.885L1132.34 294.609H1083.69L1041.37 324.885H1076.07ZM1035.29 324.885L1077.61 294.609H1026.91L998.305 324.885H1035.29ZM993.439 324.885L1022.04 294.609H969.978L955.797 324.885H993.439ZM951.891 324.885L966.073 294.609H914.281V324.885H951.891ZM910.744 324.885V294.609H858.952L873.134 324.885H910.744ZM869.228 324.885L855.047 294.609H803.292L831.815 324.885H869.228ZM826.956 324.885L798.433 294.609H746.479L789.039 324.885H826.956ZM830.288 328.421H794.011L825.201 350.609H851.19L830.288 328.421ZM835.147 328.421L856.049 350.609H881.278L870.885 328.421H835.147ZM874.79 328.421L885.183 350.609H910.744V328.421H874.79ZM914.281 328.421V350.609H939.842L950.235 328.421H914.281ZM954.14 328.421L943.747 350.609H969.137L990.098 328.421H954.14ZM994.964 328.421L974.002 350.609H999.331L1030.35 328.421H994.964ZM1036.43 328.421L1005.41 350.609H1028.25L1069.49 328.421H1036.43ZM1076.96 328.421L1035.72 350.609H1057.63L1109.26 328.421H1076.96ZM405.463 235.406L263.408 184.596L172.712 184.577L345.773 238.021V235.406H405.463Z" stroke="url(#paint5_linear_27_1992)" stroke-width="3.5366"/>
</g>
<path d="M-155.485 897.281L1246.29 897.282" stroke="url(#paint6_linear_27_1992)" stroke-opacity="0.4" stroke-width="0.938333"/>
<path d="M-155.485 897.281L1246.29 897.282" stroke="white" stroke-opacity="0.05" stroke-width="0.938333"/>
<g clipPath="url(#clip4_27_1992)">
<g style="mix-blend-mode:screen">
<g style="mix-blend-mode:screen" filter="url(#filter6_f_27_1992)">
<ellipse cx="561.827" cy="687.329" rx="557.135" ry="187.667" fill="url(#paint7_linear_27_1992)"/>
</g>
<g style="mix-blend-mode:screen" filter="url(#filter7_f_27_1992)">
<ellipse cx="545.118" cy="687.329" rx="413.244" ry="187.667" fill="url(#paint8_linear_27_1992)"/>
</g>
<g style="mix-blend-mode:hard-light" opacity="0.6" filter="url(#filter8_f_27_1992)">
<ellipse cx="545.118" cy="687.329" rx="413.244" ry="187.667" fill="url(#paint9_linear_27_1992)"/>
</g>
</g>
</g>
</g>
<defs>
<filter id="filter1_f_27_1992" x="-240.448" y="-80.9312" width="1583.44" height="844.5" filterUnits="userSpaceOnUse" color-interpolation-filters="sRGB">
<feFlood flood-opacity="0" result="BackgroundImageFix"/>
<feBlend mode="normal" in="SourceGraphic" in2="BackgroundImageFix" result="shape"/>
<feGaussianBlur stdDeviation="117.292" result="effect1_foregroundBlur_27_1992"/>
</filter>
<filter id="filter2_f_27_1992" x="27.4845" y="59.8188" width="1014.15" height="563" filterUnits="userSpaceOnUse" color-interpolation-filters="sRGB">
<feFlood flood-opacity="0" result="BackgroundImageFix"/>
<feBlend mode="normal" in="SourceGraphic" in2="BackgroundImageFix" result="shape"/>
<feGaussianBlur stdDeviation="46.9167" result="effect1_foregroundBlur_27_1992"/>
</filter>
<filter id="filter3_f_27_1992" x="27.4845" y="59.8188" width="1014.15" height="563" filterUnits="userSpaceOnUse" color-interpolation-filters="sRGB">
<feFlood flood-opacity="0" result="BackgroundImageFix"/>
<feBlend mode="normal" in="SourceGraphic" in2="BackgroundImageFix" result="shape"/>
<feGaussianBlur stdDeviation="46.9167" result="effect1_foregroundBlur_27_1992"/>
</filter>
<filter id="filter4_f_27_1992" x="296.312" y="105.587" width="755.185" height="384.492" filterUnits="userSpaceOnUse" color-interpolation-filters="sRGB">
<feFlood flood-opacity="0" result="BackgroundImageFix"/>
<feBlend mode="normal" in="SourceGraphic" in2="BackgroundImageFix" result="shape"/>
<feGaussianBlur stdDeviation="46.9167" result="effect1_foregroundBlur_27_1992"/>
</filter>
<filter id="filter6_f_27_1992" x="-229.892" y="265.079" width="1583.44" height="844.5" filterUnits="userSpaceOnUse" color-interpolation-filters="sRGB">
<feFlood flood-opacity="0" result="BackgroundImageFix"/>
<feBlend mode="normal" in="SourceGraphic" in2="BackgroundImageFix" result="shape"/>
<feGaussianBlur stdDeviation="117.292" result="effect1_foregroundBlur_27_1992"/>
</filter>
<filter id="filter7_f_27_1992" x="38.0407" y="405.829" width="1014.15" height="563" filterUnits="userSpaceOnUse" color-interpolation-filters="sRGB">
<feFlood flood-opacity="0" result="BackgroundImageFix"/>
<feBlend mode="normal" in="SourceGraphic" in2="BackgroundImageFix" result="shape"/>
<feGaussianBlur stdDeviation="46.9167" result="effect1_foregroundBlur_27_1992"/>
</filter>
<filter id="filter8_f_27_1992" x="38.0407" y="405.829" width="1014.15" height="563" filterUnits="userSpaceOnUse" color-interpolation-filters="sRGB">
<feFlood flood-opacity="0" result="BackgroundImageFix"/>
<feBlend mode="normal" in="SourceGraphic" in2="BackgroundImageFix" result="shape"/>
<feGaussianBlur stdDeviation="46.9167" result="effect1_foregroundBlur_27_1992"/>
</filter>
<linearGradient id="paint0_linear_27_1992" x1="-5.86475" y1="323.64" x2="1108.41" y2="323.64" gradientUnits="userSpaceOnUse">
<stop stop-color="#3A5AFF"/>
<stop offset="1" stop-color="#5EBBFF"/>
</linearGradient>
<linearGradient id="paint1_linear_27_1992" x1="121.318" y1="323.64" x2="947.805" y2="323.64" gradientUnits="userSpaceOnUse">
<stop stop-color="#3A5AFF"/>
<stop offset="1" stop-color="#5EBBFF"/>
</linearGradient>
<linearGradient id="paint2_linear_27_1992" x1="121.318" y1="323.64" x2="947.805" y2="323.64" gradientUnits="userSpaceOnUse">
<stop stop-color="#3A5AFF"/>
<stop offset="1" stop-color="#5EBBFF"/>
</linearGradient>
<linearGradient id="paint3_linear_27_1992" x1="1249.65" y1="133.104" x2="-159.003" y2="133.126" gradientUnits="userSpaceOnUse">
<stop stop-color="white" stop-opacity="0"/>
<stop offset="0.526042" stop-color="white" stop-opacity="0.6"/>
<stop offset="1" stop-color="white" stop-opacity="0"/>
</linearGradient>
<linearGradient id="paint4_linear_27_1992" x1="911.011" y1="544.139" x2="910.569" y2="1438.9" gradientUnits="userSpaceOnUse">
<stop offset="0.119792" stop-color="white" stop-opacity="0"/>
<stop offset="0.276042" stop-color="white" stop-opacity="0.06"/>
<stop offset="0.552083" stop-color="white" stop-opacity="0.03"/>
<stop offset="0.770833" stop-color="white" stop-opacity="0"/>
</linearGradient>
<linearGradient id="paint5_linear_27_1992" x1="911.186" y1="414.889" x2="910.744" y2="-285.358" gradientUnits="userSpaceOnUse">
<stop offset="0.223958" stop-color="white" stop-opacity="0"/>
<stop offset="0.5" stop-color="white" stop-opacity="0.06"/>
<stop offset="0.567708" stop-color="white" stop-opacity="0"/>
</linearGradient>
<linearGradient id="paint6_linear_27_1992" x1="1253.17" y1="897.846" x2="-155.485" y2="897.868" gradientUnits="userSpaceOnUse">
<stop stop-color="white" stop-opacity="0"/>
<stop offset="0.526042" stop-color="white" stop-opacity="0.6"/>
<stop offset="1" stop-color="white" stop-opacity="0"/>
</linearGradient>
<linearGradient id="paint7_linear_27_1992" x1="4.69141" y1="669.65" x2="1118.96" y2="669.65" gradientUnits="userSpaceOnUse">
<stop stop-color="#3A5AFF"/>
<stop offset="1" stop-color="#5EBBFF"/>
</linearGradient>
<linearGradient id="paint8_linear_27_1992" x1="131.874" y1="669.65" x2="958.361" y2="669.65" gradientUnits="userSpaceOnUse">
<stop stop-color="#3A5AFF"/>
<stop offset="1" stop-color="#5EBBFF"/>
</linearGradient>
<linearGradient id="paint9_linear_27_1992" x1="131.874" y1="669.65" x2="958.361" y2="669.65" gradientUnits="userSpaceOnUse">
<stop stop-color="#3A5AFF"/>
<stop offset="1" stop-color="#5EBBFF"/>
</linearGradient>
<clipPath id="clip0_27_1992">
<rect width="1689" height="1013.99" fill="white"/>
</clipPath>
<clipPath id="clip1_27_1992">
<rect width="2054.95" height="701.404" fill="white" transform="translate(-476.204 -568.865)"/>
</clipPath>
<clipPath id="clip2_27_1992">
<rect width="2546.35" height="1626.84" fill="white" transform="translate(-362.431 -218.162)"/>
</clipPath>
<clipPath id="clip3_27_1992">
<rect width="2204.19" height="1041.53" fill="white" transform="translate(-191.082 544.139)"/>
</clipPath>
<clipPath id="clip4_27_1992">
<rect width="2054.95" height="701.404" fill="white" transform="translate(1589.88 1597.51) rotate(-180)"/>
</clipPath>
</defs>
</svg>
