<svg width="36" height="36" viewBox="0 0 36 36" fill="none" xmlns="http://www.w3.org/2000/svg">
<path d="M16.875 6.75C18.2695 6.75 19.582 7.01367 20.8125 7.54102C22.043 8.06836 23.1152 8.79492 24.0293 9.7207C24.9434 10.6465 25.6641 11.7188 26.1914 12.9375C26.7188 14.1562 26.9883 15.4688 27 16.875C27 17.6133 26.9531 18.3047 26.8594 18.9492C26.7656 19.5938 26.6191 20.209 26.4199 20.7949C26.2207 21.3809 25.9629 21.9609 25.6465 22.5352C25.3301 23.1094 24.9551 23.6953 24.5215 24.293C24.1816 24.7617 23.8828 25.1836 23.625 25.5586C23.3672 25.9336 23.1562 26.3086 22.9922 26.6836C22.8281 27.0586 22.7051 27.4688 22.623 27.9141C22.541 28.3594 22.5 28.8809 22.5 29.4785V32.625C22.5 33.0938 22.4121 33.5332 22.2363 33.9434C22.0605 34.3535 21.8203 34.7109 21.5156 35.0156C21.2109 35.3203 20.8535 35.5605 20.4434 35.7363C20.0332 35.9121 19.5938 36 19.125 36H14.625C14.1562 36 13.7168 35.9121 13.3066 35.7363C12.8965 35.5605 12.5391 35.3203 12.2344 35.0156C11.9297 34.7109 11.6895 34.3535 11.5137 33.9434C11.3379 33.5332 11.25 33.0938 11.25 32.625V29.4609C11.25 28.8633 11.209 28.3477 11.127 27.9141C11.0449 27.4805 10.9219 27.0762 10.7578 26.7012C10.5938 26.3262 10.3828 25.9453 10.125 25.5586C9.86719 25.1719 9.56836 24.75 9.22852 24.293C8.79492 23.6953 8.42578 23.1152 8.12109 22.5527C7.81641 21.9902 7.55859 21.4102 7.34766 20.8125C7.13672 20.2148 6.98438 19.5938 6.89062 18.9492C6.79688 18.3047 6.75 17.6133 6.75 16.875C6.75 15.4805 7.01367 14.168 7.54102 12.9375C8.06836 11.707 8.79492 10.6348 9.7207 9.7207C10.6465 8.80664 11.7188 8.08594 12.9375 7.55859C14.1562 7.03125 15.4688 6.76172 16.875 6.75ZM20.25 32.625V31.5H13.5V32.625C13.5 32.9297 13.6113 33.1934 13.834 33.416C14.0566 33.6387 14.3203 33.75 14.625 33.75H19.125C19.4297 33.75 19.6934 33.6387 19.916 33.416C20.1387 33.1934 20.25 32.9297 20.25 32.625ZM24.75 16.875C24.75 15.7852 24.5449 14.7656 24.1348 13.8164C23.7246 12.8672 23.1621 12.0293 22.4473 11.3027C21.7324 10.5762 20.9004 10.0137 19.9512 9.61523C19.002 9.2168 17.9766 9.01172 16.875 9C15.7852 9 14.7656 9.20508 13.8164 9.61523C12.8672 10.0254 12.0293 10.5879 11.3027 11.3027C10.5762 12.0176 10.0137 12.8496 9.61523 13.7988C9.2168 14.748 9.01172 15.7734 9 16.875C9 17.918 9.10547 18.8145 9.31641 19.5645C9.52734 20.3145 9.80273 20.9824 10.1426 21.5684C10.4824 22.1543 10.8398 22.7051 11.2148 23.2207C11.5898 23.7363 11.9473 24.2754 12.2871 24.8379C12.627 25.4004 12.9082 26.0332 13.1309 26.7363C13.3535 27.4395 13.4766 28.2773 13.5 29.25H20.25C20.2617 28.2773 20.3789 27.4453 20.6016 26.7539C20.8242 26.0625 21.1055 25.4297 21.4453 24.8555C21.7852 24.2812 22.1426 23.7422 22.5176 23.2383C22.8926 22.7344 23.25 22.1836 23.5898 21.5859C23.9297 20.9883 24.2051 20.3145 24.416 19.5645C24.627 18.8145 24.7383 17.918 24.75 16.875ZM16.875 4.5C16.5703 4.5 16.3066 4.38867 16.084 4.16602C15.8613 3.94336 15.75 3.67969 15.75 3.375V1.125C15.75 0.820312 15.8613 0.556641 16.084 0.333984C16.3066 0.111328 16.5703 0 16.875 0C17.1797 0 17.4434 0.111328 17.666 0.333984C17.8887 0.556641 18 0.820312 18 1.125V3.375C18 3.67969 17.8887 3.94336 17.666 4.16602C17.4434 4.38867 17.1797 4.5 16.875 4.5ZM3.375 16.3125H1.125C0.820312 16.3125 0.556641 16.2012 0.333984 15.9785C0.111328 15.7559 0 15.4922 0 15.1875C0 14.8828 0.111328 14.6191 0.333984 14.3965C0.556641 14.1738 0.820312 14.0625 1.125 14.0625H3.375C3.67969 14.0625 3.94336 14.1738 4.16602 14.3965C4.38867 14.6191 4.5 14.8828 4.5 15.1875C4.5 15.4922 4.38867 15.7559 4.16602 15.9785C3.94336 16.2012 3.67969 16.3125 3.375 16.3125ZM4.30664 20.9004C4.61133 20.9004 4.875 21.0117 5.09766 21.2344C5.32031 21.457 5.43164 21.7266 5.43164 22.043C5.43164 22.2773 5.36719 22.4824 5.23828 22.6582C5.10938 22.834 4.93359 22.9746 4.71094 23.0801C4.58203 23.1387 4.40625 23.2148 4.18359 23.3086C3.96094 23.4023 3.7207 23.502 3.46289 23.6074C3.20508 23.7129 2.9707 23.8008 2.75977 23.8711C2.54883 23.9414 2.36133 23.9824 2.19727 23.9941C1.89258 23.9941 1.62891 23.8828 1.40625 23.6602C1.18359 23.4375 1.07227 23.168 1.07227 22.8516C1.07227 22.6172 1.13672 22.4121 1.26562 22.2363C1.39453 22.0605 1.57031 21.9199 1.79297 21.8145C1.92188 21.7676 2.09766 21.6914 2.32031 21.5859C2.54297 21.4805 2.7832 21.3809 3.04102 21.2871C3.29883 21.1934 3.5332 21.1055 3.74414 21.0234C3.95508 20.9414 4.14258 20.9004 4.30664 20.9004ZM6.97852 9.5625C6.97852 9.86719 6.86719 10.1309 6.64453 10.3535C6.42188 10.5762 6.1582 10.6875 5.85352 10.6875C5.64258 10.6875 5.44922 10.6348 5.27344 10.5293L3.35742 9.35156C3.19336 9.24609 3.06445 9.11133 2.9707 8.94727C2.87695 8.7832 2.82422 8.5957 2.8125 8.38477C2.8125 8.08008 2.92383 7.81641 3.14648 7.59375C3.36914 7.37109 3.63281 7.25977 3.9375 7.25977C4.125 7.25977 4.31836 7.31836 4.51758 7.43555L6.45117 8.5957C6.61523 8.68945 6.74414 8.82422 6.83789 9C6.93164 9.17578 6.97852 9.36328 6.97852 9.5625ZM8.4375 3.09375C8.4375 2.78906 8.54883 2.52539 8.77148 2.30273C8.99414 2.08008 9.25781 1.96875 9.5625 1.96875C9.76172 1.96875 9.94922 2.02148 10.125 2.12695C10.3008 2.23242 10.4414 2.37305 10.5469 2.54883L11.6367 4.51758C11.7305 4.68164 11.7773 4.85742 11.7773 5.04492C11.7773 5.36133 11.666 5.63086 11.4434 5.85352C11.2207 6.07617 10.957 6.1875 10.6523 6.1875C10.4531 6.1875 10.2656 6.13477 10.0898 6.0293C9.91406 5.92383 9.77344 5.7832 9.66797 5.60742L8.57812 3.63867C8.48438 3.47461 8.4375 3.29297 8.4375 3.09375ZM32.625 14.0625C32.9297 14.0625 33.1934 14.1738 33.416 14.3965C33.6387 14.6191 33.75 14.8828 33.75 15.1875C33.75 15.4922 33.6387 15.7559 33.416 15.9785C33.1934 16.2012 32.9297 16.3125 32.625 16.3125H30.375C30.0703 16.3125 29.8066 16.2012 29.584 15.9785C29.3613 15.7559 29.25 15.4922 29.25 15.1875C29.25 14.8828 29.3613 14.6191 29.584 14.3965C29.8066 14.1738 30.0703 14.0625 30.375 14.0625H32.625ZM32.6602 22.8691C32.6602 23.1738 32.5488 23.4375 32.3262 23.6602C32.1035 23.8828 31.8398 23.9941 31.5352 23.9941C31.4062 23.9941 31.2305 23.959 31.0078 23.8887C30.7852 23.8184 30.5449 23.7246 30.2871 23.6074C30.0293 23.4902 29.7949 23.3906 29.584 23.3086C29.373 23.2266 29.1914 23.1445 29.0391 23.0625C28.8281 22.9688 28.6582 22.8281 28.5293 22.6406C28.4004 22.4531 28.3301 22.2422 28.3184 22.0078C28.3184 21.6914 28.4297 21.4277 28.6523 21.2168C28.875 21.0059 29.1445 20.8945 29.4609 20.8828C29.6016 20.8828 29.7832 20.9238 30.0059 21.0059C30.2285 21.0879 30.4629 21.1816 30.709 21.2871C30.9551 21.3926 31.1895 21.498 31.4121 21.6035C31.6348 21.709 31.8164 21.7852 31.957 21.832C32.168 21.9258 32.3379 22.0605 32.4668 22.2363C32.5957 22.4121 32.6602 22.623 32.6602 22.8691ZM27.8965 10.6875C27.5918 10.6875 27.3281 10.5762 27.1055 10.3535C26.8828 10.1309 26.7715 9.86719 26.7715 9.5625C26.7715 9.36328 26.8184 9.17578 26.9121 9C27.0059 8.82422 27.1348 8.68945 27.2988 8.5957L29.2324 7.43555C29.4316 7.31836 29.625 7.25977 29.8125 7.25977C30.1172 7.25977 30.3809 7.37109 30.6035 7.59375C30.8262 7.81641 30.9375 8.08008 30.9375 8.38477C30.9375 8.58398 30.8906 8.76562 30.7969 8.92969C30.7031 9.09375 30.5684 9.23438 30.3926 9.35156L28.4766 10.5293C28.3008 10.6348 28.1074 10.6875 27.8965 10.6875ZM21.9727 5.04492C21.9727 4.85742 22.0195 4.68164 22.1133 4.51758L23.2031 2.54883C23.2969 2.37305 23.4316 2.23242 23.6074 2.12695C23.7832 2.02148 23.9766 1.96875 24.1875 1.96875C24.4922 1.96875 24.7559 2.08008 24.9785 2.30273C25.2012 2.52539 25.3125 2.78906 25.3125 3.09375C25.3125 3.29297 25.2656 3.47461 25.1719 3.63867L24.082 5.60742C23.9883 5.7832 23.8535 5.92383 23.6777 6.0293C23.502 6.13477 23.3086 6.1875 23.0977 6.1875C22.793 6.1875 22.5293 6.07617 22.3066 5.85352C22.084 5.63086 21.9727 5.36133 21.9727 5.04492Z" fill="#0C66E4"/>
</svg>
