<svg width="138" height="33" viewBox="0 0 138 33" fill="none" xmlns="http://www.w3.org/2000/svg">
<path d="M0.667381 24.3274C0.502906 24.2324 0.368164 23.9995 0.368164 23.8105V8.32749C0.368164 8.1381 0.502906 7.90557 0.667381 7.81035L14.2481 0.0712809C14.4128 -0.0237603 14.6821 -0.0237603 14.8467 0.0712809L28.4266 7.81121C28.5913 7.90625 28.7259 8.13879 28.7259 8.32818V23.8111C28.7259 24 28.5913 24.2327 28.4266 24.3281L14.8467 32.0674C14.6821 32.1624 14.4128 32.1624 14.2481 32.0674L0.667381 24.3274ZM41.4822 9.86843V16.1484H44.1676C46.1165 16.1484 46.9827 15.3544 46.9827 14.0551V11.9617C46.9827 10.6626 46.1165 9.86843 44.1676 9.86843H41.4822ZM41.4822 18.1454V23.7517C41.4822 24.0884 41.3956 24.2327 41.0924 24.2327H39.7713C39.4898 24.2327 39.3815 24.0884 39.3815 23.7517V8.35276C39.3815 8.0159 39.4898 7.87137 39.7713 7.87137H44.1676C47.8924 7.87137 49.0834 9.60376 49.0834 11.5768V14.4402C49.0834 16.413 47.8924 18.1454 44.1676 18.1454H41.4822ZM53.9706 9.86843V15.7634H56.6558C58.6049 15.7634 59.4713 14.9934 59.4713 13.6701V11.9617C59.4713 10.6626 58.6049 9.86843 56.6558 9.86843H53.9706ZM53.9706 17.7605V23.7517C53.9706 24.0884 53.8838 24.2327 53.5806 24.2327H52.2596C51.9781 24.2327 51.8699 24.0884 51.8699 23.7517V8.35276C51.8699 8.0159 51.9781 7.87137 52.2596 7.87137H56.6558C60.3808 7.87137 61.5718 9.60376 61.5718 11.5768V14.0791C61.5718 15.5468 60.9005 16.8702 59.038 17.4478L61.6368 23.7517C61.745 24.0404 61.5501 24.2327 61.247 24.2327H59.9475C59.6443 24.2327 59.601 24.0404 59.4713 23.7517L57.0239 17.7605H53.9706ZM72.9563 11.7693C72.9563 10.47 72.0421 9.67595 69.9849 9.67595C67.9506 9.67595 67.0364 10.47 67.0364 11.7693V20.3348C67.0364 21.6343 67.9506 22.4281 69.9849 22.4281C72.0421 22.4281 72.9563 21.6343 72.9563 20.3348V11.7693ZM64.7963 11.3843C64.7963 9.41127 66.0764 7.67905 69.9849 7.67905C73.9163 7.67905 75.1966 9.41127 75.1966 11.3843V20.72C75.1966 22.693 73.9163 24.4254 69.9849 24.4254C66.0764 24.4254 64.7963 22.693 64.7963 20.72V11.3843ZM87.2652 7.87137C87.5624 7.87137 87.6995 7.99184 87.6995 8.32853V9.41127C87.6995 9.74813 87.5624 9.86843 87.2652 9.86843H83.6081V23.7517C83.6081 24.0884 83.4938 24.2327 83.1965 24.2327H81.7795C81.4823 24.2327 81.368 24.0884 81.368 23.7517V9.86843H77.7108C77.3909 9.86843 77.2766 9.74813 77.2766 9.41127V8.32853C77.2766 7.99184 77.3909 7.87137 77.7108 7.87137H87.2652ZM97.9174 11.7693C97.9174 10.47 97.0031 9.67595 94.9461 9.67595C92.9117 9.67595 91.9974 10.47 91.9974 11.7693V20.3348C91.9974 21.6343 92.9117 22.4281 94.9461 22.4281C97.0031 22.4281 97.9174 21.6343 97.9174 20.3348V11.7693ZM89.7573 11.3843C89.7573 9.41127 91.0373 7.67905 94.9461 7.67905C98.8775 7.67905 100.158 9.41127 100.158 11.3843V20.72C100.158 22.693 98.8775 24.4254 94.9461 24.4254C91.0373 24.4254 89.7573 22.693 89.7573 20.72V11.3843ZM113.388 23.7756C113.388 24.0884 113.302 24.2327 112.998 24.2327H111.807C111.591 24.2327 111.504 24.1605 111.418 24.0162L106.328 14.1034C105.852 13.2129 105.592 12.467 105.549 12.3708V23.7756C105.549 24.0884 105.44 24.2327 105.159 24.2327H103.946C103.665 24.2327 103.556 24.0884 103.556 23.7756V8.32853C103.556 8.0159 103.665 7.87137 103.946 7.87137H105.159C105.332 7.87137 105.44 7.94355 105.505 8.06385L110.724 18.1936C111.028 18.771 111.396 19.7333 111.396 19.7333V8.32853C111.396 8.0159 111.526 7.87137 111.807 7.87137H112.998C113.302 7.87137 113.388 8.0159 113.388 8.32853V23.7756ZM117.112 24.2327C116.831 24.2327 116.723 24.0884 116.723 23.7517V8.35276C116.723 8.0159 116.831 7.87137 117.112 7.87137H124.519C124.8 7.87137 124.93 7.99184 124.93 8.32853V9.41127C124.93 9.74813 124.8 9.86843 124.519 9.86843H118.823V14.7288H124.129C124.432 14.7288 124.562 14.8491 124.562 15.1859V16.2206C124.562 16.5334 124.432 16.6777 124.129 16.6777H118.823V22.2358H124.757C125.038 22.2358 125.168 22.3321 125.168 22.6688V23.7756C125.168 24.1126 125.038 24.2327 124.757 24.2327H117.112ZM137.105 7.87137C137.386 7.87137 137.516 7.99184 137.516 8.32853V9.41127C137.516 9.74813 137.386 9.86843 137.105 9.86843H133.64V23.7517C133.64 24.0884 133.531 24.2327 133.25 24.2327H131.907C131.626 24.2327 131.518 24.0884 131.518 23.7517V9.86843H128.053C127.749 9.86843 127.641 9.74813 127.641 9.41127V8.32853C127.641 7.99184 127.749 7.87137 128.053 7.87137H137.105Z" fill="#A5A6F6"/>
</svg>
