<svg width="138" height="29" viewBox="0 0 138 29" fill="none" xmlns="http://www.w3.org/2000/svg">
<path d="M25.4112 15.0697L25.4294 15.0712L27.325 15.2693C27.4581 15.2837 27.5803 15.3486 27.6667 15.4502L27.6808 15.4674L27.6628 15.4764C27.7513 15.5882 27.7904 15.7313 27.7708 15.8726C27.3566 19.1654 25.796 22.2071 23.3627 24.4638C20.8379 26.8055 17.5216 28.1065 14.0781 28.1065C12.4056 28.1092 10.7473 27.8013 9.18762 27.1986L9.10264 27.1654C8.97498 27.1182 8.87241 27.0212 8.81811 26.8971L8.80994 26.8773C8.75677 26.7537 8.75381 26.6147 8.80108 26.4894L9.54933 24.6639C9.65072 24.4058 9.93806 24.2758 10.1976 24.3673L10.2148 24.3737C14.0394 25.8505 18.3712 25.0188 21.377 22.2305C23.2902 20.4725 24.5239 18.0975 24.862 15.5214C24.8979 15.2554 25.1287 15.0619 25.3931 15.0689L25.4112 15.0697ZM70.1817 7.32205C71.7981 7.32205 73.0622 7.81521 73.8695 8.76233L73.8965 8.79442V7.99294C73.9074 7.76923 74.0806 7.58842 74.3017 7.56659L74.3197 7.56517H76.4765C76.6984 7.58051 76.8749 7.75517 76.8941 7.97502L76.8953 7.99294V19.9656C76.9651 21.6539 76.4462 23.3139 75.4274 24.662C74.2657 26.0758 72.5007 26.7917 70.1817 26.7917C66.9579 26.7917 64.4138 24.752 63.995 21.8387C63.9743 21.6284 64.1024 21.4328 64.3015 21.3669L64.3193 21.3614L66.4265 20.8661C66.4375 20.8637 66.4485 20.8616 66.4597 20.86C66.691 20.8261 66.9059 20.9861 66.9398 21.2174C67.1323 22.8515 68.5368 24.0707 70.1817 24.0315C72.6736 24.0315 73.846 22.765 73.8691 20.1182L73.8695 20.0376V18.9885C72.9354 20.0362 71.5846 20.6151 70.1817 20.569C66.5976 20.569 63.9996 17.7863 63.9996 13.959C63.9668 12.237 64.5731 10.5638 65.7016 9.26267C66.8477 8.00344 68.4792 7.29679 70.1817 7.32205ZM5.27135 21.8837L5.29807 21.8835L5.32489 21.8837C6.18522 21.8936 6.87793 22.5892 6.88728 23.4464L6.88735 23.4732C6.88735 23.4821 6.88724 23.4911 6.88709 23.5C6.8721 24.3777 6.14854 25.0771 5.27083 25.0622C4.39312 25.0472 3.69373 24.3237 3.70856 23.446C3.72324 22.5862 4.41787 21.8974 5.27135 21.8837ZM107.516 7.15546L107.627 7.15627C111.48 7.20948 113.867 9.89142 113.867 14.1841C113.867 14.4112 113.855 14.6382 113.831 14.864C113.811 15.0717 113.641 15.2319 113.434 15.2417L113.417 15.2422H104.258C104.314 17.1658 105.905 18.6877 107.829 18.6598C109.32 18.7535 110.68 17.8051 111.107 16.3725C111.185 16.1668 111.407 16.0562 111.616 16.1152L111.633 16.1203L113.461 16.7642C113.563 16.7967 113.645 16.8683 113.692 16.9624L113.7 16.9803C113.75 17.0795 113.759 17.1947 113.723 17.3C112.874 19.814 110.481 21.4775 107.829 21.3975C106.09 21.4148 104.416 20.7354 103.182 19.5108C101.835 18.0932 101.116 16.1925 101.187 14.2382C101.187 9.84739 104.343 7.2086 107.425 7.15626L107.516 7.15546ZM55.692 7.15546H55.6965C59.6185 7.15546 62.0544 9.84806 62.0544 14.1841C62.0541 14.4112 62.0421 14.6382 62.0184 14.864C62.0002 15.0728 61.8292 15.2341 61.6215 15.2419L61.6041 15.2422H52.4456C52.5021 17.1711 54.1004 18.6952 56.0298 18.6598C57.5222 18.7552 58.8823 17.8062 59.3078 16.3725C59.384 16.1652 59.6074 16.0538 59.8175 16.115L59.8345 16.1203L61.6626 16.7642C61.7695 16.7987 61.8564 16.8774 61.9013 16.9803C61.9441 17.0826 61.9441 17.1977 61.9013 17.3C61.0528 19.8124 58.6624 21.4755 56.0118 21.3975C54.2699 21.4172 52.5928 20.7376 51.3559 19.5108C50.0104 18.0921 49.2917 16.1922 49.3613 14.2382C49.3613 9.80304 52.5807 7.15546 55.692 7.15546ZM41.8238 7.15091C43.5843 7.15091 45.0071 7.57868 46.0608 8.42063C46.7732 8.98842 47.3012 9.75462 47.5782 10.6225L47.579 10.626C47.6152 10.7756 47.5273 10.9263 47.3814 10.9697L47.3666 10.9737L45.1828 11.6942C45.0858 11.7325 44.978 11.7325 44.8811 11.6942C44.7984 11.6555 44.7361 11.5834 44.71 11.4961L44.6983 11.4531C44.4994 10.742 43.8492 9.60039 41.8238 9.60039C40.3829 9.60039 39.5184 10.4289 39.5184 11.2304L39.5187 11.2621C39.5295 11.7833 39.8129 12.4375 41.0556 12.6862L41.0943 12.6937L43.4988 13.144C46.1555 13.6789 47.6869 15.1229 47.7173 17.1353L47.7177 17.1964L47.7088 17.1605L47.7082 17.2215C47.6695 19.2388 45.7184 21.3614 42.1254 21.3614C37.9154 21.3614 36.2629 18.9795 35.9567 17.5747C35.9367 17.4277 36.0264 17.2889 36.1666 17.2457L36.1818 17.2415L38.4332 16.5391C38.4735 16.5325 38.5146 16.5325 38.5548 16.5391C38.612 16.538 38.6686 16.5502 38.7203 16.5744L38.7394 16.5841C38.8221 16.6237 38.8831 16.6979 38.906 16.7867C39.1897 18.1375 40.4099 18.9435 42.166 18.9435C43.8004 18.9435 44.5434 18.088 44.5434 17.3135C44.5434 16.5476 43.8959 15.9798 42.7797 15.7453L42.7423 15.7376L40.2163 15.2468C37.8614 14.801 36.3935 13.3376 36.3935 11.433C36.3935 9.11408 38.8835 7.15091 41.8238 7.15091ZM132.634 3.40019H134.602C134.834 3.41413 135.016 3.60243 135.025 3.83306L135.025 3.85044V7.54717H137.393C137.624 7.56336 137.803 7.75083 137.812 7.97973L137.813 7.99742V9.9606L137.812 9.97769C137.806 10.1978 137.631 10.3766 137.411 10.3878L137.393 10.3884H135.025V16.9578C135.025 18.0474 135.457 18.4977 136.569 18.4977C136.794 18.4938 137.02 18.4767 137.243 18.4466L137.326 18.4346C137.449 18.4139 137.574 18.4485 137.668 18.5293C137.753 18.6081 137.804 18.7165 137.812 18.8318L137.813 18.8535V20.704C137.814 20.8926 137.691 21.0597 137.511 21.1138C136.992 21.259 136.457 21.3318 135.918 21.3306L135.845 21.3299C133.495 21.3299 132.029 19.8338 132 17.4141L132 17.3405V10.4154H129.951C129.727 10.4022 129.548 10.227 129.529 10.0057L129.527 9.98762V8.01541C129.527 7.78275 129.704 7.58911 129.933 7.56654L129.951 7.56517L130.501 7.5651L130.56 7.56405C131.203 7.54558 132.191 7.28499 132.211 5.84979L132.211 5.80457V3.85044C132.21 3.61777 132.388 3.42414 132.617 3.40156L132.634 3.40019ZM94.3906 7.15346L94.4422 7.15546H94.4376C96.7558 7.15546 99.0959 8.77059 99.1425 12.298L99.1432 12.4055V20.7446C99.1326 20.9683 98.9588 21.149 98.738 21.1709L98.7199 21.1723H96.5629C96.3396 21.1591 96.1609 20.9839 96.141 20.7626L96.1397 20.7446V12.6757L96.1393 12.6136C96.1262 11.5855 95.7768 9.93356 93.6591 9.93356C92.094 9.93356 90.9793 11.1516 90.9572 12.9235L90.9569 12.9774V20.7446C90.9463 20.9683 90.7733 21.149 90.5517 21.1709L90.5336 21.1723H88.3504C88.1263 21.1591 87.9476 20.9839 87.9284 20.7626L87.9272 20.7446V12.6757L87.9268 12.6136C87.9136 11.5855 87.5642 9.93356 85.4458 9.93356C83.8188 9.93356 82.7171 11.1427 82.6952 12.9495L82.6949 13.0044V20.7446C82.6836 20.9683 82.5105 21.149 82.2897 21.1709L82.2717 21.1723H80.1146C79.8928 21.157 79.7164 20.9823 79.6973 20.7625L79.6961 20.7446V7.96591C79.7066 7.74378 79.8775 7.5636 80.0968 7.53973L80.1146 7.53814H82.1906C82.4139 7.5513 82.5933 7.72656 82.6126 7.94787L82.6138 7.96591V8.73589C83.5475 7.71213 84.8751 7.13693 86.2606 7.15546C87.8654 7.10843 89.3629 7.95687 90.1467 9.35719C91.0803 7.93081 92.6897 7.09635 94.3906 7.15346ZM126.686 8.74484C127.513 9.83343 127.939 11.1723 127.895 12.537L127.893 12.5946V20.7446C127.882 20.9667 127.711 21.1469 127.492 21.1708L127.474 21.1723H125.291C125.067 21.1591 124.888 20.9839 124.868 20.7626L124.867 20.7446V13.0315C124.867 11.0142 123.917 9.98762 122.116 9.98762C121.32 9.9619 120.56 10.3163 120.067 10.9422C119.59 11.6292 119.344 12.4491 119.363 13.284L119.365 13.3331V20.7446C119.354 20.9683 119.181 21.149 118.96 21.1709L118.942 21.1723H116.762C116.539 21.1591 116.36 20.9839 116.34 20.7626L116.339 20.7446V7.95687C116.35 7.73316 116.523 7.55243 116.744 7.53053L116.762 7.5291H118.892C119.114 7.54444 119.291 7.71918 119.31 7.93896L119.311 7.95687V8.85744C120.224 7.75059 121.595 7.12341 123.03 7.15546C124.428 7.09569 125.776 7.68178 126.686 8.74484ZM1.18687 15.616H16.6897C16.9746 15.6184 17.2047 15.8465 17.2119 16.1292L17.2121 16.1473V18.088C17.2144 18.3729 16.9902 18.6069 16.7078 18.6188L16.6896 18.6193H1.18687C0.901934 18.6169 0.671864 18.3887 0.664551 18.1061V18.088V16.1473V16.1292C0.671712 15.8527 0.892109 15.6284 1.16837 15.6165L1.18687 15.616ZM70.5555 10.0146C68.4302 10.0146 67.0794 11.5276 67.0794 13.959C67.0794 16.3905 68.4122 17.8988 70.5555 17.8988C72.5997 17.8988 73.9775 16.3139 73.9775 13.959C73.9775 11.5995 72.5997 10.0146 70.5555 10.0146ZM52.5415 12.6454L52.5357 12.6937H58.943C58.787 10.982 57.5807 9.91459 55.774 9.89341L55.7191 9.89309C54.1271 9.8672 52.7714 11.0316 52.5479 12.5978L52.5415 12.6454ZM104.372 12.6454L104.366 12.6937H110.774C110.618 10.982 109.411 9.91459 107.605 9.89341L107.55 9.89309C105.958 9.8672 104.602 11.0316 104.378 12.5978L104.372 12.6454ZM18.6303 0.8066C18.7646 0.855023 18.8734 0.95573 18.932 1.08578C18.9858 1.21707 18.9858 1.36427 18.932 1.49549L18.2566 3.29663C18.163 3.56369 17.871 3.70463 17.6037 3.6118C14.0654 2.37706 10.1392 3.07861 7.24752 5.46237C5.44537 6.97081 4.16576 9.01005 3.59133 11.2889C3.53186 11.519 3.32466 11.6799 3.08702 11.6806H2.96994L1.11482 11.2349C0.976499 11.2024 0.857721 11.1144 0.786129 10.9917H0.777093C0.702026 10.869 0.680866 10.7208 0.718631 10.582C1.45532 7.66487 3.1037 5.059 5.4239 3.14348C9.1133 0.106131 14.1227 -0.780307 18.6303 0.8066ZM11.7637 8.5873H27.2665C27.5444 8.58956 27.7715 8.8069 27.788 9.08213L27.7888 9.10056V11.0413C27.7912 11.3262 27.5671 11.5602 27.2846 11.5721L27.2665 11.5726H11.7637C11.4807 11.5678 11.2532 11.3405 11.246 11.0596L11.2459 11.0413V9.11856C11.2434 8.83549 11.4648 8.60235 11.7453 8.58792L11.7637 8.5873ZM22.5257 2.66618L22.5524 2.66597L22.5792 2.6662C23.4396 2.67606 24.1323 3.37172 24.1416 4.22882L24.1417 4.25566C24.1417 4.26462 24.1416 4.27358 24.1414 4.28246C24.1265 5.16017 23.4029 5.85956 22.5252 5.84465C21.6475 5.82975 20.9481 5.10611 20.963 4.22848C20.9776 3.3686 21.6723 2.67992 22.5257 2.66618Z" fill="#4FB58B"/>
</svg>
