<svg width="138" height="18" viewBox="0 0 138 18" fill="none" xmlns="http://www.w3.org/2000/svg">
<path d="M59.7633 11.7542H68.8258L64.0339 4.04474L55.2391 17.9838H51.2364L61.9338 1.24002C62.399 0.563504 63.1741 0.154785 64.0339 0.154785C64.8654 0.154785 65.6406 0.549418 66.0916 1.21184L76.8313 17.9838H72.8286L70.94 14.869H61.7647L59.7633 11.7542ZM101.341 14.869V0.323914H97.9442V16.2925C97.9442 16.7294 98.1134 17.1522 98.4375 17.4764C98.7617 17.8006 99.1986 17.9838 99.6778 17.9838H115.167L117.169 14.869H101.341ZM45.1478 12.2616C48.4459 12.2616 51.1237 9.59782 51.1237 6.2998C51.1237 3.00179 48.4459 0.323914 45.1478 0.323914H30.2883V17.9838H33.6837V3.43871H44.9223C46.5009 3.43871 47.7693 4.72126 47.7693 6.2998C47.7693 7.87834 46.5009 9.16091 44.9223 9.16091L35.3468 9.14681L45.486 17.9838H50.419L43.5975 12.2616H45.1478ZM9.38691 17.9838C4.51172 17.9838 0.555481 14.0375 0.555481 9.16091C0.555481 4.28435 4.51172 0.323914 9.38691 0.323914H19.6516C24.5281 0.323914 28.4815 4.28435 28.4815 9.16091C28.4815 14.0375 24.5281 17.9838 19.6516 17.9838H9.38691ZM19.4232 14.869C22.5818 14.869 25.1398 12.318 25.1398 9.16091C25.1398 6.00383 22.5818 3.43871 19.4232 3.43871H9.61378C6.4567 3.43871 3.89716 6.00383 3.89716 9.16091C3.89716 12.318 6.4567 14.869 9.61378 14.869H19.4232ZM83.9206 17.9838C79.044 17.9838 75.0836 14.0375 75.0836 9.16091C75.0836 4.28435 79.044 0.323914 83.9206 0.323914H96.112L94.1247 3.43871H84.1461C80.989 3.43871 78.424 6.00383 78.424 9.16091C78.424 12.318 80.989 14.869 84.1461 14.869H96.3938L94.3925 17.9838H83.9206ZM125.456 14.869C122.848 14.869 120.636 13.1213 119.959 10.7112H134.476L136.477 7.59645H119.959C120.636 5.20046 122.848 3.43871 125.456 3.43871H135.42L137.436 0.323914H125.23C120.354 0.323914 116.393 4.28435 116.393 9.16091C116.393 14.0375 120.354 17.9838 125.23 17.9838H135.702L137.704 14.869H125.456Z" fill="#EA1B22"/>
</svg>
