<svg width="139" height="26" viewBox="0 0 139 26" fill="none" xmlns="http://www.w3.org/2000/svg">
<path d="M3.8061 20.3182C2.7774 20.3204 1.82706 19.7689 1.31858 18.8747C0.817426 17.9859 0.847479 16.8932 1.39672 16.0334L6.51936 7.98907C7.05314 7.1089 8.01921 6.58399 9.04813 6.61508C10.0763 6.63972 11.0115 7.21619 11.4955 8.12365C11.973 9.02663 11.9133 10.113 11.3414 10.9606L6.22199 19.0049C5.69436 19.8271 4.78302 20.3225 3.8061 20.3182Z" fill="#F62B54"/>
<path d="M12.5929 20.3178C11.5597 20.3178 10.609 19.7654 10.1097 18.8776C9.6097 17.9913 9.63975 16.9013 10.1879 16.0439L15.3008 8.01802C15.8268 7.12521 16.7958 6.58798 17.8317 6.61472C18.8736 6.63751 19.8178 7.22032 20.2953 8.13198C20.7696 9.04364 20.7002 10.1365 20.1108 10.982L14.999 19.0078C14.4731 19.8265 13.5659 20.3203 12.5929 20.3178Z" fill="#FFCC00"/>
<path d="M21.183 20.3861C22.6395 20.3861 23.8203 19.2301 23.8203 17.8041C23.8203 16.3781 22.6395 15.2222 21.183 15.2222C19.7265 15.2222 18.5457 16.3781 18.5457 17.8041C18.5457 19.2301 19.7265 20.3861 21.183 20.3861Z" fill="#00CA72"/>
<path d="M135.754 15.3707C136.551 15.3707 137.027 15.9373 137.027 16.8652V20.0451H138.109V16.7925C138.109 15.2144 137.366 14.2995 135.968 14.2995C135.421 14.2995 134.553 14.4493 134.035 15.4554C133.79 14.8508 133.232 14.4297 132.584 14.3592C132.383 14.3225 132.179 14.3105 131.976 14.3234C131.531 14.3592 130.739 14.636 130.442 15.2633V14.42H129.359V20.0451H130.442V17.0095C130.442 15.8287 131.215 15.3707 131.989 15.3707C132.714 15.3707 133.19 15.9253 133.19 16.8533V20.0451H134.267V17.0095C134.267 16.0697 134.831 15.3599 135.754 15.3707ZM125.384 19.1053C125.879 19.1161 126.356 18.9186 126.703 18.5604C127.05 18.2023 127.234 17.715 127.216 17.2147C127.216 16.0816 126.382 15.3707 125.384 15.3707C124.384 15.3707 123.552 16.0816 123.552 17.2147C123.532 17.7139 123.717 18.2001 124.062 18.5572C124.407 18.9153 124.882 19.1139 125.375 19.1053H125.384ZM125.384 20.1602C123.801 20.1602 122.481 18.9913 122.481 17.2081C122.481 15.425 123.801 14.293 125.384 14.293C126.966 14.293 128.298 15.425 128.298 17.2081C128.298 18.9913 126.959 20.1656 125.376 20.1656L125.384 20.1602ZM116.908 17.2081L116.897 17.2147C116.897 15.4315 118.252 14.2995 119.846 14.293C120.655 14.2774 121.433 14.6055 121.987 15.196L121.166 15.8949C120.814 15.5493 120.339 15.3586 119.846 15.3653C118.847 15.3653 117.979 16.0762 117.979 17.2081C117.979 17.9733 118.434 18.6625 119.131 18.9555C119.829 19.2485 120.632 19.0857 121.166 18.5452L121.999 19.2442C121.443 19.8408 120.661 20.1737 119.846 20.1602C118.264 20.1602 116.908 18.9913 116.908 17.2081ZM113.442 18.9653C113.44 18.7666 113.517 18.5752 113.655 18.4332C113.794 18.2911 113.984 18.21 114.182 18.2077C114.381 18.21 114.571 18.2911 114.709 18.4332C114.848 18.5752 114.925 18.7666 114.923 18.9653C114.903 19.3606 114.578 19.6721 114.182 19.6761C113.787 19.6721 113.462 19.3606 113.442 18.9653Z" fill="#333333"/>
<path d="M116.403 7.26952H112.549L109.848 14.2339L107.161 7.26952H103.307L107.992 18.2745L105.078 25.5504H108.904L116.403 7.26952ZM92.965 13.3906C92.965 15.1488 94.5018 16.3058 96.0114 16.3058C97.4951 16.3058 98.9526 15.2292 98.9526 13.3896C98.9526 11.55 97.4951 10.4723 96.0114 10.4723C94.5018 10.4723 92.965 11.6303 92.965 13.3896V13.3906ZM98.9526 19.5356V18.1432C98.1712 19.3262 96.3479 19.7733 95.4124 19.7733C92.3149 19.7733 89.2163 17.3314 89.2163 13.3896C89.2163 9.44881 92.3138 7.00688 95.4124 7.00688C96.1927 7.00688 98.016 7.26735 98.9526 8.63483V7.27386H102.545V19.5378L98.9526 19.5367V19.5356ZM88.194 19.5356H84.6016V18.0119C84.0015 19.1406 82.5461 19.7983 81.0353 19.7983C77.9107 19.7983 75.1508 17.3032 75.1508 13.4395C75.1508 9.50308 77.9107 7.0047 81.0353 7.0047C82.5439 7.0047 84.0036 7.63418 84.6016 8.76399V0.588379H88.194V19.5356ZM84.5235 13.3624C84.5235 11.5239 83.1962 10.4462 81.7125 10.4462C80.1758 10.4462 78.8994 11.6021 78.8994 13.3624C78.8994 15.1792 80.1757 16.3297 81.7115 16.3297C83.2233 16.3318 84.5235 15.1228 84.5235 13.3624ZM66.2686 13.0455C66.2686 11.181 67.2324 10.5504 68.5076 10.5504C69.7308 10.5504 70.6164 11.3644 70.6164 12.9923V19.5335H74.2348V12.2055C74.2348 8.71298 72.5157 7.0047 69.7818 7.0047C68.3503 7.0047 66.9187 7.81868 66.2676 9.05376V7.26952H62.6513V19.5335H66.2686V13.0455ZM55.3038 19.744C51.8677 19.744 49.0014 17.2229 49.0014 13.3613C49.0014 9.49765 51.8645 7.00145 55.3038 7.00145C58.7431 7.00145 61.6311 9.49765 61.6311 13.3613C61.6311 17.225 58.7399 19.7451 55.3038 19.7451V19.744ZM55.3038 16.1734C56.8124 16.1734 58.0637 15.0685 58.0637 13.3624C58.0637 11.7073 56.8135 10.5775 55.3038 10.5775C54.5692 10.566 53.8621 10.8568 53.3481 11.3817C52.8312 11.9094 52.5504 12.6241 52.5699 13.3624C52.571 15.0707 53.8202 16.1734 55.3038 16.1734ZM42.5146 10.5515C43.5814 10.5515 44.5191 11.3926 44.5191 12.9934V19.5356H48.1115V12.5702C48.1115 8.86709 46.311 7.00253 43.4251 7.00253C42.5677 7.00253 40.9528 7.26301 39.7807 9.18183C39.1034 7.76333 37.8022 7.0275 35.879 7.0275C34.5153 7.02056 33.2735 7.81165 32.7034 9.05051V7.2706H29.0828V19.5346H32.7001V13.0455C32.7001 11.181 33.716 10.5504 34.8089 10.5504C35.8508 10.5504 36.7863 11.3644 36.8135 12.9142V19.5346H40.4319V13.0455C40.4319 11.2624 41.3696 10.5526 42.5146 10.5526V10.5515Z" fill="#333333"/>
</svg>
