<svg width="138" height="22" viewBox="0 0 138 22" fill="none" xmlns="http://www.w3.org/2000/svg">
<path d="M130.472 9.79236V12.6518H132.481V15.4889C132.487 15.7062 132.477 15.9381 132.447 16.1377L132.43 16.2346C132.427 16.2562 132.423 16.2784 132.418 16.3012L132.402 16.371C132.399 16.3828 132.396 16.3948 132.392 16.4069L132.369 16.4805C132.188 17.0029 131.644 17.6649 130.421 17.6649C129.119 17.6649 128.596 16.9049 128.453 16.371L128.437 16.3012L128.424 16.2346C128.388 16.0158 128.373 15.7424 128.373 15.4889V6.52805C128.373 6.24631 128.39 5.94089 128.44 5.69208L128.475 5.54088C128.477 5.53041 128.48 5.51976 128.483 5.50896L128.502 5.44237C128.505 5.43099 128.509 5.41948 128.513 5.40784L128.538 5.33666C128.724 4.84156 129.215 4.18217 130.411 4.18217C131.333 4.18217 131.83 4.55819 132.096 4.94683L132.143 5.01976C132.158 5.04405 132.172 5.06832 132.185 5.09245L132.222 5.16437L132.255 5.23499L132.283 5.30378L132.307 5.3702L132.328 5.43373L132.345 5.49382L132.359 5.54995L132.371 5.60158C132.376 5.62726 132.38 5.65452 132.385 5.68286L132.396 5.77064C132.398 5.78564 132.4 5.80079 132.401 5.81602L132.413 5.95365L132.422 6.08565L132.428 6.26563L132.43 6.35787V7.44597H137.368L137.369 6.76862L137.372 6.52638L137.371 6.3386L137.367 6.11995L137.363 6.00224L137.354 5.81877L137.341 5.63082L137.33 5.50516C136.996 2.19501 134.508 0.921454 131.481 0.699845L131.278 0.686618L131.074 0.676444C130.972 0.672109 130.869 0.668894 130.766 0.666763L130.558 0.663936C130.524 0.663585 130.489 0.663585 130.454 0.663585L130.246 0.665005C130.211 0.66548 130.177 0.666075 130.142 0.666792L129.936 0.672558L129.731 0.681302L129.528 0.693085L129.327 0.707972C129.26 0.713459 129.193 0.719473 129.127 0.726026L128.929 0.74731C128.896 0.75113 128.863 0.755087 128.831 0.759183L128.636 0.78543C128.184 0.850602 127.748 0.943444 127.336 1.06757L127.161 1.1227C125.247 1.75037 123.857 3.08486 123.572 5.50516L123.542 5.77382L123.522 5.98184L123.503 6.19992L123.487 6.41689C123.479 6.55867 123.473 6.69226 123.473 6.80272L123.473 15.1515L123.475 15.2552L123.479 15.4127L123.484 15.5231L123.491 15.641L123.499 15.7692L123.511 15.9105L123.533 16.1529L123.551 16.3388C123.828 19.4148 126.16 20.7832 129.012 21.106L129.212 21.1269C129.547 21.1588 129.888 21.1768 130.233 21.1819L130.44 21.1834L130.649 21.1819C130.996 21.1768 131.339 21.1588 131.674 21.1269L131.875 21.106C134.737 20.7832 137.053 19.4148 137.335 16.3388L137.358 16.0676L137.375 15.8381L137.39 15.5809L137.399 15.3594L137.407 15.0458V9.79236H130.472ZM96.4252 1.19102H91.4665V15.6956C91.4743 15.9484 91.4665 16.2323 91.423 16.4406L91.4084 16.5037L91.3903 16.5709C91.3836 16.5939 91.3764 16.6175 91.3684 16.6415L91.3425 16.7151C91.1554 17.2138 90.6788 17.8645 89.5388 17.8645C88.4697 17.8645 87.9816 17.2772 87.7771 16.7909L87.7472 16.7151C87.7425 16.7026 87.7381 16.6903 87.7339 16.678L87.7105 16.6058L87.6912 16.5368C87.6883 16.5256 87.6855 16.5145 87.6829 16.5037L87.6692 16.4406C87.6196 16.2323 87.6134 15.9484 87.6196 15.6956V1.19102H82.6625V15.2455L82.6616 15.3584L82.6634 15.556L82.6703 15.8467L82.6839 16.2L82.6934 16.3779L82.6998 16.4723L82.7061 16.5418C82.949 19.142 84.4745 20.4955 86.6288 21.0618L86.8123 21.1078C87.2132 21.2035 87.6345 21.2732 88.0723 21.3197L88.2755 21.3396L88.4809 21.3562L88.6885 21.3697C88.7928 21.3756 88.898 21.3804 89.0038 21.3841L89.2164 21.3899L89.4309 21.3928C89.4668 21.3932 89.5028 21.3932 89.5388 21.3932L89.7546 21.3917C89.7904 21.3912 89.8261 21.3906 89.8618 21.3899L90.0748 21.3841C90.1808 21.3804 90.2861 21.3756 90.3906 21.3697L90.5986 21.3562L90.8043 21.3396L91.0078 21.3197C93.908 21.0117 96.0835 19.6914 96.3831 16.5418L96.3871 16.5105L96.3952 16.4279L96.4072 16.2634L96.4179 16.0642L96.4238 15.9203L96.4299 15.6995L96.4316 15.556L96.431 15.4212L96.4278 15.2997C96.4271 15.2808 96.4262 15.2627 96.4252 15.2455V1.19102ZM50.8644 1.19102L48.3908 16.5171L45.9188 1.19102H37.9202L37.496 20.7975H42.3962L42.5289 2.64719L45.9004 20.7975H50.8722L54.2468 2.64719L54.3799 20.7975H59.2925L58.8539 1.19102H50.8644ZM21.2497 1.19102L17.6179 20.7975H22.9141L25.651 2.64719L28.3221 20.7975H33.5816L29.9649 1.19102H21.2497ZM113.755 16.9765L109.137 1.19102H101.862V20.5931H106.675L106.395 4.30251L111.354 20.5931H118.332V1.19102H113.487L113.755 16.9765ZM69.2342 6.29367C69.1471 5.90646 69.1723 5.49509 69.2173 5.28009C69.2301 5.22303 69.2452 5.1655 69.2629 5.10806L69.2917 5.02203C69.4873 4.47849 69.9449 3.96792 70.9942 3.96792C72.1267 3.96792 72.7905 4.67385 72.7905 5.73325V6.93213H77.6243V5.56558C77.6243 2.48169 75.606 1.29538 73.4493 0.879595L73.2718 0.847133L73.0939 0.818002L72.9158 0.792062L72.7378 0.769176L72.5601 0.749203L72.3829 0.732006C72.324 0.72672 72.2652 0.721874 72.2065 0.717443L72.0311 0.705378L71.857 0.69567L71.6843 0.688181L71.5133 0.682771L71.3442 0.679302L71.0947 0.677432L70.9847 0.677819L70.766 0.68094C70.7297 0.681723 70.6935 0.682638 70.6574 0.683686L70.4415 0.691581C70.3699 0.694752 70.2986 0.698464 70.2277 0.702726L70.016 0.71717C67.0671 0.942746 64.7658 2.15405 64.3055 4.99459C64.1693 5.85963 64.1356 6.6275 64.3523 7.60734C64.6935 9.21749 66.0349 10.3633 67.5746 11.3243L67.8129 11.4707C67.8529 11.4949 67.8929 11.519 67.9331 11.5429L68.1749 11.6854L68.4182 11.8255L68.6624 11.9636L69.0289 12.1671L69.9918 12.6948L70.2257 12.8245L70.4557 12.9538L70.6809 13.0829L70.9009 13.212C71.9503 13.8365 72.7911 14.4699 73.0937 15.2271C73.2611 15.6769 73.2245 16.244 73.1435 16.6058L73.1297 16.6641C73.1097 16.7511 73.0845 16.8381 73.0529 16.9237L73.019 17.0087C72.7963 17.529 72.3095 17.9725 71.24 17.9725C70.0199 17.9725 69.2856 17.2711 69.2856 16.214L69.2841 14.3323H64.0812V15.828C64.0812 19.3386 66.3085 20.8635 69.0979 21.3163L69.3056 21.3479C69.4446 21.3676 69.585 21.3849 69.7264 21.3996L69.9393 21.4199C70.1886 21.4415 70.4408 21.4558 70.6949 21.4633L70.9132 21.4681C70.9496 21.4686 70.9861 21.469 71.0226 21.4693L71.1322 21.4697C71.2052 21.4697 71.2779 21.4692 71.3503 21.4681L71.5666 21.4634C71.6025 21.4623 71.6384 21.4612 71.6741 21.4598L71.8878 21.4503C71.9587 21.4465 72.0293 21.4423 72.0995 21.4374L72.3092 21.4213C72.4483 21.4094 72.5859 21.3952 72.7221 21.3788L72.9251 21.3524L73.1256 21.3225C73.1921 21.3119 73.2581 21.3008 73.3237 21.289L73.5191 21.2519C75.8804 20.7788 77.6373 19.496 77.9901 17.0294C78.0387 16.6615 78.0686 16.3218 78.0847 16.0112L78.0934 15.8085C78.0945 15.7755 78.0955 15.7428 78.0964 15.7104L78.0996 15.5208V15.34L78.0966 15.1681L78.091 15.0051L78.0831 14.8511C78.0816 14.8262 78.08 14.8017 78.0784 14.7775L78.0676 14.6372L78.0554 14.5061L78.042 14.3842L78.0205 14.2188L77.9982 14.0746L77.9691 13.9157L77.9556 13.8507C77.6152 12.1433 76.1204 10.9374 74.4598 9.94469L74.2215 9.8043L73.9817 9.66662L73.7408 9.53148L73.3791 9.33309L72.8994 9.07568L72.0814 8.64056L71.7448 8.45843C71.7079 8.4383 71.6714 8.4182 71.635 8.39813L71.4196 8.278L71.2103 8.15835C70.18 7.56096 69.4012 6.9744 69.2342 6.29367ZM5.4705 6.24558C5.38152 5.87502 5.39543 5.48522 5.44108 5.25871L5.45998 5.1739L5.48142 5.08998C5.64472 4.50124 6.09119 3.89441 7.24515 3.89441C8.39191 3.89441 9.06713 4.60713 9.06713 5.6751V6.88857H13.9575V5.5112C13.9575 2.56832 12.1268 1.3324 10.081 0.848937L9.90262 0.80877C9.75358 0.77684 9.60365 0.748715 9.45345 0.724033L9.27312 0.696044L9.09277 0.67122L8.91264 0.649423L8.73296 0.630512C8.67316 0.624674 8.61349 0.619294 8.55396 0.614348L8.37589 0.600792L8.19898 0.589704L8.02346 0.580945L7.84957 0.574375L7.67755 0.569855L7.42354 0.566406H7.34006C7.26674 0.566406 7.19371 0.566919 7.12097 0.567952L6.90367 0.572621C6.75942 0.576787 6.61643 0.583068 6.47481 0.591532L6.26344 0.605873C6.22839 0.608538 6.19343 0.611343 6.15856 0.614286L5.95048 0.633631C5.8815 0.640642 5.8129 0.64822 5.7447 0.656373L5.54133 0.682563C5.37288 0.705839 5.20703 0.732758 5.04403 0.76345L4.84981 0.802099L4.65841 0.844421L4.46994 0.890464C4.40762 0.906438 4.3458 0.92304 4.28449 0.940279L4.10215 0.993915C2.20423 1.57733 0.836481 2.80092 0.491216 4.9241C0.34872 5.80299 0.3243 6.57614 0.530238 7.56681C0.892803 9.27878 2.37152 10.471 4.02585 11.4728L4.2691 11.6181C4.30981 11.6421 4.3506 11.6659 4.39145 11.6897L4.63723 11.8314L5.00732 12.0399L5.49999 12.3117L6.22669 12.7099L6.57972 12.9064L6.9229 13.1022L7.14514 13.2328C7.1817 13.2545 7.21801 13.2763 7.25405 13.2981L7.46703 13.4291C8.37527 13.998 9.0866 14.5839 9.36118 15.2709C9.54102 15.7176 9.49896 16.2845 9.41398 16.6581L9.39945 16.7185C9.37846 16.8045 9.35269 16.8905 9.32083 16.9752L9.28688 17.0594C9.05842 17.5889 8.56812 18.043 7.48457 18.043C6.25977 18.043 5.52715 17.3295 5.52715 16.2578L5.52035 14.3711H0.259094V15.8703C0.259094 20.0786 3.43198 21.4618 6.94583 21.5657L7.16587 21.5706L7.38664 21.5722L7.60494 21.5706C7.71367 21.5691 7.82176 21.5663 7.92915 21.5624L8.143 21.553C8.24944 21.5474 8.35516 21.5407 8.46009 21.5327L8.66889 21.5151L8.8755 21.4941C8.944 21.4865 9.01212 21.4784 9.07984 21.4697L9.2818 21.4419C9.34872 21.4321 9.41522 21.4216 9.4813 21.4106L9.67823 21.3757C12.1235 20.9179 13.9458 19.6208 14.3128 17.0838C14.3633 16.7214 14.3949 16.3861 14.4126 16.0788L14.4223 15.8781L14.4283 15.6858C14.4297 15.6231 14.4305 15.5618 14.4308 15.5019L14.4301 15.3265L14.4267 15.1596L14.4207 15.0014L14.4127 14.8518L14.4028 14.7109L14.3914 14.5788L14.3723 14.3973L14.3517 14.2359L14.3238 14.0523L14.2921 13.8744C13.9528 12.1872 12.5027 10.9869 10.8711 9.99971L10.6312 9.85673C10.591 9.83314 10.5507 9.80967 10.5104 9.78632L10.2678 9.64754L10.0242 9.51133L9.7803 9.37749L9.5367 9.24584L8.46189 8.67531L8.11818 8.4911L7.89497 8.3694L7.67727 8.24835L7.46571 8.12778C7.431 8.10771 7.39657 8.08765 7.36244 8.0676L7.16133 7.94737C6.27329 7.40644 5.6212 6.86524 5.4705 6.24558Z" fill="#1428A0"/>
</svg>
