<svg width="365" height="244" viewBox="0 0 365 244" fill="none" xmlns="http://www.w3.org/2000/svg">
<path d="M107.012 59.6644L52.4062 96.2912L106.19 176.917L160.797 140.29L107.012 59.6644Z" fill="#F5F5F5"/>
<path d="M132.578 136.474L131.958 140.32L104.812 136.398L105.432 132.552L132.578 136.474Z" fill="#E0E0E0"/>
<path d="M118.905 122.754L122.8 123.318L118.482 150.117L114.586 149.555L118.905 122.754Z" fill="#E0E0E0"/>
<path d="M93.905 88.6915C93.9439 88.7501 88.4713 92.4887 81.6838 97.0412C74.8938 101.595 69.3595 105.239 69.3205 105.18C69.2816 105.122 74.7527 101.384 81.5431 96.8299C88.3307 92.2774 93.866 88.6335 93.905 88.6915Z" fill="#E0E0E0"/>
<path d="M113.992 83.6369C114.031 83.6954 104.931 89.8672 93.669 97.42C82.4032 104.976 73.2422 111.052 73.2032 110.993C73.1643 110.935 82.2625 104.764 93.5279 97.2087C104.789 89.6559 113.953 83.5788 113.992 83.6369Z" fill="#E0E0E0"/>
<path d="M118.015 89.6715C118.054 89.7301 108.954 95.9018 97.6925 103.455C86.4266 111.01 77.2656 117.086 77.2267 117.028C77.1878 116.969 86.286 110.799 97.5513 103.243C108.813 95.6905 117.976 89.6134 118.015 89.6715Z" fill="#E0E0E0"/>
<path d="M122.039 95.7066C122.078 95.7652 112.977 101.937 101.716 109.49C90.4501 117.045 81.2891 123.121 81.2501 123.063C81.2112 123.005 90.3094 116.834 101.575 109.278C112.837 101.725 122 95.648 122.039 95.7066Z" fill="#E0E0E0"/>
<path d="M126.062 101.741C126.101 101.8 117.001 107.971 105.739 115.524C94.4735 123.08 85.3125 129.156 85.2736 129.098C85.2346 129.039 94.3329 122.869 105.598 115.313C116.86 107.76 126.023 101.683 126.062 101.741Z" fill="#E0E0E0"/>
<path d="M289.61 113.692L243.75 144.452L288.92 212.164L334.779 181.404L289.61 113.692Z" fill="#F5F5F5"/>
<path d="M311.084 178.208L310.564 181.437L287.766 178.144L288.286 174.914L311.084 178.208Z" fill="#E0E0E0"/>
<path d="M299.604 166.686L302.875 167.159L299.248 189.666L295.977 189.193L299.604 166.686Z" fill="#E0E0E0"/>
<path d="M278.6 138.079C278.639 138.137 274.048 141.284 268.348 145.108C262.645 148.932 257.992 151.985 257.953 151.926C257.914 151.868 262.504 148.721 268.207 144.896C273.907 141.073 278.561 138.021 278.6 138.079Z" fill="#E0E0E0"/>
<path d="M295.466 133.833C295.505 133.892 287.868 139.082 278.41 145.426C268.949 151.771 261.25 156.867 261.211 156.808C261.172 156.749 268.808 151.56 278.269 145.215C287.727 138.872 295.427 133.775 295.466 133.833Z" fill="#E0E0E0"/>
<path d="M298.849 138.902C298.888 138.96 291.251 144.151 281.793 150.494C272.331 156.84 264.633 161.935 264.594 161.876C264.555 161.818 272.191 156.628 281.652 150.283C291.109 143.939 298.81 138.843 298.849 138.902Z" fill="#E0E0E0"/>
<path d="M302.232 143.97C302.271 144.028 294.633 149.219 285.176 155.562C275.714 161.908 268.016 167.003 267.977 166.944C267.938 166.886 275.574 161.696 285.035 155.351C294.492 149.008 302.193 143.912 302.232 143.97Z" fill="#E0E0E0"/>
<path d="M305.607 149.038C305.646 149.097 298.008 154.287 288.55 160.631C279.089 166.976 271.391 172.071 271.352 172.013C271.313 171.955 278.949 166.765 288.41 160.419C297.867 154.076 305.568 148.98 305.607 149.038Z" fill="#E0E0E0"/>
<path d="M217.054 62.6241L167.016 35.7897L127.611 109.671L177.649 136.505L217.054 62.6241Z" fill="#F5F5F5"/>
<path d="M169.084 113.396L165.91 114.486L157.852 92.1481L161.027 91.0579L169.084 113.396Z" fill="#E0E0E0"/>
<path d="M173.952 97.3701L175.108 100.576L152.984 108.173L151.828 104.968L173.952 97.3701Z" fill="#E0E0E0"/>
<path d="M189.669 64.4125C189.629 64.4862 184.554 61.8408 178.334 58.5053C172.112 55.1684 167.101 52.4048 167.141 52.3311C167.18 52.2579 172.254 54.9024 178.476 58.2389C184.696 61.5748 189.708 64.3393 189.669 64.4125Z" fill="#E0E0E0"/>
<path d="M201.681 77.7028C201.641 77.7765 193.242 73.3484 182.923 67.8144C172.6 62.2781 164.265 57.7324 164.305 57.6587C164.344 57.5855 172.742 62.0121 183.065 67.5485C193.384 73.0824 201.72 77.6291 201.681 77.7028Z" fill="#E0E0E0"/>
<path d="M198.728 83.2328C198.688 83.3065 190.289 78.8784 179.97 73.344C169.646 67.8076 161.312 63.2619 161.352 63.1882C161.391 63.115 169.789 67.5417 180.112 73.078C190.431 78.6119 198.767 83.1591 198.728 83.2328Z" fill="#E0E0E0"/>
<path d="M195.775 88.7623C195.735 88.836 187.336 84.4079 177.016 78.8735C166.693 73.3376 158.359 68.7914 158.399 68.7177C158.438 68.644 166.835 73.0711 177.159 78.6075C187.478 84.1419 195.814 88.6891 195.775 88.7623Z" fill="#E0E0E0"/>
<path d="M192.829 94.2923C192.79 94.366 184.391 89.9379 174.071 84.4035C163.748 78.8676 155.414 74.3214 155.453 74.2477C155.493 74.1745 163.89 78.6012 174.213 84.1375C184.533 89.6719 192.868 94.2191 192.829 94.2923Z" fill="#E0E0E0"/>
<path opacity="0.2" d="M193.093 0H191.836V21.4637H193.093V0Z" fill="black"/>
<path d="M163.148 47.4282H221.773C221.773 47.4282 216.36 21.4505 192.017 21.4505C170.363 21.45 163.148 47.4282 163.148 47.4282Z" fill="#CD2929"/>
<path d="M193.093 0H191.836V21.4637H193.093V0Z" fill="#CD2929"/>
<path d="M322.984 214.636C322.984 214.706 260.082 214.763 182.507 214.763C104.904 214.763 42.0156 214.706 42.0156 214.636C42.0156 214.566 104.904 214.509 182.507 214.509C260.082 214.509 322.984 214.566 322.984 214.636Z" fill="#263238"/>
<path d="M57.5647 184.074C59.2101 184.132 60.7548 185.028 61.8401 186.27C62.9253 187.511 63.5906 189.072 64.0165 190.667C64.8399 193.753 64.3338 197.395 63.4563 200.466C60.1246 199.271 58.0704 195.709 57.1413 193.836C55.6726 190.875 54.8116 184.631 57.5647 184.074Z" fill="#CD2929"/>
<path d="M68.246 204.206C67.1948 202.692 67.17 200.588 68.0012 198.942C68.8319 197.297 70.4287 196.11 72.187 195.569C73.0002 195.318 73.9434 195.213 74.6505 195.687C75.3119 196.129 75.5976 196.998 75.5119 197.791C75.4268 198.583 75.0262 199.309 74.5537 199.95C72.9336 202.15 70.9631 203.98 68.246 204.206Z" fill="#CD2929"/>
<path d="M68.6176 214.517C68.6015 214.519 68.5509 214.291 68.4686 213.876C68.3796 213.418 68.2642 212.827 68.126 212.117C67.8632 210.638 67.4462 208.536 67.7615 206.211C68.0647 203.896 68.9835 201.918 69.9466 200.736C70.4207 200.139 70.8747 199.716 71.2105 199.455C71.3731 199.318 71.5161 199.234 71.6072 199.17C71.7001 199.108 71.7512 199.08 71.7561 199.086C71.7926 199.127 70.9774 199.631 70.0766 200.836C69.1641 202.021 68.2895 203.966 67.9907 206.242C67.6802 208.519 68.0647 210.603 68.2871 212.089C68.4063 212.836 68.5022 213.441 68.5577 213.861C68.6127 214.281 68.6331 214.515 68.6176 214.517Z" fill="#263238"/>
<path d="M58.6338 188.771C58.6411 188.768 58.6874 188.855 58.7682 189.024C58.8567 189.216 58.9706 189.463 59.1113 189.768C59.4057 190.415 59.8194 191.357 60.3211 192.526C61.3251 194.863 62.6664 198.112 64.067 201.732C65.4671 205.353 66.6604 208.66 67.4902 211.064C67.9058 212.267 68.2333 213.242 68.4514 213.92C68.5526 214.24 68.6344 214.499 68.6976 214.701C68.7516 214.881 68.776 214.976 68.7687 214.979C68.7609 214.981 68.722 214.891 68.6538 214.716C68.5798 214.518 68.4845 214.264 68.3667 213.949C68.1136 213.254 67.7642 212.294 67.3364 211.119C66.4672 208.73 65.2506 205.434 63.8514 201.815C62.4517 198.198 61.1348 194.942 60.1702 192.59C59.6962 191.433 59.3088 190.488 59.028 189.803C58.9035 189.491 58.8027 189.239 58.7244 189.042C58.6582 188.868 58.6265 188.775 58.6338 188.771Z" fill="#263238"/>
<path d="M64.6598 207.695C62.6951 204.343 59.0267 202.057 55.1591 201.776C54.1741 201.704 52.9896 201.871 52.5506 202.757C52.1106 203.645 52.699 204.697 53.3701 205.426C56.1616 208.458 60.8843 209.515 64.6968 207.961" fill="#CD2929"/>
<path d="M56.6563 204.419C56.6572 204.403 56.8762 204.412 57.2729 204.442C57.4714 204.456 57.7143 204.473 57.9922 204.526C58.2696 204.577 58.5922 204.608 58.9358 204.704C59.2818 204.789 59.6634 204.874 60.0586 205.017C60.4615 205.136 60.8752 205.309 61.3098 205.493C62.1683 205.884 63.0788 206.396 63.9461 207.061C64.807 207.734 65.534 208.486 66.1253 209.223C66.4096 209.601 66.6811 209.96 66.8928 210.324C67.1269 210.674 67.3006 211.025 67.4637 211.343C67.6384 211.654 67.7416 211.963 67.8559 212.222C67.9713 212.481 68.0433 212.714 68.1007 212.906C68.219 213.287 68.2764 213.499 68.2613 213.503C68.2122 213.52 67.9752 212.667 67.3191 211.418C67.1488 211.109 66.9692 210.767 66.7317 210.427C66.5166 210.073 66.2431 209.725 65.9594 209.356C65.3686 208.639 64.6507 207.905 63.8054 207.244C62.9537 206.591 62.0627 206.083 61.2222 205.688C60.7968 205.501 60.3919 205.324 59.9972 205.199C59.6108 205.05 59.2361 204.958 58.8969 204.863C57.5318 204.516 56.6509 204.47 56.6563 204.419Z" fill="#263238"/>
<path d="M277.581 51.4718C276.15 51.8021 275.453 53.453 275.317 54.9195C275.181 56.3854 275.368 57.9339 274.754 59.2715C274.063 60.777 272.412 61.8867 272.357 63.5434C272.324 64.5531 272.922 65.5027 272.893 66.5129C272.846 68.1716 271.159 69.4253 271.071 71.0825C271.007 72.2757 271.799 73.421 271.609 74.6005C271.46 75.5185 270.748 76.2417 270.447 77.121C269.846 78.8744 271.047 80.8045 272.612 81.7912C274.356 82.8912 276.588 83.1747 278.55 82.5461C280.512 81.9176 282.167 80.3877 282.952 78.4782C283.818 76.3705 283.628 73.9974 283.441 71.7262C282.854 64.6473 282.418 57.5562 282.133 50.4587" fill="#263238"/>
<path d="M273.423 76.452C273.393 76.4242 273.815 76.2983 274.078 75.6722C274.205 75.3662 274.27 74.9543 274.244 74.481C274.227 74.0047 274.065 73.486 273.889 72.9008C273.726 72.3211 273.513 71.6481 273.635 70.9C273.758 70.1402 274.3 69.5161 274.795 68.9031C275.044 68.5923 275.294 68.2692 275.452 67.9018C275.618 67.5382 275.653 67.1219 275.528 66.7315C275.277 65.9342 274.498 65.3476 274.14 64.4272C273.963 63.966 273.961 63.4595 274.061 63.0032C274.158 62.5426 274.344 62.1243 274.531 61.7261C274.912 60.9317 275.332 60.2031 275.498 59.4296C275.84 57.8817 275.68 56.404 275.913 55.1903C276.124 53.9743 276.636 53.0602 277.144 52.5903C277.391 52.3473 277.63 52.2179 277.786 52.1306C277.953 52.0588 278.04 52.0257 278.044 52.034C278.06 52.0613 277.683 52.1774 277.213 52.6601C276.744 53.1359 276.273 54.0299 276.089 55.2201C275.993 55.8121 275.978 56.4777 275.954 57.1921C275.929 57.9061 275.906 58.6815 275.725 59.4828C275.557 60.2948 275.125 61.0522 274.755 61.8325C274.389 62.5992 274.053 63.4981 274.377 64.3384C274.686 65.169 275.47 65.759 275.764 66.6564C275.908 67.1029 275.861 67.5977 275.673 67.9979C275.495 68.4049 275.229 68.7377 274.975 69.05C274.467 69.6669 273.958 70.2534 273.842 70.9366C273.72 71.6159 273.908 72.2713 274.061 72.8516C274.224 73.4318 274.381 73.9783 274.385 74.4746C274.398 74.9665 274.316 75.395 274.168 75.7117C274.021 76.0304 273.82 76.2275 273.669 76.3276C273.519 76.4305 273.423 76.452 273.423 76.452Z" fill="#455A64"/>
<path d="M269.588 88.0186L265.195 100.717L246.875 101.702L243.82 108.519L262.946 110.459C266.76 112.04 271.118 110.102 272.51 106.206L277.614 91.9202L269.588 88.0186Z" fill="#B78876"/>
<path d="M307.481 207.74C307.481 207.74 294.056 164.983 293.771 163.595C293.514 162.34 298.643 131.57 299.29 123.607L281.15 124.285C281.15 124.285 281.149 124.334 281.148 124.418L273.438 124.847L280.344 212.293H288.692L287.864 183.281C293.011 197.139 300.388 211.261 300.388 211.261L307.481 207.74Z" fill="#B78876"/>
<path d="M288.205 193.679C288.212 193.413 288.103 183.958 288.103 183.958C287.999 184.524 284.903 175.749 284.978 175.215C285.016 174.939 288.205 193.679 288.205 193.679Z" fill="#A36957"/>
<path d="M284.622 171.061C284.603 171.061 284.585 171.249 284.568 171.591C284.55 171.933 284.546 172.428 284.58 173.041C284.591 173.347 284.623 173.682 284.663 174.041C284.709 174.399 284.757 174.782 284.84 175.18C284.991 175.978 285.225 176.841 285.522 177.727C286.129 179.496 286.797 181.043 287.272 182.166C287.498 182.678 287.691 183.118 287.853 183.488C287.996 183.798 288.083 183.966 288.101 183.959C288.119 183.952 288.066 183.77 287.954 183.448C287.842 183.125 287.671 182.662 287.454 182.092C287.026 180.951 286.386 179.392 285.785 177.639C285.491 176.761 285.254 175.913 285.091 175.13C285.003 174.739 284.946 174.363 284.891 174.011C284.843 173.658 284.8 173.329 284.776 173.027C284.719 172.423 284.692 171.931 284.677 171.591C284.659 171.25 284.641 171.061 284.622 171.061Z" fill="#A36957"/>
<path d="M280.191 212.724L280.187 211.938L288.738 211.564L288.761 214.807L288.234 214.842C285.886 214.98 276.29 215.377 274.719 214.905C272.967 214.378 280.191 212.724 280.191 212.724Z" fill="#455A64"/>
<path d="M288.881 214.611C288.881 214.614 288.831 214.62 288.735 214.627C288.609 214.636 288.471 214.644 288.315 214.654C287.895 214.674 287.378 214.698 286.769 214.726C285.463 214.778 283.658 214.826 281.664 214.835C279.669 214.843 277.864 214.811 276.558 214.771C275.948 214.748 275.432 214.728 275.011 214.712C274.856 214.703 274.717 214.696 274.591 214.689C274.495 214.682 274.445 214.677 274.445 214.674C274.445 214.67 274.496 214.668 274.592 214.668C274.719 214.669 274.857 214.67 275.013 214.672C275.434 214.678 275.95 214.687 276.56 214.698C277.866 214.719 279.671 214.739 281.664 214.731C283.657 214.722 285.461 214.686 286.767 214.653C287.377 214.637 287.893 214.624 288.313 214.613C288.47 214.61 288.608 214.608 288.734 214.606C288.83 214.606 288.881 214.607 288.881 214.611Z" fill="#263238"/>
<path d="M277.423 214.887C277.391 214.891 277.366 214.521 277.131 214.148C276.903 213.771 276.584 213.583 276.602 213.557C276.608 213.531 276.974 213.69 277.219 214.094C277.47 214.495 277.449 214.893 277.423 214.887Z" fill="#263238"/>
<path d="M279.925 213.601C279.901 213.616 279.78 213.47 279.655 213.275C279.53 213.079 279.449 212.908 279.473 212.892C279.497 212.877 279.617 213.023 279.742 213.219C279.867 213.415 279.948 213.586 279.925 213.601Z" fill="#263238"/>
<path d="M280.613 213.233C280.594 213.255 280.46 213.165 280.312 213.033C280.165 212.902 280.062 212.778 280.08 212.757C280.099 212.735 280.234 212.825 280.381 212.956C280.528 213.088 280.632 213.212 280.613 213.233Z" fill="#263238"/>
<path d="M281.045 212.426C281.046 212.455 280.847 212.481 280.602 212.485C280.356 212.488 280.157 212.468 280.156 212.44C280.156 212.411 280.354 212.385 280.6 212.381C280.846 212.378 281.045 212.398 281.045 212.426Z" fill="#263238"/>
<path d="M281.194 211.858C281.204 211.884 280.988 211.982 280.699 212.005C280.411 212.029 280.182 211.965 280.188 211.938C280.192 211.909 280.417 211.925 280.691 211.902C280.965 211.881 281.185 211.83 281.194 211.858Z" fill="#263238"/>
<path d="M279.636 212.858C279.637 212.869 279.427 212.896 279.089 212.856C278.921 212.837 278.721 212.797 278.507 212.73C278.4 212.692 278.289 212.664 278.173 212.593C278.119 212.557 278.059 212.506 278.037 212.423C278.015 212.341 278.058 212.249 278.12 212.204C278.641 211.931 279.166 212.223 279.361 212.493C279.468 212.631 279.517 212.766 279.54 212.858C279.563 212.952 279.561 213.006 279.555 213.006C279.535 213.013 279.517 212.79 279.304 212.54C279.199 212.417 279.04 212.297 278.836 212.237C278.643 212.18 278.368 212.166 278.184 212.284C278.098 212.349 278.132 212.451 278.229 212.508C278.319 212.566 278.436 212.601 278.536 212.639C278.744 212.709 278.936 212.755 279.1 212.784C279.427 212.841 279.636 212.841 279.636 212.858Z" fill="#263238"/>
<path d="M279.491 212.886C279.483 212.891 279.402 212.752 279.427 212.505C279.439 212.384 279.483 212.24 279.574 212.104C279.67 211.982 279.794 211.814 280.029 211.823C280.156 211.839 280.218 211.983 280.198 212.076C280.188 212.172 280.146 212.254 280.106 212.321C280.025 212.458 279.934 212.569 279.849 212.654C279.678 212.822 279.543 212.887 279.537 212.877C279.527 212.864 279.646 212.778 279.795 212.604C279.87 212.517 279.951 212.407 280.023 212.274C280.098 212.158 280.148 211.95 280.011 211.925C279.874 211.913 279.735 212.05 279.652 212.159C279.566 212.279 279.519 212.406 279.499 212.517C279.458 212.739 279.509 212.882 279.491 212.886Z" fill="#263238"/>
<path d="M288.696 212.278C288.694 212.297 288.452 212.255 288.068 212.302C287.687 212.346 287.158 212.504 286.698 212.874C286.239 213.244 285.971 213.728 285.846 214.091C285.717 214.457 285.705 214.703 285.686 214.701C285.68 214.7 285.676 214.639 285.685 214.529C285.693 214.418 285.719 214.259 285.776 214.069C285.886 213.689 286.155 213.179 286.634 212.793C287.112 212.408 287.667 212.256 288.06 212.23C288.258 212.215 288.419 212.224 288.528 212.24C288.638 212.255 288.696 212.271 288.696 212.278Z" fill="#263238"/>
<path d="M284.604 213.931C284.607 213.958 284.052 214.047 283.361 214.05C282.67 214.055 282.114 213.972 282.117 213.945C282.12 213.915 282.675 213.951 283.361 213.947C284.045 213.944 284.6 213.902 284.604 213.931Z" fill="#263238"/>
<path d="M286.273 213.913C286.294 213.934 286.228 214.031 286.172 214.16C286.114 214.287 286.085 214.401 286.056 214.399C286.028 214.399 286.011 214.265 286.077 214.117C286.143 213.969 286.255 213.893 286.273 213.913Z" fill="#263238"/>
<path d="M286.9 213.127C286.92 213.147 286.866 213.235 286.778 213.325C286.69 213.415 286.603 213.472 286.582 213.452C286.562 213.432 286.616 213.343 286.705 213.253C286.792 213.163 286.879 213.107 286.9 213.127Z" fill="#263238"/>
<path d="M287.798 212.765C287.792 212.794 287.679 212.793 287.554 212.838C287.428 212.88 287.339 212.95 287.317 212.931C287.294 212.915 287.365 212.793 287.52 212.741C287.675 212.687 287.806 212.739 287.798 212.765Z" fill="#263238"/>
<path d="M288.437 212.594C288.447 212.621 288.398 212.665 288.328 212.692C288.257 212.72 288.191 212.721 288.181 212.694C288.171 212.667 288.219 212.623 288.29 212.596C288.361 212.568 288.426 212.567 288.437 212.594Z" fill="#263238"/>
<path d="M300.219 211.968L299.895 211.252L307.543 207.399L308.889 210.348L308.422 210.596C306.337 211.686 297.744 215.99 296.119 216.205C294.306 216.444 300.219 211.968 300.219 211.968Z" fill="#455A64"/>
<path d="M308.917 210.12C308.918 210.123 308.875 210.148 308.79 210.195C308.679 210.254 308.556 210.319 308.418 210.392C308.043 210.582 307.581 210.816 307.037 211.093C305.867 211.677 304.24 212.462 302.425 213.289C300.609 214.116 298.949 214.828 297.741 215.328C297.175 215.557 296.696 215.752 296.306 215.91C296.16 215.966 296.031 216.016 295.913 216.061C295.823 216.095 295.775 216.111 295.773 216.107C295.772 216.104 295.817 216.082 295.905 216.042C296.021 215.991 296.148 215.936 296.291 215.873C296.677 215.706 297.152 215.502 297.712 215.261C298.913 214.744 300.567 214.022 302.382 213.195C304.197 212.368 305.828 211.594 307.006 211.028C307.556 210.763 308.021 210.539 308.401 210.356C308.542 210.289 308.667 210.23 308.781 210.177C308.868 210.136 308.915 210.116 308.917 210.12Z" fill="#263238"/>
<path d="M298.574 215.079C298.547 215.095 298.372 214.768 298.006 214.524C297.644 214.274 297.276 214.234 297.281 214.202C297.276 214.176 297.675 214.171 298.064 214.438C298.456 214.702 298.6 215.074 298.574 215.079Z" fill="#263238"/>
<path d="M300.336 212.876C300.32 212.9 300.15 212.816 299.957 212.689C299.763 212.562 299.618 212.44 299.634 212.416C299.65 212.392 299.819 212.476 300.013 212.603C300.207 212.73 300.351 212.852 300.336 212.876Z" fill="#263238"/>
<path d="M300.814 212.259C300.805 212.286 300.646 212.26 300.458 212.2C300.27 212.14 300.124 212.07 300.133 212.043C300.142 212.016 300.301 212.042 300.489 212.101C300.677 212.161 300.822 212.231 300.814 212.259Z" fill="#263238"/>
<path d="M300.876 211.345C300.888 211.371 300.717 211.476 300.495 211.581C300.273 211.685 300.083 211.748 300.071 211.722C300.059 211.696 300.23 211.591 300.452 211.487C300.673 211.383 300.864 211.319 300.876 211.345Z" fill="#263238"/>
<path d="M300.777 210.766C300.796 210.785 300.639 210.964 300.385 211.102C300.131 211.243 299.897 211.279 299.891 211.252C299.883 211.223 300.095 211.145 300.335 211.012C300.577 210.88 300.757 210.744 300.777 210.766Z" fill="#263238"/>
<path d="M299.764 212.318C299.769 212.328 299.589 212.439 299.264 212.541C299.103 212.592 298.905 212.638 298.681 212.665C298.569 212.674 298.456 212.695 298.321 212.678C298.257 212.667 298.182 212.646 298.128 212.579C298.074 212.513 298.076 212.411 298.113 212.345C298.478 211.881 299.076 211.933 299.364 212.099C299.518 212.181 299.618 212.283 299.677 212.359C299.735 212.435 299.755 212.484 299.751 212.487C299.736 212.502 299.628 212.306 299.331 212.165C299.185 212.096 298.991 212.052 298.781 212.081C298.581 212.109 298.325 212.208 298.205 212.391C298.153 212.486 298.226 212.565 298.337 212.578C298.443 212.593 298.564 212.578 298.671 212.57C298.889 212.55 299.083 212.512 299.244 212.471C299.567 212.388 299.757 212.302 299.764 212.318Z" fill="#263238"/>
<path d="M299.647 212.402C299.643 212.41 299.511 212.316 299.433 212.081C299.395 211.965 299.376 211.816 299.404 211.654C299.442 211.504 299.485 211.3 299.703 211.211C299.825 211.174 300.11 211.42 300.13 211.512C300.16 211.604 299.986 211.557 299.976 211.634C299.959 211.793 299.921 211.931 299.878 212.043C299.791 212.267 299.694 212.382 299.684 212.375C299.67 212.366 299.743 212.24 299.809 212.019C299.842 211.909 299.87 211.775 299.882 211.625C299.902 211.489 299.863 211.278 299.729 211.312C299.599 211.356 299.528 211.539 299.497 211.673C299.467 211.816 299.476 211.953 299.502 212.062C299.557 212.282 299.662 212.39 299.647 212.402Z" fill="#263238"/>
<path d="M307.797 208.066C307.803 208.084 307.565 208.145 307.234 208.346C306.904 208.542 306.486 208.904 306.218 209.43C305.95 209.956 305.903 210.508 305.938 210.89C305.97 211.277 306.06 211.506 306.041 211.512C306.036 211.514 306.007 211.46 305.97 211.355C305.933 211.251 305.891 211.095 305.865 210.898C305.811 210.507 305.847 209.931 306.127 209.383C306.406 208.835 306.85 208.468 307.198 208.282C307.372 208.188 307.523 208.13 307.629 208.099C307.734 208.069 307.795 208.06 307.797 208.066Z" fill="#263238"/>
<path d="M304.739 211.257C304.753 211.28 304.284 211.589 303.654 211.875C303.026 212.163 302.485 212.316 302.477 212.29C302.467 212.262 302.989 212.067 303.612 211.781C304.235 211.497 304.724 211.23 304.739 211.257Z" fill="#263238"/>
<path d="M306.251 210.555C306.278 210.566 306.258 210.682 306.259 210.822C306.258 210.962 306.279 211.078 306.251 211.088C306.226 211.1 306.156 210.984 306.156 210.822C306.156 210.66 306.226 210.544 306.251 210.555Z" fill="#263238"/>
<path d="M306.499 209.581C306.525 209.591 306.512 209.694 306.468 209.812C306.425 209.93 306.368 210.018 306.342 210.008C306.315 209.998 306.329 209.895 306.372 209.777C306.415 209.659 306.472 209.571 306.499 209.581Z" fill="#263238"/>
<path d="M307.172 208.883C307.178 208.911 307.075 208.957 306.979 209.049C306.881 209.139 306.829 209.239 306.801 209.231C306.773 209.226 306.788 209.086 306.909 208.973C307.028 208.861 307.169 208.855 307.172 208.883Z" fill="#263238"/>
<path d="M307.683 208.463C307.703 208.483 307.677 208.543 307.624 208.598C307.571 208.652 307.512 208.68 307.491 208.66C307.471 208.64 307.498 208.58 307.55 208.525C307.603 208.471 307.663 208.443 307.683 208.463Z" fill="#263238"/>
<path d="M298.114 109.134L296.69 91.7137L304.004 91.8445C304.004 91.8445 304.342 89.2762 303.265 83.6417C302.604 80.1867 300.309 78.0678 297.736 76.8087L297.736 76.7624L297.513 76.7038C294.24 75.1676 290.814 74.9509 290.814 74.9509L281.836 75.0549C281.836 75.0549 274.978 74.197 271.182 79.0994C269.72 80.988 265.195 93.9127 265.195 93.9127L275.971 99.1162L274.945 91.9489C274.945 91.9489 275.149 97.1457 275.81 98.7922C276.179 99.7096 277.246 102.558 277.246 102.558L277.106 111.154L298.114 109.134Z" fill="#E8505B"/>
<path d="M293.161 89.1849L291.828 94.8779H304.399L303.572 85.3336L293.161 89.1849Z" fill="#E8505B"/>
<path d="M304.402 94.8779C304.404 94.8403 303.768 94.7735 302.738 94.713C301.707 94.6525 300.282 94.6012 298.706 94.6085C297.13 94.6164 295.704 94.6847 294.675 94.7667C293.646 94.8482 293.013 94.9355 293.016 94.9721C293.019 95.0121 293.657 94.9941 294.686 94.9628C295.715 94.9311 297.137 94.894 298.708 94.8862C300.279 94.8794 301.701 94.8989 302.731 94.9092C303.761 94.9199 304.4 94.917 304.402 94.8779Z" fill="#263238"/>
<path d="M292.615 85.2867C292.577 85.2882 292.564 85.8416 292.573 86.7346C292.583 87.6282 292.615 88.8609 292.668 90.2224C292.72 91.5839 292.784 92.8161 292.843 93.7077C292.903 94.5988 292.959 95.1492 292.997 95.1478C293.036 95.1463 293.049 94.5929 293.039 93.6999C293.03 92.8068 292.997 91.5732 292.945 90.2116C292.892 88.8501 292.829 87.6184 292.769 86.7268C292.71 85.8362 292.654 85.2853 292.615 85.2867Z" fill="#263238"/>
<g opacity="0.3">
<path d="M281.18 90.2175C281.18 90.2175 283.974 110.991 291.828 110.441C291.828 110.441 295.365 110.399 296.502 108.042V107.114L281.18 90.2175Z" fill="black"/>
</g>
<g opacity="0.3">
<path d="M292.62 86.5112L291.117 96.6948L292.091 98.4818L293.693 94.9877L293.015 94.9716L292.62 86.5112Z" fill="black"/>
</g>
<path d="M277.249 102.559C277.232 102.564 277.158 102.391 277.037 102.072C276.915 101.754 276.753 101.288 276.565 100.709C276.19 99.5496 275.726 97.9265 275.363 96.0994C275.002 94.2709 274.824 92.5892 274.767 91.3702C274.738 90.7607 274.729 90.2668 274.738 89.9257C274.745 89.5846 274.756 89.3962 274.774 89.3962C274.814 89.3958 274.841 90.1483 274.946 91.358C275.049 92.5678 275.252 94.2333 275.611 96.0501C275.972 97.866 276.406 99.4876 276.737 100.657C276.891 101.199 277.023 101.661 277.131 102.042C277.222 102.369 277.266 102.553 277.249 102.559Z" fill="#263238"/>
<path d="M280.422 108.528C280.355 108.548 280.161 108.1 279.988 107.527C279.815 106.953 279.729 106.473 279.796 106.452C279.863 106.432 280.058 106.88 280.23 107.453C280.403 108.026 280.489 108.507 280.422 108.528Z" fill="#263238"/>
<path d="M281.507 108.448C281.442 108.465 281.23 107.792 281.22 106.93C281.205 106.067 281.397 105.388 281.462 105.403C281.534 105.416 281.458 106.093 281.473 106.926C281.482 107.758 281.579 108.433 281.507 108.448Z" fill="#263238"/>
<path d="M276.19 99.3548C276.159 99.4178 273.651 98.2246 270.59 96.6903C267.527 95.1556 265.07 93.8614 265.102 93.7985C265.133 93.7355 267.64 94.9287 270.703 96.4629C273.764 97.9972 276.221 99.2919 276.19 99.3548Z" fill="#263238"/>
<path d="M280.611 76.7395C280.667 74.2707 280.681 71.6706 280.681 71.6706C280.681 71.6706 277.523 71.0606 276.973 66.8941C276.448 62.9208 277.916 53.5975 277.916 53.5975C282.528 51.849 287.322 53.4341 290.483 57.1819L289.698 77.226C289.607 79.5528 287.539 81.3276 285.055 81.211C282.546 81.0929 280.557 79.0916 280.611 76.7395Z" fill="#B78876"/>
<path d="M277.673 61.0488C277.656 61.3294 277.879 61.5753 278.171 61.5987C278.462 61.6222 278.713 61.4138 278.73 61.1332C278.747 60.8526 278.524 60.6061 278.232 60.5827C277.94 60.5593 277.69 60.7682 277.673 61.0488Z" fill="#263238"/>
<path d="M277.477 60.3495C277.541 60.4207 277.951 60.1328 278.521 60.1489C279.092 60.1567 279.504 60.4622 279.567 60.3939C279.598 60.3636 279.535 60.2368 279.356 60.0987C279.179 59.9615 278.876 59.8244 278.521 59.8166C278.165 59.8093 277.862 59.9327 277.687 60.063C277.508 60.1938 277.445 60.3178 277.477 60.3495Z" fill="#263238"/>
<path d="M283.47 61.4104C283.453 61.691 283.676 61.9375 283.968 61.9609C284.259 61.9843 284.51 61.7759 284.527 61.4953C284.544 61.2147 284.321 60.9683 284.029 60.9449C283.737 60.9209 283.487 61.1298 283.47 61.4104Z" fill="#263238"/>
<path d="M283.43 60.7116C283.494 60.7829 283.904 60.4949 284.474 60.511C285.045 60.5193 285.457 60.8248 285.52 60.756C285.551 60.7258 285.488 60.5989 285.309 60.4608C285.132 60.3236 284.829 60.1865 284.473 60.1787C284.118 60.1714 283.815 60.2949 283.64 60.4252C283.461 60.5559 283.398 60.6799 283.43 60.7116Z" fill="#263238"/>
<path d="M281.249 64.9045C281.252 64.8718 280.899 64.8015 280.326 64.7127C280.18 64.6937 280.043 64.6615 280.021 64.5609C279.989 64.4546 280.055 64.2984 280.13 64.13C280.276 63.7797 280.429 63.4127 280.59 63.0276C281.229 61.4577 281.696 60.1655 281.633 60.1401C281.57 60.1148 281 61.3665 280.36 62.9364C280.206 63.3234 280.059 63.6928 279.918 64.0456C279.859 64.2106 279.759 64.3965 279.828 64.6175C279.864 64.7278 279.97 64.8098 280.062 64.8376C280.155 64.8689 280.237 64.8723 280.309 64.8786C280.887 64.9255 281.246 64.9372 281.249 64.9045Z" fill="#263238"/>
<path d="M280.68 71.6706C280.68 71.6706 283.459 71.9224 286.259 70.3315C286.259 70.3315 284.842 73.1473 280.71 72.6515L280.68 71.6706Z" fill="#A36957"/>
<path d="M285.26 59.0597C285.143 59.2388 284.709 59.1593 284.222 59.0714C283.737 58.9733 283.304 58.887 283.261 58.6771C283.213 58.4761 283.716 58.1974 284.365 58.3224C285.014 58.4463 285.379 58.8904 285.26 59.0597Z" fill="#263238"/>
<path d="M279.582 58.2194C279.538 58.4282 279.073 58.5044 278.537 58.5317C278 58.5537 277.53 58.5205 277.467 58.317C277.403 58.1198 277.856 57.7987 278.502 57.7704C279.146 57.7392 279.628 58.0169 279.582 58.2194Z" fill="#263238"/>
<path d="M281.26 66.2753C281.14 66.2416 281.005 66.3105 280.944 66.4203C280.872 66.5505 280.905 66.7301 281.019 66.8263C281.133 66.9224 281.315 66.9248 281.431 66.8316C281.547 66.7389 281.585 66.5603 281.517 66.4281C281.449 66.2958 281.282 66.2236 281.139 66.2646" fill="#A36957"/>
<path d="M281.396 66.3319C281.422 66.309 281.305 66.1684 281.056 66.2231C280.94 66.2485 280.79 66.3524 280.744 66.53C280.698 66.6969 280.739 66.9131 280.916 67.0488C281.098 67.1776 281.318 67.1513 281.463 67.0522C281.619 66.9497 281.663 66.7623 281.638 66.6452C281.588 66.388 281.398 66.347 281.393 66.3827C281.372 66.4149 281.459 66.5042 281.442 66.6564C281.434 66.7311 281.398 66.8004 281.326 66.8355C281.256 66.8741 281.143 66.8741 281.08 66.8248C281.013 66.777 280.978 66.6706 280.992 66.5886C281.002 66.5066 281.057 66.4456 281.123 66.408C281.258 66.3309 281.378 66.3671 281.396 66.3319Z" fill="#263238"/>
<path d="M288.568 62.0775C288.075 63.2214 286.874 64.1027 287.041 65.3374C287.148 66.1343 287.658 66.8775 287.559 67.6758C287.434 68.6782 286.396 69.3731 286.249 70.3725C286.069 71.5984 287.258 72.551 287.733 73.6948C288.424 75.3604 287.539 77.2338 287.518 79.0379C287.487 81.8015 289.83 84.383 292.577 84.6099C293.688 84.7017 294.94 84.3655 295.515 83.4085C295.991 82.6189 295.895 81.6156 296.181 80.7386C296.605 79.4327 297.846 78.4768 298.108 77.1284C298.585 74.6704 295.623 72.6364 295.818 70.1398C295.901 69.073 296.558 68.1424 296.837 67.1098C297.203 65.757 296.867 64.2335 295.967 63.1609C295.236 62.2888 294.176 61.7154 293.553 60.7628C292.847 59.6824 292.823 58.3126 292.556 57.0487C291.908 53.9689 289.601 51.2937 286.656 50.2045C283.71 49.1153 280.224 49.6482 277.736 51.5675C277.736 51.5675 277.028 54.7839 280.321 55.3216C283.613 55.8594 285.139 55.2387 285.51 56.5621C285.51 56.5621 285.135 58.1076 286.496 59.5843C287.858 61.062 289.138 60.7531 288.568 62.0775Z" fill="#263238"/>
<path d="M293.824 84.3849C293.822 84.3937 293.72 84.3825 293.524 84.3537C293.328 84.323 293.041 84.2581 292.686 84.1273C291.983 83.8696 290.987 83.3084 290.138 82.2363C289.717 81.7048 289.322 81.0607 289.055 80.3033C288.783 79.5503 288.627 78.6968 288.613 77.7979C288.592 76.8985 288.719 75.9552 288.964 75.0114C289.086 74.5391 289.245 74.0677 289.43 73.5997C289.612 73.1297 289.836 72.6768 289.964 72.1976C290.103 71.7199 290.084 71.2319 289.959 70.7663C289.832 70.3008 289.616 69.863 289.406 69.4302C289.194 68.9978 288.978 68.5664 288.839 68.1077C288.697 67.6529 288.644 67.1624 288.737 66.7052C288.931 65.7858 289.488 65.1055 289.816 64.4072C290.164 63.7157 290.273 62.9847 290.257 62.3288C290.198 60.9995 289.633 60.0167 289.171 59.4501C288.69 58.883 288.326 58.6669 288.344 58.6429C288.344 58.6429 288.73 58.8259 289.246 59.3857C289.741 59.9449 290.35 60.9414 290.436 62.321C290.465 63.0008 290.361 63.7709 290.005 64.4994C289.67 65.2231 289.132 65.9083 288.966 66.7496C288.796 67.5973 289.196 68.4703 289.629 69.3199C289.841 69.7532 290.066 70.2012 290.203 70.6995C290.34 71.1943 290.36 71.7536 290.21 72.263C290.072 72.7749 289.843 73.2337 289.665 73.6924C289.483 74.1511 289.327 74.6123 289.205 75.0744C288.962 75.9977 288.834 76.9176 288.848 77.7935C288.854 79.5528 289.456 81.0905 290.281 82.124C291.089 83.182 292.045 83.753 292.724 84.0346C293.411 84.3142 293.83 84.3562 293.824 84.3849Z" fill="#455A64"/>
<path d="M293.339 59.76C293.341 59.7761 293.084 59.8225 292.614 59.8683C292.146 59.9069 291.454 59.9615 290.609 59.8156C289.784 59.6643 288.741 59.2583 288.08 58.277C287.756 57.7846 287.627 57.1887 287.416 56.6388C287.217 56.0824 286.833 55.6008 286.307 55.267C285.242 54.5901 283.99 54.5072 282.894 54.3735C281.793 54.249 280.759 54.0148 280.057 53.4877C279.351 52.9836 278.989 52.3297 278.896 51.8583C278.843 51.6221 278.848 51.4328 278.858 51.3078C278.876 51.1824 278.889 51.1185 278.898 51.12C278.929 51.1204 278.865 51.3884 278.992 51.8339C279.11 52.2751 279.475 52.8782 280.16 53.3404C280.835 53.8201 281.825 54.0294 282.921 54.1412C284.008 54.2641 285.305 54.332 286.445 55.0537C287.008 55.4061 287.444 55.9585 287.647 56.5494C287.864 57.1302 287.985 57.7016 288.276 58.1506C288.869 59.0587 289.851 59.474 290.643 59.6399C291.456 59.8044 292.141 59.779 292.608 59.7707C293.077 59.7541 293.337 59.7415 293.339 59.76Z" fill="#455A64"/>
<path d="M292.129 55.7857C292.132 55.7979 291.932 55.8604 291.559 55.8696C291.188 55.8799 290.633 55.814 290.022 55.5227C289.718 55.3777 289.406 55.1699 289.118 54.8922C288.826 54.616 288.587 54.2588 288.363 53.882C287.924 53.1398 287.502 52.2243 286.592 51.8461C285.7 51.4625 284.718 51.5479 283.865 51.606C283.004 51.6909 282.196 51.7163 281.538 51.5865C280.875 51.4708 280.378 51.1956 280.102 50.9408C279.962 50.8149 279.868 50.7022 279.815 50.6188C279.761 50.5368 279.736 50.4919 279.743 50.4865C279.763 50.4709 279.88 50.6432 280.164 50.8642C280.448 51.0843 280.927 51.32 281.567 51.4093C282.208 51.5118 282.98 51.4713 283.845 51.3727C284.703 51.3049 285.714 51.1966 286.694 51.6138C287.179 51.8202 287.575 52.1857 287.856 52.5815C288.143 52.9773 288.348 53.3906 288.565 53.7639C288.779 54.1377 289 54.4788 289.266 54.7424C289.529 55.0093 289.818 55.2143 290.103 55.3621C290.673 55.6593 291.202 55.7511 291.561 55.7706C291.923 55.7921 292.126 55.7638 292.129 55.7857Z" fill="#455A64"/>
<path d="M295.272 83.3318C295.247 83.3206 295.402 83.0064 295.582 82.4056C295.76 81.8069 295.937 80.907 295.906 79.7899C295.868 78.6807 295.602 77.3387 294.868 76.0636C294.512 75.4243 293.971 74.8553 293.531 74.1531C293.312 73.8027 293.123 73.4098 293.041 72.975C292.959 72.5397 293.009 72.0776 293.148 71.6579C293.421 70.8156 293.91 70.1061 294.015 69.3316C294.145 68.5547 293.754 67.8461 293.384 67.2157C293.196 66.8945 293.009 66.5773 292.863 66.2455C292.717 65.9137 292.624 65.5643 292.588 65.2266C292.514 64.5482 292.593 63.9251 292.643 63.3658C292.783 62.2512 292.68 61.3352 292.412 60.7726C292.153 60.2031 291.812 60.0323 291.837 60.0089C291.84 60.0055 291.86 60.0147 291.896 60.0372C291.932 60.0606 291.989 60.0913 292.051 60.1484C292.181 60.2543 292.355 60.4422 292.501 60.7296C292.809 61.2991 292.94 62.2571 292.821 63.3814C292.781 63.9431 292.716 64.5585 292.795 65.2012C292.86 65.8497 293.194 66.4617 293.584 67.0966C293.774 67.4177 293.974 67.7529 294.114 68.1336C294.258 68.5108 294.324 68.9422 294.26 69.3658C294.142 70.2193 293.64 70.9415 293.389 71.735C293.258 72.1313 293.216 72.5383 293.288 72.9296C293.361 73.321 293.533 73.6856 293.741 74.0223C294.159 74.6967 294.702 75.2774 295.07 75.9469C295.817 77.2719 296.068 78.6524 296.084 79.786C296.093 80.9275 295.884 81.8386 295.675 82.4359C295.566 82.734 295.474 82.9624 295.395 83.1098C295.322 83.2591 295.28 83.3358 295.272 83.3318Z" fill="#455A64"/>
<path d="M275.455 174.259C275.455 174.259 272.178 143.104 271.989 131.592C271.801 120.08 277.151 108.721 277.151 108.721L298.118 107.832C298.118 107.832 302.262 119.513 302.336 124.419C302.48 133.954 299.81 143.37 300.118 150.934L300.818 174.259" fill="#263238"/>
<path d="M301.52 135.958C301.524 135.966 301.405 136.056 301.178 136.218C301.119 136.26 301.056 136.305 300.986 136.354C300.921 136.409 300.857 136.479 300.783 136.55C300.637 136.692 300.465 136.853 300.316 137.075C299.639 137.906 299.145 139.392 298.676 141.245C298.417 142.165 298.155 143.198 297.614 144.209C297.469 144.455 297.339 144.717 297.149 144.947C297.058 145.064 296.975 145.189 296.875 145.302L296.552 145.626C296.114 146.057 295.56 146.383 294.975 146.64C293.801 147.156 292.477 147.401 291.266 148.009C290.048 148.604 289.135 149.757 288.575 151.085C287.985 152.407 287.626 153.796 287.134 155.092C286.65 156.378 285.991 157.63 284.945 158.42C283.908 159.24 282.625 159.427 281.514 159.499C280.385 159.565 279.34 159.532 278.403 159.675C277.469 159.804 276.641 160.101 276.055 160.563C275.469 161.026 275.126 161.606 274.965 162.102C274.798 162.605 274.828 163.029 274.884 163.299C274.938 163.573 275.014 163.704 274.997 163.711C274.997 163.711 274.906 163.588 274.834 163.311C274.761 163.038 274.713 162.599 274.87 162.074C275.023 161.554 275.364 160.946 275.967 160.452C276.572 159.958 277.423 159.642 278.376 159.497C279.331 159.341 280.388 159.363 281.5 159.289C282.6 159.209 283.828 159.015 284.804 158.234C285.792 157.481 286.427 156.277 286.902 155.004C287.387 153.723 287.742 152.333 288.344 150.981C288.909 149.63 289.878 148.404 291.154 147.788C292.413 147.161 293.738 146.924 294.883 146.425C295.453 146.178 295.982 145.871 296.401 145.462L296.711 145.156C296.807 145.049 296.887 144.929 296.975 144.817C297.16 144.599 297.287 144.346 297.43 144.109C297.963 143.133 298.235 142.112 298.503 141.197C298.994 139.354 299.523 137.844 300.239 137.014C300.397 136.793 300.577 136.633 300.733 136.495C300.81 136.426 300.878 136.357 300.948 136.304C301.02 136.258 301.087 136.215 301.148 136.176C301.389 136.025 301.516 135.95 301.52 135.958Z" fill="#FAFAFA"/>
<path d="M301.652 121.541C301.661 121.54 301.67 121.683 301.679 121.958C301.683 122.232 301.651 122.639 301.534 123.15C301.291 124.166 300.55 125.561 299.165 126.823C298.481 127.457 297.654 128.069 296.71 128.621C295.77 129.18 294.734 129.712 293.672 130.314C292.614 130.917 291.523 131.599 290.564 132.505C289.593 133.4 288.865 134.577 288.21 135.822C287.548 137.066 286.962 138.332 286.168 139.428C285.775 139.975 285.33 140.476 284.838 140.904C284.343 141.329 283.803 141.674 283.255 141.961C282.155 142.533 281.035 142.887 279.997 143.213C278.956 143.535 277.987 143.821 277.138 144.178C276.288 144.529 275.552 144.927 274.957 145.349C274.362 145.771 273.909 146.214 273.588 146.615C272.94 147.42 272.804 148.003 272.767 147.984C272.758 147.981 272.805 147.845 272.902 147.588C273.014 147.339 273.189 146.968 273.51 146.554C273.825 146.136 274.277 145.674 274.874 145.234C275.471 144.793 276.212 144.379 277.068 144.012C277.923 143.64 278.899 143.343 279.933 143.012C280.966 142.679 282.074 142.319 283.146 141.754C283.68 141.471 284.202 141.133 284.679 140.72C285.153 140.304 285.582 139.819 285.966 139.283C286.738 138.211 287.319 136.955 287.985 135.703C288.642 134.452 289.391 133.242 290.392 132.324C291.378 131.398 292.488 130.711 293.556 130.11C294.627 129.511 295.665 128.987 296.602 128.44C297.542 127.901 298.36 127.307 299.043 126.69C300.422 125.464 301.168 124.114 301.437 123.125C301.7 122.126 301.613 121.538 301.652 121.541Z" fill="#FAFAFA"/>
<path d="M272.095 133.242C272.091 133.243 272.077 133.211 272.053 133.147C272.032 133.082 271.987 132.988 271.959 132.857C271.899 132.596 271.862 132.184 272.007 131.687C272.278 130.693 273.354 129.457 275.089 128.837C275.952 128.54 276.931 128.361 277.952 128.093C278.96 127.82 280.059 127.439 280.88 126.593C281.287 126.176 281.632 125.679 281.918 125.133C282.197 124.582 282.428 123.991 282.645 123.38C283.081 122.163 283.447 120.841 284.188 119.638C284.924 118.426 286.122 117.585 287.363 117.163C288.6 116.707 289.848 116.505 291.005 116.237C292.166 115.984 293.252 115.656 294.173 115.156C295.081 114.639 295.804 113.95 296.317 113.22C297.367 111.756 297.641 110.257 297.679 109.267C297.702 108.26 297.542 107.712 297.575 107.707C297.575 107.707 297.769 108.246 297.777 109.269C297.769 110.274 297.519 111.81 296.463 113.324C295.946 114.079 295.211 114.797 294.276 115.34C293.331 115.863 292.223 116.205 291.058 116.466C289.894 116.741 288.654 116.948 287.45 117.396C286.238 117.814 285.112 118.611 284.403 119.773C283.688 120.931 283.321 122.239 282.879 123.464C282.659 124.079 282.423 124.68 282.133 125.246C281.836 125.807 281.474 126.325 281.045 126.76C280.173 127.646 279.025 128.031 278.005 128.297C276.971 128.559 275.997 128.727 275.146 129.008C273.459 129.586 272.388 130.77 272.102 131.716C271.948 132.19 271.967 132.588 272.009 132.847C272.063 133.103 272.107 133.238 272.095 133.242Z" fill="#FAFAFA"/>
<path d="M299.848 159.585C299.857 159.584 299.868 159.689 299.882 159.892C299.894 160.093 299.878 160.395 299.792 160.773C299.621 161.524 299.041 162.553 297.953 163.409C297.417 163.843 296.768 164.24 296.023 164.558C295.28 164.878 294.459 165.13 293.601 165.399C292.743 165.667 291.843 165.948 290.969 166.363C290.087 166.767 289.274 167.359 288.573 168.115C287.863 168.86 287.25 169.675 286.571 170.394C285.895 171.118 285.126 171.714 284.328 172.154C282.726 173.041 281.066 173.345 279.7 173.361C278.323 173.376 277.231 173.086 276.514 172.83C276.153 172.703 275.884 172.577 275.706 172.482C275.526 172.392 275.434 172.341 275.438 172.333C275.442 172.325 275.541 172.361 275.727 172.435C275.91 172.514 276.183 172.625 276.545 172.736C277.264 172.96 278.345 173.218 279.696 173.18C281.037 173.142 282.658 172.825 284.213 171.949C284.989 171.512 285.729 170.934 286.389 170.223C287.055 169.514 287.665 168.7 288.389 167.938C289.102 167.168 289.959 166.546 290.861 166.137C291.759 165.716 292.671 165.437 293.531 165.175C294.391 164.913 295.209 164.669 295.941 164.364C296.672 164.062 297.311 163.683 297.841 163.268C298.918 162.449 299.499 161.471 299.697 160.748C299.889 160.016 299.813 159.584 299.848 159.585Z" fill="#FAFAFA"/>
<path d="M297.451 94.8984L293.396 94.9946C293.13 96.3639 292.479 97.3008 292.479 97.3008C289.089 91.4 286.461 83.4944 285.808 80.317C285.903 79.9998 286.016 79.6484 286.157 79.2561C286.319 78.8032 286.179 77.9453 286.103 77.4695C285.989 76.7619 285.792 75.8103 285.733 75.3696C285.552 74.0272 285.336 73.8163 284.869 73.9681C284.234 74.1745 285.13 77.7384 284.609 77.816C284.329 77.8575 283.987 76.6365 283.888 75.6346C283.788 74.6328 283.337 71.551 283.006 71.3456C282.522 71.0445 282.1 71.5208 282.222 72.5183C282.346 73.5279 282.502 76.5394 281.974 76.5799C281.454 76.6199 281.017 71.511 281.017 71.511C281.017 71.511 281.1 70.3994 280.488 70.4262C279.386 70.474 280.247 75.8606 280.342 76.371C280.408 76.7258 279.835 76.7912 279.785 76.4057C279.733 76.0089 279.467 71.2963 278.344 71.3339C277.482 71.3632 279.011 75.7727 278.528 76.7951C278.044 77.817 277.708 73.3235 276.885 73.3854C276.579 73.4089 276.353 73.4689 276.915 76.0118C277.217 77.3787 278.106 79.8914 278.882 81.9723C280.186 89.0239 285.908 111.582 294.879 107.453C299.899 105.142 301.935 94.9014 301.935 94.9014L297.451 94.8984Z" fill="#B78876"/>
<path d="M280.148 76.7155C280.148 76.7155 280.189 76.7229 280.265 76.6994C280.333 76.6785 280.469 76.5926 280.448 76.4174C280.436 76.1148 280.389 75.6732 280.319 75.1027C280.266 74.5283 280.095 73.8393 280.095 73.0238C280.088 72.6154 280.099 72.1762 280.122 71.7106C280.137 71.4778 280.141 71.2363 280.193 71.0079C280.23 70.7868 280.378 70.534 280.548 70.5643L280.567 70.5677L280.575 70.5672C280.748 70.5594 280.884 70.6946 280.939 70.9015C281 71.0992 281.015 71.3324 281.003 71.5549L281.002 71.5642L281.003 71.5706C281.117 72.8189 281.239 74.1858 281.523 75.6449C281.562 75.8274 281.603 76.0109 281.659 76.1958C281.688 76.2881 281.72 76.3813 281.761 76.4755C281.787 76.5238 281.803 76.5696 281.843 76.6199C281.878 76.6624 281.922 76.7365 282.047 76.7478C282.249 76.7326 282.307 76.5794 282.353 76.4916C282.397 76.3905 282.424 76.2905 282.444 76.1914C282.486 75.9928 282.507 75.7947 282.522 75.5956C282.576 74.7997 282.548 73.9876 282.49 73.1546C282.471 72.7335 282.367 72.3138 282.439 71.9322C282.472 71.7443 282.55 71.5549 282.678 71.4769C282.741 71.4388 282.811 71.431 282.888 71.4505C282.926 71.4617 282.965 71.4774 283.003 71.5008C283.036 71.5315 283.028 71.5179 283.057 71.5725C283.22 71.9219 283.303 72.3767 283.395 72.7993C283.481 73.2312 283.556 73.6714 283.624 74.1165C283.693 74.5615 283.756 75.0119 283.809 75.4658C283.852 75.9191 283.918 76.3954 284.033 76.8536C284.092 77.0845 284.156 77.3148 284.253 77.5432C284.302 77.6579 284.354 77.7711 284.453 77.8882C284.489 77.938 284.603 78.0312 284.745 77.9946C284.882 77.9487 284.921 77.8394 284.943 77.7755C285.022 77.4949 284.999 77.2616 284.995 77.0162C284.985 76.7741 284.964 76.5345 284.944 76.2954C284.91 75.8845 284.87 75.478 284.857 75.0773C284.85 74.8777 284.85 74.6781 284.871 74.4903C284.883 74.3985 284.899 74.3039 284.931 74.236C284.945 74.2014 284.964 74.176 284.977 74.1633C284.985 74.1555 284.99 74.1589 284.996 74.1511L285.06 74.1331C285.382 73.9993 285.49 74.4498 285.576 74.8128C285.65 75.1915 285.698 75.5824 285.774 75.9674C285.902 76.736 286.066 77.4998 286.151 78.2342C286.186 78.5978 286.212 78.976 286.108 79.2844C285.993 79.6372 285.879 79.9861 285.766 80.3311L285.756 80.3624L285.763 80.3951C286.357 83.019 287.178 85.3668 287.941 87.4511C288.711 89.5334 289.481 91.3331 290.161 92.8044C290.839 94.2777 291.448 95.4123 291.868 96.1867C292.081 96.5537 292.249 96.8436 292.374 97.0593C292.492 97.256 292.556 97.356 292.562 97.3526C292.568 97.3487 292.517 97.2413 292.413 97.0378C292.297 96.8177 292.141 96.521 291.944 96.1462C291.548 95.3606 290.964 94.2172 290.308 92.7381C289.65 91.2604 288.901 89.4577 288.148 87.3749C287.403 85.2931 286.596 82.939 286.019 80.3424L286.016 80.4063C286.128 80.0657 286.242 79.7216 286.357 79.3737C286.488 78.9755 286.45 78.5865 286.417 78.2059C286.33 77.4427 286.171 76.7009 286.044 75.9289C285.969 75.5473 285.923 75.1554 285.844 74.7552C285.798 74.5557 285.755 74.3546 285.646 74.1511C285.593 74.0525 285.511 73.9403 285.377 73.8798C285.241 73.8207 285.102 73.8373 284.993 73.8642L284.911 73.8876C284.875 73.9042 284.829 73.9237 284.801 73.9505C284.738 74.0047 284.703 74.0667 284.678 74.1243C284.627 74.2414 284.612 74.3492 284.597 74.4576C284.572 74.6718 284.574 74.8802 284.58 75.0871C284.594 75.5009 284.634 75.9103 284.668 76.3198C284.688 76.5579 284.708 76.7951 284.718 77.0288C284.727 77.2567 284.735 77.5085 284.682 77.6847C284.67 77.736 284.646 77.7262 284.674 77.7511L284.675 77.7535C284.673 77.7369 284.679 77.7784 284.678 77.7716L284.677 77.7667C284.676 77.7604 284.677 77.7545 284.679 77.7496C284.681 77.7452 284.692 77.7281 284.685 77.7272C284.682 77.7257 284.67 77.7194 284.656 77.7003C284.603 77.6384 284.549 77.5368 284.507 77.4358C284.421 77.2314 284.357 77.0093 284.301 76.7883C284.189 76.3408 284.126 75.8967 284.081 75.4355C284.027 74.9763 283.963 74.5239 283.893 74.076C283.823 73.628 283.747 73.1849 283.658 72.7476C283.558 72.3074 283.493 71.8843 283.288 71.4447C283.276 71.4003 283.189 71.3017 283.135 71.2729C283.08 71.2402 283.02 71.2148 282.954 71.1963C282.823 71.1602 282.663 71.1767 282.543 71.2534C282.301 71.4134 282.227 71.6677 282.183 71.8882C282.144 72.1157 282.149 72.3401 282.175 72.5568C282.199 72.7652 282.219 72.9692 282.236 73.1756C282.297 73.9974 282.328 74.806 282.28 75.579C282.266 75.7718 282.246 75.9626 282.209 76.1426C282.192 76.2329 282.167 76.3203 282.135 76.3954C282.12 76.4325 282.1 76.4672 282.082 76.4867C282.065 76.5272 282.049 76.4774 282.051 76.5433C282.075 76.493 282.052 76.5208 282.033 76.4789C282.012 76.4559 281.994 76.412 281.975 76.3778C281.94 76.2983 281.91 76.2144 281.883 76.1275C281.829 75.9543 281.787 75.7747 281.748 75.5975C281.459 74.1643 281.323 72.794 281.198 71.5545V71.5701C281.209 71.3192 281.193 71.0796 281.119 70.8444C281.082 70.7288 281.028 70.6107 280.929 70.5194C280.832 70.4252 280.693 70.3833 280.568 70.3872L280.595 70.3901C280.399 70.3554 280.257 70.474 280.175 70.5916C280.092 70.7127 280.055 70.8439 280.026 70.9708C279.973 71.227 279.973 71.4705 279.961 71.7043C279.944 72.1737 279.94 72.6154 279.954 73.0282C279.969 73.8607 280.156 74.5498 280.222 75.1173C280.307 75.6844 280.37 76.1246 280.397 76.4213C280.428 76.5623 280.315 76.6531 280.255 76.677C280.187 76.7053 280.147 76.7097 280.148 76.7155Z" fill="#A36957"/>
<path d="M248.46 101.617C248.46 101.617 247.113 101.553 245.641 101.941C243.128 102.604 238.789 105.241 238.609 108.498H241.761C241.761 108.498 239.996 112.265 240.515 111.916C241.86 111.011 244.538 108.282 244.538 108.282L248.46 101.617Z" fill="#B78876"/>
<path d="M291.447 44.9175C291.377 44.9238 291.091 42.3111 290.808 39.0829C290.525 35.8534 290.352 33.2313 290.422 33.2255C290.491 33.2191 290.777 35.8314 291.061 39.061C291.344 42.2886 291.517 44.9111 291.447 44.9175Z" fill="#263238"/>
<path d="M305.273 33.3846C305.33 33.4251 303.2 36.5239 300.518 40.3044C297.834 44.0864 295.613 47.1183 295.556 47.0778C295.499 47.0373 297.628 43.939 300.311 40.157C302.994 36.3765 305.215 33.3441 305.273 33.3846Z" fill="#263238"/>
<path d="M311.017 47.4278C311.031 47.4966 308.546 48.0666 305.468 48.701C302.388 49.3354 299.881 49.7941 299.867 49.7253C299.853 49.6565 302.338 49.0865 305.417 48.4521C308.495 47.8182 311.003 47.3594 311.017 47.4278Z" fill="#263238"/>
<path d="M145.493 114.457L128.284 203.175L126.031 214.789L240.915 214.221C246.071 214.195 250.64 209.605 252.299 202.785L272.671 119.026C273.93 113.848 271.167 108.463 267.253 108.467L150.977 108.59C148.41 108.593 146.165 110.995 145.493 114.457Z" fill="#E8505B"/>
<g opacity="0.5">
<path d="M145.493 114.457L128.284 203.175L126.031 214.789L240.915 214.221C246.071 214.195 250.64 209.605 252.299 202.785L272.671 119.026C273.93 113.848 271.167 108.463 267.253 108.467L150.977 108.59C148.41 108.593 146.165 110.995 145.493 114.457Z" fill="black"/>
</g>
<path d="M229.893 197.165L217.73 98.8776C217.231 94.8501 214.032 91.846 210.254 91.8587L183.582 91.946C181.608 91.9524 179.716 92.7942 178.313 94.2889L165.647 107.789L91.4668 108.177C86.9335 108.201 83.4509 112.502 84.052 117.335L95.3456 208.177C95.8454 212.199 99.0389 215.199 102.811 215.191L232.093 214.935C246.492 215.234 247.866 210.97 247.866 210.97C231.365 214.638 229.895 197.176 229.893 197.165Z" fill="#CD2929"/>
<g opacity="0.5">
<path d="M174.145 177.494L169.785 182.189L136.203 151.897L140.564 147.201L174.145 177.494Z" fill="white"/>
<path d="M167.955 146.16L172.774 150.507L142.389 183.231L137.57 178.884L167.955 146.16Z" fill="white"/>
</g>
<path d="M248.351 50.6471C248.04 50.5134 247.817 50.2103 247.801 49.8487L247.607 45.3181C247.594 45.0331 247.716 44.7589 247.935 44.5774C248.154 44.3953 248.445 44.3275 248.722 44.3929C249.448 44.5647 250.249 44.4061 250.919 43.9576C251.537 43.5448 251.951 42.9367 252.055 42.2891C252.161 41.644 251.961 40.93 251.509 40.3298C251.025 39.6871 250.31 39.2543 249.591 39.1718C248.126 39.0024 246.544 40.1283 246.137 41.6303C246.005 42.1154 245.506 42.4023 245.023 42.2701C244.531 42.1344 244.253 41.6376 244.384 41.1526C245.024 38.7916 247.453 37.0914 249.8 37.3623C251.016 37.5028 252.169 38.1841 252.958 39.2313C253.708 40.2268 254.032 41.4478 253.848 42.5819C253.662 43.7263 252.962 44.7794 251.927 45.4719C251.18 45.9721 250.322 46.2483 249.465 46.278L249.616 49.7702C249.637 50.2728 249.248 50.6974 248.747 50.7188C248.607 50.7252 248.473 50.6988 248.351 50.6471Z" fill="#E8505B"/>
<path d="M249.679 52.4976C249.708 52.908 249.399 53.2638 248.989 53.2916C248.58 53.3199 248.225 53.01 248.197 52.5996C248.169 52.1892 248.478 51.8334 248.887 51.8051C249.296 51.7768 249.651 52.0872 249.679 52.4976Z" fill="#E8505B"/>
<path d="M232.716 44.2587C232.722 44.2587 232.737 44.1582 232.76 43.9615C232.782 43.7492 232.815 43.4603 232.855 43.089C232.877 42.7029 232.975 42.2364 233.09 41.6864C233.155 41.4132 233.188 41.1091 233.288 40.8017C233.382 40.4923 233.483 40.1639 233.589 39.8164C234.06 38.4461 234.787 36.8025 236.01 35.1677C237.223 33.5364 238.93 31.9245 241.12 30.7035C242.199 30.0584 243.433 29.6089 244.727 29.2122C246.04 28.9004 247.433 28.6329 248.887 28.6676C249.615 28.6285 250.348 28.7354 251.096 28.7984C251.469 28.834 251.836 28.934 252.212 28.9994C252.587 29.0687 252.964 29.1424 253.331 29.2703C254.834 29.6568 256.293 30.3673 257.684 31.2481C260.476 33.0093 262.827 35.8748 264.117 39.3484C264.764 41.0862 265.073 42.9914 265.071 44.9155C265.109 46.8436 264.737 48.802 264.053 50.6456L263.833 51.2029L263.805 51.2766L263.834 51.3454C265.055 54.1646 266.252 56.9296 267.412 59.6087L267.617 59.3755C265.103 58.4073 262.666 57.4684 260.328 56.5675L260.238 56.5329L260.168 56.6017C258.146 58.5664 255.73 59.8942 253.285 60.5862C250.832 61.2796 248.362 61.3153 246.115 60.9146C243.863 60.5149 241.836 59.6512 240.145 58.541C238.45 57.4308 237.09 56.081 236.042 54.7092C235.001 53.3223 234.316 51.9003 233.798 50.63C233.343 49.3319 233.063 48.1798 232.928 47.2262C232.871 46.7499 232.819 46.3263 232.775 45.9569C232.765 45.5919 232.758 45.2815 232.751 45.0244C232.743 44.7848 232.737 44.5954 232.732 44.4529C232.726 44.3246 232.721 44.2587 232.716 44.2587C232.711 44.2587 232.707 44.3236 232.704 44.4524C232.702 44.5954 232.7 44.7843 232.697 45.0253C232.696 45.2835 232.695 45.5963 232.695 45.9633C232.733 46.3356 232.776 46.7626 232.824 47.2428C232.944 48.2056 233.21 49.372 233.656 50.6891C234.164 51.9779 234.845 53.4238 235.887 54.8371C236.938 56.2352 238.307 57.6133 240.02 58.7503C241.729 59.8874 243.783 60.776 246.069 61.1928C248.349 61.6095 250.861 61.5837 253.359 60.8858C255.85 60.1899 258.314 58.8435 260.38 56.8447L260.219 56.8789C262.556 57.7831 264.991 58.7259 267.503 59.698L267.871 59.84L267.709 59.4648C266.55 56.7847 265.355 54.0192 264.135 51.1995L264.136 51.3415L264.361 50.772C265.061 48.8879 265.44 46.8846 265.4 44.9141C265.402 42.9474 265.082 40.9998 264.42 39.225C263.098 35.6767 260.693 32.7609 257.845 30.9739C256.426 30.0798 254.937 29.3625 253.408 28.9731C253.034 28.8447 252.65 28.771 252.268 28.7017C251.887 28.6363 251.512 28.5363 251.133 28.5012C250.373 28.4402 249.627 28.3352 248.888 28.3777C247.41 28.3494 245.995 28.6266 244.664 28.9511C243.352 29.3605 242.103 29.8246 241.011 30.4854C238.797 31.7381 237.079 33.3851 235.864 35.0477C234.641 36.7132 233.924 38.3837 233.468 39.7725C233.366 40.1244 233.269 40.4577 233.179 40.7705C233.083 41.0818 233.054 41.3888 232.995 41.665C232.889 42.2213 232.8 42.6917 232.789 43.0807C232.762 43.454 232.742 43.7458 232.726 43.9591C232.714 44.1572 232.71 44.2582 232.716 44.2587Z" fill="#263238"/>
</svg>
