<svg width="40" height="41" viewBox="0 0 40 41" fill="none" xmlns="http://www.w3.org/2000/svg">
<path d="M6.66797 12.4121V29.0788C6.66797 32.7607 12.6375 35.7455 20.0013 35.7455C27.3651 35.7455 33.3346 32.7607 33.3346 29.0788V12.4121M6.66797 12.4121C6.66797 16.094 12.6375 19.0788 20.0013 19.0788C27.3651 19.0788 33.3346 16.094 33.3346 12.4121M6.66797 12.4121C6.66797 8.73025 12.6375 5.74548 20.0013 5.74548C27.3651 5.74548 33.3346 8.73025 33.3346 12.4121M33.3346 20.7455C33.3346 24.4274 27.3651 27.4121 20.0013 27.4121C12.6375 27.4121 6.66797 24.4274 6.66797 20.7455" stroke="#FFC147" stroke-width="2.5"/>
</svg>
