<svg width="924" height="924" viewBox="0 0 924 924" fill="none" xmlns="http://www.w3.org/2000/svg">
<path d="M803.964 808.463C804.229 808.463 804.458 808.266 804.489 807.996C804.522 807.706 804.313 807.444 804.025 807.411L755.183 801.81C754.871 801.769 754.631 801.986 754.598 802.274C754.564 802.565 754.774 802.827 755.062 802.859L803.904 808.46C803.925 808.463 803.945 808.463 803.964 808.463Z" fill="black"/>
<path d="M858.691 722.248C858.982 722.248 859.217 722.013 859.219 721.723C859.222 721.431 858.986 721.194 858.694 721.193C684.876 720.16 505.54 687.196 385.701 659.724C255.856 629.959 165.971 600.055 165.078 599.756C164.804 599.662 164.502 599.811 164.41 600.089C164.317 600.366 164.467 600.665 164.742 600.758C165.636 601.057 255.57 630.977 385.465 660.754C505.356 688.237 684.775 721.215 858.689 722.248C858.69 722.248 858.69 722.248 858.691 722.248Z" fill="black"/>
<path d="M794.824 848.628C795.114 848.628 795.35 848.394 795.352 848.104C795.354 847.812 795.119 847.575 794.827 847.573C621.013 846.541 441.681 813.579 321.847 786.109C191.999 756.342 102.104 726.436 101.211 726.136C100.939 726.048 100.635 726.191 100.542 726.469C100.45 726.746 100.6 727.045 100.875 727.138C101.769 727.437 191.703 757.357 321.598 787.134C441.488 814.617 620.907 847.597 794.821 848.628C794.823 848.628 794.823 848.628 794.824 848.628Z" fill="black"/>
<path d="M459.047 348.917C459.047 348.917 464.303 355.248 461.283 360.062C458.262 364.876 442.44 356.338 442.44 356.338L459.047 348.917Z" fill="black"/>
<path d="M346.869 301.712C346.869 301.712 362.523 287.512 359.998 283.595C356.882 278.762 346.913 288.649 346.913 288.649C346.913 288.649 342.496 279.202 345.682 270.682C348.868 262.163 338.046 263.804 337.188 282.301C337.188 282.301 336.5 275.789 337.973 266.85C339.448 257.912 328.616 262.458 329.499 282.76C329.499 282.76 327.584 280.728 326.883 274.172C326.183 267.615 315.912 273.474 324.549 300.773L346.869 301.712Z" fill="white"/>
<path d="M346.866 302.239C346.997 302.239 347.123 302.191 347.22 302.102C348.856 300.619 363.127 287.481 360.437 283.309C357.72 279.094 350.753 284.338 347.098 287.737C346.188 285.439 343.588 277.779 346.173 270.867C347.874 266.313 345.76 264.562 343.572 265.427C341.832 266.107 339.111 268.848 337.635 274.968C337.747 272.667 337.996 269.935 338.491 266.935C339.23 262.452 337.012 261.244 334.985 262.345C331.94 264.002 328.878 270.384 328.917 280.663C328.377 279.38 327.743 277.294 327.403 274.115C327.087 271.143 324.959 270.435 323.301 272.018C320.323 274.867 318.731 284.149 324.041 300.931C324.109 301.144 324.301 301.291 324.523 301.3L346.843 302.24C346.851 302.239 346.858 302.239 346.866 302.239ZM359.55 283.88C361.197 286.436 352.591 295.777 346.671 301.176L324.937 300.261C319.557 283.048 321.826 274.89 324.031 272.781C325.278 271.592 326.174 272.542 326.354 274.227C327.066 280.884 329.028 283.033 329.11 283.122C329.442 283.476 330.045 283.224 330.022 282.736C329.508 270.917 333.011 264.621 335.49 263.273C337.443 262.214 337.811 264.558 337.448 266.764C335.979 275.671 336.652 282.291 336.66 282.357C336.688 282.63 336.871 282.839 337.201 282.828C337.476 282.821 337.698 282.602 337.712 282.326C338.214 271.474 342.016 267.169 343.956 266.409C346.07 265.576 346.01 268.288 345.183 270.496C341.957 279.125 346.245 288.478 346.429 288.873C346.585 289.199 347.021 289.286 347.28 289.024C350.186 286.118 357.318 280.42 359.55 283.88Z" fill="black"/>
<path d="M569.699 315.753C569.699 315.753 552.571 303.371 554.647 299.198C557.21 294.05 568.211 302.775 568.211 302.775C568.211 302.775 571.556 292.897 567.448 284.782C563.339 276.667 574.277 277.102 577.174 295.39C577.174 295.39 577.138 288.842 574.685 280.121C572.232 271.4 583.5 274.721 584.867 294.996C584.867 294.996 586.546 292.765 586.517 286.171C586.488 279.578 598.025 287.086 592.459 315.173L569.699 315.753Z" fill="white"/>
<path d="M569.707 316.28C569.711 316.28 569.716 316.28 569.72 316.28L592.481 315.701C592.728 315.695 592.938 315.518 592.986 315.276C596.878 295.63 592.453 286.27 589.569 284.066C587.782 282.707 585.984 283.492 585.998 286.174C586.011 289.369 585.613 291.512 585.219 292.849C584.121 282.63 580.371 276.624 577.161 275.315C575.028 274.444 572.955 275.888 574.185 280.264C575.009 283.19 575.557 285.877 575.923 288.15C573.78 282.232 570.773 279.81 568.969 279.326C566.697 278.712 564.79 280.684 566.985 285.021C570.323 291.611 568.582 299.506 567.931 301.891C563.916 298.907 556.417 294.475 554.184 298.962C551.971 303.408 567.608 314.886 569.398 316.18C569.487 316.246 569.596 316.28 569.707 316.28ZM592.032 314.656L569.872 315.22C563.39 310.514 553.771 302.16 555.129 299.433C555.468 298.751 555.986 298.342 556.713 298.18C560.482 297.35 567.818 303.131 567.891 303.188C568.178 303.419 568.604 303.285 568.719 302.944C568.858 302.531 572.088 292.76 567.928 284.543C566.869 282.453 566.513 279.761 568.695 280.345C570.707 280.886 574.962 284.744 576.662 295.472C576.768 296.127 577.714 296.026 577.71 295.387C577.71 295.32 577.647 288.667 575.202 279.978C574.592 277.811 574.717 275.455 576.763 276.293C579.376 277.358 583.553 283.229 584.348 295.032C584.381 295.52 585.007 295.704 585.297 295.313C585.37 295.217 587.084 292.863 587.053 286.168C587.047 284.623 587.677 283.952 588.926 284.906C592.045 287.288 595.414 297.165 592.032 314.656Z" fill="black"/>
<path d="M656.493 804.386L684.492 826.608C686.208 827.962 688.701 827.681 690.068 825.965L697.198 816.985C697.694 816.355 697.989 815.497 698.029 814.572L698.472 803.3C698.525 801.986 699.33 800.968 700.308 800.981L708.685 801.142C709.369 801.156 710.025 800.821 710.521 800.204L747.058 754.164C748.305 752.596 748.197 750.116 746.844 748.642C739.499 740.624 729 739.547 720.989 746.819C704.109 760.632 709.931 755.868 708.671 756.898L697.627 751.792L656.493 804.386Z" fill="#FFAE44"/>
<path d="M690.497 826.293L697.628 817.314C698.193 816.597 698.528 815.631 698.573 814.594L699.015 803.321C699.056 802.312 699.679 801.464 700.317 801.51L708.691 801.67C708.709 801.672 708.725 801.672 708.741 801.672C709.577 801.672 710.359 801.269 710.948 800.536L747.488 754.493C748.884 752.734 748.777 749.95 747.249 748.285C739.779 740.131 728.951 738.895 720.649 746.429C704.15 759.929 709.841 755.273 708.61 756.28L697.864 751.313C697.643 751.208 697.376 751.273 697.227 751.466L656.093 804.061C655.913 804.289 655.953 804.619 656.18 804.8L684.18 827.022C686.127 828.554 688.955 828.229 690.497 826.293ZM700.305 800.455C699.053 800.455 698.026 801.688 697.96 803.279L697.518 814.551C697.482 815.367 697.228 816.115 696.799 816.659L689.671 825.636C688.491 827.118 686.322 827.37 684.836 826.194L657.248 804.298L697.8 752.445L708.467 757.377C708.651 757.466 708.866 757.436 709.022 757.307L721.336 747.231C729.214 740.085 739.367 741.247 746.471 748.999C747.663 750.298 747.749 752.468 746.66 753.836L710.123 799.876C709.734 800.361 709.222 800.571 708.712 800.615C706.034 800.564 699.913 800.447 700.305 800.455Z" fill="#FFAE44"/>
<path d="M681.164 772.87L668.125 813.611L656.495 804.381L681.164 772.87Z" fill="black"/>
<path d="M668.63 813.771L681.67 773.03C681.748 772.787 681.641 772.522 681.415 772.403C681.19 772.285 680.91 772.344 680.752 772.544L656.084 804.055C655.904 804.283 655.944 804.613 656.171 804.794L667.799 814.025C668.079 814.248 668.514 814.133 668.63 813.771ZM679.767 775.517L667.858 812.722L657.239 804.293L679.767 775.517Z" fill="black"/>
<path d="M682.122 824.728L684.486 826.604C686.201 827.966 688.696 827.679 690.058 825.963L697.188 816.979C697.683 816.356 697.978 815.496 698.014 814.574L698.422 804.191L682.122 824.728Z" fill="black"/>
<path d="M690.46 826.292L697.591 817.308C698.155 816.593 698.489 815.631 698.531 814.596L698.937 804.212C698.957 803.701 698.315 803.469 697.996 803.863L681.696 824.399C681.515 824.628 681.553 824.961 681.781 825.142L684.146 827.018C686.087 828.557 688.911 828.241 690.46 826.292ZM697.819 805.785L697.476 814.555C697.443 815.368 697.19 816.112 696.763 816.651L689.632 825.635C688.475 827.094 686.319 827.395 684.803 826.191L682.852 824.642L697.819 805.785Z" fill="black"/>
<path d="M700.958 800.997L708.675 801.146C709.359 801.16 710.015 800.821 710.509 800.198L747.046 754.164C748.236 752.665 748.128 750.06 746.833 748.646C746.042 747.782 745.211 747.017 744.357 746.318L700.958 800.997Z" fill="black"/>
<path d="M708.712 801.676C709.548 801.676 710.33 801.269 710.921 800.527L747.458 754.493C748.802 752.796 748.69 749.897 747.219 748.29C746.468 747.468 745.64 746.688 744.688 745.911C744.465 745.727 744.127 745.757 743.94 745.99L700.541 800.668C700.27 801.013 700.512 801.518 700.945 801.524L708.662 801.674C708.679 801.676 708.696 801.676 708.712 801.676ZM744.43 747.071C745.171 747.703 745.833 748.338 746.441 749.002C747.568 750.234 747.659 752.538 746.63 753.836L710.093 799.87C709.702 800.363 709.234 800.649 708.683 800.619L702.032 800.49L744.43 747.071Z" fill="black"/>
<path d="M720 747.609C725.771 752.332 734.498 749.477 736.445 742.342C731.165 741.163 725.629 742.597 720.978 746.819L720 747.609Z" fill="black"/>
<path d="M736.95 742.481C737.029 742.194 736.852 741.895 736.555 741.827C730.931 740.579 725.271 742.205 720.618 746.429L719.663 747.197C719.404 747.407 719.4 747.804 719.66 748.017C725.717 752.974 734.895 750.002 736.95 742.481ZM735.767 742.743C733.681 748.939 726.178 751.387 720.849 747.597L721.304 747.23C725.563 743.366 730.664 741.79 735.767 742.743Z" fill="black"/>
<path d="M313.898 591.537L285.899 569.315C284.184 567.961 281.691 568.243 280.324 569.959L273.193 578.938C272.697 579.569 272.402 580.426 272.362 581.351L271.92 592.623C271.866 593.937 271.062 594.955 270.083 594.942L261.706 594.781C261.023 594.768 260.366 595.103 259.87 595.719L223.333 641.759C222.087 643.327 222.194 645.807 223.548 647.281C230.892 655.299 241.391 656.377 249.402 649.104C266.282 635.291 260.46 640.055 261.72 639.025L272.764 644.132L313.898 591.537Z" fill="#FFAE44"/>
<path d="M249.768 649.494C266.267 635.995 260.577 640.651 261.808 639.644L272.554 644.611C272.771 644.718 273.04 644.652 273.19 644.458L314.325 591.863C314.505 591.634 314.465 591.304 314.238 591.123L286.237 568.902C284.293 567.37 281.462 567.695 279.921 569.631L272.79 578.611C272.226 579.327 271.89 580.292 271.846 581.33L271.404 592.604C271.362 593.605 270.784 594.416 270.113 594.416C270.109 594.416 270.104 594.416 270.101 594.416L261.727 594.254C261.711 594.252 261.693 594.252 261.677 594.252C260.842 594.252 260.06 594.654 259.47 595.388L222.93 641.431C221.534 643.19 221.642 645.974 223.169 647.638C230.724 655.885 241.547 656.958 249.768 649.494ZM261.395 638.617L249.082 648.693C241.254 655.799 231.092 654.721 223.946 646.925C222.755 645.626 222.669 643.456 223.758 642.088L260.295 596.048C260.685 595.563 261.21 595.32 261.706 595.308L270.083 595.47C271.384 595.447 272.392 594.246 272.458 592.646L272.9 581.373C272.935 580.557 273.19 579.808 273.617 579.266L280.747 570.288C281.925 568.807 284.094 568.557 285.582 569.73L313.17 591.626L272.617 643.477L261.951 638.546C261.781 638.465 261.557 638.483 261.395 638.617Z" fill="#FFAE44"/>
<path d="M289.222 623.054L302.261 582.313L313.891 591.544L289.222 623.054Z" fill="black"/>
<path d="M289.631 623.38L314.301 591.869C314.481 591.641 314.441 591.311 314.214 591.13L302.584 581.899C302.302 581.675 301.869 581.794 301.754 582.152L288.714 622.894C288.534 623.452 289.269 623.84 289.631 623.38ZM313.146 591.63L290.617 620.409L302.525 583.201L313.146 591.63Z" fill="black"/>
<path d="M288.242 571.195L285.878 569.318C284.163 567.957 281.668 568.244 280.306 569.959L273.176 578.943C272.681 579.566 272.386 580.426 272.35 581.348L271.942 591.731L288.242 571.195Z" fill="black"/>
<path d="M272.359 592.059L288.659 571.523C288.84 571.295 288.802 570.962 288.574 570.781L286.209 568.904C284.307 567.395 281.472 567.647 279.896 569.63L272.765 578.615C272.199 579.329 271.866 580.293 271.826 581.328L271.418 591.71C271.398 592.222 272.041 592.455 272.359 592.059ZM287.503 571.28L272.536 590.137L272.881 581.369C272.912 580.556 273.165 579.811 273.592 579.272L280.723 570.287C281.9 568.804 284.067 568.555 285.552 569.732L287.503 571.28Z" fill="black"/>
<path d="M269.414 594.926L261.697 594.777C261.013 594.764 260.358 595.103 259.864 595.725L223.326 641.76C222.137 643.258 222.245 645.863 223.54 647.278C224.331 648.141 225.162 648.906 226.015 649.605L269.414 594.926Z" fill="black"/>
<path d="M226.44 649.933L269.839 595.255C270.11 594.91 269.868 594.406 269.435 594.4L261.718 594.249C260.86 594.165 260.06 594.64 259.461 595.397L222.923 641.431C221.578 643.128 221.69 646.027 223.161 647.634C223.918 648.463 224.748 649.241 225.692 650.014C225.923 650.199 226.257 650.163 226.44 649.933ZM268.348 595.433L225.95 648.854C225.212 648.224 224.552 647.59 223.939 646.921C222.812 645.689 222.721 643.385 223.75 642.088L260.289 596.054C260.679 595.56 261.223 595.292 261.697 595.304L268.348 595.433Z" fill="black"/>
<path d="M250.367 648.314C244.596 643.592 235.869 646.447 233.922 653.581C239.202 654.761 244.738 653.326 249.389 649.105L250.367 648.314Z" fill="black"/>
<path d="M249.748 649.495L250.702 648.726C250.961 648.516 250.965 648.119 250.705 647.907C244.674 642.967 235.479 645.894 233.416 653.442C233.337 653.729 233.513 654.028 233.811 654.096C239.667 655.402 245.286 653.546 249.748 649.495ZM249.516 648.326C248.958 648.657 243.325 654.816 234.599 653.18C236.685 646.985 244.189 644.538 249.516 648.326Z" fill="black"/>
<path d="M536.297 539.394C536.297 539.394 506.273 558.081 460.078 556.909C413.883 555.736 473.913 527.363 473.913 527.363L536.297 539.394Z" fill="black"/>
<path d="M381.787 549.158C381.787 583.263 427.886 632.24 482.325 678.178C492.851 687.045 503.686 695.825 514.565 704.34C584.756 759.366 656.578 804.276 656.578 804.276L707.742 738.21C707.742 738.21 529.702 572.546 467.277 500.181C451.186 481.536 381.787 481.037 381.787 549.158Z" fill="white"/>
<path d="M657.007 804.599L708.17 738.532C708.338 738.317 708.313 738.009 708.113 737.824C706.333 736.166 529.38 571.352 467.687 499.836C459.286 490.099 436.334 484.859 415.556 492.584C402.752 497.345 381.272 511.027 381.272 549.158C381.272 578.638 415.16 622.182 481.997 678.582C492.314 687.272 503.167 696.078 514.252 704.756C583.662 759.169 655.591 804.275 656.31 804.724C656.532 804.863 656.838 804.819 657.007 804.599ZM707.041 738.267L656.467 803.575C650.549 799.849 581.563 756.181 514.903 703.925C503.827 695.254 492.985 686.456 482.678 677.775C416.09 621.585 382.327 578.312 382.327 549.158C382.327 511.665 403.377 498.239 415.925 493.574C435.985 486.12 458.883 491.251 466.889 500.526C527.296 570.552 698.083 729.919 707.041 738.267Z" fill="black"/>
<path d="M482.327 678.178C492.853 687.045 503.688 695.825 514.567 704.34C514.787 669.12 504.026 632.152 504.026 632.152L482.327 678.178Z" fill="black"/>
<path d="M658.913 753.025C659.066 752.777 658.99 752.452 658.741 752.299C538.091 677.887 470.709 559.933 470.041 558.75C469.899 558.493 469.579 558.403 469.323 558.549C469.069 558.692 468.979 559.015 469.122 559.268C469.79 560.453 537.307 678.644 658.187 753.197C658.426 753.345 658.756 753.28 658.913 753.025Z" fill="black"/>
<path d="M480.253 536.682C480.253 536.682 545.582 710.398 469.582 743.4C398.153 774.416 267.84 652.029 267.84 652.029L313.862 591.615C313.862 591.615 410.808 661.182 399.902 639.159C360.847 560.291 389.278 515.874 389.278 515.874" fill="white"/>
<path d="M469.804 743.884C487.304 736.284 498.755 720.608 503.84 697.29C507.891 678.713 507.928 655.263 503.952 627.59C497.19 580.523 480.922 536.932 480.758 536.497C480.655 536.225 480.346 536.089 480.079 536.189C479.807 536.291 479.668 536.596 479.771 536.868C479.933 537.303 496.165 580.8 502.909 627.756C509.114 670.956 508.334 726.002 469.383 742.915C432.702 758.842 379.987 733.21 342.223 708.901C303.503 683.975 272.19 655.324 268.563 651.968L313.983 592.343C321.172 597.494 393.757 649.317 400.656 643.467C401.595 642.67 401.506 641.185 400.387 638.925C361.909 561.223 389.452 516.6 389.735 516.158C389.892 515.914 389.82 515.587 389.574 515.429C389.33 515.272 389.004 515.344 388.845 515.59C388.559 516.036 360.702 561.163 399.441 639.394C400.277 641.082 400.466 642.243 399.972 642.661C395.245 646.703 346.077 614.074 314.181 591.187C313.95 591.021 313.624 591.068 313.454 591.296L267.433 651.709C267.269 651.924 267.295 652.229 267.492 652.413C267.817 652.719 300.58 683.349 341.652 709.79C376.847 732.447 431.57 760.482 469.804 743.884Z" fill="black"/>
<path d="M414.869 696.333C434.057 696.333 451.106 689.883 458.709 671.849C476.362 629.976 437.324 545.86 436.926 545.016C436.802 544.751 436.487 544.633 436.225 544.763C435.961 544.887 435.846 545.2 435.971 545.464C436.365 546.305 475.207 629.999 457.736 671.439C450.321 689.028 433.648 695.279 414.884 695.283C363.217 695.286 313.241 638.733 312.673 638.08C312.48 637.86 312.145 637.838 311.929 638.03C311.708 638.221 311.686 638.554 311.877 638.775C312.039 638.961 328.407 657.612 351.821 673.493C368.407 684.744 391.235 696.332 414.869 696.333Z" fill="black"/>
<path d="M335.395 432.721C366.153 500.46 380.482 543.55 380.482 543.55C441.894 567.525 474.985 525.595 536.294 539.395C536.294 539.395 542.784 492.004 562.824 459.588C582.834 427.215 613.313 400.877 601.935 313.405L547.247 312.818C547.247 312.818 551.871 400.348 501.074 413.165C494.438 414.839 486.363 415.705 477.657 415.808C463.754 415.984 448.251 414.252 434.436 410.816C422.793 407.938 412.355 403.857 405.102 398.733C362.335 368.504 365.536 299.297 365.536 299.297H310.936C293.95 361.531 335.395 432.721 335.395 432.721Z" fill="#73ACFF"/>
<path d="M442.224 412.534C439.596 412.02 436.998 411.448 434.458 410.817C434.341 411.345 434.252 411.888 434.223 412.446C433.68 420.697 442.988 428.008 455.012 428.801C466.757 429.565 476.755 423.795 477.68 415.808C474.083 415.852 470.383 415.779 466.625 415.558L463.424 399.027C486.929 390.967 457.434 353.765 454.498 350.975L423.462 374.025L435.706 394.373L442.224 412.534Z" fill="white"/>
<path d="M466.722 416.076C467.008 416.02 467.195 415.743 467.14 415.458L464.025 399.371C468.78 397.623 471.673 394.525 472.625 390.162C475.742 375.876 456.709 352.35 454.859 350.592C454.672 350.415 454.388 350.399 454.18 350.55L423.144 373.6C422.926 373.762 422.867 374.064 423.007 374.296L435.251 394.646L441.725 412.712C441.823 412.986 442.123 413.134 442.4 413.03C442.674 412.931 442.817 412.629 442.718 412.355L436.2 394.195L424.159 374.162L454.438 351.676C457.443 354.956 474.49 376.661 471.594 389.936C470.697 394.046 467.889 396.936 463.25 398.527C463.001 398.612 462.852 398.869 462.902 399.127L466.103 415.658C466.156 415.93 466.417 416.129 466.722 416.076Z" fill="black"/>
<path d="M328.587 91.5003L269.76 222.944C263.768 236.332 269.764 252.041 283.152 258.033L509.221 359.209C522.609 365.201 538.319 359.205 544.311 345.818L603.137 214.374C609.129 200.986 603.133 185.276 589.746 179.285L363.676 78.1084C350.288 72.1168 334.578 78.1126 328.587 91.5003Z" fill="white"/>
<path d="M544.8 346.033L603.626 214.589C609.742 200.932 603.636 184.919 589.967 178.804L363.899 77.6276C350.24 71.5128 334.227 77.6172 328.112 91.2861L269.285 222.73C263.184 236.361 269.312 252.415 282.944 258.515L509.014 359.691C522.777 365.853 538.731 359.596 544.8 346.033ZM352.845 76.3061C356.46 76.3061 360.069 77.0692 363.469 78.5909L589.537 179.767C602.671 185.645 608.539 201.028 602.663 214.159L543.836 345.603C537.963 358.726 522.579 364.608 509.444 358.728L283.374 257.552C270.244 251.676 264.372 236.292 270.249 223.16L329.075 91.7162C333.448 81.944 343.019 76.3061 352.845 76.3061Z" fill="black"/>
<path d="M344.489 77.1311L420.173 225.371C424.31 233.467 433.517 237.588 442.311 235.279L603.281 192.952C600.735 187.075 596.059 182.099 589.76 179.28L363.693 78.1052C357.394 75.2861 350.569 75.1141 344.489 77.1311Z" fill="#FFC176"/>
<path d="M437.457 236.431C439.111 236.431 440.78 236.223 442.432 235.79L603.403 193.464C603.721 193.379 603.879 193.036 603.754 192.742C601.058 186.524 596.161 181.572 589.963 178.799L363.896 77.6234C357.697 74.851 350.739 74.4975 344.31 76.6305C343.998 76.7343 343.86 77.0883 344.006 77.3714L419.69 225.611C423.128 232.342 430.128 236.431 437.457 236.431ZM602.533 192.601L442.163 234.768C433.676 237.001 424.622 232.944 420.63 225.131L345.228 77.4453C351.241 75.6069 357.694 76.0047 363.465 78.5869L589.533 179.763C595.301 182.344 599.897 186.888 602.533 192.601Z" fill="black"/>
<path d="M269.81 244.723C272.39 250.436 276.999 255.272 283.173 258.035L509.24 359.21C515.415 361.973 522.091 362.188 528.07 360.306L456.628 231.519L442.317 235.279C433.524 237.587 424.316 233.467 420.179 225.371L413.448 212.195L269.81 244.723Z" fill="white"/>
<path d="M528.224 360.81C528.541 360.71 528.691 360.341 528.526 360.05L457.085 231.264C456.968 231.053 456.725 230.941 456.49 231.009L442.178 234.768C433.691 237.001 424.637 232.945 420.645 225.131L413.914 211.956C413.804 211.742 413.561 211.63 413.328 211.68L269.689 244.208C269.365 244.281 269.186 244.632 269.324 244.941C272.055 250.984 276.895 255.807 282.954 258.517L509.021 359.692C515.064 362.398 521.881 362.806 528.224 360.81ZM527.286 359.989C521.383 361.688 515.077 361.247 509.451 358.728L283.384 257.554C277.76 255.036 273.227 250.627 270.561 245.093L413.162 212.801L419.705 225.611C423.92 233.862 433.48 238.141 442.447 235.79L456.361 232.134L527.286 359.989Z" fill="black"/>
<path d="M459.747 343.364C457.495 335.178 443.708 339.446 425.833 346.737C390.909 360.981 418.904 398.16 434.268 395.758C445.666 393.976 431.115 382.696 431.115 382.696C431.115 382.696 440.119 381.399 437.097 374.484C434.075 367.569 464.232 359.664 459.747 343.364Z" fill="black"/>
<path d="M461.672 378.241C462.878 377.883 464.46 377.247 465.146 376.246C465.82 375.266 465.396 374.224 464.272 373.723C463.451 373.357 462.444 373.26 461.631 373.016C459.872 372.493 459.012 371.301 458.18 370.148C458.006 369.911 457.68 369.862 457.442 370.029C457.206 370.199 457.153 370.529 457.323 370.766C458.171 371.94 459.227 373.402 461.331 374.028C462.139 374.271 463.168 374.386 463.843 374.686C464.328 374.904 464.578 375.207 464.277 375.648C463.882 376.221 462.825 376.797 461.372 377.227C461.092 377.311 460.933 377.605 461.016 377.884C461.101 378.169 461.399 378.321 461.672 378.241Z" fill="black"/>
<path d="M455.174 371.958C455.391 372.772 454.911 373.601 454.097 373.818C453.29 374.033 452.454 373.554 452.237 372.74C452.02 371.925 452.507 371.095 453.314 370.88C454.129 370.663 454.958 371.143 455.174 371.958Z" fill="black"/>
<path d="M448.07 372.404C448.219 371.006 448.726 370.004 449.577 369.43C451.111 368.396 453.288 369 453.31 369.007C453.596 369.085 453.883 368.923 453.964 368.645C454.044 368.364 453.882 368.072 453.602 367.991C453.491 367.962 450.924 367.25 448.987 368.555C447.864 369.312 447.203 370.57 447.021 372.292C446.991 372.583 447.201 372.843 447.49 372.873C447.744 372.912 448.038 372.715 448.07 372.404Z" fill="black"/>
<path d="M464.854 366.999C465.071 367.813 464.591 368.642 463.776 368.859C462.969 369.074 462.133 368.595 461.916 367.781C461.699 366.967 462.187 366.136 462.994 365.921C463.808 365.704 464.637 366.184 464.854 366.999Z" fill="black"/>
<path d="M458.361 367.113C458.508 365.717 459.013 364.718 459.863 364.142C461.388 363.111 463.58 363.71 463.602 363.718C463.88 363.788 464.175 363.635 464.253 363.354C464.333 363.074 464.172 362.782 463.892 362.701C463.783 362.67 461.217 361.956 459.277 363.264C458.155 364.021 457.493 365.279 457.312 367.001C457.281 367.292 457.492 367.552 457.78 367.582C458.034 367.62 458.329 367.424 458.361 367.113Z" fill="black"/>
<path d="M463.462 399.042C459.617 400.496 454.527 399.354 449.045 397.677C449.045 397.677 451.076 405.918 464.328 403.714L463.462 399.042Z" fill="black"/>
<path d="M460.136 404.613C461.422 404.613 462.844 404.496 464.418 404.236C464.704 404.188 464.906 403.911 464.85 403.618L463.984 398.947C463.926 398.627 463.586 398.429 463.278 398.55C459.51 399.973 454.287 398.729 449.203 397.172C448.781 397.058 448.442 397.427 448.536 397.804C448.555 397.881 450.343 404.613 460.136 404.613ZM463.713 403.277C454.239 404.688 450.948 400.463 449.948 398.499C455.233 400.056 459.55 400.818 463.057 399.74L463.713 403.277Z" fill="black"/>
<path d="M438.196 384.407C439.082 387.507 437.285 390.742 434.185 391.628C431.072 392.518 427.836 390.721 426.95 387.622C426.06 384.508 427.857 381.273 430.971 380.383C434.071 379.497 437.306 381.294 438.196 384.407Z" fill="white"/>
<path d="M434.317 392.137C437.694 391.171 439.656 387.638 438.692 384.264V384.262C437.722 380.878 434.185 378.912 430.813 379.875C427.42 380.847 425.458 384.369 426.43 387.768C427.401 391.156 430.925 393.105 434.317 392.137ZM437.676 384.552C438.48 387.369 436.844 390.315 434.027 391.121C431.215 391.928 428.257 390.316 427.447 387.478C426.629 384.627 428.286 381.694 431.103 380.892C433.921 380.076 436.869 381.727 437.676 384.554V384.552Z" fill="black"/>
<path d="M467.347 380.781C465.63 381.124 466.234 381.687 460.747 383.122C455.259 384.558 464.778 392.112 468.178 390.072C471.577 388.033 470.206 380.209 467.347 380.781Z" fill="black"/>
<path d="M464.143 387.915C463.304 387.49 464.619 386.109 465.351 385.67C466.044 385.254 467.027 386.107 468.194 386.005C468.624 385.968 465.482 388.595 464.143 387.915Z" fill="white"/>
<path d="M630.328 785.047L687.387 719.097C687.578 718.878 687.553 718.544 687.334 718.354C687.114 718.161 686.78 718.186 686.588 718.408L629.53 784.358C629.338 784.578 629.363 784.912 629.583 785.102C629.799 785.29 630.134 785.271 630.328 785.047Z" fill="black"/>
<path d="M287.148 668.885L338.218 608.655C338.407 608.432 338.38 608.1 338.158 607.911C337.932 607.725 337.604 607.751 337.414 607.971L286.343 668.202C286.155 668.424 286.181 668.757 286.404 668.945C286.631 669.136 286.96 669.104 287.148 668.885Z" fill="black"/>
<path d="M585.17 299.504C585.489 297.99 585.571 296.455 585.417 294.942C585.387 294.652 585.145 294.453 584.836 294.471C584.547 294.502 584.335 294.761 584.365 295.051C584.509 296.454 584.433 297.88 584.136 299.286C584.078 299.572 584.26 299.852 584.544 299.912C584.831 299.97 585.11 299.789 585.17 299.504Z" fill="black"/>
<path d="M577.389 299.504C577.707 297.99 577.79 296.455 577.635 294.942C577.606 294.651 577.37 294.453 577.055 294.47C576.766 294.501 576.554 294.761 576.583 295.051C576.728 296.453 576.651 297.879 576.355 299.286C576.296 299.572 576.479 299.852 576.763 299.912C577.05 299.969 577.328 299.789 577.389 299.504Z" fill="black"/>
<path d="M573.222 310.168C573.231 310.168 573.241 310.168 573.251 310.168C573.542 310.151 573.765 309.903 573.749 309.611C573.435 303.901 568.428 302.285 568.378 302.27C568.101 302.185 567.805 302.338 567.718 302.617C567.631 302.895 567.788 303.191 568.065 303.278C568.243 303.334 572.422 304.707 572.694 309.67C572.711 309.951 572.944 310.168 573.222 310.168Z" fill="black"/>
<path d="M350.58 298.135C355.036 293.658 361.705 286.256 359.99 283.595C356.874 278.762 346.905 288.649 346.905 288.649C346.905 288.649 342.008 288.622 342.521 294.994" fill="white"/>
<path d="M350.968 298.507C358.731 290.707 361.921 285.594 360.447 283.309C357.674 279.007 350.376 284.568 346.693 288.132C346.122 288.178 344.609 288.419 343.436 289.685C342.302 290.907 341.822 292.707 342.009 295.036C342.032 295.325 342.28 295.54 342.577 295.52C342.868 295.496 343.084 295.243 343.06 294.951C342.898 292.93 343.284 291.399 344.211 290.402C345.336 289.188 346.885 289.176 346.916 289.176C346.917 289.176 346.917 289.176 346.918 289.176C347.057 289.176 347.191 289.122 347.29 289.025C350.06 286.255 357.328 280.42 359.56 283.881C360.662 285.59 357.17 290.779 350.22 297.762C350.013 297.968 350.015 298.302 350.221 298.508C350.425 298.712 350.761 298.714 350.968 298.507Z" fill="black"/>
<path d="M312.905 317.717L360.406 324.85L360.182 326.341L312.681 319.208L312.905 317.717Z" fill="black"/>
<path d="M351.362 311.952C351.362 313.865 352.939 315.443 354.853 315.443C356.792 315.443 358.344 313.865 358.344 311.952C358.344 310.012 356.792 308.461 354.853 308.461C352.939 308.461 351.362 310.012 351.362 311.952Z" fill="white"/>
<path d="M598.63 330.517L598.922 331.995L549.097 341.838L548.805 340.36L598.63 330.517Z" fill="black"/>
<path d="M559.151 325.617C559.151 327.531 560.728 329.108 562.642 329.108C564.581 329.108 566.133 327.531 566.133 325.617C566.133 323.677 564.581 322.126 562.642 322.126C560.728 322.126 559.151 323.677 559.151 325.617Z" fill="white"/>
<path d="M351.367 469.555C351.658 469.555 351.895 469.32 351.895 469.03C352.076 426.536 381.744 409.37 382.043 409.201C382.298 409.059 382.388 408.737 382.245 408.483C382.105 408.226 381.778 408.137 381.527 408.28C381.222 408.453 351.022 425.894 350.84 469.024C350.838 469.316 351.074 469.555 351.364 469.555C351.366 469.555 351.367 469.555 351.367 469.555Z" fill="black"/>
<path d="M559.957 464.902C559.957 464.902 559.959 464.902 559.96 464.902C560.25 464.902 560.486 464.663 560.484 464.372C560.303 421.243 530.102 403.8 529.797 403.628C529.548 403.486 529.222 403.573 529.08 403.831C528.937 404.084 529.027 404.407 529.281 404.548C529.58 404.718 559.25 421.885 559.43 464.378C559.43 464.668 559.667 464.902 559.957 464.902Z" fill="black"/>
<path d="M755.359 685.357C766.384 676.912 772.554 663.741 777.999 652.12C778.123 651.856 778.008 651.541 777.744 651.417C777.482 651.29 777.167 651.407 777.041 651.672C771.648 663.183 765.536 676.23 754.717 684.518C744.664 692.22 727.94 694.679 718.449 685.228C708.6 675.421 711.268 658.85 716.545 647.64C722.327 635.358 731.372 624.406 734.756 611.148C740.819 587.392 727.567 563.808 714.936 543.325C704.682 526.694 694.08 509.496 693.039 490.184C692.373 477.824 695.631 464.494 703.003 449.432C711.272 432.53 721.509 420.386 733.423 413.338C763.24 395.708 796.598 412.545 796.588 450.881C796.582 465.851 791.475 480.37 786.245 493.957C781.545 506.115 776.5 518.535 775.629 531.475C774.56 547.351 779.899 561.169 794.298 569.791C805.153 576.297 811.651 584.988 800.397 604.644C795.387 613.392 789.088 621.294 781.674 628.128C781.461 628.326 781.446 628.659 781.643 628.874C781.842 629.089 782.175 629.103 782.39 628.905C789.882 621.998 796.249 614.011 801.313 605.168C812.83 585.048 805.941 575.532 794.84 568.884C780.776 560.464 775.642 546.985 776.683 531.546C777.542 518.776 782.549 506.445 787.229 494.337C792.495 480.657 797.636 466.032 797.642 450.881C797.656 411.697 763.303 394.436 732.887 412.431C720.79 419.584 710.416 431.877 702.054 448.966C694.601 464.196 691.307 477.697 691.984 490.239C693.04 509.821 703.714 527.135 714.037 543.879C726.48 564.067 739.72 587.427 733.734 610.885C730.406 623.918 721.351 634.951 715.59 647.189C710.166 658.712 707.467 675.782 717.704 685.976C727.544 695.771 744.434 693.726 755.359 685.357Z" fill="black"/>
<path d="M783.116 718.434C783.303 717.6 801.421 634.129 755.523 553.812C741.352 529.013 732.618 502.468 729.563 474.913C729.531 474.625 729.273 474.41 728.98 474.448C728.691 474.48 728.482 474.741 728.514 475.03C731.586 502.728 740.364 529.41 754.607 554.336C800.293 634.287 782.273 717.372 782.085 718.201C782.021 718.485 782.2 718.768 782.484 718.833C782.762 718.895 783.05 718.723 783.116 718.434Z" fill="black"/>
<path d="M795.102 668.227C790.958 664.408 787.403 659.949 784.603 655.058C781.74 650.059 779.813 643.366 783.401 638.858C785.297 636.476 788.305 635.324 790.755 633.517C796.59 629.215 798.867 621.353 798.379 614.12C797.384 599.346 786.695 586.074 786.689 569.147C786.674 525.102 847.532 544.787 845.035 591.084C844.38 603.216 837.055 613.787 830.748 624.172C824.441 634.556 818.752 646.694 821.756 658.466C823.633 665.817 828.664 671.905 831.895 678.769C835.126 685.633 836.15 694.715 830.774 700.068C825.455 705.365 816.117 704.263 810.158 699.698C804.199 695.133 800.803 688.066 797.618 681.268" fill="#D5F0FF"/>
<path d="M794.9 718.833C795.185 718.768 795.363 718.485 795.3 718.201C795.195 717.738 785.166 671.477 810.601 626.968C818.561 613.036 823.468 598.124 825.184 582.643C825.217 582.353 825.007 582.092 824.719 582.06C824.407 582.018 824.166 582.237 824.135 582.525C822.434 597.863 817.573 612.638 809.685 626.444C784.039 671.321 794.164 717.968 794.269 718.433C794.335 718.722 794.623 718.894 794.9 718.833Z" fill="black"/>
<path d="M203.621 593.652C210.536 588.353 214.4 580.11 217.809 572.837C217.932 572.574 217.817 572.259 217.554 572.135C217.295 572.011 216.976 572.124 216.851 572.39C213.495 579.553 209.69 587.673 202.979 592.812C196.772 597.569 186.454 599.092 180.607 593.272C174.534 587.227 176.192 576.98 179.458 570.043C183.052 562.408 188.714 555.544 190.835 547.234C194.635 532.345 186.351 517.567 178.446 504.763C172.06 494.403 165.455 483.691 164.808 471.688C164.393 464.01 166.421 455.724 171.007 446.355C176.148 435.843 182.509 428.294 189.911 423.916C199.039 418.521 210.268 418.295 217.862 423.349C224.753 427.937 229.032 437.066 229.029 447.173C229.026 456.483 225.846 465.523 222.59 473.983C219.647 481.594 216.497 489.352 215.951 497.454C215.275 507.498 218.65 516.129 227.701 521.549C234.393 525.558 238.401 530.864 231.433 543.028C228.318 548.468 224.399 553.384 219.787 557.634C219.574 557.833 219.559 558.165 219.756 558.381C219.955 558.596 220.29 558.607 220.503 558.411C225.195 554.086 229.18 549.087 232.35 543.552C239.595 530.896 235.253 524.842 228.243 520.643C219.423 515.348 216.374 506.881 217.006 497.524C217.54 489.582 220.662 481.895 223.575 474.363C226.867 465.809 230.081 456.664 230.084 447.173C230.089 436.717 225.63 427.251 218.448 422.471C210.52 417.195 198.836 417.412 189.376 423.008C181.792 427.492 175.293 435.191 170.059 445.891C165.392 455.425 163.33 463.882 163.754 471.744C164.416 484.016 171.093 494.845 177.548 505.317C185.283 517.855 193.529 532.411 189.813 546.972C187.747 555.066 182.096 561.961 178.504 569.592C175.093 576.84 173.4 587.587 179.862 594.02C186.101 600.231 196.767 598.901 203.621 593.652Z" fill="black"/>
<path d="M221.012 614.178C221.129 613.657 232.451 561.494 203.771 511.307C194.942 495.853 189.5 479.314 187.597 462.15C187.566 461.861 187.304 461.637 187.015 461.683C186.725 461.716 186.515 461.976 186.548 462.265C188.466 479.575 193.953 496.251 202.855 511.831C231.333 561.666 220.099 613.429 219.981 613.946C219.918 614.23 220.096 614.513 220.38 614.578C220.658 614.64 220.946 614.467 221.012 614.178Z" fill="black"/>
<path d="M634.979 205.058H643.796C644.003 205.058 644.192 204.937 644.277 204.747C645.907 201.132 649.678 199.043 653.306 199.366C653.614 199.403 653.908 199.132 653.879 198.796C653.849 198.445 653.844 198.08 653.844 197.72C653.844 189.036 660.904 181.972 669.582 181.972C671.799 181.972 673.951 182.428 675.98 183.328C676.33 183.477 676.708 183.233 676.721 182.864C677.295 166.925 690.244 154.44 706.199 154.44C709.904 154.44 713.508 155.119 716.914 156.456C717.114 156.532 717.337 156.486 717.483 156.334C724.119 149.596 732.978 145.885 742.426 145.885C761.749 145.885 777.47 161.609 777.47 180.935C777.47 182 777.422 183.053 777.331 184.068C777.303 184.378 777.543 184.669 777.935 184.638C778.626 184.535 779.36 184.482 780.117 184.482C788.309 184.482 795.05 190.625 795.798 198.771C795.823 199.042 796.051 199.249 796.324 199.249H805.324C805.616 199.249 805.852 199.014 805.852 198.722C805.852 198.43 805.616 198.195 805.324 198.195H796.798C795.785 189.742 788.696 183.427 780.117 183.427C779.542 183.427 778.979 183.455 778.436 183.511C778.495 182.669 778.524 181.805 778.524 180.935C778.524 161.026 762.331 144.831 742.426 144.831C732.809 144.831 723.784 148.562 716.976 155.347C713.542 154.045 709.918 153.385 706.199 153.385C689.927 153.385 676.674 165.924 675.703 182.069C673.747 181.303 671.692 180.917 669.582 180.917C660.39 180.917 652.562 188.417 652.795 198.282C648.54 198.282 645.106 200.659 643.461 204.003H634.979C634.688 204.003 634.452 204.239 634.452 204.53C634.452 204.822 634.688 205.058 634.979 205.058Z" fill="black"/>
<path d="M767.8 190.388C770.332 187.231 773.92 185.188 777.904 184.634C778.192 184.594 778.394 184.328 778.354 184.039C778.315 183.75 778.047 183.55 777.759 183.588C773.507 184.179 769.678 186.359 766.975 189.728C766.794 189.955 766.829 190.288 767.057 190.47C767.276 190.646 767.613 190.621 767.8 190.388Z" fill="black"/>
<path d="M681.681 186.822C681.892 186.62 681.899 186.285 681.696 186.076C680.181 184.5 678.404 183.252 676.413 182.366C676.147 182.249 675.835 182.366 675.717 182.632C675.597 182.899 675.717 183.211 675.983 183.329C677.848 184.161 679.514 185.331 680.936 186.807C681.135 187.018 681.474 187.023 681.681 186.822Z" fill="black"/>
<path d="M657.079 199.872C657.198 199.605 657.079 199.293 656.814 199.173C655.719 198.683 654.558 198.39 653.364 198.306C653.07 198.254 652.822 198.505 652.801 198.795C652.779 199.085 652.998 199.337 653.29 199.358C654.359 199.434 655.401 199.697 656.38 200.137C656.651 200.255 656.96 200.135 657.079 199.872Z" fill="black"/>
<path d="M724.212 159.912C724.383 159.676 724.331 159.346 724.094 159.176C722.092 157.725 719.918 156.52 717.63 155.596C717.362 155.487 717.053 155.615 716.944 155.888C716.835 156.157 716.964 156.465 717.235 156.574C719.442 157.467 721.543 158.629 723.475 160.03C723.703 160.196 724.037 160.154 724.212 159.912Z" fill="black"/>
<path d="M65.7215 335.411C67.3762 331.745 71.1839 329.709 74.75 330.029C75.0713 330.057 75.3514 329.789 75.323 329.459C74.5828 320.686 81.7551 312.636 91.026 312.636C93.243 312.636 95.3967 313.092 97.4252 313.993C97.7644 314.14 98.1535 313.905 98.166 313.529C98.7392 297.59 111.688 285.104 127.644 285.104C131.346 285.104 134.951 285.782 138.359 287.119C138.558 287.193 138.781 287.149 138.928 286.997C145.564 280.26 154.422 276.55 163.872 276.55C183.194 276.55 198.915 292.274 198.915 311.599C198.915 312.648 198.868 313.701 198.776 314.732C198.746 315.062 199.023 315.342 199.38 315.302C200.071 315.199 200.805 315.146 201.561 315.146C209.752 315.146 216.493 321.289 217.242 329.435C217.267 329.706 217.495 329.914 217.767 329.914H226.77C227.061 329.914 227.297 329.678 227.297 329.386C227.297 329.095 227.061 328.859 226.77 328.859H218.242C217.228 320.407 210.14 314.092 201.561 314.092C200.988 314.092 200.425 314.119 199.88 314.175C199.94 313.323 199.97 312.459 199.97 311.599C199.97 291.69 183.776 275.495 163.872 275.495C154.252 275.495 145.228 279.227 138.421 286.01C134.984 284.709 131.361 284.049 127.644 284.049C111.371 284.049 98.1175 296.588 97.1482 312.733C95.1919 311.967 93.1369 311.581 91.026 311.581C81.5646 311.581 73.9383 319.436 74.2402 328.944C69.8432 328.944 66.3353 331.485 64.758 334.978C64.6386 335.243 64.7565 335.556 65.0231 335.677C65.2858 335.794 65.6006 335.679 65.7215 335.411Z" fill="black"/>
<path d="M189.27 321.052C191.801 317.894 195.388 315.851 199.372 315.297C199.661 315.257 199.863 314.99 199.823 314.702C199.783 314.413 199.518 314.207 199.228 314.251C194.975 314.841 191.145 317.023 188.445 320.392C188.264 320.619 188.299 320.952 188.527 321.134C188.749 321.313 189.084 321.283 189.27 321.052Z" fill="black"/>
<path d="M103.128 317.486C103.337 317.284 103.343 316.949 103.142 316.739C101.624 315.164 99.8462 313.915 97.8574 313.03C97.5893 312.91 97.2786 313.031 97.1607 313.296C97.0413 313.563 97.1608 313.875 97.4274 313.993C99.2924 314.824 100.958 315.995 102.381 317.472C102.58 317.679 102.916 317.689 103.128 317.486Z" fill="black"/>
<path d="M78.5628 330.535C78.6822 330.268 78.5643 329.956 78.2977 329.836C77.2076 329.346 76.0482 329.054 74.849 328.97C74.5588 328.919 74.307 329.169 74.2865 329.459C74.2643 329.75 74.4838 330.001 74.7755 330.022C75.8494 330.099 76.888 330.361 77.8646 330.8C78.1353 330.918 78.4438 330.799 78.5628 330.535Z" fill="black"/>
<path d="M145.681 290.577C145.852 290.341 145.8 290.011 145.563 289.84C143.559 288.388 141.385 287.183 139.099 286.261C138.829 286.15 138.522 286.28 138.413 286.552C138.304 286.822 138.433 287.13 138.704 287.239C140.909 288.13 143.009 289.292 144.944 290.695C145.172 290.861 145.506 290.819 145.681 290.577Z" fill="black"/>
<path d="M548.286 772.971C548.344 772.686 548.158 772.407 547.873 772.351L485.28 759.877C484.989 759.818 484.715 760.004 484.659 760.291C484.602 760.577 484.788 760.855 485.073 760.911L547.666 773.385C547.939 773.442 548.229 773.267 548.286 772.971Z" fill="black"/>
<path d="M330.546 730.731C330.618 730.448 330.449 730.161 330.166 730.089L257.485 711.428C257.198 711.353 256.914 711.526 256.843 711.808C256.771 712.091 256.94 712.378 257.223 712.45L329.904 731.111C330.172 731.183 330.472 731.022 330.546 730.731Z" fill="black"/>
</svg>
