<!--?xml version="1.0" standalone="no"?-->
              <svg id="sw-js-blob-svg" viewBox="0 0 100 100" xmlns="http://www.w3.org/2000/svg" version="1.1">
                    <defs> 
                        <linearGradient id="sw-gradient" x1="0" x2="1" y1="1" y2="0">
                            <stop id="stop1" stop-color="rgba(5, 85, 200, 0.06)" offset="0%"></stop>
                            <stop id="stop2" stop-color="rgba(5, 85, 200, 1)" offset="100%"></stop>
                        </linearGradient>
                    </defs>
                <path fill="url(#sw-gradient)" d="M21,-25.6C28.3,-18.9,36.1,-13.3,39.4,-5.4C42.7,2.6,41.5,13,36.8,21.2C32,29.5,23.6,35.7,14.7,37.7C5.9,39.8,-3.5,37.6,-12.7,34.5C-21.9,31.3,-30.9,27.2,-34.5,20.3C-38,13.4,-36,3.7,-34.5,-6.3C-32.9,-16.2,-31.8,-26.4,-26.2,-33.4C-20.5,-40.4,-10.3,-44.1,-1.7,-42.1C6.9,-40.1,13.7,-32.3,21,-25.6Z" width="100%" height="100%" transform="translate(50 50)" strokeWidth="0" style="transition: all 0.3s ease 0s;"></path>
              </svg>