<!--?xml version="1.0" standalone="no"?-->
              <svg id="sw-js-blob-svg" viewBox="0 0 100 100" xmlns="http://www.w3.org/2000/svg" version="1.1">
                    <defs> 
                        <linearGradient id="sw-gradient" x1="0" x2="1" y1="1" y2="0">
                            <stop id="stop1" stop-color="rgba(5, 85, 200, 0.06)" offset="0%"></stop>
                            <stop id="stop2" stop-color="rgba(5, 85, 200, 1)" offset="100%"></stop>
                        </linearGradient>
                    </defs>
                <path fill="url(#sw-gradient)" d="M23.1,-25.8C30.5,-21.3,37.5,-14.6,38.5,-7C39.6,0.5,34.7,8.9,30.1,17.9C25.5,27,21.2,36.7,13.5,41.4C5.8,46.1,-5.4,45.7,-14.5,41.7C-23.7,37.6,-30.8,29.8,-34.7,21C-38.5,12.3,-38.9,2.7,-37,-6.2C-35,-15,-30.6,-23.1,-24,-27.8C-17.5,-32.4,-8.7,-33.6,-0.4,-33.1C7.8,-32.5,15.7,-30.3,23.1,-25.8Z" width="100%" height="100%" transform="translate(50 50)" strokeWidth="0" style="transition: all 0.3s ease 0s;"></path>
              </svg>