<svg width="15" height="16" viewBox="0 0 15 16" fill="none" xmlns="http://www.w3.org/2000/svg">
<path d="M13.4569 5.05041L5.9569 12.5504C5.91337 12.594 5.86167 12.6286 5.80476 12.6522C5.74786 12.6757 5.68686 12.6879 5.62526 12.6879C5.56366 12.6879 5.50266 12.6757 5.44576 12.6522C5.38885 12.6286 5.33715 12.594 5.29362 12.5504L2.01237 9.26916C1.92441 9.1812 1.875 9.06191 1.875 8.93752C1.875 8.81313 1.92441 8.69383 2.01237 8.60588C2.10033 8.51792 2.21962 8.46851 2.34401 8.46851C2.4684 8.46851 2.58769 8.51792 2.67565 8.60588L5.62526 11.5561L12.7936 4.38713C12.8816 4.29917 13.0009 4.24976 13.1253 4.24976C13.2497 4.24976 13.3689 4.29917 13.4569 4.38713C13.5449 4.47508 13.5943 4.59438 13.5943 4.71877C13.5943 4.84316 13.5449 4.96245 13.4569 5.05041Z" fill="black"/>
</svg>
