<svg width="41" height="41" viewBox="0 0 41 41" fill="none" xmlns="http://www.w3.org/2000/svg">
<path d="M15.5 5.74548V9.07882M25.5 5.74548V9.07882M15.5 32.4121V35.7455M25.5 32.4121V35.7455M8.83333 15.7455H5.5M8.83333 25.7455H5.5M35.5 15.7455H32.1667M35.5 25.7455H32.1667M12.1667 32.4121H28.8333C30.6743 32.4121 32.1667 30.9198 32.1667 29.0788V12.4121C32.1667 10.5712 30.6743 9.07882 28.8333 9.07882H12.1667C10.3257 9.07882 8.83333 10.5712 8.83333 12.4121V29.0788C8.83333 30.9198 10.3257 32.4121 12.1667 32.4121ZM15.5 15.7455H25.5V25.7455H15.5V15.7455Z" stroke="#596AFF" stroke-width="2.5" stroke-linecap="round" stroke-linejoin="round"/>
</svg>
