<svg width="49" height="48" viewBox="0 0 49 48" fill="none" xmlns="http://www.w3.org/2000/svg">
<path d="M18.6186 9.80392H14.697C12.5312 9.80392 10.7754 11.5597 10.7754 13.7255V37.2551C10.7754 39.421 12.5312 41.1767 14.697 41.1767H34.305C36.4708 41.1767 38.2266 39.421 38.2266 37.2551V13.7255C38.2266 11.5597 36.4708 9.80392 34.305 9.80392H30.3834M18.6186 9.80392C18.6186 11.9698 20.3744 13.7255 22.5402 13.7255H26.4618C28.6276 13.7255 30.3834 11.9698 30.3834 9.80392M18.6186 9.80392C18.6186 7.63808 20.3744 5.88232 22.5402 5.88232H26.4618C28.6276 5.88232 30.3834 7.63808 30.3834 9.80392M24.501 23.5295H30.3834M24.501 31.3727H30.3834M18.6186 23.5295H18.6382M18.6186 31.3727H18.6382" stroke="url(#paint0_linear_734_6097)" stroke-width="3.9216" stroke-linecap="round"/>
<defs>
<linearGradient id="paint0_linear_734_6097" x1="24.501" y1="5.88232" x2="24.501" y2="41.1767" gradientUnits="userSpaceOnUse">
<stop stop-color="#C642DB"/>
<stop offset="1" stop-color="#0C66E4"/>
</linearGradient>
</defs>
</svg>
