<svg width="41" height="41" viewBox="0 0 41 41" fill="none" xmlns="http://www.w3.org/2000/svg">
<path d="M15.4997 9.07882H12.1663C10.3254 9.07882 8.83301 10.5712 8.83301 12.4121V32.4121C8.83301 34.2531 10.3254 35.7455 12.1663 35.7455H28.833C30.674 35.7455 32.1663 34.2531 32.1663 32.4121V12.4121C32.1663 10.5712 30.674 9.07882 28.833 9.07882H25.4997M15.4997 9.07882C15.4997 10.9198 16.9921 12.4121 18.833 12.4121H22.1663C24.0073 12.4121 25.4997 10.9198 25.4997 9.07882M15.4997 9.07882C15.4997 7.23787 16.9921 5.74548 18.833 5.74548H22.1663C24.0073 5.74548 25.4997 7.23787 25.4997 9.07882M20.4997 20.7455H25.4997M20.4997 27.4121H25.4997M15.4997 20.7455H15.5163M15.4997 27.4121H15.5163" stroke="#FF5F85" stroke-width="2.5" stroke-linecap="round"/>
</svg>
