<svg width="231" height="232" viewBox="0 0 231 232" fill="none" xmlns="http://www.w3.org/2000/svg">
<g id="Product quality-pana 1">
<g id="freepik--background-complete--inject-2">
<path id="Vector" d="M165.839 145.762H199.223V120.01H165.839V145.762Z" fill="#EBEBEB"/>
<path id="Vector_2" d="M168.226 143.512H172.25V138.966H168.226V143.512Z" fill="white"/>
<path id="Vector_3" d="M189.043 120.075H185.25V125.568H189.043V120.075Z" fill="#FAFAFA"/>
<path id="Vector_4" d="M189.043 140.19H185.25V145.684H189.043V140.19Z" fill="#FAFAFA"/>
<path id="Vector_5" d="M174.169 145.938C174.109 145.938 174.062 140.274 174.062 133.288C174.062 126.303 174.109 120.639 174.169 120.639C174.229 120.639 174.275 126.303 174.275 133.288C174.275 140.274 174.229 145.938 174.169 145.938Z" fill="#E0E0E0"/>
<path id="Vector_6" d="M152.226 190.105H209.828V145.674H152.226V190.105Z" fill="#EBEBEB"/>
<path id="Vector_7" d="M156.342 186.229H163.281V178.384H156.342V186.229Z" fill="white"/>
<path id="Vector_8" d="M192.253 145.79H185.711V155.27H192.253V145.79Z" fill="#FAFAFA"/>
<path id="Vector_9" d="M192.253 180.491H185.711V189.971H192.253V180.491Z" fill="#FAFAFA"/>
<path id="Vector_10" d="M166.607 190.41C166.505 190.41 166.422 180.639 166.422 168.585C166.422 156.532 166.505 146.76 166.607 146.76C166.708 146.76 166.787 156.532 166.787 168.585C166.787 180.639 166.708 190.41 166.607 190.41Z" fill="#E0E0E0"/>
<path id="Vector_11" d="M207.999 53.2651L211.086 59.516L217.983 60.5185L212.994 65.388L214.172 72.258L207.999 69.0147L201.827 72.258L203.005 65.388L198.016 60.5185L204.913 59.516L207.999 53.2651Z" fill="#EBEBEB"/>
<path id="Vector_12" d="M24.2534 134.004L26.1984 137.945L30.5458 138.574L27.3996 141.641L28.1434 145.975L24.2534 143.928L20.3633 145.975L21.1072 141.641L17.9609 138.574L22.3084 137.945L24.2534 134.004Z" fill="#EBEBEB"/>
<path id="Vector_13" d="M26.6669 99.6729L30.9866 108.423L40.6424 109.828L33.657 116.637L35.3063 126.256L26.6669 121.715L18.0321 126.256L19.6815 116.637L12.6914 109.828L22.3472 108.423L26.6669 99.6729Z" fill="#EBEBEB"/>
<path id="Vector_14" d="M205.247 81.498L207.109 85.2726L211.272 85.8778L208.259 88.8115L208.971 92.9556L205.247 91.0014L201.523 92.9556L202.235 88.8115L199.223 85.8778L203.385 85.2726L205.247 81.498Z" fill="#EBEBEB"/>
<path id="Vector_15" d="M144.165 20.3984L146.027 24.1684L150.19 24.7736L147.177 27.7119L147.889 31.856L144.165 29.8972L140.441 31.856L141.153 27.7119L138.141 24.7736L142.303 24.1684L144.165 20.3984Z" fill="#EBEBEB"/>
<path id="Vector_16" d="M186.749 60.7495L187.969 63.2166L190.695 63.6139L188.722 65.5358L189.189 68.2478L186.749 66.968L184.315 68.2478L184.781 65.5358L182.809 63.6139L185.534 63.2166L186.749 60.7495Z" fill="#EBEBEB"/>
<path id="Vector_17" d="M74.3425 185.351L76.7172 190.156L82.0209 190.927L78.1817 194.67L79.0919 199.955L74.3425 197.46L69.5978 199.955L70.5033 194.67L66.6641 190.927L71.9724 190.156L74.3425 185.351Z" fill="#EBEBEB"/>
<path id="Vector_18" d="M80.6036 180.569L81.5831 182.556L83.7776 182.875L82.1883 184.422L82.5625 186.608L80.6036 185.573L78.6447 186.608L79.019 184.422L77.4297 182.875L79.6242 182.556L80.6036 180.569Z" fill="#EBEBEB"/>
</g>
<g id="freepik--Stars--inject-2">
<path id="Vector_19" d="M168.234 162.163L170.322 166.39L174.989 167.07L171.611 170.359L172.411 175.007L168.234 172.812L164.062 175.007L164.862 170.359L161.484 167.07L166.151 166.39L168.234 162.163Z" fill="#407BFF"/>
<path id="Vector_20" d="M178.191 158.416L179.175 160.407L181.37 160.726L179.78 162.278L180.154 164.468L178.191 163.433L176.223 164.468L176.602 162.278L175.008 160.726L177.207 160.407L178.191 158.416Z" fill="#407BFF"/>
</g>
<g id="freepik--speech-bubble--inject-2">
<path id="Vector_21" d="M165.142 48.3913L166.787 43.2815C165.219 40.1249 164.743 36.5375 165.433 33.0813C166.123 29.6251 167.94 26.4955 170.6 24.1827C173.259 21.8698 176.61 20.5045 180.129 20.3006C183.647 20.0967 187.134 21.0657 190.043 23.0558C192.951 25.0459 195.118 27.9447 196.202 31.2981C197.287 34.6514 197.229 38.2698 196.036 41.5864C194.844 44.9029 192.585 47.7303 189.614 49.6256C186.643 51.5208 183.126 52.3769 179.616 52.0595C176.191 51.8262 172.951 50.4236 170.436 48.0863L165.142 48.3913Z" fill="#FAFAFA"/>
<path id="Vector_22" d="M165.142 48.3911L165.493 48.3633L166.514 48.2894L170.436 48.0215C172.381 49.8196 174.775 51.0584 177.366 51.6066C178.166 51.7843 178.979 51.9002 179.796 51.9531L181.09 52.0039C181.524 52.0039 181.972 51.9531 182.421 51.93C186.473 51.5622 190.229 49.648 192.908 46.5846C194.418 44.883 195.539 42.8729 196.193 40.6941C196.863 38.366 196.999 35.9165 196.59 33.5285C196.488 32.9146 196.346 32.3081 196.165 31.7128C196.083 31.4114 195.983 31.1151 195.865 30.8258C195.749 30.5301 195.648 30.2344 195.523 29.9434C195.008 28.7684 194.357 27.6581 193.582 26.6355C193.196 26.1257 192.778 25.6412 192.33 25.1848C192.113 24.9521 191.882 24.733 191.637 24.5287C191.402 24.3208 191.175 24.0945 190.926 23.905L190.168 23.3414L189.789 23.0642L189.383 22.824L188.584 22.362C188.311 22.2095 188.025 22.094 187.747 21.9554C185.624 20.9505 183.302 20.4347 180.953 20.4459C178.604 20.4571 176.288 20.995 174.174 22.0201C170.511 23.7791 167.667 26.8814 166.232 30.6826C166.154 30.8951 166.08 31.1076 166.006 31.3155C165.922 31.5207 165.856 31.7324 165.807 31.9485C165.701 32.3735 165.599 32.7939 165.497 33.2051C165.357 34.0108 165.262 34.8236 165.211 35.6398C165.108 38.2802 165.663 40.9048 166.828 43.2767L165.59 47.0559L165.262 48.0353C165.188 48.2571 165.146 48.3726 165.146 48.3726C165.146 48.3726 165.174 48.2663 165.243 48.0492L165.539 47.079L166.726 43.249V43.2859C165.531 40.9097 164.952 38.2707 165.045 35.6121C165.088 34.7867 165.179 33.9646 165.317 33.1497C165.419 32.7339 165.525 32.3088 165.627 31.8792C165.676 31.6607 165.741 31.4461 165.821 31.237C165.899 31.0245 165.973 30.8119 166.052 30.5948C166.823 28.5223 168.017 26.6326 169.557 25.0452C171.096 23.4579 172.949 22.2075 174.997 21.3733C177.045 20.539 179.244 20.139 181.455 20.1987C183.665 20.2583 185.84 20.7763 187.84 21.7198C188.122 21.8538 188.413 21.9739 188.69 22.131L189.503 22.6161L189.91 22.8609L190.298 23.1427L191.065 23.711C191.319 23.9097 191.55 24.136 191.79 24.3439C192.036 24.5525 192.271 24.7746 192.492 25.0092C192.946 25.4749 193.371 25.9687 193.763 26.4876C194.552 27.5161 195.217 28.6342 195.745 29.8186C195.869 30.1143 195.971 30.4192 196.087 30.7149C196.209 31.0161 196.312 31.3247 196.396 31.6389C196.579 32.2448 196.721 32.8621 196.821 33.4869C197.238 35.9104 197.099 38.397 196.415 40.7588C195.758 42.979 194.625 45.0289 193.093 46.7648C190.373 49.8572 186.569 51.7859 182.467 52.1517C182.005 52.1517 181.543 52.2164 181.118 52.2164L179.81 52.161C178.985 52.1032 178.164 51.9828 177.357 51.8006C174.756 51.2311 172.36 49.9628 170.427 48.1323H170.464L166.505 48.3402L165.497 48.3864C165.253 48.3911 165.142 48.3911 165.142 48.3911Z" fill="#263238"/>
<path id="Vector_23" d="M172.012 35.6123L174.631 33.3393L179.043 37.8715L188.939 29.6294L191.032 32.2397L178.355 42.5608L172.012 35.6123Z" fill="#407BFF"/>
</g>
<g id="freepik--Clipboard--inject-2">
<path id="Vector_24" d="M137.73 161.964L49.137 181.71C48.6243 181.827 48.0934 181.842 47.5749 181.753C47.0565 181.664 46.5608 181.474 46.1163 181.193C45.6718 180.911 45.2874 180.545 44.9852 180.114C44.6829 179.684 44.4689 179.198 44.3554 178.684L15.6236 49.6706C15.5091 49.1594 15.4966 48.6307 15.5868 48.1147C15.677 47.5986 15.8682 47.1055 16.1493 46.6634C16.4304 46.2214 16.7959 45.8392 17.225 45.5386C17.654 45.2381 18.1382 45.0252 18.6497 44.912L107.243 25.1661C107.754 25.0516 108.283 25.0391 108.8 25.1292C109.316 25.2194 109.809 25.4105 110.252 25.6915C110.694 25.9726 111.077 26.3381 111.378 26.7672C111.679 27.1963 111.892 27.6806 112.006 28.1922L140.756 157.206C140.871 157.717 140.883 158.246 140.793 158.762C140.703 159.278 140.512 159.771 140.231 160.213C139.949 160.655 139.584 161.037 139.155 161.338C138.726 161.638 138.242 161.851 137.73 161.964Z" fill="#E0E0E0"/>
<path id="Vector_25" d="M137.725 161.964L138.02 161.881C138.308 161.788 138.585 161.665 138.847 161.516C139.278 161.263 139.659 160.932 139.97 160.541C140.394 160.005 140.673 159.369 140.778 158.693C140.845 158.285 140.845 157.868 140.778 157.46C140.705 157.03 140.589 156.577 140.487 156.106C140.275 155.182 140.025 154.129 139.794 153.011C139.292 150.771 138.715 148.195 138.062 145.281C135.461 133.653 131.7 116.827 127.052 96.0322C124.742 85.6372 122.192 74.2489 119.462 62.0198C118.1 55.909 116.691 49.595 115.234 43.0778C114.511 39.8191 113.775 36.5158 113.026 33.1679C112.647 31.4954 112.273 29.8091 111.89 28.1136C111.681 27.2685 111.195 26.5179 110.509 25.9825C109.823 25.4471 108.976 25.1579 108.106 25.1614C107.672 25.171 107.241 25.2331 106.821 25.3462L105.528 25.6326L102.927 26.2148L97.6785 27.3836L86.9971 29.7675L64.9874 34.6878L18.6765 44.9997C17.6976 45.2166 16.8399 45.8024 16.2815 46.6352C15.7231 47.468 15.5071 48.4839 15.6781 49.4718C16.0985 51.4353 16.5513 53.4035 16.981 55.3623C17.8557 59.2739 18.7227 63.1624 19.582 67.0278L24.664 89.8553C27.9997 104.819 31.2152 119.234 34.2782 133.001C37.3413 146.769 40.2473 159.797 42.9731 172.045C43.3119 173.585 43.6491 175.1 43.9849 176.591C44.1558 177.34 44.3083 178.097 44.4884 178.832C44.6825 179.555 45.0802 180.208 45.6342 180.712C46.1847 181.209 46.8632 181.542 47.5931 181.673C47.955 181.732 48.3232 181.743 48.688 181.705C49.0484 181.659 49.4134 181.571 49.7737 181.488L54.0749 180.532L70.3974 176.901L119.656 165.956L133.054 162.99L136.537 162.223L137.725 161.964L136.542 162.241L133.058 163.027L119.66 166.025L70.4113 177.035L54.1073 180.68L49.8061 181.641C49.4457 181.719 49.0853 181.812 48.7065 181.863C48.3277 181.901 47.9455 181.889 47.57 181.826C46.8056 181.693 46.0951 181.344 45.5222 180.821C44.9492 180.298 44.5376 179.623 44.336 178.873C44.1512 178.13 43.9987 177.381 43.8278 176.633C43.4921 175.133 43.1533 173.617 42.8114 172.087C40.0856 159.857 37.1704 146.792 34.1027 133.043C31.035 119.294 27.8195 104.861 24.4792 89.8968L19.3972 67.074C18.5379 63.2117 17.6709 59.3201 16.7962 55.3993C16.3619 53.4404 15.9137 51.4815 15.4887 49.4996C15.3108 48.4646 15.5385 47.4009 16.1244 46.5293C16.7103 45.6578 17.6094 45.0455 18.6349 44.8195L64.9504 34.4938L86.974 29.6058L97.6508 27.2265L102.899 26.0577L105.505 25.4478L106.798 25.1614C107.226 25.0507 107.665 24.9917 108.106 24.9858C109.008 24.9879 109.883 25.2901 110.594 25.8447C111.305 26.3993 111.811 27.1748 112.033 28.0489C112.412 29.7491 112.791 31.4307 113.165 33.1078C113.919 36.4588 114.662 39.7575 115.392 43.0038C116.836 49.518 118.242 55.832 119.61 61.9458C122.331 74.175 124.863 85.5633 127.177 95.9629C131.797 116.753 135.539 133.593 138.127 145.226C138.769 148.132 139.342 150.719 139.841 152.955C140.085 154.078 140.303 155.108 140.524 156.055C140.626 156.517 140.742 156.979 140.811 157.409C140.88 157.822 140.88 158.243 140.811 158.656C140.705 159.344 140.422 159.992 139.988 160.537C139.673 160.927 139.29 161.258 138.857 161.511C138.59 161.661 138.308 161.78 138.016 161.867L137.725 161.964Z" fill="#263238"/>
<g id="Group" opacity="0.3">
<path id="Vector_26" d="M53.6267 177.141L134.347 158.689L131.797 142.87L127.219 134.004L50 164.334L53.6267 177.141Z" fill="black"/>
</g>
<g id="Group_2" opacity="0.3">
<path id="Vector_27" d="M87.3281 29.897L90.3819 34.9374L90.9733 37.6124L88.9035 38.0744L87.3281 29.897Z" fill="black"/>
</g>
<path id="Vector_28" d="M20.2188 50.4187L48.2252 176.083L136.01 156.522L131.002 134.05L108.003 30.853L20.2188 50.4187Z" fill="white"/>
<path id="Vector_29" d="M20.2156 50.4189L107.996 30.7793H108.069V30.8578C115.859 65.7804 125.575 109.361 136.09 156.522V156.619H135.997L48.2174 176.175H48.1342V176.088C31.6454 101.881 20.3819 51.172 20.2109 50.4235C20.3819 51.1905 31.7194 101.886 48.3052 176.088L48.1989 176.023L135.979 156.448L135.905 156.563C125.404 109.412 115.697 65.8312 107.922 30.8994L108.014 30.9595L20.2156 50.4189Z" fill="#263238"/>
<path id="Vector_30" d="M44.9377 35.4665L83.6513 26.8414C84.4083 26.6727 85.2014 26.8117 85.8559 27.2278C86.5105 27.6438 86.973 28.3029 87.1417 29.0599L89.3781 39.0979L44.9466 48.997L42.7122 38.968C42.6272 38.5919 42.6173 38.2027 42.6833 37.8228C42.7493 37.4428 42.8897 37.0797 43.0965 36.7543C43.3034 36.4288 43.5725 36.1475 43.8885 35.9265C44.2045 35.7055 44.5611 35.5492 44.9377 35.4665Z" fill="#263238"/>
<path id="Vector_31" d="M68.8676 25.0552L57.5625 27.5731L61.0414 36.9702L69.556 35.0713L68.8676 25.0552Z" fill="#263238"/>
<path id="Vector_32" d="M83.6485 26.834C83.6485 26.8849 75.0045 28.8576 64.3184 31.2415C53.6324 33.6254 44.9514 35.5242 44.9375 35.4734C44.9237 35.4226 53.5815 33.4499 64.2768 31.066C74.9721 28.682 83.6208 26.7971 83.6485 26.834Z" fill="#455A64"/>
<path id="Vector_33" d="M45.4845 46.7001C45.4337 46.7001 44.9856 44.8983 44.4866 42.653C43.9876 40.4076 43.618 38.5735 43.6735 38.5596C43.7289 38.5458 44.1724 40.3615 44.6714 42.6114C45.1704 44.8613 45.5353 46.7001 45.4845 46.7001Z" fill="#455A64"/>
<path id="Vector_34" d="M87.2555 36.3695C86.8843 35.1542 86.5759 33.9206 86.3315 32.6735C86.0258 31.4547 85.7821 30.2211 85.6016 28.9775C85.972 30.1853 86.2804 31.4112 86.5256 32.6504C86.8321 33.8769 87.0757 35.1182 87.2555 36.3695Z" fill="#455A64"/>
<path id="Vector_35" d="M85.4938 38.564C85.4938 38.6148 76.6187 40.6383 65.6509 43.0823C54.683 45.5263 45.7849 47.4713 45.7618 47.4159C45.7387 47.3604 54.6322 45.3415 65.6278 42.8975C76.6234 40.4535 85.466 38.5131 85.4938 38.564Z" fill="#455A64"/>
<path id="Vector_36" d="M62.1175 75.1177C62.1175 75.1731 56.1346 76.5499 48.7195 78.2038C41.3044 79.8578 35.3215 81.1468 35.2892 81.0959C35.2569 81.0451 41.2952 79.6637 48.6872 78.0144C56.0792 76.3651 62.1037 75.0668 62.1175 75.1177Z" fill="#263238"/>
<path id="Vector_37" d="M106.798 70.0865C106.798 70.1419 91.1497 73.6762 71.8243 77.9821C52.4988 82.2879 36.8139 85.7391 36.8047 85.6882C36.7955 85.6374 52.448 82.0985 71.7827 77.7927C91.1174 73.4868 106.788 70.0357 106.798 70.0865Z" fill="#263238"/>
<path id="Vector_38" d="M107.755 74.4198C107.755 74.4707 92.1029 78.005 72.7774 82.3154C53.452 86.6259 37.7717 90.0724 37.7578 90.017C37.744 89.9615 53.4058 86.4318 72.7358 82.126C92.0659 77.8202 107.742 74.3552 107.755 74.4198Z" fill="#263238"/>
<path id="Vector_39" d="M108.72 78.7257C108.72 78.7765 93.0723 82.3108 73.7469 86.6166C54.4214 90.9224 38.7365 94.3782 38.7227 94.3228C38.7088 94.2673 54.3706 90.7377 73.7053 86.4272C93.04 82.1167 108.706 78.6748 108.72 78.7257Z" fill="#263238"/>
<path id="Vector_40" d="M109.684 83.0456C109.684 83.0964 94.0365 86.6307 74.711 90.9365C55.3855 95.2424 39.7007 98.6935 39.6914 98.6427C39.6822 98.5919 55.3347 95.0576 74.6694 90.7471C94.0041 86.4367 109.675 82.9901 109.684 83.0456Z" fill="#263238"/>
<path id="Vector_41" d="M110.645 87.3559C110.645 87.4114 94.9928 90.9457 75.6673 95.2515C56.3419 99.5573 40.6523 103.013 40.6523 102.962C40.6523 102.911 56.3003 99.3772 75.6304 95.0667C94.9604 90.7562 110.631 87.3097 110.645 87.3559Z" fill="#263238"/>
<path id="Vector_42" d="M54.221 117.76C54.2022 117.714 54.1883 117.666 54.1794 117.617L54.0778 117.206C53.99 116.831 53.8652 116.309 53.7128 115.658C53.4032 114.323 52.969 112.447 52.4515 110.202L52.5532 110.266L44.9764 111.967C44.9764 111.967 45.115 111.749 45.0503 111.851V111.883V111.948L45.078 112.077L45.1381 112.336L45.2489 112.849C45.3275 113.191 45.4014 113.528 45.4753 113.865C45.6232 114.531 45.771 115.187 45.9096 115.824C46.1914 117.095 46.4548 118.296 46.6996 119.4L46.598 119.335L52.0727 118.157L53.6296 117.834L54.0454 117.755L54.1933 117.728C54.1933 117.728 54.1563 117.728 54.0639 117.769L53.6712 117.866L52.1466 118.227L46.658 119.534H46.5749V119.451L45.771 115.88C45.6278 115.242 45.4799 114.586 45.309 113.921C45.2351 113.584 45.1565 113.246 45.0826 112.904C45.041 112.738 45.0041 112.563 44.9671 112.392L44.9071 112.133L44.8793 112.004V111.939V111.906V111.883C44.8147 111.99 44.9671 111.745 44.9533 111.768L52.5347 110.091H52.6178V110.174L53.8098 115.718C53.9438 116.365 54.05 116.882 54.1286 117.252C54.1609 117.418 54.184 117.547 54.2071 117.654C54.2164 117.688 54.221 117.724 54.221 117.76Z" fill="#263238"/>
<path id="Vector_43" d="M110.543 99.0816L57.6836 110.858L58.6662 115.269L111.526 103.492L110.543 99.0816Z" fill="#E0E0E0"/>
<path id="Vector_44" d="M57.1538 130.908C57.1364 130.86 57.1225 130.811 57.1122 130.761C57.0845 130.654 57.0522 130.516 57.0106 130.349C56.9228 129.975 56.7981 129.458 56.6456 128.806C56.3361 127.467 55.9018 125.572 55.3843 123.346L55.486 123.41L47.9092 125.11C47.9092 125.138 48.0478 124.893 47.9831 125V125.023V125.055V125.12L48.0108 125.249L48.0709 125.508C48.1078 125.683 48.1448 125.854 48.1864 126.025L48.4081 127.037C48.556 127.707 48.7038 128.358 48.8424 128.996C49.1242 130.266 49.3876 131.468 49.6324 132.572L49.5308 132.507L55.0101 131.334L56.5624 131.01L56.9782 130.927C57.0265 130.914 57.0761 130.906 57.1261 130.904L57.0013 130.941L56.604 131.038L55.0794 131.403L49.5678 132.673H49.4846V132.59L48.6807 129.019C48.5375 128.381 48.3897 127.725 48.2187 127.06C48.1448 126.727 48.0663 126.386 47.9923 126.048C47.9554 125.877 47.9138 125.706 47.8768 125.531L47.8168 125.272L47.7891 125.143V125.078V125.023L47.863 124.902L55.4398 123.249H55.5229V123.327C56.0127 125.605 56.4469 127.485 56.7149 128.871C56.8489 129.518 56.9551 130.035 57.0337 130.405C57.066 130.571 57.0891 130.701 57.1122 130.807C57.1304 130.839 57.1444 130.873 57.1538 130.908Z" fill="#263238"/>
<path id="Vector_45" d="M113.465 112.23L60.6055 124.007L61.588 128.417L114.448 116.64L113.465 112.23Z" fill="#E0E0E0"/>
<path id="Vector_46" d="M60.079 144.053C60.079 144.053 60.079 143.997 60.0374 143.905C59.9958 143.812 59.9773 143.66 59.9358 143.493C59.848 143.119 59.7232 142.602 59.5708 141.95C59.2612 140.615 58.827 138.716 58.3095 136.49L58.4112 136.554L50.8159 138.254C50.8159 138.282 50.9545 138.037 50.8898 138.144V138.176V138.208V138.273L50.9175 138.402L50.9776 138.661C51.0145 138.837 51.0515 139.007 51.0931 139.178L51.3148 140.19C51.4627 140.86 51.6105 141.512 51.7491 142.149L52.5391 145.725L52.4375 145.665L57.9168 144.487L59.4691 144.163L59.8849 144.08C59.9341 144.075 59.9836 144.075 60.0328 144.08L59.908 144.117L59.5107 144.214L57.9861 144.579L52.4744 145.85H52.3913V145.767C52.1464 144.667 51.8739 143.457 51.5874 142.195C51.4442 141.558 51.2964 140.906 51.1254 140.236C51.0515 139.904 50.973 139.566 50.899 139.225C50.8621 139.054 50.8205 138.883 50.7835 138.712L50.7281 138.453L50.6958 138.324V138.254V138.176C50.6311 138.278 50.7835 138.033 50.7697 138.06L58.3511 136.383H58.4343V136.466L59.6262 142.01C59.7602 142.657 59.8664 143.175 59.945 143.549C59.9773 143.711 60.005 143.84 60.0235 143.946C60.0468 143.979 60.0655 144.015 60.079 144.053Z" fill="#263238"/>
<path id="Vector_47" d="M116.395 125.379L63.5352 137.156L64.5177 141.566L117.377 129.789L116.395 125.379Z" fill="#E0E0E0"/>
<path id="Vector_48" d="M46.9453 115.048L47.74 113.796L50.1008 115.108L53.1407 110.525L54.3142 111.339L50.3965 117.114L46.9453 115.048Z" fill="#407BFF"/>
<path id="Vector_49" d="M49.7734 127.753L50.5681 126.501L52.9289 127.813L55.9642 123.23L57.1423 124.043L53.22 129.813L49.7734 127.753Z" fill="#407BFF"/>
<path id="Vector_50" d="M52.6797 140.777L53.4743 139.53L55.8305 140.842L58.8705 136.259L60.044 137.067L56.1262 142.842L52.6797 140.777Z" fill="#407BFF"/>
<path id="Vector_51" d="M76.8714 157.118C76.8714 157.173 72.4177 158.213 66.9015 159.428C61.3852 160.643 56.9038 161.608 56.8945 161.558C56.8853 161.507 61.3436 160.467 66.8599 159.248C72.3762 158.028 76.8576 157.072 76.8714 157.118Z" fill="#263238"/>
<path id="Vector_52" d="M86.8291 154.743C85.6232 155.114 84.3988 155.423 83.1608 155.667C81.9417 155.97 80.7082 156.212 79.4648 156.392C80.6695 156.022 81.8923 155.713 83.1285 155.468C85.1567 155.02 86.8199 154.692 86.8291 154.743Z" fill="#263238"/>
<path id="Vector_53" d="M119.785 144.371C119.785 144.422 115.779 145.365 110.818 146.469C105.856 147.573 101.818 148.428 101.809 148.377C101.799 148.326 105.81 147.388 110.776 146.279C115.743 145.171 119.776 144.32 119.785 144.371Z" fill="#263238"/>
<path id="Vector_54" d="M115.499 156.531C115.499 156.531 115.541 156.406 115.587 156.166C115.648 155.811 115.629 155.446 115.532 155.099C115.367 154.55 115.154 154.016 114.894 153.505C114.526 152.827 114.31 152.076 114.261 151.306C114.272 150.832 114.382 150.366 114.584 149.937C114.786 149.508 115.076 149.126 115.435 148.816C115.855 148.467 116.358 148.232 116.895 148.132C117.432 148.033 117.985 148.072 118.502 148.248C119.07 148.42 119.577 148.752 119.962 149.204C120.168 149.447 120.289 149.75 120.309 150.068C120.314 150.239 120.264 150.407 120.167 150.547C120.07 150.688 119.93 150.793 119.768 150.849C119.466 150.946 119.157 151.022 118.844 151.075L117.92 151.264C117.301 151.389 116.673 151.5 116.026 151.583C114.773 151.764 113.502 151.772 112.247 151.606C111.68 151.484 111.088 151.58 110.588 151.874C110.191 152.274 109.855 152.73 109.59 153.228C109.43 153.473 109.206 153.671 108.944 153.801C108.676 153.919 108.375 153.932 108.098 153.838C107.623 153.626 107.171 153.366 106.749 153.062C106.554 152.931 106.331 152.848 106.098 152.817C105.88 152.793 105.66 152.847 105.479 152.969C105.159 153.262 104.895 153.609 104.698 153.995C104.488 154.326 104.201 154.601 103.861 154.797C103.522 154.994 103.14 155.105 102.748 155.122C102.156 155.146 101.577 154.941 101.131 154.549C100.851 154.307 100.632 154.004 100.489 153.662C100.439 153.545 100.404 153.423 100.383 153.297C100.383 153.297 100.424 153.422 100.526 153.648C100.676 153.975 100.899 154.263 101.177 154.489C101.612 154.857 102.17 155.046 102.739 155.016C103.113 154.997 103.476 154.887 103.798 154.696C104.12 154.506 104.391 154.239 104.587 153.921C104.79 153.517 105.066 153.154 105.4 152.849C105.611 152.703 105.866 152.636 106.121 152.66C106.374 152.697 106.616 152.787 106.832 152.923C107.247 153.217 107.69 153.469 108.154 153.676C108.391 153.756 108.65 153.744 108.879 153.644C109.114 153.527 109.311 153.346 109.447 153.122C109.722 152.611 110.071 152.144 110.482 151.736C110.738 151.553 111.038 151.441 111.351 151.412C111.658 151.38 111.968 151.38 112.275 151.412C113.516 151.573 114.773 151.565 116.012 151.389C116.65 151.306 117.274 151.191 117.893 151.07L118.817 150.886C119.113 150.831 119.406 150.758 119.694 150.668C119.821 150.628 119.931 150.548 120.008 150.439C120.084 150.331 120.124 150.201 120.119 150.068C120.099 149.791 119.992 149.528 119.815 149.315C119.45 148.881 118.969 148.561 118.429 148.391C117.939 148.224 117.414 148.185 116.905 148.278C116.396 148.37 115.919 148.59 115.518 148.917C115.174 149.21 114.895 149.572 114.699 149.98C114.503 150.387 114.395 150.831 114.381 151.283C114.423 152.036 114.625 152.771 114.973 153.44C115.228 153.959 115.434 154.5 115.587 155.057C115.678 155.414 115.686 155.787 115.61 156.148C115.589 156.28 115.551 156.408 115.499 156.531Z" fill="#263238"/>
<path id="Vector_55" d="M125.043 150.617C124.966 150.649 124.885 150.673 124.803 150.691L124.101 150.858L121.523 151.454C119.352 151.962 116.349 152.673 113.045 153.509C109.742 154.346 106.762 155.154 104.614 155.746L102.064 156.448L101.366 156.633C101.286 156.658 101.204 156.676 101.121 156.688C101.195 156.648 101.275 156.616 101.357 156.596L102.04 156.379C102.636 156.189 103.5 155.917 104.572 155.616C106.721 154.988 109.691 154.161 112.999 153.306C116.307 152.452 119.31 151.777 121.495 151.31C122.586 151.075 123.473 150.89 124.087 150.77L124.794 150.636C124.876 150.622 124.96 150.616 125.043 150.617Z" fill="#263238"/>
<path id="Vector_56" d="M87.1511 49.2441L51.2695 57.2383L52.7715 63.9799L88.6531 55.9857L87.1511 49.2441Z" fill="#E0E0E0"/>
</g>
<g id="freepik--Character--inject-2">
<path id="Vector_57" d="M121.102 158.647L132.693 219.89L143.287 200.315L163.365 212.1L142.053 152.465L121.102 158.647Z" fill="#407BFF"/>
<g id="Group_3" opacity="0.3">
<path id="Vector_58" d="M124.997 179.243C126.101 179.451 127.238 179.388 128.312 179.059C129.385 178.729 130.363 178.144 131.16 177.353C132.218 176.263 132.92 174.776 134.251 174.046C135.448 173.39 136.921 173.482 138.238 173.847C139.555 174.212 140.793 174.817 142.11 175.159C143.409 175.49 144.761 175.559 146.087 175.363C147.413 175.166 148.687 174.707 149.834 174.013L146.489 164.727L130.966 162.787L123.574 171.68L124.997 179.243Z" fill="black"/>
</g>
<path id="Vector_59" d="M142.533 197.885C142.468 197.885 140.74 191.537 138.675 183.678C136.61 175.82 134.979 169.426 135.053 169.412C135.127 169.398 136.841 175.75 138.906 183.618C140.971 191.486 142.598 197.866 142.533 197.885Z" fill="#263238"/>
<path id="Vector_60" d="M122.795 161.83L111.203 223.073L100.61 203.503L80.5312 215.284L101.843 155.649L122.795 161.83Z" fill="#407BFF"/>
<g id="Group_4" opacity="0.3">
<path id="Vector_61" d="M95.4609 173.487C95.4609 173.487 98.7596 176.199 102.691 174.951C106.623 173.704 109.067 173.436 111.197 174.951C113.326 176.466 119.088 181.396 119.088 181.396L120.423 174.332L112.684 163.706L104.609 165.337L98.8613 165.896L96.7222 169.948L95.4609 173.487Z" fill="black"/>
</g>
<path id="Vector_62" d="M190.76 106.547C190.76 110.941 185.147 114.725 184.325 118.878C183.479 123.156 187.203 128.797 185.572 132.738C183.941 136.679 177.256 138.093 174.886 141.655C172.516 145.217 173.763 151.888 170.728 154.928C167.693 157.968 161.026 156.688 157.455 159.086C153.883 161.484 152.544 168.109 148.538 169.772C144.602 171.403 138.961 167.679 134.678 168.525C130.52 169.347 126.741 174.96 122.347 174.96C117.954 174.96 114.165 169.347 110.012 168.525C105.734 167.679 100.093 171.403 96.1519 169.772C92.211 168.141 90.8019 161.456 87.2399 159.086C83.6779 156.716 77.0066 157.963 73.962 154.928C70.9174 151.893 72.2018 145.226 69.804 141.655C67.4062 138.084 60.7811 136.744 59.1226 132.738C57.464 128.733 61.2154 123.161 60.37 118.878C59.5476 114.72 53.9297 110.941 53.9297 106.547C53.9297 102.154 59.5476 98.3654 60.37 94.2121C61.2154 89.9339 57.4871 84.2929 59.1226 80.3521C60.758 76.4112 67.4386 74.9975 69.804 71.4401C72.1694 67.8827 70.9267 61.2068 73.962 58.1622C76.9973 55.1176 83.664 56.402 87.2399 54.0042C90.8158 51.6064 92.1463 44.9813 96.1519 43.3228C100.157 41.6642 105.729 45.4156 110.012 44.5702C114.17 43.7478 117.954 38.1299 122.347 38.1299C126.741 38.1299 130.525 43.7478 134.678 44.5702C138.956 45.4156 144.597 41.6873 148.538 43.3228C152.544 44.9813 153.893 51.6388 157.455 54.0042C161.017 56.3696 167.688 55.1269 170.728 58.1622C173.768 61.1975 172.488 67.8642 174.886 71.4401C177.284 75.016 183.909 76.3465 185.572 80.3521C187.235 84.3576 183.479 89.9293 184.325 94.2121C185.147 98.3654 190.76 102.14 190.76 106.547Z" fill="#407BFF"/>
<path id="Vector_63" d="M106.337 68.1969C106.337 68.1969 106.287 68.1368 106.213 68.0075C106.139 67.8781 106.023 67.6702 105.899 67.4438C105.626 66.9541 105.252 66.2334 104.808 65.3371C103.917 63.5445 102.762 61.022 101.648 58.1761C100.535 55.3302 99.68 52.6875 99.121 50.7841C98.8438 49.8185 98.6313 49.0377 98.4973 48.4741C98.4372 48.2246 98.3864 48.0121 98.3495 47.8458C98.3255 47.7743 98.3131 47.6994 98.3125 47.624C98.3484 47.6914 98.3763 47.7627 98.3957 47.8365L98.5851 48.451C98.7653 49.0193 99.0009 49.7862 99.2827 50.7148C99.8833 52.6229 100.766 55.2424 101.87 58.1068C102.974 60.9712 104.111 63.4706 104.961 65.2817L105.982 67.4207L106.254 68.0028C106.288 68.0649 106.316 68.1298 106.337 68.1969Z" fill="#263238"/>
<path id="Vector_64" d="M112.422 65.882C112.341 65.7207 112.281 65.55 112.242 65.3738C112.145 65.0412 112.016 64.5561 111.863 63.9555C111.558 62.7589 111.179 61.0864 110.838 59.2292C110.496 57.372 110.255 55.6764 110.117 54.4475C110.043 53.833 109.997 53.3341 109.969 52.9876C109.948 52.8096 109.948 52.6297 109.969 52.4517C110.022 52.6232 110.058 52.7996 110.075 52.9783L110.297 54.4244C110.482 55.6487 110.759 57.335 111.087 59.1876C111.415 61.0402 111.78 62.7127 112.039 63.9185C112.164 64.4821 112.265 64.9626 112.348 65.3507C112.391 65.5249 112.415 65.7029 112.422 65.882Z" fill="#263238"/>
<path id="Vector_65" d="M123.169 64.8151C123.1 64.8151 122.929 59.6315 122.786 53.242C122.642 46.8526 122.578 41.6643 122.642 41.6597C122.707 41.6551 122.883 46.8387 123.026 53.2374C123.169 59.6361 123.234 64.8151 123.169 64.8151Z" fill="#263238"/>
<path id="Vector_66" d="M133.974 54.1656C134.039 54.1656 133.29 56.7759 132.306 59.9545C131.322 63.133 130.458 65.6879 130.412 65.6694C130.366 65.6509 131.096 63.0591 132.08 59.8806C133.064 56.702 133.905 54.1471 133.974 54.1656Z" fill="#263238"/>
<path id="Vector_67" d="M138.383 67.5593C138.392 67.4828 138.412 67.4081 138.443 67.3375L138.651 66.7277C138.836 66.201 139.113 65.4433 139.482 64.5101C140.208 62.6621 141.243 60.0795 142.425 57.2613C143.608 54.4431 144.708 51.9067 145.516 50.0772C145.913 49.1902 146.241 48.4602 146.491 47.915L146.763 47.3329C146.833 47.2036 146.87 47.1343 146.879 47.1389C146.862 47.2116 146.839 47.2827 146.81 47.3514L146.574 47.952L145.673 50.1465C144.883 52.0222 143.825 54.554 142.647 57.3583C141.469 60.1627 140.425 62.6944 139.639 64.5748L138.739 66.7646L138.484 67.356C138.459 67.4277 138.425 67.496 138.383 67.5593Z" fill="#263238"/>
<path id="Vector_68" d="M144.141 70.5714C144.211 70.408 144.299 70.253 144.404 70.1094C144.589 69.8137 144.866 69.3933 145.208 68.8804C145.901 67.8594 146.899 66.4642 148.058 64.9765C149.218 63.4889 150.331 62.2045 151.154 61.2805C151.565 60.8185 151.907 60.4536 152.147 60.2041C152.263 60.0657 152.395 59.9416 152.54 59.8345C152.45 59.9921 152.342 60.138 152.216 60.2688C151.967 60.5737 151.653 60.9479 151.292 61.3914C150.502 62.3431 149.417 63.6598 148.257 65.1475C147.097 66.6351 146.086 68.0073 145.356 69.0052L144.492 70.1833C144.389 70.3245 144.271 70.4546 144.141 70.5714Z" fill="#263238"/>
<path id="Vector_69" d="M152.555 77.4553C152.509 77.4091 156.168 73.9349 160.719 69.6983C165.269 65.4618 169.002 62.0661 169.035 62.1123C169.067 62.1585 165.426 65.6373 160.871 69.8739C156.316 74.1104 152.601 77.5061 152.555 77.4553Z" fill="#263238"/>
<path id="Vector_70" d="M167.24 78.8921C166.795 79.1738 166.332 79.4269 165.854 79.6498C164.986 80.1118 163.808 80.754 162.505 81.4978C161.202 82.2416 160.001 82.8607 159.109 83.2765C158.647 83.4844 158.305 83.6461 158.046 83.7385C157.92 83.8043 157.785 83.851 157.645 83.8771C158.09 83.5953 158.553 83.3423 159.031 83.1194C159.899 82.6574 161.077 82.0152 162.38 81.2714C163.683 80.5276 164.884 79.8854 165.776 79.4927C166.238 79.2848 166.58 79.1231 166.838 79.0307C166.964 78.9629 167.1 78.9161 167.24 78.8921Z" fill="#263238"/>
<path id="Vector_71" d="M180.825 84.5237C180.848 84.5884 176.496 86.1777 171.123 88.0765C165.75 89.9753 161.347 91.4584 161.328 91.3983C161.31 91.3382 165.653 89.7443 171.03 87.8455C176.408 85.9467 180.801 84.4637 180.825 84.5237Z" fill="#263238"/>
<path id="Vector_72" d="M185.146 109.227C185.146 109.292 180.411 108.899 174.585 108.345C168.759 107.79 164.038 107.287 164.047 107.217C164.056 107.148 168.778 107.55 174.608 108.104C180.439 108.659 185.151 109.162 185.146 109.227Z" fill="#263238"/>
<path id="Vector_73" d="M181.664 131.384C181.636 131.444 177.215 129.412 171.791 126.852C166.367 124.293 161.992 122.163 162.02 122.103C162.047 122.043 166.469 124.071 171.893 126.635C177.316 129.199 181.692 131.324 181.664 131.384Z" fill="#263238"/>
<path id="Vector_74" d="M167.117 152.466C167.066 152.507 163.883 148.807 159.997 144.205C156.112 139.604 153.007 135.829 153.067 135.787C153.127 135.746 156.301 139.442 160.187 144.048C164.072 148.654 167.168 152.419 167.117 152.466Z" fill="#263238"/>
<path id="Vector_75" d="M154.979 155.27C154.835 155.11 154.707 154.936 154.595 154.752C154.36 154.41 154.027 153.907 153.63 153.283C152.826 152.031 151.75 150.28 150.613 148.317C149.476 146.353 148.506 144.542 147.841 143.235C147.504 142.574 147.231 142.038 147.056 141.664C146.951 141.474 146.865 141.274 146.797 141.068C146.927 141.24 147.042 141.424 147.139 141.618C147.361 142.024 147.647 142.542 147.993 143.156C148.71 144.454 149.707 146.247 150.839 148.21C151.971 150.174 153.025 151.934 153.792 153.205C154.152 153.814 154.457 154.318 154.692 154.715C154.808 154.889 154.904 155.075 154.979 155.27Z" fill="#263238"/>
<path id="Vector_76" d="M147.441 165.849C147.441 165.849 147.395 165.789 147.321 165.66L147.021 165.096C146.758 164.602 146.402 163.881 145.977 162.985C145.127 161.188 144.032 158.665 142.992 155.81C141.953 152.955 141.167 150.322 140.682 148.418C140.428 147.457 140.22 146.672 140.119 146.131C140.068 145.882 140.026 145.669 139.989 145.503C139.971 145.43 139.96 145.356 139.957 145.281C139.995 145.347 140.021 145.419 140.036 145.494L140.211 146.108C140.373 146.681 140.585 147.443 140.844 148.372C141.389 150.28 142.198 152.904 143.237 155.764C144.277 158.624 145.339 161.132 146.152 162.948L147.123 165.087C147.224 165.318 147.312 165.512 147.386 165.669C147.412 165.727 147.431 165.787 147.441 165.849Z" fill="#263238"/>
<path id="Vector_77" d="M132.164 158.416C132.064 157.885 131.998 157.348 131.965 156.808C131.859 155.815 131.688 154.443 131.439 152.941C131.189 151.44 130.898 150.091 130.676 149.116C130.531 148.594 130.42 148.063 130.344 147.527C130.413 147.655 130.465 147.792 130.501 147.933C130.593 148.201 130.709 148.589 130.843 149.075C131.106 150.04 131.42 151.385 131.674 152.905C131.895 154.192 132.05 155.491 132.136 156.795C132.169 157.294 132.187 157.719 132.187 157.982C132.199 158.127 132.191 158.273 132.164 158.416Z" fill="#263238"/>
<path id="Vector_78" d="M122.172 171.717C122.161 171.639 122.161 171.56 122.172 171.482C122.172 171.297 122.172 171.07 122.172 170.802C122.172 170.211 122.172 169.356 122.172 168.303C122.209 166.192 122.306 163.281 122.472 160.07C122.639 156.859 122.847 153.949 123.018 151.847C123.101 150.793 123.179 149.943 123.239 149.356C123.272 149.088 123.295 148.862 123.313 148.682C123.319 148.602 123.334 148.523 123.359 148.446C123.37 148.526 123.37 148.607 123.359 148.687C123.359 148.867 123.359 149.093 123.327 149.366C123.29 149.989 123.244 150.83 123.184 151.856C123.059 153.995 122.893 156.887 122.722 160.079C122.551 163.272 122.431 166.201 122.352 168.308C122.315 169.333 122.283 170.156 122.26 170.802C122.26 171.075 122.232 171.297 122.223 171.482C122.218 171.562 122.201 171.642 122.172 171.717Z" fill="#263238"/>
<path id="Vector_79" d="M114.05 148.446C114.047 148.844 114.001 149.241 113.912 149.629C113.792 150.35 113.598 151.343 113.344 152.429C113.089 153.514 112.821 154.494 112.609 155.201C112.517 155.587 112.382 155.962 112.207 156.319C112.248 155.924 112.327 155.534 112.443 155.155L113.108 152.383C113.348 151.343 113.57 150.401 113.745 149.611C113.81 149.214 113.912 148.824 114.05 148.446Z" fill="#263238"/>
<path id="Vector_80" d="M99.3608 141.41C98.7555 142.41 98.0809 143.368 97.3419 144.274C96.6639 145.228 95.9247 146.137 95.1289 146.995C95.7329 145.994 96.4076 145.036 97.1478 144.131C97.8227 143.174 98.5621 142.265 99.3608 141.41Z" fill="#263238"/>
<path id="Vector_81" d="M91.664 136.217C91.7102 136.259 88.8458 139.627 85.2607 143.734C81.6755 147.841 78.7234 151.126 78.6725 151.094C78.6217 151.061 81.4907 147.684 85.0759 143.577C88.661 139.47 91.6132 136.171 91.664 136.217Z" fill="#263238"/>
<path id="Vector_82" d="M87.8049 130.483C86.6719 131.576 85.483 132.609 84.2429 133.579C82.2332 135.233 80.57 136.536 80.5469 136.485C81.6807 135.394 82.8696 134.363 84.1089 133.394C85.2913 132.362 86.5249 131.391 87.8049 130.483Z" fill="#263238"/>
<path id="Vector_83" d="M83.2958 121.84C83.3236 121.9 79.3319 123.886 74.3746 126.27C69.4174 128.654 65.3841 130.544 65.3518 130.484C65.3194 130.424 69.3157 128.442 74.273 126.053C79.2302 123.665 83.2681 121.78 83.2958 121.84Z" fill="#263238"/>
<path id="Vector_84" d="M81.4856 117.529C81.3529 117.588 81.2131 117.628 81.0698 117.649C80.7972 117.714 80.4045 117.797 79.9194 117.885C78.9446 118.07 77.5863 118.273 76.0802 118.426C74.574 118.578 73.2019 118.643 72.2086 118.657C71.7143 118.657 71.3123 118.657 71.0351 118.657C70.8906 118.666 70.7455 118.652 70.6055 118.615C71.1354 118.542 71.6692 118.501 72.204 118.49C73.1927 118.43 74.5556 118.338 76.0571 118.185C77.5586 118.033 78.9122 117.857 79.8917 117.723C80.4177 117.621 80.9503 117.556 81.4856 117.529Z" fill="#263238"/>
<path id="Vector_85" d="M80.0167 107.573C79.7477 107.595 79.4772 107.595 79.2082 107.573L77.0091 107.462C75.1611 107.37 72.5924 107.286 69.7603 107.3C66.9282 107.314 64.3595 107.43 62.5069 107.541L60.3124 107.675C60.0441 107.705 59.7737 107.714 59.5039 107.702C59.7664 107.639 60.0338 107.599 60.3032 107.582C60.8206 107.522 61.569 107.448 62.493 107.37C64.341 107.217 66.919 107.079 69.7557 107.06C72.5924 107.042 75.1657 107.157 77.0229 107.291C77.9469 107.36 78.7 107.425 79.2174 107.48C79.4857 107.493 79.7528 107.523 80.0167 107.573Z" fill="#263238"/>
<path id="Vector_86" d="M80.9214 98.8318C80.9214 98.8965 77.9138 98.1157 74.2409 97.0901C70.568 96.0644 67.6066 95.1866 67.6251 95.1219C67.6436 95.0572 70.6327 95.8334 74.3056 96.8591C77.9785 97.8847 80.9399 98.7671 80.9214 98.8318Z" fill="#263238"/>
<path id="Vector_87" d="M82.865 91.514C82.7907 91.5096 82.7175 91.494 82.6478 91.4678L82.0334 91.283C81.5067 91.1167 80.7444 90.858 79.8158 90.5207C77.3893 89.6297 75.0114 88.6119 72.6917 87.4715C70.3729 86.3298 68.1167 85.0652 65.9327 83.6831C65.0964 83.1518 64.4265 82.7083 63.9738 82.3895L63.4563 82.0153C63.3408 81.9275 63.2808 81.8813 63.2854 81.8721C63.3553 81.9002 63.4219 81.9358 63.4841 81.9783L64.0292 82.311C64.4912 82.6066 65.175 83.0271 66.0204 83.5399C67.716 84.5655 70.0907 85.9192 72.798 87.2359C75.5053 88.5526 78.0278 89.6244 79.8758 90.3451C80.7998 90.7009 81.5436 90.9827 82.0657 91.1768L82.6617 91.4031C82.7324 91.4344 82.8004 91.4714 82.865 91.514Z" fill="#263238"/>
<path id="Vector_88" d="M87.2055 84.122C87.1685 84.1728 84.8308 82.5927 81.9849 80.5877C79.139 78.5826 76.8613 76.9148 76.9029 76.8593C76.9445 76.8039 79.2776 78.3885 82.1281 80.3936C84.9787 82.3987 87.2425 84.0804 87.2055 84.122Z" fill="#263238"/>
<path id="Vector_89" d="M78.0243 61.6777C78.0243 61.6777 78.089 61.7147 78.1999 61.8025L78.6619 62.209L80.3666 63.7152L85.9615 68.7094L91.5794 73.6759L93.2795 75.1866L93.7415 75.607C93.7973 75.6529 93.847 75.7057 93.8894 75.7641C93.8894 75.7641 93.8247 75.7318 93.7092 75.644L93.2472 75.2605C92.8268 74.9233 92.2308 74.4243 91.4962 73.8052C90.0271 72.5671 88.022 70.8346 85.8275 68.8896C83.633 66.9445 81.6695 65.152 80.2835 63.8399C79.5813 63.1839 79.0176 62.6526 78.6295 62.2737L78.1906 61.8394C78.0798 61.7378 78.0151 61.6824 78.0243 61.6777Z" fill="#263238"/>
<path id="Vector_90" d="M92.4297 62.0981C92.4297 62.0981 92.5544 62.1998 92.7438 62.4169C92.9333 62.6341 93.2058 62.9528 93.5246 63.3409C94.1668 64.1448 95.0215 65.2813 95.9085 66.5749C96.7956 67.8685 97.5394 69.079 98.0522 69.9706C98.3109 70.4326 98.5142 70.7791 98.6436 71.0332C98.7235 71.1596 98.7857 71.2964 98.8284 71.4398C98.4898 70.999 98.1811 70.5359 97.9044 70.0538C97.3546 69.1852 96.5877 67.9979 95.7053 66.7043C94.8228 65.4107 93.9912 64.2695 93.3953 63.4426C93.047 63.014 92.7245 62.5651 92.4297 62.0981Z" fill="#263238"/>
<g id="Group_5" opacity="0.2">
<path id="Vector_91" d="M73.9609 58.1668L94.0626 75.7644L99.0568 71.7681L87.3959 53.8979C87.3959 53.8979 86.4996 54.554 84.1619 55.2193C81.9304 55.8614 75.3007 56.0324 73.9609 58.1668Z" fill="black"/>
</g>
<g id="Group_6" opacity="0.2">
<path id="Vector_92" d="M96.3359 43.2811L106.149 67.8456L112.423 65.8821L110.33 44.5747C110.33 44.5747 109.253 44.8288 106.856 44.5239C104.532 44.2282 98.9 42.0244 96.3359 43.2811Z" fill="black"/>
</g>
<g id="Group_7" opacity="0.3">
<path id="Vector_93" d="M122.508 38.139L123.168 64.8148L129.045 65.0967L134.996 44.6208C133.759 44.3753 132.583 43.8887 131.535 43.1886C129.502 41.8858 125.354 37.9218 122.508 38.139Z" fill="black"/>
</g>
<g id="Group_8" opacity="0.2">
<path id="Vector_94" d="M148.136 43.1792L138.383 67.7715L143.677 70.3078L157.098 53.7405C156.09 52.8889 155.229 51.8757 154.553 50.7421C153.287 48.6955 151.106 43.9969 148.136 43.1792Z" fill="black"/>
</g>
<g id="Group_9" opacity="0.2">
<path id="Vector_95" d="M171.045 58.5225L152.879 77.4645L156.926 82.9207L174.676 71.075C174.091 69.9985 173.696 68.8296 173.507 67.6192C173.082 65.3092 173.022 61.1143 171.045 58.5225Z" fill="black"/>
</g>
<g id="Group_10" opacity="0.2">
<path id="Vector_96" d="M185.377 79.8945L160.914 89.9615L162.942 96.2124L184.227 93.9024C184.227 93.9024 184.093 93.2463 184.374 90.8485C184.642 88.5247 187.1 83.3318 185.377 79.8945Z" fill="black"/>
</g>
<g id="Group_11" opacity="0.2">
<path id="Vector_97" d="M190.803 106.547L164.132 107.471L163.91 113.353L184.238 119.303C184.373 118.456 184.645 117.637 185.042 116.878C186.557 114.05 190.803 110.059 190.803 106.547Z" fill="black"/>
</g>
<g id="Group_12" opacity="0.2">
<path id="Vector_98" d="M185.88 131.763L161.325 122.195L158.844 127.55L175.554 140.777C176.433 139.936 177.405 139.198 178.451 138.578C180.484 137.28 185.316 135.178 185.88 131.763Z" fill="black"/>
</g>
<g id="Group_13" opacity="0.2">
<path id="Vector_99" d="M149.767 131.384L143.688 136.466C144.149 136.928 152.248 150.714 157.243 159.224C157.307 159.168 157.375 159.116 157.446 159.067C160.731 156.868 166.58 157.751 169.878 155.575L149.767 131.384Z" fill="black"/>
<path id="Vector_100" d="M138.601 141.031L129.527 144.126L133.824 168.76C134.103 168.662 134.389 168.583 134.679 168.524C138.957 167.679 144.598 171.403 148.539 169.772C149.078 169.54 149.58 169.229 150.026 168.848L138.601 141.031Z" fill="black"/>
<path id="Vector_101" d="M122.032 174.951L123.478 142.768L115.624 140.777L109.789 168.497L110.002 168.534C114.067 169.324 117.768 174.674 122.032 174.951Z" fill="black"/>
<path id="Vector_102" d="M102.307 137.303C102.307 137.303 91.9395 151.19 86.5156 158.666C86.7666 158.792 87.0103 158.932 87.2456 159.086C90.8076 161.47 92.152 168.109 96.1576 169.772C96.3424 169.846 96.5318 169.906 96.7212 169.962L111.205 142.546L102.307 137.303Z" fill="black"/>
<path id="Vector_103" d="M91.6621 126.122L69.5508 141.317C69.6339 141.428 69.7263 141.534 69.8003 141.65C72.2027 145.235 70.9229 151.883 73.9583 154.923C74.2384 155.198 74.5483 155.442 74.8823 155.648C82.6947 146.843 96.721 131.033 97.2292 130.483L91.6621 126.122Z" fill="black"/>
<path id="Vector_104" d="M86.594 115.27L60.4494 119.492C60.8698 123.687 57.5619 128.982 59.1188 132.733C59.2126 132.962 59.3255 133.183 59.4561 133.394C68.6037 128.838 87.7166 119.363 88.5113 119.312L86.594 115.27Z" fill="black"/>
<path id="Vector_105" d="M85.1701 100.707L60.4577 93.5786C60.4346 93.7911 60.4069 94.0037 60.37 94.2116C59.5476 98.3696 53.9297 102.153 53.9297 106.547C53.931 106.84 53.9557 107.132 54.0036 107.42H84.1676L85.1701 100.707Z" fill="black"/>
<path id="Vector_106" d="M59.2227 80.1623C68.4627 85.1103 86.513 95.1219 86.513 95.1219L90.9574 86.6811L70.0843 70.9731C69.9919 71.1348 69.9041 71.3012 69.8025 71.4351C67.4509 74.9417 61.0152 76.3092 59.2227 80.1623Z" fill="black"/>
</g>
<path id="Vector_107" d="M190.756 106.547L190.729 106.252C190.718 105.962 190.678 105.674 190.609 105.392C190.34 104.284 189.87 103.235 189.223 102.297C188.428 101.022 187.227 99.5942 185.989 97.7878C185.289 96.8268 184.753 95.7577 184.399 94.6231C184.099 93.2986 184.099 91.9235 184.399 90.599C184.658 89.1899 185.078 87.7393 185.443 86.2008C185.808 84.6623 186.15 82.9991 185.808 81.299C185.615 80.4384 185.221 79.6358 184.658 78.9566C184.055 78.2651 183.365 77.6534 182.607 77.1364C181.073 76.0461 179.308 75.1775 177.622 74.041C176.749 73.4784 175.957 72.8009 175.266 72.0266C174.587 71.1862 174.094 70.2116 173.82 69.1669C173.228 67.0648 173.094 64.8194 172.646 62.5741C172.45 61.4309 172.065 60.3284 171.505 59.3124C170.897 58.2896 169.975 57.4906 168.876 57.0347C167.742 56.5789 166.554 56.2684 165.342 56.1107C164.118 55.9075 162.861 55.7642 161.604 55.5425C160.317 55.3568 159.068 54.962 157.908 54.3736C156.758 53.6822 155.784 52.7333 155.062 51.6016C154.295 50.5021 153.635 49.3193 152.933 48.1505C152.26 46.9545 151.454 45.8386 150.53 44.8241C149.578 43.7978 148.279 43.1608 146.885 43.0361C145.46 42.9834 144.036 43.1502 142.662 43.5305C141.276 43.8677 139.853 44.2789 138.398 44.5515C136.927 44.8982 135.392 44.8696 133.935 44.4683C132.515 43.9111 131.186 43.1433 129.994 42.1907C128.761 41.2667 127.56 40.3427 126.243 39.5203C124.926 38.698 123.434 38.102 121.882 38.2775H121.59C121.493 38.2775 121.401 38.3191 121.309 38.3376C121.119 38.3838 120.925 38.4161 120.74 38.4716C120.368 38.5899 120.004 38.7319 119.65 38.8966C118.935 39.2365 118.249 39.6336 117.599 40.084C116.287 41.008 115.044 42.0151 113.695 42.9299C113.023 43.4001 112.312 43.8112 111.57 44.1588C110.809 44.4992 109.994 44.704 109.163 44.764C107.496 44.7747 105.836 44.5397 104.238 44.0664C102.628 43.6069 100.987 43.2687 99.3267 43.0546C98.4977 42.9731 97.661 43.0293 96.8504 43.2209C96.0429 43.4454 95.2982 43.8533 94.6743 44.4129C93.3992 45.5263 92.5122 47.0232 91.6251 48.4924C90.7877 50.0308 89.8086 51.4878 88.7007 52.8444C88.1141 53.5164 87.4095 54.0754 86.6217 54.4937C85.8174 54.874 84.9727 55.1622 84.1038 55.3531C82.3667 55.7365 80.5926 55.8982 78.8416 56.2124C77.0906 56.5265 75.3027 57.0209 74.0368 58.2498C73.4258 58.9006 72.9542 59.6694 72.6508 60.509C72.3449 61.3558 72.1206 62.2298 71.9809 63.1193C71.6575 64.9026 71.5189 66.7321 71.0569 68.5293C70.8584 69.4414 70.5268 70.3194 70.0728 71.135C69.5945 71.9431 68.9675 72.6532 68.2248 73.2278C66.7649 74.4013 65.1063 75.2699 63.5171 76.2401C62.7208 76.7193 61.9569 77.2502 61.2302 77.8294C60.5072 78.4071 59.8991 79.1155 59.4376 79.9176C58.9975 80.7346 58.7748 81.6509 58.7908 82.5787C58.8071 83.5114 58.917 84.44 59.1188 85.3507C59.5069 87.1987 60.0936 89.0144 60.4078 90.8947C60.594 91.8597 60.6314 92.8475 60.5187 93.8238C60.3875 94.7976 60.0741 95.7381 59.5947 96.5958C58.6291 98.2821 57.3725 99.7651 56.259 101.336C55.6872 102.11 55.1892 102.936 54.7714 103.803C54.3137 104.649 54.074 105.595 54.074 106.557C54.074 107.518 54.3137 108.464 54.7714 109.31C55.1885 110.177 55.6866 111.003 56.259 111.777C57.3725 113.348 58.6291 114.831 59.5947 116.517C60.0652 117.359 60.3784 118.28 60.5187 119.234C60.636 120.197 60.6049 121.172 60.4263 122.126C60.1167 124.025 59.53 125.845 59.1373 127.693C58.9372 128.604 58.8273 129.533 58.8093 130.465C58.7911 131.394 59.0122 132.312 59.4515 133.131C59.9094 133.935 60.5162 134.646 61.2394 135.224C61.9661 135.803 62.7301 136.334 63.5263 136.813C65.1156 137.783 66.7603 138.661 68.2387 139.825C68.9801 140.401 69.607 141.111 70.0867 141.918C70.5441 142.73 70.8758 143.607 71.0708 144.519C71.505 146.321 71.6529 148.15 71.9948 149.934C72.1382 150.823 72.364 151.697 72.6693 152.544C72.9654 153.383 73.4291 154.153 74.0322 154.808C75.3119 156.051 77.1137 156.545 78.8416 156.859C80.5695 157.173 82.3667 157.321 84.1038 157.718C84.974 157.91 85.8201 158.198 86.6263 158.578C87.4131 158.998 88.1175 159.556 88.7053 160.227C89.8022 161.586 90.7718 163.043 91.602 164.579C92.4891 166.048 93.3761 167.545 94.6512 168.659C95.2741 169.217 96.017 169.625 96.8226 169.851C97.6402 170.057 98.4865 170.126 99.3267 170.054C100.984 169.831 102.622 169.487 104.228 169.024C105.828 168.547 107.489 168.31 109.158 168.321C109.99 168.384 110.804 168.59 111.565 168.931C112.307 169.28 113.018 169.691 113.69 170.16C115.039 171.084 116.277 172.105 117.594 173.001C118.242 173.455 118.927 173.854 119.641 174.193C119.995 174.357 120.359 174.499 120.731 174.618C120.921 174.669 121.11 174.706 121.299 174.752L121.586 174.812H121.872C123.429 174.988 124.926 174.35 126.238 173.57C127.55 172.789 128.756 171.805 129.985 170.899C131.179 169.947 132.509 169.179 133.93 168.622C135.388 168.223 136.922 168.194 138.393 168.538C139.849 168.816 141.253 169.227 142.658 169.564C144.034 169.94 145.459 170.107 146.885 170.058C148.278 169.929 149.574 169.291 150.526 168.266C151.447 167.247 152.252 166.13 152.928 164.935C153.626 163.771 154.286 162.588 155.053 161.484C155.779 160.354 156.754 159.406 157.904 158.712C159.063 158.123 160.312 157.729 161.6 157.547C162.861 157.321 164.113 157.178 165.337 156.979C166.551 156.814 167.738 156.496 168.872 156.032C169.969 155.575 170.891 154.776 171.5 153.754C172.057 152.737 172.441 151.635 172.637 150.493C173.099 148.247 173.219 145.997 173.815 143.895C174.087 142.851 174.58 141.877 175.261 141.04C175.95 140.264 176.743 139.586 177.617 139.026C179.303 137.889 181.068 137.021 182.598 135.93C183.36 135.414 184.051 134.801 184.653 134.106C185.216 133.428 185.608 132.627 185.799 131.768C185.96 130.938 185.984 130.087 185.869 129.25C185.773 128.447 185.628 127.651 185.434 126.866C185.065 125.328 184.649 123.877 184.39 122.468C184.089 121.143 184.089 119.768 184.39 118.444C184.745 117.31 185.282 116.241 185.979 115.279C187.231 113.473 188.437 112.045 189.213 110.77C189.861 109.832 190.331 108.783 190.599 107.675C190.669 107.393 190.709 107.105 190.72 106.815L190.747 106.524C190.747 106.524 190.747 106.621 190.747 106.815C190.738 107.106 190.701 107.395 190.636 107.679C190.373 108.796 189.903 109.854 189.25 110.798C188.46 112.082 187.264 113.514 186.016 115.321C185.323 116.275 184.794 117.338 184.45 118.467C184.15 119.777 184.15 121.139 184.45 122.449C184.709 123.835 185.129 125.3 185.504 126.838C185.705 127.629 185.859 128.432 185.966 129.241C186.081 130.089 186.057 130.95 185.896 131.791C185.703 132.67 185.304 133.49 184.732 134.184C184.123 134.887 183.426 135.508 182.658 136.032C181.115 137.132 179.354 138.005 177.677 139.137C176.821 139.693 176.044 140.363 175.367 141.128C174.7 141.952 174.218 142.91 173.954 143.937C173.367 146.016 173.237 148.261 172.785 150.52C172.589 151.681 172.2 152.801 171.634 153.833C171.01 154.885 170.064 155.708 168.936 156.18C167.791 156.65 166.591 156.973 165.365 157.141C164.136 157.344 162.879 157.487 161.627 157.714C160.356 157.895 159.123 158.284 157.978 158.864C156.86 159.542 155.912 160.467 155.206 161.567C154.448 162.662 153.787 163.84 153.085 165.013C152.405 166.221 151.593 167.349 150.664 168.377C149.682 169.436 148.342 170.094 146.903 170.225C145.457 170.282 144.011 170.115 142.616 169.73C141.207 169.393 139.802 168.987 138.361 168.714C136.922 168.377 135.421 168.404 133.995 168.793C132.595 169.345 131.285 170.103 130.11 171.043C128.885 171.943 127.68 172.914 126.349 173.727C126.003 173.912 125.675 174.129 125.314 174.281C125.134 174.364 124.958 174.452 124.778 174.526L124.219 174.725C123.461 174.985 122.656 175.079 121.858 175.002L121.558 174.979C121.461 174.979 121.364 174.937 121.262 174.919C121.068 174.872 120.87 174.836 120.68 174.78C120.296 174.661 119.921 174.516 119.558 174.346C118.833 174.002 118.137 173.598 117.479 173.14C116.153 172.216 114.91 171.209 113.575 170.299C112.911 169.839 112.211 169.434 111.482 169.088C110.744 168.76 109.954 168.561 109.149 168.502C107.502 168.494 105.863 168.729 104.284 169.199C102.661 169.677 101.003 170.03 99.3267 170.257C98.4699 170.341 97.6052 170.283 96.7672 170.086C95.9278 169.852 95.1533 169.429 94.5034 168.848C93.1913 167.698 92.295 166.187 91.408 164.713C90.586 163.189 89.624 161.744 88.5344 160.398C87.9667 159.747 87.2838 159.207 86.52 158.804C85.7327 158.43 84.9049 158.148 84.053 157.963C82.3343 157.584 80.5649 157.423 78.8 157.104C77.9109 156.956 77.0372 156.727 76.1897 156.42C75.3302 156.105 74.5442 155.618 73.8797 154.988C73.2491 154.314 72.766 153.517 72.4614 152.646C72.1495 151.785 71.919 150.897 71.773 149.994C71.4496 148.197 71.311 146.367 70.849 144.593C70.6572 143.704 70.3332 142.849 69.888 142.057C69.4204 141.273 68.8091 140.585 68.0862 140.028C66.654 138.878 65.0001 138.009 63.4062 137.035C62.602 136.55 61.8304 136.012 61.0962 135.427C60.3488 134.828 59.7218 134.093 59.2482 133.26C58.792 132.409 58.5628 131.454 58.5829 130.488C58.5939 129.532 58.7054 128.58 58.9155 127.647C59.3082 125.799 59.895 123.951 60.1999 122.103C60.3743 121.172 60.4039 120.22 60.2877 119.28C60.1477 118.346 59.8343 117.447 59.3637 116.628C58.4397 114.965 57.1646 113.491 56.0419 111.906C55.4568 111.117 54.945 110.276 54.5127 109.393C54.0427 108.515 53.7969 107.534 53.7969 106.538C53.7969 105.542 54.0427 104.561 54.5127 103.683C54.9391 102.803 55.4464 101.965 56.028 101.179C57.1507 99.5942 58.4027 98.1204 59.3452 96.4618C59.8154 95.6414 60.1287 94.7405 60.2692 93.8053C60.377 92.865 60.3458 91.9138 60.1768 90.9825C59.8673 89.1345 59.2805 87.2865 58.8878 85.4385C58.6815 84.5067 58.5715 83.5561 58.5598 82.6018C58.5414 81.6356 58.7721 80.681 59.2297 79.8298C59.7064 79.0008 60.333 78.2676 61.0777 77.6677C61.8108 77.0806 62.5825 76.5435 63.3877 76.0599C64.9816 75.0851 66.6217 74.2119 68.0678 73.0662C68.7893 72.5094 69.399 71.8212 69.8649 71.038C70.308 70.2431 70.6303 69.3867 70.8213 68.497C71.2509 66.7229 71.3988 64.898 71.7453 63.1008C71.8897 62.1974 72.1186 61.3095 72.429 60.4489C72.7076 59.568 73.1925 58.7663 73.8434 58.1106C74.4943 57.4549 75.2924 56.9641 76.1712 56.679C77.0187 56.372 77.8924 56.1431 78.7815 55.9952C80.5464 55.6765 82.3158 55.5332 84.0345 55.1405C84.8848 54.9503 85.712 54.6684 86.5016 54.2997C87.2631 53.8935 87.9441 53.3518 88.5113 52.7012C89.6009 51.3551 90.5629 49.9105 91.3849 48.3861C92.2719 46.9123 93.1682 45.4016 94.4849 44.2558C95.138 43.6667 95.9194 43.238 96.7672 43.0038C97.6055 42.8089 98.4699 42.7512 99.3267 42.8329C100.993 43.0557 102.641 43.4016 104.256 43.8677C105.834 44.3415 107.474 44.5781 109.121 44.57C109.919 44.5064 110.701 44.3063 111.431 43.9786C112.163 43.6377 112.863 43.2326 113.524 42.7682C114.864 41.8442 116.107 40.8324 117.432 39.9315C118.09 39.4713 118.786 39.0679 119.511 38.7257C119.875 38.5564 120.248 38.4098 120.629 38.2868C120.824 38.2313 121.022 38.199 121.216 38.1528L121.507 38.0881H121.808C122.605 38.0128 123.41 38.1073 124.168 38.3653L124.727 38.564C124.908 38.6379 125.083 38.7257 125.263 38.8088C125.628 38.9659 125.956 39.1784 126.298 39.3632C127.633 40.1764 128.835 41.1466 130.064 42.0475C131.238 42.9862 132.546 43.7445 133.944 44.2974C135.37 44.6881 136.871 44.7152 138.31 44.3759C139.752 44.108 141.156 43.7014 142.565 43.3642C143.961 42.9804 145.406 42.8122 146.853 42.8652C148.291 42.9973 149.63 43.6553 150.613 44.7132C151.544 45.7429 152.357 46.8724 153.039 48.0812C153.741 49.25 154.397 50.4328 155.155 51.5231C155.86 52.6255 156.808 53.5517 157.927 54.2304C159.072 54.8127 160.305 55.2014 161.577 55.3808C162.829 55.6072 164.085 55.7504 165.314 55.9537C166.54 56.1237 167.74 56.4465 168.885 56.9146C170.013 57.3867 170.96 58.2076 171.588 59.257C172.152 60.2898 172.541 61.4092 172.738 62.5695C173.2 64.8287 173.321 67.074 173.903 69.153C174.17 70.1787 174.652 71.1361 175.316 71.962C175.992 72.7296 176.769 73.4011 177.626 73.9578C179.304 75.0897 181.068 75.9629 182.607 77.0624C183.375 77.5862 184.073 78.2074 184.681 78.9104C185.254 79.6032 185.654 80.4217 185.85 81.299C186.011 82.1413 186.034 83.0041 185.919 83.8538C185.813 84.6616 185.659 85.4623 185.457 86.2516C185.088 87.7947 184.663 89.2408 184.404 90.6452C184.103 91.9557 184.103 93.3172 184.404 94.6277C184.748 95.7561 185.277 96.8194 185.97 97.7739C187.213 99.5849 188.41 101.008 189.204 102.297C189.856 103.241 190.326 104.299 190.59 105.415C190.655 105.699 190.692 105.988 190.701 106.279C190.756 106.446 190.756 106.547 190.756 106.547Z" fill="#263238"/>
<path id="Vector_108" d="M109.492 170.054C109.556 170.054 107.852 176.984 105.685 185.494C103.518 194.004 101.707 200.892 101.642 200.878C101.578 200.865 103.283 193.949 105.449 185.434C107.616 176.919 109.446 170.017 109.492 170.054Z" fill="#263238"/>
<path id="Vector_109" d="M122.343 148.488C145.506 148.488 164.283 129.71 164.283 106.547C164.283 83.3843 145.506 64.6069 122.343 64.6069C99.1797 64.6069 80.4023 83.3843 80.4023 106.547C80.4023 129.71 99.1797 148.488 122.343 148.488Z" fill="white"/>
<path id="Vector_110" d="M96.5173 92.0128C95.9398 92.5903 92.7613 98.3746 92.4702 103.147C92.1791 107.92 92.8675 134.706 92.8675 134.706L92.9923 136.485C100.541 145.314 127.984 158.453 152.701 136.439L154.087 119.959L150.008 85.0736L135.824 81.604L132.502 76.2217L110.363 81.4053L108.386 86.0715L96.5173 92.0128Z" fill="#455A64"/>
<path id="Vector_111" d="M130.984 62.1954C131.959 58.5687 132.915 54.9189 133.252 51.1814C133.59 47.4438 133.28 43.5815 131.793 40.1349C131.566 39.6129 129.695 36.1248 129.131 36.2126C128.729 36.2726 129.94 39.5528 129.755 39.9086C127.976 43.3597 127.653 47.4114 128.166 51.2599C128.695 54.9972 129.64 58.6636 130.984 62.1908" fill="#263238"/>
<path id="Vector_112" d="M130.612 47.8734C130.436 38.4624 124.809 30.7239 115.407 31.1628L114.539 31.2552C110.334 31.6985 106.449 33.7085 103.659 36.8852C100.868 40.062 99.3753 44.1728 99.4776 48.4C99.6809 56.5543 100.004 65.5633 100.517 69.8969C101.575 78.8643 110.681 79.3171 110.681 79.3171L111.102 85.2168L114.959 89.4072L132.843 78.3192L130.612 47.8734Z" fill="#FFBF9D"/>
<path id="Vector_113" d="M110.703 79.3866C110.703 79.3866 116.4 79.1232 122.031 74.6973C122.031 74.6973 120.146 82.8331 111.1 82.9671L110.703 79.3866Z" fill="#FF9A6C"/>
<path id="Vector_114" d="M104.65 55.7134C104.682 56.0506 104.845 56.3618 105.104 56.5797C105.364 56.7976 105.698 56.9046 106.036 56.8776C106.201 56.8735 106.363 56.8365 106.512 56.7689C106.662 56.7013 106.797 56.6044 106.909 56.4838C107.021 56.3633 107.108 56.2216 107.164 56.0671C107.221 55.9125 107.245 55.7483 107.237 55.584C107.204 55.2472 107.041 54.9367 106.782 54.7191C106.523 54.5015 106.189 54.394 105.851 54.4198C105.687 54.4233 105.524 54.4598 105.374 54.5272C105.224 54.5946 105.089 54.6915 104.977 54.8122C104.865 54.9329 104.778 55.0748 104.722 55.2296C104.666 55.3844 104.641 55.5489 104.65 55.7134Z" fill="#263238"/>
<path id="Vector_115" d="M101.794 51.9252C101.969 52.073 102.866 51.2553 104.247 51.112C105.628 50.9688 106.71 51.574 106.844 51.3661C106.908 51.2876 106.714 51.0012 106.238 50.724C105.598 50.3748 104.866 50.2313 104.141 50.3128C103.423 50.3867 102.747 50.6859 102.21 51.1675C101.817 51.5417 101.706 51.8559 101.794 51.9252Z" fill="#263238"/>
<path id="Vector_116" d="M116.841 54.6784C116.873 55.0157 117.036 55.3269 117.296 55.5447C117.555 55.7626 117.89 55.8696 118.227 55.8427C118.392 55.8385 118.554 55.8016 118.704 55.734C118.854 55.6663 118.988 55.5694 119.1 55.4489C119.212 55.3283 119.299 55.1866 119.355 55.0321C119.412 54.8776 119.437 54.7133 119.429 54.549C119.397 54.2114 119.234 53.8998 118.975 53.6812C118.715 53.4626 118.381 53.3545 118.043 53.3802C117.878 53.3849 117.716 53.4224 117.566 53.4906C117.416 53.5587 117.281 53.6561 117.169 53.777C117.057 53.8978 116.971 54.0398 116.914 54.1946C116.858 54.3494 116.833 54.5139 116.841 54.6784Z" fill="#263238"/>
<path id="Vector_117" d="M115.374 51.0566C115.549 51.2091 116.45 50.3867 117.827 50.2435C119.204 50.1003 120.294 50.7055 120.423 50.5022C120.488 50.4191 120.299 50.1326 119.823 49.86C119.181 49.5091 118.447 49.3655 117.721 49.4489C117.002 49.5197 116.325 49.8193 115.789 50.3036C115.401 50.6732 115.29 50.992 115.374 51.0566Z" fill="#263238"/>
<path id="Vector_118" d="M111.541 62.1859C111.541 62.1074 110.668 62.0473 109.258 62.015C108.903 62.015 108.561 61.9826 108.478 61.747C108.408 61.3869 108.452 61.0141 108.602 60.6798L109.36 57.9078C110.404 53.9346 111.12 50.6821 110.963 50.6405C110.806 50.599 109.822 53.7868 108.778 57.7646L108.067 60.5597C107.893 61.0032 107.879 61.4936 108.03 61.9457C108.093 62.066 108.182 62.1703 108.292 62.2504C108.402 62.3305 108.529 62.3843 108.662 62.4077C108.863 62.4323 109.067 62.4323 109.268 62.4077C110.677 62.3476 111.545 62.2645 111.541 62.1859Z" fill="#263238"/>
<path id="Vector_119" d="M115.702 62.7126C115.475 62.7126 115.632 64.2187 114.463 65.4199C113.295 66.6211 111.691 66.6211 111.691 66.8336C111.691 66.926 112.075 67.0877 112.754 67.0323C113.629 66.9502 114.447 66.5625 115.064 65.9374C115.653 65.3325 115.984 64.5225 115.988 63.6782C116.011 63.0452 115.803 62.6941 115.702 62.7126Z" fill="#263238"/>
<path id="Vector_120" d="M114.858 45.4477C115.033 45.8081 116.392 45.4847 118.032 45.5124C119.672 45.5401 121.03 45.8404 121.206 45.4801C121.284 45.3091 121.021 44.9811 120.452 44.6716C119.699 44.3061 118.872 44.1162 118.034 44.1162C117.196 44.1162 116.369 44.3061 115.615 44.6716C115.033 44.9488 114.779 45.2768 114.858 45.4477Z" fill="#263238"/>
<path id="Vector_121" d="M101.884 47.2776C102.156 47.564 103.076 47.139 104.217 47.0004C105.358 46.8618 106.351 47.0004 106.527 46.64C106.61 46.4691 106.425 46.178 105.972 45.9193C105.366 45.6235 104.685 45.5143 104.017 45.6056C103.348 45.6969 102.721 45.9845 102.216 46.4321C101.856 46.7971 101.759 47.1343 101.884 47.2776Z" fill="#263238"/>
<path id="Vector_122" d="M130.582 54.6046C130.73 54.5215 136.56 52.1283 137.013 58.3006C137.466 64.4729 131.206 63.6321 131.164 63.4565C131.123 63.281 130.582 54.6046 130.582 54.6046Z" fill="#FFBF9D"/>
<path id="Vector_123" d="M132.871 60.9848C132.899 60.9848 132.982 61.0495 133.172 61.1188C133.435 61.2099 133.723 61.195 133.975 61.0772C134.608 60.7907 135.08 59.7189 135.029 58.6055C135.007 58.0759 134.867 57.5579 134.618 57.0901C134.545 56.9022 134.429 56.7347 134.277 56.6019C134.126 56.4691 133.945 56.375 133.749 56.3278C133.624 56.3031 133.494 56.3233 133.382 56.3851C133.271 56.4468 133.185 56.546 133.139 56.6651C133.065 56.8453 133.116 56.9654 133.084 56.9792C133.051 56.9931 132.945 56.8822 132.973 56.6281C132.997 56.4719 133.074 56.3286 133.19 56.2216C133.351 56.0817 133.56 56.0103 133.772 56.0229C134.029 56.0532 134.273 56.1496 134.481 56.3027C134.689 56.4557 134.854 56.6602 134.959 56.8961C135.263 57.4099 135.434 57.9908 135.458 58.587C135.509 59.8298 134.959 61.0402 134.072 61.359C133.911 61.4198 133.738 61.4435 133.566 61.4283C133.394 61.4131 133.227 61.3594 133.079 61.2712C132.894 61.1326 132.853 60.994 132.871 60.9848Z" fill="#FF9A6C"/>
<path id="Vector_124" d="M102.81 37.9219C101.78 37.4322 104.566 34.0087 106.968 32.7382C110.567 30.8209 116.157 29.4211 119.636 30.1695C123.827 31.0935 127.375 32.8953 129.68 36.5082C131.985 40.121 133.043 44.4315 133.201 48.7142C133.247 50.0217 133.201 51.3892 132.572 52.5349C131.801 53.9533 130.202 54.9189 130.396 56.7946C130.442 57.1333 130.42 57.4777 130.332 57.8078C130.243 58.1379 130.089 58.4468 129.879 58.7165C128.825 59.9916 127.375 58.9521 126.668 57.8618C125.157 55.5518 124.82 52.6643 124.524 49.9015C124.312 47.9427 124.104 45.9376 124.524 44.0157C124.755 42.9669 125.18 41.9644 125.356 40.9064C125.531 39.8484 125.425 38.6703 124.723 37.8572C124.559 37.6867 124.38 37.532 124.187 37.3952C123.278 36.6976 122.199 36.2552 121.062 36.1139C119.925 35.9726 118.771 36.1374 117.719 36.5913C114.323 38.042 108.516 40.2596 106.89 39.1785C104.557 37.6262 103.947 36.5359 103.947 36.5359L102.81 37.9219Z" fill="#263238"/>
<path id="Vector_125" d="M96.5179 92.0127C96.1622 92.507 91.1125 94.1841 89.1952 97.3765C87.2779 100.569 85.3837 114.9 85.3837 114.9L84.1641 124.316C86.5665 128.113 89.7912 133.145 93.21 136.693L96.5179 92.0127Z" fill="#455A64"/>
<g id="Group_14" opacity="0.3">
<path id="Vector_126" d="M134.461 105.836C134.597 107.768 134.963 109.677 135.551 111.523C136.212 113.339 137.372 115.048 139.067 115.986C139.774 116.374 140.573 116.633 141.169 117.187C141.765 117.742 142.126 118.638 142.703 119.289C143.425 120.006 144.317 120.529 145.295 120.809C148.047 121.819 150.967 122.289 153.897 122.195C153.99 121.207 153.994 117.575 154.087 116.582L134.461 105.836Z" fill="black"/>
</g>
<path id="Vector_127" d="M150.011 85.0737C150.011 85.0737 156.378 86.9587 158.244 89.6706C160.111 92.3826 163.414 102.898 164.093 104.847C164.772 106.797 164.176 111.315 162.906 114.549C161.635 117.783 159.427 120.597 155.615 121.017C151.804 121.438 145.779 119.239 144.421 117.783C143.063 116.328 142.504 113.108 142.504 113.108C144.197 112.811 145.866 112.393 147.498 111.856" fill="#455A64"/>
<path id="Vector_128" d="M147.499 111.888L147.42 111.92L147.18 112.008C146.968 112.082 146.649 112.188 146.228 112.313C145.014 112.676 143.78 112.973 142.532 113.2L142.583 113.131C142.738 113.925 142.956 114.705 143.235 115.464C143.387 115.894 143.57 116.313 143.784 116.716C144.004 117.147 144.292 117.539 144.639 117.876C145.03 118.211 145.462 118.497 145.923 118.726C146.411 118.982 146.913 119.212 147.425 119.414C148.524 119.854 149.655 120.212 150.807 120.486C152.05 120.791 153.324 120.954 154.604 120.971C154.938 120.974 155.271 120.959 155.602 120.925C155.937 120.887 156.268 120.828 156.596 120.749C157.267 120.598 157.912 120.348 158.508 120.005C159.751 119.287 160.795 118.269 161.544 117.044C162.336 115.772 162.943 114.394 163.345 112.951C163.674 111.842 163.92 110.71 164.08 109.564C164.252 108.455 164.308 107.331 164.246 106.21C164.21 105.671 164.099 105.139 163.918 104.63C163.743 104.113 163.572 103.6 163.406 103.092L162.412 100.121C161.756 98.1898 161.109 96.3649 160.463 94.6694C159.895 93.0917 159.211 91.5582 158.416 90.0817C158.049 89.4542 157.558 88.9073 156.974 88.474C156.466 88.0691 155.925 87.706 155.357 87.3883C154.446 86.8683 153.503 86.4054 152.535 86.0023C151.74 85.6743 151.112 85.4433 150.687 85.2908L150.202 85.1199C150.144 85.1045 150.088 85.0828 150.035 85.0552C150.094 85.0627 150.151 85.0767 150.206 85.0968L150.701 85.2446C151.135 85.3832 151.772 85.6003 152.576 85.9145C153.553 86.3002 154.505 86.7461 155.427 87.2497C156.004 87.5674 156.556 87.9305 157.076 88.3354C157.677 88.7765 158.183 89.3343 158.564 89.9755C159.377 91.46 160.075 93.0045 160.652 94.5955C161.313 96.2864 161.964 98.1159 162.625 100.047C162.953 101.013 163.285 102.006 163.627 103.018C163.798 103.521 163.969 104.034 164.14 104.552C164.33 105.078 164.447 105.629 164.487 106.187C164.552 107.325 164.498 108.466 164.325 109.592C164.162 110.75 163.913 111.894 163.581 113.015C163.168 114.483 162.546 115.884 161.733 117.173C160.963 118.431 159.889 119.475 158.61 120.209C157.994 120.559 157.329 120.816 156.637 120.971C156.301 121.051 155.96 121.111 155.616 121.151C155.274 121.151 154.932 121.211 154.6 121.197C153.302 121.174 152.011 121.003 150.751 120.689C149.589 120.411 148.449 120.044 147.342 119.594C146.826 119.386 146.322 119.15 145.831 118.887C145.356 118.649 144.912 118.353 144.51 118.005C144.152 117.651 143.856 117.241 143.632 116.79C143.418 116.381 143.234 115.956 143.082 115.519C142.811 114.747 142.6 113.954 142.449 113.149V113.089H142.509C144.136 112.808 145.383 112.489 146.228 112.258L147.189 111.985L147.434 111.916C147.471 111.888 147.499 111.884 147.499 111.888Z" fill="#263238"/>
<path id="Vector_129" d="M159.176 108.483C159.13 108.483 158.982 107.698 158.451 106.524C157.753 104.999 156.778 103.615 155.577 102.445C154.911 101.811 154.158 101.276 153.341 100.855L152.782 100.606C152.597 100.523 152.403 100.486 152.227 100.426C151.895 100.321 151.553 100.25 151.206 100.213L150.975 100.181H150.347C150.13 100.178 149.914 100.196 149.7 100.236C149.515 100.274 149.326 100.294 149.137 100.296C149.312 100.224 149.495 100.173 149.682 100.144C149.897 100.083 150.119 100.05 150.343 100.047H150.758H150.985L151.225 100.075C151.583 100.1 151.938 100.161 152.283 100.259C152.477 100.308 152.668 100.367 152.856 100.435L153.438 100.684C154.286 101.103 155.065 101.648 155.748 102.301C156.976 103.488 157.949 104.912 158.608 106.487C158.725 106.755 158.827 107.03 158.913 107.31C158.984 107.52 159.042 107.734 159.088 107.952C159.134 108.126 159.164 108.303 159.176 108.483Z" fill="#263238"/>
<path id="Vector_130" d="M162.652 102.768C162.39 102.096 162.068 101.448 161.691 100.832C160.734 99.3711 159.301 98.2857 157.635 97.7602C155.681 97.1642 153.782 97.349 152.456 97.4737L150.871 97.6631C150.679 97.6978 150.484 97.7148 150.289 97.714C150.472 97.6426 150.663 97.5945 150.857 97.5707C151.227 97.4968 151.781 97.3998 152.437 97.3074C154.188 97.0014 155.985 97.077 157.704 97.5292C158.646 97.8121 159.52 98.2837 160.273 98.9152C160.89 99.4393 161.417 100.06 161.834 100.754C162.12 101.209 162.348 101.698 162.514 102.209C162.581 102.39 162.628 102.577 162.652 102.768Z" fill="#263238"/>
<path id="Vector_131" d="M157.855 95.9354C155.364 95.3482 152.761 95.4504 150.324 96.2311C150.644 96.0226 150.995 95.8666 151.364 95.7691C152.238 95.5003 153.143 95.345 154.057 95.3071C154.971 95.2747 155.886 95.3585 156.778 95.5566C157.154 95.6284 157.517 95.7561 157.855 95.9354Z" fill="#263238"/>
<path id="Vector_132" d="M147.548 86.6631C147.585 86.6631 147.493 87.3145 147.419 88.3586C147.225 91.033 147.456 93.7213 148.103 96.3235L147.937 96.3789C147.747 95.8476 147.599 95.4134 147.502 95.1084C147.442 94.9598 147.399 94.8048 147.373 94.6464C147.467 94.7899 147.542 94.9453 147.595 95.1084C147.719 95.3995 147.89 95.8245 148.103 96.3512L147.937 96.402C147.571 95.1237 147.328 93.8134 147.211 92.4889C147.09 91.1188 147.103 89.7402 147.248 88.3725C147.308 87.8504 147.378 87.4485 147.433 87.1389C147.448 86.9756 147.487 86.8154 147.548 86.6631Z" fill="#263238"/>
<path id="Vector_133" d="M138.547 74.8125C138.547 74.8125 135.244 74.8125 134.828 78.7811C134.509 81.8303 134.828 84.7871 134.828 86.1269C134.828 87.4667 134.241 92.2114 134.241 92.2114C134.241 92.2114 131.987 94.2119 132.024 96.6143C132.061 99.0167 133.779 99.7651 133.779 99.7651C133.491 100.51 133.428 101.322 133.597 102.102C133.766 102.883 134.161 103.596 134.731 104.154C134.731 104.154 133.775 106.367 134.56 107.85C135.013 108.588 135.719 109.135 136.547 109.389C136.411 109.681 136.34 109.998 136.338 110.32C136.335 110.642 136.402 110.961 136.534 111.254C136.665 111.548 136.858 111.81 137.099 112.023C137.341 112.236 137.625 112.395 137.933 112.489C139.043 112.832 140.205 112.975 141.366 112.909L143.833 112.863L146.004 114.064C146.004 114.064 149.728 112.442 149.82 110.248L149.917 108.053C149.917 108.053 148.85 104.45 148.762 103.295C148.674 102.14 149.621 99.3817 149.049 98.1435C148.476 96.9053 146.475 96.1754 146.665 94.4475C146.854 92.7196 146.475 91.7587 145.616 90.8023C144.757 89.846 140.964 87.9425 140.964 87.9425C140.964 87.9425 139.989 85.1705 139.989 83.2717C139.989 81.3729 141.888 75.5378 138.547 74.8125Z" fill="#FFBF9D"/>
<path id="Vector_134" d="M140.772 88.6631C140.488 88.8955 140.178 89.0939 139.848 89.2544C139.266 89.5963 138.462 90.0491 137.538 90.5388C136.614 91.0285 135.811 91.4628 135.228 91.7631C134.914 91.9533 134.579 92.1082 134.23 92.2251C134.513 91.9901 134.824 91.79 135.154 91.6291C135.737 91.2872 136.54 90.8345 137.464 90.3448C138.388 89.855 139.192 89.4208 139.774 89.1205C140.088 88.9302 140.423 88.7768 140.772 88.6631Z" fill="#FF9A6C"/>
<path id="Vector_135" d="M142.945 96.1338C142.945 96.1338 142.853 96.24 142.654 96.3925C142.379 96.609 142.092 96.811 141.795 96.9977C140.82 97.6229 139.782 98.1462 138.7 98.5593C137.617 98.9792 136.495 99.2888 135.35 99.4833C134.888 99.5526 134.551 99.5942 134.306 99.608C134.178 99.6321 134.046 99.6321 133.918 99.608C133.918 99.5711 134.454 99.4971 135.304 99.317C136.425 99.0814 137.526 98.7602 138.598 98.356C139.667 97.9423 140.702 97.4449 141.693 96.8684C142.098 96.6024 142.516 96.3572 142.945 96.1338Z" fill="#FF9A6C"/>
<path id="Vector_136" d="M145.783 93.7546C145.843 93.7777 145.718 94.2166 145.321 94.5539C144.924 94.8911 144.499 94.9927 144.485 94.9327C144.471 94.8726 144.813 94.6971 145.159 94.3737C145.506 94.0503 145.718 93.7269 145.783 93.7546Z" fill="#FF9A6C"/>
<path id="Vector_137" d="M144.414 102.671C143.971 102.887 143.506 103.057 143.028 103.18C141.892 103.518 140.734 103.782 139.563 103.97C138.393 104.16 137.21 104.272 136.025 104.302C135.533 104.34 135.039 104.325 134.551 104.256C135.036 104.187 135.525 104.147 136.015 104.136C136.939 104.071 138.164 103.951 139.527 103.734C140.889 103.517 142.104 103.235 142.982 103.013C143.453 102.872 143.931 102.757 144.414 102.671Z" fill="#FF9A6C"/>
<path id="Vector_138" d="M147.439 102.14C147.509 101.899 147.594 101.663 147.693 101.433C147.877 100.869 147.938 100.272 147.874 99.682C147.8 99.0926 147.598 98.5265 147.282 98.0234C147.133 97.8226 146.995 97.6127 146.871 97.3951C146.871 97.372 147.134 97.543 147.425 97.9264C147.799 98.4332 148.035 99.0284 148.109 99.6536C148.184 100.279 148.095 100.913 147.851 101.493C147.661 101.913 147.462 102.14 147.439 102.14Z" fill="#FF9A6C"/>
<path id="Vector_139" d="M144.6 109.361C144.221 109.5 143.827 109.594 143.426 109.638C142.466 109.79 141.496 109.865 140.525 109.865C139.551 109.863 138.579 109.781 137.619 109.62C137.218 109.574 136.823 109.48 136.445 109.338C136.847 109.345 137.247 109.384 137.642 109.453C138.599 109.562 139.561 109.619 140.525 109.624C141.486 109.622 142.447 109.57 143.403 109.467C143.798 109.4 144.199 109.364 144.6 109.361Z" fill="#FF9A6C"/>
<path id="Vector_140" d="M138.729 83.318C138.729 83.3457 138.577 83.4705 138.267 83.5813C137.86 83.7175 137.427 83.7616 137 83.7105C136.574 83.6593 136.164 83.5143 135.8 83.2857C135.523 83.1055 135.393 82.9484 135.412 82.9253C135.923 83.1818 136.467 83.3654 137.029 83.4704C137.6 83.5008 138.172 83.4495 138.729 83.318Z" fill="#FF9A6C"/>
<path id="Vector_141" d="M148.121 102.403C148.163 102.517 148.182 102.638 148.176 102.759C148.177 103.087 148.138 103.415 148.061 103.734C147.973 104.136 147.821 104.602 147.673 105.12C147.494 105.661 147.436 106.235 147.502 106.802C147.581 107.388 148.019 107.86 148.089 108.456C148.136 108.959 148.007 109.464 147.724 109.883C147.552 110.161 147.352 110.421 147.128 110.659C146.971 110.83 146.874 110.913 146.86 110.904C146.846 110.895 147.179 110.498 147.576 109.8C147.815 109.407 147.917 108.945 147.867 108.488C147.812 107.984 147.368 107.513 147.262 106.843C147.191 106.241 147.259 105.631 147.46 105.06C147.622 104.538 147.788 104.08 147.895 103.674C148.001 103.256 148.077 102.832 148.121 102.403Z" fill="#FF9A6C"/>
<path id="Vector_142" d="M149.366 105.305C149.441 105.44 149.494 105.587 149.523 105.739C149.606 106.021 149.717 106.437 149.818 106.954C149.944 107.563 150.018 108.181 150.04 108.802C150.08 109.579 149.938 110.354 149.624 111.066C149.261 111.747 148.779 112.359 148.201 112.872C147.742 113.291 147.252 113.675 146.737 114.023C146.298 114.323 145.928 114.545 145.67 114.688C145.542 114.774 145.404 114.842 145.259 114.891C145.235 114.859 145.79 114.508 146.645 113.884C147.14 113.523 147.612 113.131 148.058 112.711C148.607 112.208 149.067 111.616 149.417 110.96C149.713 110.28 149.853 109.543 149.828 108.802C149.817 108.19 149.761 107.581 149.661 106.977C149.481 105.947 149.329 105.314 149.366 105.305Z" fill="#263238"/>
<path id="Vector_143" d="M114.507 89.9247C114.315 89.8116 114.135 89.6784 113.971 89.5273L112.585 88.3677L111.624 87.5592C111.46 87.4056 111.277 87.2736 111.079 87.1665C110.983 87.1175 110.877 87.0919 110.77 87.0919C110.662 87.0919 110.556 87.1175 110.46 87.1665C110.063 87.3744 109.795 87.8826 109.457 88.3077C109.12 88.7327 108.788 89.2317 108.436 89.6937C107.882 90.4421 107.342 91.1582 106.847 91.8235L106.547 92.2208L106.644 91.7311C106.909 90.3571 107.294 89.0091 107.794 87.7024C107.979 87.2404 108.145 86.8431 108.256 86.589C108.308 86.4525 108.378 86.3236 108.464 86.2056C108.432 86.3465 108.388 86.4842 108.33 86.6167C108.233 86.8801 108.09 87.2635 107.924 87.7533C107.472 89.0666 107.118 90.4116 106.866 91.7773L106.658 91.6849L108.242 89.5504L109.263 88.1644L109.753 87.513C109.909 87.2816 110.118 87.0914 110.363 86.9586C110.491 86.9023 110.631 86.876 110.771 86.8816C110.911 86.8872 111.048 86.9246 111.171 86.991C111.381 87.1092 111.575 87.2535 111.749 87.4206L112.673 88.2522L114.022 89.4673C114.196 89.6067 114.358 89.7597 114.507 89.9247Z" fill="#263238"/>
<path id="Vector_144" d="M134.009 86.0208C133.955 86.0815 133.895 86.1358 133.828 86.1825L133.283 86.6075L131.246 88.1368L124.45 93.1402L124.348 93.2141L124.279 93.1079C124.223 93.0247 124.168 92.9323 124.108 92.8445L120.698 87.4576L120.823 87.4992C119.509 88.0211 118.242 88.6532 117.035 89.3888C116.6 89.6521 116.263 89.8508 116.032 90.0217C115.92 90.1063 115.799 90.1791 115.672 90.2389C115.77 90.1369 115.878 90.0456 115.995 89.9663C116.217 89.8046 116.545 89.569 116.975 89.2871C118.167 88.5113 119.429 87.8493 120.745 87.3098L120.823 87.2774L120.869 87.3467C121.872 88.9037 123.05 90.7471 124.311 92.7152C124.371 92.803 124.427 92.8954 124.482 92.9785L124.307 92.9462L131.149 88.0028L133.228 86.529L133.801 86.1409C133.935 86.0531 134.004 86.0116 134.009 86.0208Z" fill="#263238"/>
<path id="Vector_145" d="M92.5498 104.395C92.5709 104.501 92.5802 104.609 92.5775 104.718C92.5775 104.958 92.5775 105.268 92.6006 105.642C92.6006 106.478 92.6422 107.647 92.6653 109.079C92.7207 111.981 92.8362 116.009 92.9887 120.421C93.1412 124.833 93.2289 128.862 93.2382 131.768C93.2382 133.223 93.2382 134.397 93.2382 135.21C93.2382 135.593 93.2382 135.908 93.2151 136.134C93.2201 136.244 93.2123 136.354 93.192 136.462C93.1853 136.353 93.1853 136.243 93.192 136.134C93.192 135.898 93.192 135.584 93.1643 135.21C93.1643 134.369 93.1273 133.2 93.0996 131.773C93.0488 128.867 92.9286 124.843 92.7808 120.426C92.633 116.009 92.5406 111.985 92.5313 109.079C92.5313 107.629 92.5313 106.45 92.5313 105.642C92.5313 105.254 92.5313 104.944 92.5313 104.718C92.5306 104.61 92.5367 104.502 92.5498 104.395Z" fill="#263238"/>
<path id="Vector_146" d="M114.661 146.122C114.646 146.081 114.636 146.037 114.633 145.993C114.633 145.891 114.633 145.762 114.592 145.6C114.555 145.235 114.504 144.732 114.444 144.089C114.315 142.777 114.167 140.855 114.019 138.522C113.871 136.189 113.746 133.362 113.668 130.248C113.589 127.134 113.58 123.701 113.668 120.084C113.756 116.466 113.917 113.061 114.13 109.952C114.342 106.843 114.592 104.043 114.841 101.701C115.091 99.3585 115.303 97.4597 115.507 96.1569C115.599 95.5147 115.668 95.0157 115.719 94.6554C115.747 94.4937 115.765 94.3643 115.784 94.2627C115.786 94.2183 115.795 94.1747 115.812 94.1333C115.819 94.1777 115.819 94.2229 115.812 94.2673C115.812 94.3689 115.788 94.4983 115.775 94.66C115.733 95.0203 115.678 95.5239 115.604 96.1661C115.447 97.4782 115.243 99.3724 115.017 101.71C114.791 104.048 114.555 106.852 114.356 109.961C114.158 113.071 114.005 116.494 113.922 120.088C113.839 123.683 113.862 127.106 113.922 130.22C113.982 133.334 114.098 136.134 114.227 138.485C114.356 140.837 114.472 142.745 114.573 144.057C114.615 144.699 114.652 145.207 114.675 145.572C114.675 145.734 114.675 145.863 114.698 145.965C114.69 146.018 114.678 146.071 114.661 146.122Z" fill="#263238"/>
<path id="Vector_147" d="M100.89 70.5023L100.401 70.8257L98.9593 71.7497C98.3217 72.1609 97.5733 72.7477 96.6955 73.3945C96.2335 73.7271 95.8085 74.129 95.3095 74.5356L94.5564 75.1685C94.2977 75.3903 94.0529 75.6305 93.7895 75.8846C91.2343 78.2683 88.9898 80.9645 87.109 83.9096L86.2866 85.2309C85.9956 85.6698 85.7738 86.1549 85.5059 86.6169C85.2379 87.0789 84.9746 87.5779 84.7343 88.0861C84.4941 88.5943 84.2723 89.1163 84.0228 89.643C83.9073 89.9063 83.778 90.1651 83.6671 90.4376C83.5562 90.7102 83.4592 90.9874 83.3529 91.2692C83.145 91.8236 82.9233 92.3827 82.72 92.9602C82.3781 94.129 81.9438 95.3117 81.6851 96.573C80.368 102.03 80.1482 107.695 81.0383 113.237C82.1966 120.375 85.1854 127.09 89.7131 132.728C94.2408 138.366 100.153 142.734 106.872 145.406C113.591 148.078 120.888 148.962 128.051 147.973C135.214 146.983 141.999 144.154 147.742 139.761C149.192 138.646 150.571 137.443 151.872 136.157L152.796 135.178C153.11 134.854 153.415 134.526 153.72 134.18L154.598 133.168C154.875 132.817 155.148 132.466 155.425 132.119C159.604 126.737 162.392 120.407 163.542 113.69C163.813 112.131 163.996 110.557 164.092 108.978C164.138 108.197 164.138 107.425 164.166 106.668C164.194 105.91 164.111 105.138 164.083 104.385C164.083 104.011 164.05 103.632 164.037 103.258C164.023 102.884 163.953 102.519 163.917 102.149C163.824 101.415 163.736 100.685 163.649 99.9641C163.561 99.2434 163.371 98.5411 163.233 97.8389C163.117 97.1425 162.963 96.4531 162.771 95.7737L162.198 93.7733C162.108 93.4451 161.998 93.1227 161.87 92.8077C161.75 92.4889 161.63 92.1701 161.514 91.856C161.269 91.2323 161.052 90.5947 160.789 90.008C160.525 89.4212 160.239 88.8253 159.966 88.2478C157.957 84.0708 155.262 80.2604 151.992 76.975C149.515 74.5136 146.751 72.3591 143.759 70.5578L141.995 69.546C141.728 69.3898 141.454 69.2479 141.172 69.121L140.396 68.7514L139.01 68.0953C138.594 67.8828 138.183 67.7627 137.837 67.6333L136.229 67.0142L135.684 66.7925L136.238 66.9911L137.85 67.5917C138.202 67.7303 138.613 67.8505 139.033 68.0537L140.419 68.7005L141.2 69.0701C141.483 69.1939 141.759 69.3327 142.027 69.4859L143.796 70.4931C146.808 72.283 149.589 74.4333 152.08 76.8964C155.369 80.1795 158.083 83.9917 160.11 88.1738C160.382 88.7606 160.659 89.3473 160.941 89.9479C161.223 90.5485 161.403 91.1815 161.671 91.7959L162.032 92.7476C162.16 93.0642 162.27 93.3882 162.36 93.7178C162.554 94.3831 162.748 95.0484 162.942 95.7275C163.142 96.4094 163.304 97.102 163.427 97.8019C163.565 98.5042 163.732 99.1879 163.852 99.9317C163.972 100.676 164.027 101.392 164.12 102.131C164.161 102.5 164.221 102.87 164.245 103.244C164.268 103.618 164.277 103.997 164.291 104.376C164.318 105.134 164.36 105.896 164.379 106.686C164.397 107.476 164.355 108.234 164.305 108.996C163.833 117.453 160.798 125.566 155.605 132.258L154.764 133.311L153.877 134.332C153.591 134.679 153.281 135.011 152.953 135.335L152.029 136.323C150.72 137.617 149.332 138.826 147.871 139.946C142.1 144.357 135.284 147.198 128.088 148.192C120.892 149.185 113.562 148.297 106.811 145.614C100.061 142.931 94.1205 138.545 89.5696 132.883C85.0188 127.221 82.0127 120.476 80.8443 113.307C80.3755 110.417 80.2206 107.484 80.3823 104.561C80.4988 101.865 80.8873 99.1867 81.5419 96.5684C81.8006 95.3025 82.2395 94.1198 82.5814 92.9417C82.7893 92.3688 83.0157 91.8052 83.2282 91.2461C83.3345 90.9689 83.4407 90.6917 83.5424 90.4145C83.644 90.1373 83.7872 89.8832 83.9027 89.6153C84.1476 89.0886 84.3647 88.5712 84.6188 88.0583C84.8729 87.5455 85.1455 87.0697 85.3996 86.5846C85.6537 86.0995 85.8939 85.619 86.185 85.1755L87.0166 83.8541C88.9072 80.9045 91.1696 78.2105 93.7479 75.8384C94.0113 75.5936 94.2561 75.3441 94.5149 75.1223L95.2725 74.4894C95.7715 74.0875 96.1965 73.6901 96.6585 73.3575C97.5594 72.7107 98.2986 72.1332 98.9408 71.7266L100.396 70.8026C100.71 70.5994 100.89 70.5023 100.89 70.5023Z" fill="#263238"/>
</g>
</g>
</svg>
