<svg width="500" height="500" viewBox="0 0 500 500" fill="none" xmlns="http://www.w3.org/2000/svg">
<path d="M214.74 88.8398H41.1504V244.14H214.74V88.8398Z" fill="#FAFAFA"/>
<path d="M214.74 244.14C214.74 244.14 214.74 243.14 214.74 241.26C214.74 239.38 214.74 236.57 214.74 232.94C214.74 225.65 214.68 214.99 214.64 201.42C214.59 174.28 214.52 135.51 214.44 88.84L214.83 89.23L41.1698 89.3L41.6298 88.84C41.6298 145.34 41.6298 198.51 41.6298 244.14L41.2198 243.74L166.77 243.94L202.19 244.05H211.56H213.98H214.81C214.81 244.05 214.55 244.05 214.02 244.05H211.65L202.36 244.1L167.04 244.21L41.2198 244.41H40.8098V244C40.8098 198.37 40.8098 145.2 40.7598 88.7V88.24H41.2398L214.81 88.31H215.21V88.7C215.13 135.47 215.06 174.33 215.01 201.52C215.01 215.06 214.93 225.69 214.91 232.96C214.91 236.56 214.91 239.32 214.91 241.21C214.91 243.1 214.74 244.14 214.74 244.14Z" fill="#E0E0E0"/>
<path d="M107.71 116.43C107.71 116.69 98.5704 116.9 87.3104 116.9C76.0504 116.9 66.9004 116.69 66.9004 116.43C66.9004 116.17 76.0004 116 87.3104 116C98.6204 116 107.71 116.18 107.71 116.43Z" fill="#E0E0E0"/>
<path d="M181.259 128.1C181.259 128.35 156.159 128.56 125.259 128.56C94.3595 128.56 69.1895 128.35 69.1895 128.1C69.1895 127.85 94.2895 127.63 125.259 127.63C156.229 127.63 181.259 127.84 181.259 128.1Z" fill="#E0E0E0"/>
<path d="M74.5092 147.85H67.1992V155.16H74.5092V147.85Z" fill="#E0E0E0"/>
<path d="M92.5092 147.85H85.1992V155.16H92.5092V147.85Z" fill="#E0E0E0"/>
<path d="M110.839 147.52H103.529V154.83H110.839V147.52Z" fill="#E0E0E0"/>
<path d="M128.509 147.85H121.199V155.16H128.509V147.85Z" fill="#E0E0E0"/>
<path d="M146.519 147.85H139.209V155.16H146.519V147.85Z" fill="#E0E0E0"/>
<path d="M164.519 147.85H157.209V155.16H164.519V147.85Z" fill="#E0E0E0"/>
<path d="M182.519 147.85H175.209V155.16H182.519V147.85Z" fill="#EBEBEB"/>
<path d="M74.5092 163.4H67.1992V170.71H74.5092V163.4Z" fill="#EBEBEB"/>
<path d="M92.5092 163.4H85.1992V170.71H92.5092V163.4Z" fill="#E0E0E0"/>
<path d="M110.509 163.4H103.199V170.71H110.509V163.4Z" fill="#EBEBEB"/>
<path d="M128.509 163.4H121.199V170.71H128.509V163.4Z" fill="#E0E0E0"/>
<path d="M146.519 163.4H139.209V170.71H146.519V163.4Z" fill="#E0E0E0"/>
<path d="M164.849 163.06H157.539V170.37H164.849V163.06Z" fill="#E0E0E0"/>
<path d="M182.519 163.4H175.209V170.71H182.519V163.4Z" fill="#E0E0E0"/>
<path d="M74.5092 178.94H67.1992V186.25H74.5092V178.94Z" fill="#E0E0E0"/>
<path d="M92.8393 178.61H85.5293V185.92H92.8393V178.61Z" fill="#E0E0E0"/>
<path d="M110.509 178.94H103.199V186.25H110.509V178.94Z" fill="#E0E0E0"/>
<path d="M128.509 178.94H121.199V186.25H128.509V178.94Z" fill="#EBEBEB"/>
<path d="M146.519 178.94H139.209V186.25H146.519V178.94Z" fill="#E0E0E0"/>
<path d="M164.519 178.94H157.209V186.25H164.519V178.94Z" fill="#E0E0E0"/>
<path d="M182.519 178.94H175.209V186.25H182.519V178.94Z" fill="#E0E0E0"/>
<path d="M74.5092 194.49H67.1992V201.8H74.5092V194.49Z" fill="#E0E0E0"/>
<path d="M92.5092 194.49H85.1992V201.8H92.5092V194.49Z" fill="#E0E0E0"/>
<path d="M110.509 194.49H103.199V201.8H110.509V194.49Z" fill="#E0E0E0"/>
<path d="M128.849 194.16H121.539V201.47H128.849V194.16Z" fill="#E0E0E0"/>
<path d="M146.519 194.49H139.209V201.8H146.519V194.49Z" fill="#E0E0E0"/>
<path d="M164.519 194.49H157.209V201.8H164.519V194.49Z" fill="#EBEBEB"/>
<path d="M182.519 194.49H175.209V201.8H182.519V194.49Z" fill="#E0E0E0"/>
<path d="M74.5092 210.04H67.1992V217.35H74.5092V210.04Z" fill="#E0E0E0"/>
<path d="M92.5092 210.04H85.1992V217.35H92.5092V210.04Z" fill="#EBEBEB"/>
<path d="M110.509 210.04H103.199V217.35H110.509V210.04Z" fill="#E0E0E0"/>
<path d="M128.509 210.04H121.199V217.35H128.509V210.04Z" fill="#E0E0E0"/>
<path d="M146.519 210.04H139.209V217.35H146.519V210.04Z" fill="#E0E0E0"/>
<path d="M164.849 209.71H157.539V217.02H164.849V209.71Z" fill="#E0E0E0"/>
<path d="M182.519 210.04H175.209V217.35H182.519V210.04Z" fill="#E0E0E0"/>
<path d="M410.765 51.8659L399.605 51.9263L399.906 107.435L411.066 107.375L410.765 51.8659Z" fill="#FFC947"/>
<path d="M331.847 52.0134L302.957 52.1697L303.123 82.8092L332.012 82.6529L331.847 52.0134Z" fill="#EBEBEB"/>
<path d="M360.606 51.8476L331.717 52.0039L331.883 82.6435L360.772 82.4871L360.606 51.8476Z" fill="#F5F5F5"/>
<path d="M302.999 60.6499C322.199 60.8099 341.413 60.7199 360.639 60.3799C360.711 60.367 360.775 60.3293 360.822 60.2736C360.868 60.2178 360.894 60.1475 360.894 60.0749C360.894 60.0023 360.868 59.9321 360.822 59.8763C360.775 59.8206 360.711 59.7829 360.639 59.7699C341.449 59.6599 322.199 59.7699 303.009 60.1199C302.948 60.1319 302.892 60.1649 302.853 60.2133C302.813 60.2616 302.791 60.3223 302.791 60.3849C302.791 60.4476 302.813 60.5083 302.853 60.5566C302.892 60.605 302.948 60.638 303.009 60.6499H302.999Z" fill="#E0E0E0"/>
<path d="M337.45 82.1425L284.961 82.4265L285.096 107.396L337.585 107.112L337.45 82.1425Z" fill="#EBEBEB"/>
<path d="M389.688 81.86L337.199 82.144L337.334 107.114L389.824 106.83L389.688 81.86Z" fill="#F5F5F5"/>
<path d="M285 89.3899C319.87 89.7899 354.86 89.3899 389.72 88.8699C389.791 88.857 389.856 88.8193 389.902 88.7636C389.949 88.7078 389.974 88.6375 389.974 88.5649C389.974 88.4923 389.949 88.4221 389.902 88.3663C389.856 88.3106 389.791 88.2729 389.72 88.2599C354.85 88.0799 319.86 88.0999 285 88.8599C284.938 88.8719 284.883 88.9049 284.843 88.9533C284.803 89.0016 284.781 89.0623 284.781 89.1249C284.781 89.1876 284.803 89.2483 284.843 89.2966C284.883 89.345 284.938 89.3779 285 89.3899Z" fill="#E0E0E0"/>
<path d="M468.709 107.42H265.359V116.37H468.709V107.42Z" fill="#382A08"/>
<path d="M306.9 111.72H298.65V142.25H306.9V111.72Z" fill="#E0E0E0"/>
<path d="M430.139 111.72H421.879V142.25H430.139V111.72Z" fill="#E0E0E0"/>
<path d="M421.652 31.1669L410.492 31.2273L410.905 107.566L422.065 107.506L421.652 31.1669Z" fill="#01966B"/>
<path d="M439.295 43.3575L421.965 43.5308L422.584 105.401L439.914 105.227L439.295 43.3575Z" fill="#FF7F5C"/>
<path d="M439 57.32C436.12 57.616 433.223 57.7162 430.33 57.62C427.44 57.7161 424.546 57.6159 421.67 57.32C421.67 57.15 425.55 57.02 430.33 57.02C435.11 57.02 439 57.15 439 57.32Z" fill="#E0E0E0"/>
<path d="M439 54.7199C436.12 55.0159 433.223 55.1161 430.33 55.0199C427.44 55.1161 424.546 55.0158 421.67 54.7199C421.67 54.5499 425.55 54.4199 430.33 54.4199C435.11 54.4199 439 54.5499 439 54.7199Z" fill="#E0E0E0"/>
<path d="M439 98C433.23 98.3999 427.44 98.3999 421.67 98C421.67 97.83 425.55 97.7 430.33 97.7C435.11 97.7 439 97.79 439 98Z" fill="#E0E0E0"/>
<path d="M439 95.3598C433.23 95.7598 427.44 95.7598 421.67 95.3598C421.67 95.1898 425.55 95.0598 430.33 95.0598C435.11 95.0598 439 95.1898 439 95.3598Z" fill="#E0E0E0"/>
<path d="M430.57 89.6898C430.41 89.6898 430.27 83.4498 430.27 75.7498C430.27 68.0498 430.41 61.8098 430.57 61.8098C430.73 61.8098 430.87 68.0498 430.87 75.7498C430.87 83.4498 430.74 89.6898 430.57 89.6898Z" fill="#E0E0E0"/>
<path d="M458.02 60.5898H439.15V107.29H458.02V60.5898Z" fill="#0555C8"/>
<path d="M419.109 44.22C419.109 44.8553 418.921 45.4763 418.568 46.0044C418.215 46.5325 417.713 46.944 417.126 47.1866C416.538 47.4293 415.892 47.4923 415.27 47.3676C414.647 47.2429 414.075 46.9362 413.626 46.4863C413.178 46.0364 412.873 45.4635 412.75 44.8401C412.627 44.2168 412.692 43.571 412.937 42.9847C413.181 42.3983 413.594 41.8977 414.123 41.5461C414.653 41.1946 415.274 41.008 415.909 41.01C416.759 41.0127 417.573 41.352 418.173 41.9537C418.773 42.5554 419.109 43.3704 419.109 44.22Z" fill="#E0E0E0"/>
<path d="M416.89 53.04H414.91V98.46H416.89V53.04Z" fill="#E0E0E0"/>
<path d="M74.2597 342.83C79.4997 340.13 85.6597 339.78 91.4697 340.74C94.5897 341.26 97.8397 342.19 99.9697 344.54C102.1 346.89 102.49 351.01 100.05 353.02C98.5997 354.22 96.5797 354.4 94.6997 354.38C90.1497 354.33 85.0997 353.53 81.4697 356.26C79.3897 357.83 78.0097 360.42 75.5397 361.19C73.0697 361.96 70.3697 360.51 69.0897 358.32C67.9068 356.042 67.6455 353.396 68.3597 350.93C68.6525 349.217 69.3374 347.594 70.3608 346.189C71.3843 344.784 72.7186 343.634 74.2597 342.83Z" fill="#0555C8"/>
<path d="M62.27 319.69C65.47 324.26 71.69 322.74 74.58 319.96C77.47 317.18 78.68 313.12 79.79 309.27C82.32 300.46 84.88 291.27 82.99 282.27C82.5393 279.552 81.3452 277.011 79.54 274.93C78.6277 273.901 77.461 273.131 76.1569 272.696C74.8528 272.26 73.4572 272.176 72.11 272.45C68.97 273.28 67.03 276.35 65.62 279.28C61.4666 287.905 59.2904 297.347 59.25 306.92C59.25 311.37 59.76 316.04 62.25 319.72" fill="#0555C8"/>
<path d="M53.4804 326.25C56.9604 322.12 57.6204 316.11 56.0704 310.94C54.5204 305.77 51.0704 301.38 47.0104 297.79C42.2733 293.576 36.7606 290.325 30.7804 288.22C28.4659 287.281 25.9749 286.858 23.4804 286.98C22.2345 287.051 21.0248 287.425 19.9565 288.07C18.8881 288.714 17.9935 289.61 17.3504 290.68C15.6404 293.94 17.2804 297.89 19.0504 301.12C22.1728 306.801 25.7371 312.228 29.7104 317.35C32.9104 321.47 36.5704 325.53 41.4404 327.35C46.3104 329.17 51.3704 329 54.0004 325.66" fill="#0555C8"/>
<path d="M62.0602 388.63C62.2264 387.952 62.3236 387.258 62.3502 386.56C62.4902 385.04 62.6802 383.15 62.9002 380.89C63.1794 378.097 63.6033 375.32 64.1702 372.57C64.9106 369.226 65.9137 365.946 67.1702 362.76C68.4114 359.58 70.0946 356.59 72.1702 353.88C73.8646 351.676 76.0309 349.878 78.5102 348.62C80.1994 347.799 82.0088 347.252 83.8702 347C84.5687 346.972 85.2624 346.871 85.9402 346.7C85.2424 346.622 84.5381 346.622 83.8402 346.7C81.9129 346.846 80.0269 347.334 78.2702 348.14C75.6648 349.373 73.3789 351.19 71.5902 353.45C69.4239 356.198 67.675 359.251 66.4002 362.51C65.1116 365.75 64.1078 369.096 63.4002 372.51C62.8621 375.292 62.4914 378.104 62.2902 380.93C62.1102 383.34 62.0502 385.29 62.0102 386.64C61.9551 387.303 61.9719 387.971 62.0602 388.63Z" fill="#263238"/>
<path d="M62.4507 384.27C62.4883 383.938 62.4883 383.602 62.4507 383.27V380.51C62.4507 378.12 62.4507 374.66 62.5707 370.39C62.7807 361.84 63.5707 352.64 64.9407 339.67C66.2807 327.48 68.0907 313.28 70.0007 304.06C70.4007 301.96 70.8207 300.06 71.2007 298.42C71.5807 296.78 71.8907 295.33 72.2007 294.17C72.5107 293.01 72.6807 292.17 72.8507 291.5C72.9496 291.175 73.0067 290.839 73.0207 290.5C72.8674 290.783 72.753 291.086 72.6807 291.4C72.4707 292.09 72.2107 292.97 71.8807 294.04C71.5507 295.11 71.1607 296.6 70.7507 298.26C70.3407 299.92 69.8607 301.79 69.4107 303.88C67.0559 314.778 65.2801 325.794 64.0907 336.88C62.6707 349.88 62.0307 361.71 61.9707 370.27C61.9707 374.56 61.9707 378.03 62.1207 380.42C62.1907 381.54 62.2507 382.42 62.2907 383.17C62.2939 383.542 62.3477 383.912 62.4507 384.27Z" fill="#263238"/>
<path d="M62.5001 361.45C62.5764 360.492 62.5764 359.529 62.5001 358.57C62.3372 355.957 62.0435 353.354 61.6201 350.77C60.9931 346.938 60.1484 343.146 59.0901 339.41C57.8422 334.824 56.2441 330.341 54.3101 326C50.9996 317.968 46.2557 310.605 40.3101 304.27C39.2799 303.188 38.1845 302.169 37.0301 301.22C36.5201 300.8 36.0801 300.37 35.6201 300.04L34.3501 299.16C33.6098 298.569 32.824 298.037 32.0001 297.57C31.8601 297.75 35.4301 299.86 39.9401 304.65C45.6666 311.043 50.2623 318.364 53.5301 326.3C55.4153 330.63 57.0121 335.08 58.3101 339.62C59.5501 343.8 60.3801 347.62 61.0001 350.87C61.6201 354.12 61.9401 356.76 62.1501 358.6C62.1997 359.557 62.3167 360.509 62.5001 361.45Z" fill="#263238"/>
<path d="M40.4512 401.71L42.7312 433.04H82.9812L85.2712 401.71H40.4512Z" fill="#263238"/>
<path d="M90.0705 389.36H36.5605V401.71H90.0705V389.36Z" fill="#263238"/>
<path d="M36.5605 431.84V435.26H39.0705H89.1905V431.84H36.5605Z" fill="#455A64"/>
<path d="M41.5403 441.29L39.0703 435.26H87.2703L84.3903 441.29H41.5403Z" fill="#455A64"/>
<path d="M84.5209 412C84.4708 412.102 84.4069 412.196 84.3309 412.28C84.1709 412.5 83.9809 412.76 83.7309 413.08L81.3909 416.08L81.2809 416.22L81.1809 416.08L75.4209 408.08H75.7509L70.0809 416.08L69.9009 416.33L69.7009 416.1L62.9809 408.1H63.3709C63.2509 408.24 63.1209 408.4 63.0009 408.56L57.0009 416.1L56.8009 416.35L56.6209 416.09L50.9409 408.09H51.2709C48.4809 411.28 46.1009 413.98 44.2709 416.09L44.1509 416.23L44.0609 416.07C43.1309 414.53 42.4009 413.29 41.8709 412.4C41.6409 412 41.4509 411.68 41.3109 411.4C41.2348 411.292 41.1742 411.174 41.1309 411.05C41.1309 411.05 41.2209 411.15 41.3709 411.36L41.9909 412.3L44.2909 415.91H44.0709L50.9409 407.85L51.1209 407.65L51.2709 407.87L57.0009 415.87H56.6009L62.6009 408.32L62.9709 407.86L63.1709 407.62L63.3609 407.85C65.7209 410.66 67.9809 413.37 70.0709 415.85H69.6909L75.4209 407.85L75.5909 407.62L75.7509 407.85L81.3909 415.91H81.1909L83.6309 413L84.2809 412.24C84.4342 412.033 84.5142 411.953 84.5209 412Z" fill="#E0E0E0"/>
<path d="M85.8313 401.5C85.8313 401.64 75.7413 401.75 63.3113 401.75C50.8813 401.75 40.7812 401.64 40.7812 401.5C40.7812 401.36 50.8613 401.25 63.3113 401.25C75.7613 401.25 85.8313 401.36 85.8313 401.5Z" fill="#455A64"/>
<path d="M87.8604 435.6C87.8604 435.74 76.8604 435.85 63.3804 435.85C49.9004 435.85 38.9004 435.74 38.9004 435.6C38.9004 435.46 49.9004 435.35 63.3804 435.35C76.8604 435.35 87.8604 435.46 87.8604 435.6Z" fill="#263238"/>
<path d="M363.1 309.11H456.63C460.643 309.11 464.491 310.704 467.329 313.541C470.166 316.379 471.76 320.227 471.76 324.24V441.86H348V324.24C348 320.232 349.59 316.389 352.421 313.552C355.252 310.715 359.092 309.118 363.1 309.11Z" fill="#455A64"/>
<path d="M461.34 309.79C461.49 309.79 461.6 339.34 461.6 375.79C461.6 412.24 461.49 441.79 461.34 441.79C461.19 441.79 461.08 412.24 461.08 375.79C461.08 339.34 461.2 309.79 461.34 309.79Z" fill="#263238"/>
<path d="M400.36 165C411.742 181.295 418.268 200.485 419.18 220.34C419.76 233.64 417.97 247.81 424.28 259.53C433.34 276.35 452.93 275.78 458.93 293.91C461.54 301.8 456.73 319.15 455.43 327.36C453.96 336.68 459.66 344.51 458.19 353.84C456.84 362.39 450.44 368.49 442.76 372.47C435.92 376.01 429.6 376.11 422.49 373.16C408.93 367.55 397.65 361.63 388 350.59C374.44 335.09 370.34 313.59 368 293.16C362.894 247.979 363.926 202.314 371.07 157.41" fill="#263238"/>
<path d="M429.35 375.07C429.491 375.025 429.634 374.988 429.78 374.96C430.07 374.89 430.51 374.82 431.07 374.65C435.288 373.503 439.069 371.125 441.93 367.82C443.006 366.56 443.828 365.103 444.35 363.53C444.849 361.74 445.134 359.897 445.2 358.04C445.273 353.757 444.836 349.48 443.9 345.3C443.03 340.76 441.9 335.92 441.56 330.67C441.394 327.99 441.586 325.3 442.13 322.67C442.757 319.938 443.606 317.263 444.67 314.67C445.759 312.01 446.713 309.296 447.53 306.54C448.378 303.723 448.616 300.757 448.23 297.84C447.764 294.938 446.653 292.177 444.98 289.76C443.344 287.408 441.441 285.254 439.31 283.34C435.18 279.48 430.71 276.34 426.89 272.72C420.075 266.414 414.576 258.821 410.71 250.38C409.212 247.149 407.968 243.805 406.99 240.38C406.51 238.89 406.23 237.45 405.89 236.15C405.55 234.85 405.4 233.63 405.18 232.55C404.87 230.36 404.63 228.67 404.57 227.55C404.57 226.99 404.49 226.55 404.47 226.23C404.45 225.91 404.47 225.78 404.47 225.78C404.47 225.78 404.47 225.93 404.54 226.23C404.61 226.53 404.63 226.98 404.7 227.54C404.79 228.69 405.06 230.38 405.4 232.54C405.63 233.62 405.88 234.82 406.15 236.13C406.42 237.44 406.79 238.84 407.29 240.33C408.294 243.721 409.554 247.03 411.06 250.23C414.953 258.595 420.446 266.116 427.23 272.37C431.03 275.91 435.51 279.08 439.68 282.96C441.84 284.902 443.769 287.087 445.43 289.47C447.147 291.952 448.285 294.789 448.76 297.77C449.159 300.757 448.917 303.794 448.05 306.68C447.27 309.52 446.18 312.21 445.17 314.85C444.115 317.412 443.265 320.053 442.63 322.75C442.09 325.343 441.898 327.996 442.06 330.64C442.33 335.82 443.49 340.64 444.35 345.21C445.27 349.426 445.686 353.736 445.59 358.05C445.506 359.938 445.204 361.811 444.69 363.63C444.134 365.231 443.283 366.713 442.18 368C440.416 370.046 438.269 371.728 435.86 372.95C434.358 373.747 432.762 374.352 431.11 374.75C430.532 374.901 429.944 375.008 429.35 375.07Z" fill="#455A64"/>
<path d="M243.16 410.8L291.16 388.01C291.16 388.01 309.85 297.26 313.39 290.45C316.93 283.64 331.69 277.75 331.69 277.75L329.22 400.63L324.82 429L257.14 435.41L243.16 410.8Z" fill="#0555C8"/>
<path d="M202.209 432.3C201.939 432.3 200.609 433.12 201.719 435.23C202.829 437.34 210.969 444.31 213.359 441.88C215.749 439.45 212.099 436.49 212.099 436.49L202.209 432.3Z" fill="#FFBE9D"/>
<path d="M212.44 436.58C212.44 436.58 222.26 437.82 226.03 439.26C230.14 440.82 235.14 439.75 238.5 437.48C240.409 436.209 242.191 434.755 243.82 433.14L256.34 432.94C258.14 430.833 259.32 428.268 259.751 425.53C260.182 422.792 259.846 419.989 258.78 417.43C258.109 415.65 257.142 413.997 255.92 412.54C254.43 410.93 252.08 409.63 248.02 408.93L233.15 412.14C233.15 412.14 210.15 410.49 206.01 412.43C206.01 412.43 200.86 415.48 199.27 416.76C198.67 417.25 196.84 423.11 200.59 426.16C200.59 426.16 197.33 428.75 199.1 431.08L199.94 432.08C199.94 432.08 197.75 434.92 198.88 436.16C200.01 437.4 209.88 443.16 213.39 441.8C216.9 440.44 214 437.15 212.44 436.55" fill="#FFBE9D"/>
<path d="M203.059 421.09C203.474 421.212 203.882 421.359 204.279 421.53C205.049 421.82 206.179 422.24 207.599 422.69C208.299 422.92 209.079 423.15 209.929 423.37C210.779 423.59 211.689 423.78 212.639 424.09C213.673 424.373 214.607 424.937 215.339 425.72C215.743 426.154 216.022 426.688 216.149 427.267C216.275 427.845 216.244 428.447 216.059 429.01C215.824 429.577 215.395 430.041 214.849 430.32C214.335 430.572 213.779 430.728 213.209 430.78C212.163 430.842 211.113 430.785 210.079 430.61C208.348 430.33 206.647 429.888 204.999 429.29C203.589 428.79 202.479 428.29 201.709 427.99C201.301 427.843 200.91 427.655 200.539 427.43C200.957 427.541 201.368 427.678 201.769 427.84C202.549 428.12 203.679 428.55 205.089 429.01C206.717 429.563 208.39 429.974 210.089 430.24C211.081 430.396 212.087 430.443 213.089 430.38C213.608 430.334 214.113 430.191 214.579 429.96C215.032 429.723 215.386 429.334 215.579 428.86C215.741 428.374 215.772 427.855 215.67 427.353C215.569 426.851 215.337 426.385 214.999 426C214.318 425.271 213.45 424.742 212.489 424.47C211.569 424.16 210.649 423.96 209.809 423.72C208.969 423.48 208.179 423.23 207.479 422.99C206.059 422.5 204.949 421.99 204.189 421.7C203.794 421.533 203.416 421.328 203.059 421.09Z" fill="#EB996E"/>
<path d="M203.94 414C204.354 414.116 204.758 414.263 205.15 414.44C205.93 414.74 207.05 415.17 208.45 415.63C209.85 416.09 211.54 416.63 213.45 417.06C214.498 417.224 215.494 417.628 216.36 418.24C216.819 418.622 217.122 419.159 217.21 419.75C217.298 420.345 217.211 420.953 216.96 421.5C216.706 422.021 216.346 422.485 215.904 422.86C215.461 423.235 214.946 423.514 214.39 423.68C213.381 424.008 212.308 424.094 211.26 423.93C209.554 423.589 207.881 423.1 206.26 422.47L202.95 421.31C202.54 421.181 202.139 421.024 201.75 420.84C202.175 420.911 202.593 421.018 203 421.16L206.35 422.16C207.98 422.74 209.651 423.195 211.35 423.52C212.34 423.662 213.35 423.573 214.3 423.26C214.805 423.105 215.273 422.848 215.674 422.504C216.075 422.16 216.401 421.736 216.63 421.26C216.866 420.806 216.946 420.286 216.858 419.782C216.769 419.278 216.517 418.817 216.14 418.47C215.322 417.899 214.385 417.52 213.4 417.36C211.49 416.88 209.8 416.36 208.4 415.84C207 415.32 205.9 414.84 205.14 414.52C204.727 414.379 204.325 414.206 203.94 414Z" fill="#EB996E"/>
<path d="M208.67 416C208.466 415.347 208.315 414.678 208.22 414C207.995 413.35 207.831 412.681 207.73 412C208.207 412.52 208.517 413.172 208.62 413.87C208.871 414.555 208.888 415.304 208.67 416Z" fill="#EB996E"/>
<path d="M243.3 416.32L234.55 413C234.55 413 210.26 401.66 209.85 402.28C209.44 402.9 208.12 402.82 208.41 405.78C208.7 408.74 222.85 414.72 223.3 415.78C223.75 416.84 223 422 228.23 425.71C233.46 429.42 237.23 429.51 237.23 429.51" fill="#FFBE9D"/>
<path d="M237.229 429.42H236.999L236.399 429.36C235.629 429.238 234.87 429.054 234.129 428.81C231.402 427.881 228.882 426.431 226.709 424.54C225.237 423.162 224.196 421.387 223.709 419.43C223.458 418.354 223.284 417.261 223.189 416.16C223.172 416.034 223.142 415.91 223.099 415.79C223.042 415.693 222.963 415.611 222.869 415.55C222.641 415.384 222.404 415.231 222.159 415.09C221.669 414.8 221.159 414.52 220.619 414.24C218.519 413.11 216.269 411.98 214.009 410.68C212.851 410.027 211.726 409.316 210.639 408.55C210.076 408.155 209.548 407.714 209.059 407.23C208.799 406.982 208.574 406.699 208.389 406.39C208.29 406.22 208.222 406.034 208.189 405.84C208.169 405.661 208.169 405.48 208.189 405.3C208.109 404.576 208.238 403.844 208.559 403.19C208.758 402.881 209.02 402.619 209.329 402.42C209.455 402.339 209.569 402.241 209.669 402.13C209.669 402.13 209.669 402.13 209.749 402.04C209.798 402.003 209.858 401.985 209.919 401.99C209.976 401.984 210.033 401.984 210.089 401.99L210.359 402.06C211.669 402.46 212.879 402.99 214.089 403.49C216.489 404.49 218.779 405.49 220.959 406.49C225.329 408.49 229.229 410.27 232.509 411.81C233.329 412.18 234.099 412.57 234.839 412.89L236.979 413.73L240.409 415.09L242.569 415.96L243.119 416.2C243.249 416.2 243.309 416.28 243.309 416.29C243.309 416.3 243.239 416.29 243.109 416.23L242.539 416.04L240.349 415.23L236.889 414L234.729 413.19C233.969 412.88 233.199 412.5 232.379 412.13L220.799 406.9C218.609 405.9 216.319 404.9 213.919 403.9C212.719 403.41 211.499 402.9 210.239 402.49L210.019 402.44H209.939C209.939 402.44 209.939 402.38 209.939 402.34C210.219 402.52 210.009 402.4 210.069 402.44C209.95 402.588 209.808 402.716 209.649 402.82C209.382 402.984 209.157 403.206 208.989 403.47C208.708 404.058 208.597 404.713 208.669 405.36C208.663 405.673 208.735 405.982 208.879 406.26C209.046 406.538 209.248 406.793 209.479 407.02C209.952 407.486 210.464 407.911 211.009 408.29C212.089 409.07 213.219 409.75 214.339 410.4C216.589 411.7 218.819 412.84 220.929 413.97C221.459 414.26 221.929 414.54 222.479 414.85C222.737 414.997 222.988 415.157 223.229 415.33C223.375 415.428 223.492 415.563 223.569 415.72C223.62 415.866 223.653 416.017 223.669 416.17C223.764 417.259 223.928 418.342 224.159 419.41C224.616 421.315 225.609 423.05 227.019 424.41C229.15 426.296 231.616 427.764 234.289 428.74C235.017 428.997 235.762 429.201 236.519 429.35C236.779 429.41 236.979 429.43 237.119 429.45L237.229 429.42Z" fill="#EB996E"/>
<path d="M210.439 430.56C210.762 430.599 211.076 430.69 211.369 430.83C212.191 431.16 212.962 431.605 213.659 432.15C214.146 432.53 214.588 432.963 214.979 433.44C215.225 433.709 215.415 434.025 215.537 434.368C215.659 434.712 215.711 435.076 215.689 435.44C215.609 435.854 215.415 436.237 215.129 436.546C214.843 436.855 214.476 437.078 214.069 437.19C213.234 437.419 212.349 437.391 211.529 437.11C208.748 436.287 206.05 435.206 203.469 433.88C202.692 433.475 201.938 433.027 201.209 432.54C200.93 432.38 200.671 432.185 200.439 431.96C200.737 432.078 201.022 432.225 201.289 432.4C201.829 432.71 202.609 433.14 203.599 433.62C206.184 434.855 208.858 435.891 211.599 436.72C212.347 436.979 213.154 437.01 213.919 436.81C214.256 436.722 214.562 436.542 214.803 436.292C215.045 436.041 215.213 435.73 215.289 435.39C215.311 435.068 215.27 434.746 215.167 434.44C215.064 434.135 214.902 433.853 214.689 433.61C214.323 433.144 213.907 432.718 213.449 432.34C212.525 431.622 211.514 431.024 210.439 430.56Z" fill="#EB996E"/>
<g opacity="0.3">
<path d="M324.479 429C316.619 402.49 309.689 368.35 301.829 341.84C298.949 366.31 302.549 398.62 307.049 422.84C307.579 425.68 307.819 428.46 310.049 430.33L324.479 429Z" fill="black"/>
</g>
<path d="M311.609 410.8C311.499 410.8 311.169 409.07 310.099 406.42C309.47 404.876 308.718 403.384 307.849 401.96C306.765 400.232 305.527 398.605 304.149 397.1C302.752 395.611 301.218 394.255 299.569 393.05C298.218 392.072 296.786 391.209 295.289 390.47C292.729 389.21 291.009 388.75 291.039 388.65C291.456 388.699 291.865 388.796 292.259 388.94C292.733 389.06 293.198 389.214 293.649 389.4C294.262 389.615 294.863 389.862 295.449 390.14C296.989 390.845 298.462 391.689 299.849 392.66C301.541 393.865 303.112 395.231 304.539 396.74C305.937 398.283 307.183 399.958 308.259 401.74C309.123 403.196 309.856 404.725 310.449 406.31C310.719 406.98 310.879 407.61 311.049 408.16C311.204 408.628 311.324 409.105 311.409 409.59C311.515 409.986 311.582 410.391 311.609 410.8Z" fill="#263238"/>
<path d="M326.589 276.51C326.589 276.51 301.459 332.66 301.459 343C301.459 353.34 320.289 424.93 320.289 424.93C320.109 427.78 319.379 442.05 319.379 442.05L424.969 442.42L426.579 419.72L418.339 398.09L426.569 336.94C426.569 336.94 432.109 301.44 432.569 291.51C433.189 279.09 391.109 264.69 392.259 262.97L384.999 253.21L343.389 287L335.159 263.24L325.299 272.55L326.589 276.51Z" fill="#0555C8"/>
<path d="M395.739 291.45C384.309 310.78 363.399 346 363.399 346L325.919 388.74C325.919 388.74 323.469 410.45 328.369 417.11C333.269 423.77 341.679 428.32 341.679 428.32C341.679 428.32 351.569 428.32 364.139 417.81C376.709 407.3 411.379 363.87 411.379 363.87L423.289 349.5C423.289 349.5 437.489 314.62 434.839 296.87C433.839 290.02 430.899 287.18 427.019 284.04C417.249 276.17 402.129 280.64 395.739 291.45Z" fill="#0555C8"/>
<path d="M427.7 337.4C427.65 337.538 427.59 337.671 427.52 337.8C427.39 338.08 427.2 338.45 426.97 338.94C426.47 339.94 425.71 341.39 424.67 343.23C422.6 346.92 419.38 352.13 415.18 358.42C413.07 361.56 410.72 364.97 408.13 368.59C405.54 372.21 402.6 375.94 400.18 380.3C397.76 384.66 395.56 389.42 392.91 394.18C390.188 399.112 386.996 403.77 383.38 408.09C379.763 412.428 375.508 416.191 370.76 419.25C366.311 422.089 361.341 424.013 356.14 424.91C351.433 425.745 346.6 425.541 341.98 424.31C339.89 423.745 337.875 422.929 335.98 421.88C334.217 420.95 332.561 419.83 331.04 418.54C329.646 417.385 328.397 416.066 327.32 414.61C326.351 413.318 325.526 411.923 324.86 410.45C323.832 408.082 323.158 405.575 322.86 403.01C322.688 401.393 322.632 399.765 322.69 398.14C322.69 397.6 322.75 397.14 322.77 396.87C322.76 396.727 322.76 396.583 322.77 396.44C322.781 396.583 322.781 396.727 322.77 396.87C322.77 397.18 322.77 397.6 322.77 398.14C322.751 399.757 322.838 401.374 323.03 402.98C323.366 405.518 324.067 407.993 325.11 410.33C325.783 411.774 326.607 413.142 327.57 414.41C328.642 415.84 329.885 417.132 331.27 418.26C332.777 419.525 334.416 420.621 336.16 421.53C338.029 422.553 340.013 423.348 342.07 423.9C346.642 425.094 351.42 425.279 356.07 424.44C361.202 423.54 366.103 421.63 370.49 418.82C375.195 415.783 379.413 412.051 383 407.75C386.595 403.46 389.767 398.831 392.47 393.93C395.12 389.2 397.26 384.4 399.77 380.06C402.221 376.007 404.892 372.092 407.77 368.33C410.37 364.73 412.77 361.33 414.86 358.21C419.1 351.96 422.36 346.78 424.48 343.13C425.55 341.3 426.34 339.87 426.86 338.89L427.47 337.77C427.533 337.639 427.61 337.514 427.7 337.4Z" fill="#263238"/>
<path d="M323.999 386.83C323.999 386.9 323.469 387.23 322.779 388C321.861 388.975 321.295 390.229 321.172 391.563C321.048 392.897 321.375 394.233 322.099 395.36C322.629 396.24 323.099 396.67 323.099 396.73C323.099 396.79 322.469 396.45 321.809 395.57C320.947 394.403 320.545 392.96 320.68 391.516C320.814 390.071 321.477 388.727 322.539 387.74C322.927 387.301 323.434 386.984 323.999 386.83Z" fill="#263238"/>
<path d="M330.93 398.17C331.131 398.197 331.328 398.244 331.52 398.31L332.22 398.5L333.22 398.68C335.297 398.954 337.41 398.756 339.4 398.1C342.361 397.109 345.084 395.515 347.4 393.42C350.151 390.779 352.646 387.883 354.85 384.77C357.089 381.632 359.668 378.751 362.54 376.18C363.9 375.04 365.23 374.03 366.34 372.94C367.397 371.97 368.247 370.797 368.84 369.49C369.237 368.535 369.393 367.498 369.293 366.469C369.194 365.44 368.842 364.451 368.27 363.59C367.787 362.998 367.165 362.534 366.46 362.24C366.658 362.277 366.852 362.334 367.04 362.41C367.579 362.651 368.054 363.014 368.43 363.47C369.063 364.35 369.465 365.376 369.598 366.453C369.731 367.529 369.59 368.622 369.19 369.63C368.594 370.995 367.73 372.226 366.65 373.25C365.52 374.37 364.18 375.41 362.85 376.55C360.025 379.118 357.484 381.981 355.27 385.09C353.039 388.23 350.507 391.143 347.71 393.79C345.346 395.897 342.566 397.485 339.55 398.45C337.503 399.091 335.334 399.238 333.22 398.88L332.22 398.65C331.94 398.57 331.71 398.47 331.53 398.41C331.321 398.354 331.119 398.274 330.93 398.17Z" fill="#263238"/>
<path d="M400.829 285.51C400.703 285.719 400.563 285.92 400.409 286.11C400.079 286.53 399.659 287.11 399.129 287.78C397.989 289.2 396.419 291.32 394.499 293.96C389.606 300.896 385.154 308.134 381.169 315.63C376.449 324.39 372.549 332.52 369.559 338.32C368.079 341.23 366.859 343.57 365.969 345.17L364.999 347C364.89 347.219 364.76 347.427 364.609 347.62C364.685 347.388 364.782 347.164 364.899 346.95L365.839 345.06L369.269 338.15C372.169 332.3 376.029 324.15 380.749 315.37C384.738 307.85 389.249 300.619 394.249 293.73C396.249 291.12 397.819 289.02 399.009 287.64L400.369 286.03C400.503 285.84 400.658 285.666 400.829 285.51Z" fill="#263238"/>
<g opacity="0.3">
<path d="M322.8 396.44C327.67 399.08 333.03 398.8 338.47 397.74C343.962 396.642 348.907 393.682 352.47 389.36C351.647 394.174 349.392 398.627 346 402.14C342.54 405.53 337.52 407.49 332.76 406.62C328 405.75 323.18 401.27 322.76 396.44" fill="black"/>
</g>
<g opacity="0.3">
<path d="M368.9 367.58C371.991 372.346 373.07 378.141 371.9 383.7C376.03 377.38 377 369.38 375.9 361.91C374.8 354.44 371.75 347.39 368.37 340.64C368.37 340.64 364.65 346.94 364.61 347.64C364.43 351.28 365.77 358.12 366.47 361.69C367.404 362.587 368.1 363.701 368.497 364.934C368.893 366.166 368.977 367.477 368.74 368.75" fill="black"/>
</g>
<g opacity="0.3">
<path d="M339.32 422.6C349.26 430.35 364.01 430.71 374.88 424.35C385.35 418.22 391.8 407.18 397.78 396.63C407.05 380.29 418.35 360.08 424.97 342.5C424.97 342.5 406.42 367.81 400.83 378.72C397.104 386.095 392.874 393.206 388.17 400C382.848 407.656 375.653 413.82 367.271 417.904C358.888 421.989 349.6 423.857 340.29 423.33" fill="black"/>
</g>
<path d="M319.379 442C319.363 441.897 319.363 441.793 319.379 441.69C319.379 441.45 319.379 441.15 319.379 440.78C319.379 439.93 319.449 438.78 319.509 437.31C319.649 434.31 319.839 430.01 320.079 424.88V425C318.289 419 316.189 411.72 314.009 403.86C311.129 393.44 308.699 383.96 307.059 377.07C306.249 373.63 305.609 370.83 305.209 368.89C305.019 367.96 304.869 367.21 304.759 366.66C304.7 366.4 304.656 366.136 304.629 365.87C304.73 366.115 304.807 366.37 304.859 366.63L305.409 368.85C305.899 370.85 306.579 373.59 307.409 376.98C309.139 383.85 311.629 393.31 314.509 403.72C316.679 411.58 318.749 418.86 320.509 424.87V424.94C320.199 430.07 319.939 434.34 319.749 437.38C319.649 438.83 319.569 439.99 319.509 440.84C319.509 441.2 319.449 441.5 319.429 441.74C319.423 441.829 319.406 441.916 319.379 442Z" fill="#263238"/>
<path d="M425 283.46C425 283.54 423.92 283.16 422.19 282.73C419.933 282.161 417.625 281.826 415.3 281.73C412.974 281.666 410.648 281.847 408.36 282.27C406.6 282.6 405.53 282.9 405.51 282.82C405.732 282.677 405.975 282.569 406.23 282.5C406.902 282.268 407.587 282.071 408.28 281.91C410.573 281.375 412.926 281.14 415.28 281.21C417.651 281.281 420.004 281.658 422.28 282.33C422.961 282.528 423.629 282.769 424.28 283.05C424.78 283.3 425 283.42 425 283.46Z" fill="#263238"/>
<path d="M391.57 265C391.497 265.182 391.407 265.356 391.3 265.52L390.45 266.95C389.7 268.19 388.59 269.95 387.18 272.14C384.35 276.47 380.3 282.38 375.51 288.66C371.66 293.73 367.93 298.28 364.88 301.84L364.66 302.09L364.53 301.79C363.07 298.61 361.87 295.97 361 294.06C360.61 293.18 360.3 292.46 360.05 291.91C359.927 291.664 359.83 291.406 359.76 291.14C359.92 291.366 360.058 291.607 360.17 291.86C360.44 292.4 360.78 293.1 361.22 293.96C362.13 295.85 363.39 298.46 364.9 301.62L364.56 301.57C367.56 297.97 371.25 293.41 375.1 288.35C379.88 282.07 383.96 276.21 386.87 271.93L390.28 266.84L391.21 265.46C391.309 265.291 391.43 265.137 391.57 265Z" fill="#263238"/>
<path d="M415.88 426.27C415.73 426.27 416.19 421.06 416.88 414.67C417.57 408.28 418.28 403.12 418.42 403.14C418.56 403.16 418.1 408.34 417.42 414.73C416.74 421.12 416 426.28 415.88 426.27Z" fill="#263238"/>
<path d="M343.5 424.9C344.068 427.781 344.466 430.693 344.69 433.62C345.095 436.527 345.319 439.456 345.36 442.39C344.798 439.509 344.4 436.597 344.17 433.67C343.777 430.762 343.553 427.834 343.5 424.9Z" fill="#263238"/>
<path d="M396.911 310.69C396.862 310.492 396.767 310.308 396.633 310.153C396.498 309.999 396.329 309.88 396.139 309.804C395.949 309.729 395.744 309.7 395.541 309.72C395.338 309.74 395.142 309.809 394.971 309.92L394.901 309.98C394.744 310.12 394.626 310.298 394.559 310.497C394.492 310.696 394.478 310.91 394.519 311.116C394.559 311.322 394.653 311.514 394.79 311.673C394.927 311.832 395.103 311.953 395.301 312.023C395.499 312.094 395.712 312.111 395.919 312.074C396.126 312.037 396.319 311.947 396.481 311.812C396.642 311.678 396.766 311.504 396.839 311.307C396.913 311.11 396.934 310.897 396.901 310.69H396.911Z" fill="white"/>
<path d="M386.479 285.27C386.43 285.072 386.335 284.888 386.201 284.733C386.067 284.579 385.897 284.46 385.708 284.384C385.518 284.309 385.312 284.28 385.109 284.3C384.906 284.32 384.71 284.389 384.539 284.5L384.479 284.56C384.322 284.7 384.204 284.878 384.137 285.077C384.07 285.277 384.056 285.49 384.097 285.696C384.137 285.902 384.231 286.094 384.368 286.253C384.505 286.412 384.681 286.533 384.879 286.603C385.077 286.674 385.29 286.691 385.497 286.654C385.704 286.617 385.898 286.527 386.059 286.392C386.22 286.258 386.344 286.084 386.418 285.887C386.491 285.69 386.512 285.477 386.479 285.27Z" fill="white"/>
<path d="M362.55 305.74C362.502 305.542 362.407 305.358 362.272 305.203C362.138 305.049 361.969 304.93 361.779 304.854C361.589 304.779 361.384 304.75 361.181 304.77C360.977 304.79 360.782 304.859 360.61 304.97H360.55C360.394 305.109 360.276 305.287 360.209 305.486C360.141 305.685 360.127 305.898 360.166 306.104C360.206 306.31 360.299 306.502 360.435 306.661C360.572 306.82 360.747 306.942 360.945 307.013C361.142 307.084 361.355 307.102 361.561 307.066C361.768 307.031 361.962 306.942 362.124 306.808C362.286 306.675 362.41 306.502 362.485 306.306C362.56 306.11 362.582 305.897 362.55 305.69V305.74Z" fill="white"/>
<path d="M336.68 295.46C336.633 295.262 336.539 295.078 336.406 294.924C336.272 294.769 336.104 294.649 335.915 294.574C335.726 294.498 335.521 294.469 335.318 294.49C335.115 294.51 334.921 294.579 334.75 294.69L334.68 294.75C334.523 294.89 334.405 295.068 334.338 295.267C334.272 295.466 334.258 295.68 334.298 295.886C334.338 296.092 334.432 296.284 334.569 296.443C334.706 296.602 334.883 296.723 335.081 296.793C335.279 296.864 335.491 296.881 335.698 296.844C335.905 296.807 336.099 296.717 336.26 296.582C336.422 296.448 336.545 296.274 336.619 296.077C336.692 295.88 336.713 295.667 336.68 295.46Z" fill="white"/>
<path d="M332.109 285.33C332.061 285.132 331.965 284.948 331.831 284.794C331.697 284.639 331.528 284.52 331.338 284.444C331.148 284.369 330.943 284.34 330.739 284.36C330.536 284.38 330.341 284.449 330.169 284.56L330.099 284.62C329.938 284.76 329.816 284.939 329.746 285.141C329.676 285.342 329.659 285.559 329.699 285.768C329.738 285.978 329.832 286.174 329.971 286.336C330.11 286.498 330.289 286.621 330.49 286.692C330.691 286.764 330.907 286.781 331.117 286.743C331.327 286.704 331.523 286.612 331.686 286.474C331.849 286.336 331.973 286.158 332.045 285.957C332.118 285.756 332.136 285.54 332.099 285.33H332.109Z" fill="white"/>
<path d="M334.1 273.63C334.051 273.432 333.956 273.248 333.821 273.094C333.687 272.939 333.518 272.82 333.328 272.744C333.138 272.669 332.933 272.64 332.73 272.66C332.526 272.68 332.331 272.749 332.159 272.86L332.089 272.91C331.933 273.05 331.815 273.227 331.748 273.426C331.68 273.625 331.666 273.838 331.706 274.044C331.745 274.25 331.838 274.442 331.974 274.601C332.111 274.761 332.286 274.882 332.484 274.953C332.681 275.024 332.894 275.042 333.1 275.007C333.307 274.971 333.501 274.882 333.663 274.748C333.825 274.615 333.949 274.442 334.024 274.246C334.099 274.05 334.121 273.838 334.089 273.63H334.1Z" fill="white"/>
<path d="M319.769 289.73C319.721 289.532 319.626 289.348 319.491 289.193C319.357 289.039 319.188 288.92 318.998 288.844C318.808 288.769 318.603 288.74 318.4 288.76C318.196 288.78 318.001 288.849 317.829 288.96L317.759 289.01C317.603 289.149 317.485 289.327 317.417 289.526C317.35 289.725 317.336 289.938 317.375 290.144C317.415 290.35 317.508 290.542 317.644 290.701C317.781 290.86 317.956 290.982 318.154 291.053C318.351 291.124 318.564 291.142 318.77 291.106C318.977 291.071 319.171 290.982 319.333 290.848C319.495 290.715 319.619 290.542 319.694 290.346C319.769 290.15 319.791 289.937 319.759 289.73H319.769Z" fill="white"/>
<path d="M353 294.37C352.953 294.172 352.859 293.988 352.726 293.834C352.593 293.679 352.424 293.559 352.235 293.484C352.046 293.408 351.841 293.38 351.639 293.4C351.436 293.42 351.241 293.489 351.07 293.6L351 293.66C350.843 293.8 350.726 293.978 350.659 294.177C350.592 294.377 350.578 294.59 350.618 294.796C350.659 295.002 350.752 295.194 350.889 295.353C351.027 295.512 351.203 295.633 351.401 295.703C351.599 295.774 351.812 295.791 352.019 295.754C352.225 295.717 352.419 295.627 352.58 295.493C352.742 295.358 352.865 295.184 352.939 294.987C353.013 294.79 353.034 294.578 353 294.37Z" fill="white"/>
<path d="M324.859 315.24C324.811 315.042 324.715 314.858 324.581 314.703C324.447 314.549 324.278 314.43 324.088 314.354C323.898 314.279 323.693 314.25 323.49 314.27C323.286 314.29 323.091 314.359 322.919 314.47H322.849C322.692 314.609 322.575 314.787 322.507 314.986C322.44 315.185 322.426 315.398 322.465 315.604C322.505 315.81 322.598 316.002 322.734 316.161C322.871 316.32 323.046 316.442 323.244 316.513C323.441 316.584 323.653 316.602 323.86 316.566C324.067 316.531 324.261 316.442 324.423 316.308C324.585 316.175 324.709 316.002 324.784 315.806C324.859 315.61 324.881 315.397 324.849 315.19L324.859 315.24Z" fill="white"/>
<path d="M299.14 375.26C299.092 375.062 298.996 374.878 298.862 374.723C298.728 374.569 298.559 374.45 298.369 374.374C298.179 374.299 297.974 374.27 297.771 374.29C297.567 374.31 297.372 374.379 297.2 374.49L297.14 374.54C296.984 374.68 296.866 374.857 296.798 375.056C296.731 375.255 296.717 375.468 296.756 375.674C296.796 375.88 296.889 376.072 297.025 376.231C297.162 376.39 297.337 376.512 297.535 376.583C297.732 376.654 297.944 376.672 298.151 376.636C298.358 376.601 298.552 376.512 298.714 376.378C298.876 376.245 299 376.072 299.075 375.876C299.15 375.68 299.172 375.467 299.14 375.26Z" fill="white"/>
<path d="M308.319 340.64C308.27 340.442 308.175 340.258 308.041 340.104C307.907 339.949 307.738 339.83 307.548 339.754C307.358 339.679 307.152 339.65 306.949 339.67C306.746 339.69 306.55 339.759 306.379 339.87L306.309 339.93C306.152 340.07 306.034 340.248 305.967 340.447C305.9 340.647 305.886 340.86 305.927 341.066C305.967 341.272 306.061 341.464 306.198 341.623C306.335 341.782 306.512 341.903 306.71 341.973C306.908 342.044 307.12 342.061 307.327 342.024C307.534 341.987 307.728 341.897 307.889 341.763C308.05 341.628 308.174 341.454 308.248 341.257C308.321 341.06 308.342 340.848 308.309 340.64H308.319Z" fill="white"/>
<path d="M376 279.86C375.951 279.662 375.856 279.478 375.722 279.324C375.588 279.169 375.419 279.05 375.229 278.974C375.039 278.899 374.834 278.87 374.63 278.89C374.427 278.91 374.231 278.979 374.06 279.09L373.99 279.14C373.833 279.28 373.715 279.457 373.648 279.656C373.581 279.855 373.566 280.068 373.606 280.274C373.646 280.48 373.738 280.672 373.875 280.831C374.011 280.991 374.187 281.112 374.384 281.183C374.582 281.254 374.794 281.272 375.001 281.237C375.208 281.201 375.401 281.112 375.563 280.978C375.725 280.845 375.85 280.672 375.925 280.476C375.999 280.28 376.022 280.068 375.99 279.86H376Z" fill="white"/>
<path d="M408.24 348.78C408.191 348.582 408.096 348.398 407.962 348.243C407.828 348.089 407.659 347.97 407.469 347.894C407.279 347.819 407.074 347.79 406.87 347.81C406.667 347.83 406.471 347.899 406.3 348.01L406.23 348.07C406.069 348.21 405.947 348.389 405.877 348.591C405.806 348.792 405.79 349.009 405.83 349.218C405.869 349.428 405.963 349.624 406.102 349.786C406.241 349.948 406.419 350.071 406.62 350.142C406.822 350.213 407.038 350.231 407.248 350.193C407.458 350.154 407.654 350.062 407.817 349.924C407.98 349.786 408.103 349.608 408.176 349.407C408.248 349.206 408.267 348.99 408.23 348.78H408.24Z" fill="white"/>
<path d="M420.81 289.47C420.763 289.272 420.669 289.088 420.536 288.933C420.403 288.779 420.234 288.659 420.045 288.584C419.856 288.508 419.651 288.479 419.448 288.5C419.246 288.52 419.051 288.589 418.88 288.7L418.81 288.75C418.653 288.889 418.536 289.067 418.468 289.266C418.401 289.465 418.386 289.677 418.426 289.884C418.466 290.09 418.559 290.282 418.695 290.441C418.831 290.6 419.007 290.722 419.204 290.793C419.402 290.864 419.614 290.882 419.821 290.846C420.028 290.811 420.222 290.722 420.384 290.588C420.546 290.455 420.67 290.282 420.745 290.086C420.82 289.889 420.842 289.677 420.81 289.47Z" fill="white"/>
<path d="M415.881 328.31C415.832 328.112 415.737 327.928 415.603 327.774C415.468 327.619 415.299 327.5 415.109 327.424C414.919 327.349 414.714 327.32 414.511 327.34C414.308 327.36 414.112 327.429 413.941 327.54L413.871 327.6C413.709 327.74 413.587 327.919 413.517 328.121C413.447 328.322 413.431 328.539 413.47 328.748C413.51 328.958 413.604 329.154 413.742 329.316C413.881 329.478 414.06 329.601 414.261 329.672C414.462 329.744 414.678 329.761 414.888 329.723C415.098 329.684 415.294 329.592 415.457 329.454C415.62 329.316 415.744 329.138 415.817 328.937C415.889 328.736 415.908 328.52 415.871 328.31H415.881Z" fill="white"/>
<path d="M387.67 356.36C387.622 356.162 387.527 355.978 387.392 355.824C387.258 355.669 387.089 355.55 386.899 355.474C386.709 355.399 386.504 355.37 386.301 355.39C386.097 355.41 385.902 355.479 385.73 355.59L385.66 355.65C385.504 355.79 385.386 355.968 385.319 356.167C385.252 356.367 385.238 356.58 385.278 356.786C385.319 356.992 385.412 357.184 385.55 357.343C385.687 357.502 385.863 357.623 386.061 357.693C386.259 357.764 386.472 357.781 386.679 357.744C386.886 357.707 387.079 357.617 387.241 357.483C387.402 357.348 387.526 357.174 387.599 356.977C387.673 356.78 387.694 356.568 387.66 356.36H387.67Z" fill="white"/>
<path d="M388.859 333C388.811 332.802 388.715 332.618 388.581 332.463C388.447 332.309 388.278 332.19 388.088 332.114C387.898 332.039 387.693 332.01 387.489 332.03C387.286 332.05 387.091 332.119 386.919 332.23L386.849 332.29C386.688 332.43 386.566 332.609 386.496 332.811C386.426 333.012 386.409 333.229 386.449 333.438C386.488 333.648 386.582 333.844 386.721 334.006C386.86 334.168 387.039 334.291 387.24 334.362C387.441 334.433 387.657 334.451 387.867 334.413C388.077 334.374 388.273 334.281 388.436 334.144C388.599 334.006 388.723 333.828 388.795 333.627C388.868 333.426 388.886 333.21 388.849 333H388.859Z" fill="white"/>
<path d="M405.869 289.67C405.822 289.472 405.728 289.288 405.595 289.133C405.462 288.979 405.294 288.859 405.104 288.784C404.915 288.708 404.71 288.679 404.508 288.7C404.305 288.72 404.11 288.789 403.939 288.9L403.869 288.96C403.713 289.1 403.595 289.278 403.528 289.477C403.461 289.676 403.447 289.89 403.487 290.096C403.528 290.302 403.621 290.494 403.759 290.653C403.896 290.812 404.072 290.933 404.27 291.003C404.468 291.073 404.681 291.091 404.888 291.054C405.095 291.017 405.288 290.927 405.45 290.792C405.611 290.658 405.735 290.484 405.808 290.287C405.882 290.09 405.903 289.877 405.869 289.67Z" fill="white"/>
<path d="M383 267.05C382.953 266.852 382.858 266.668 382.725 266.514C382.592 266.359 382.424 266.239 382.235 266.164C382.045 266.088 381.841 266.06 381.638 266.08C381.435 266.1 381.24 266.169 381.07 266.28L381 266.33C380.843 266.47 380.725 266.647 380.658 266.846C380.59 267.045 380.576 267.258 380.616 267.464C380.655 267.67 380.748 267.862 380.885 268.021C381.021 268.18 381.196 268.302 381.394 268.373C381.591 268.444 381.804 268.462 382.011 268.426C382.217 268.391 382.411 268.302 382.573 268.168C382.735 268.035 382.859 267.862 382.934 267.666C383.009 267.47 383.032 267.257 383 267.05Z" fill="white"/>
<path d="M382.131 303.52C382.084 303.32 381.99 303.135 381.856 302.979C381.722 302.824 381.553 302.703 381.362 302.627C381.171 302.552 380.965 302.523 380.761 302.545C380.557 302.566 380.361 302.637 380.191 302.75L380.131 302.8C379.974 302.94 379.856 303.117 379.789 303.316C379.721 303.515 379.707 303.728 379.747 303.934C379.786 304.14 379.879 304.332 380.015 304.491C380.152 304.651 380.327 304.772 380.525 304.843C380.722 304.914 380.935 304.932 381.141 304.897C381.348 304.861 381.542 304.772 381.704 304.638C381.866 304.505 381.99 304.332 382.065 304.136C382.14 303.94 382.162 303.728 382.131 303.52Z" fill="white"/>
<path d="M352.889 414.77C352.84 414.578 352.747 414.4 352.616 414.251C352.486 414.101 352.322 413.984 352.138 413.909C351.955 413.834 351.756 413.804 351.558 413.819C351.36 413.835 351.169 413.897 350.999 414L350.929 414.05C350.773 414.19 350.655 414.367 350.587 414.566C350.52 414.765 350.506 414.978 350.545 415.184C350.585 415.39 350.678 415.582 350.814 415.741C350.951 415.901 351.126 416.022 351.324 416.093C351.521 416.164 351.734 416.182 351.94 416.147C352.147 416.111 352.341 416.022 352.503 415.888C352.665 415.755 352.789 415.582 352.864 415.386C352.939 415.19 352.961 414.978 352.929 414.77H352.889Z" fill="white"/>
<path d="M319.34 396.47C319.292 396.272 319.196 396.088 319.062 395.933C318.928 395.779 318.759 395.66 318.569 395.584C318.379 395.509 318.174 395.48 317.971 395.5C317.767 395.52 317.572 395.589 317.4 395.7L317.33 395.76C317.174 395.9 317.056 396.078 316.989 396.277C316.922 396.477 316.908 396.69 316.948 396.896C316.989 397.102 317.082 397.294 317.219 397.453C317.357 397.612 317.533 397.733 317.731 397.803C317.929 397.874 318.142 397.891 318.349 397.854C318.556 397.817 318.749 397.727 318.911 397.592C319.072 397.458 319.196 397.284 319.269 397.087C319.343 396.89 319.364 396.677 319.33 396.47H319.34Z" fill="white"/>
<path d="M292.211 405.44C292.162 405.242 292.067 405.058 291.933 404.903C291.798 404.749 291.629 404.63 291.439 404.554C291.249 404.479 291.044 404.45 290.841 404.47C290.638 404.49 290.442 404.559 290.271 404.67L290.211 404.72C290.054 404.859 289.936 405.037 289.869 405.236C289.801 405.435 289.787 405.647 289.827 405.854C289.866 406.06 289.959 406.252 290.095 406.411C290.232 406.57 290.407 406.692 290.605 406.763C290.802 406.834 291.015 406.852 291.221 406.816C291.428 406.781 291.622 406.692 291.784 406.558C291.946 406.425 292.07 406.252 292.145 406.056C292.22 405.86 292.243 405.647 292.211 405.44Z" fill="white"/>
<path d="M289.31 420.89C289.262 420.692 289.167 420.508 289.032 420.354C288.898 420.199 288.729 420.08 288.539 420.004C288.349 419.929 288.144 419.9 287.941 419.92C287.737 419.94 287.542 420.009 287.37 420.12L287.3 420.17C287.144 420.31 287.026 420.487 286.959 420.686C286.891 420.885 286.877 421.098 286.916 421.304C286.956 421.51 287.049 421.702 287.185 421.861C287.322 422.021 287.497 422.142 287.695 422.213C287.892 422.284 288.105 422.302 288.311 422.267C288.518 422.231 288.712 422.142 288.874 422.008C289.036 421.875 289.16 421.702 289.235 421.506C289.31 421.31 289.332 421.098 289.3 420.89H289.31Z" fill="white"/>
<path d="M314.74 426.06C314.692 425.862 314.597 425.678 314.462 425.524C314.328 425.369 314.159 425.25 313.969 425.174C313.779 425.099 313.574 425.07 313.371 425.09C313.167 425.11 312.972 425.179 312.8 425.29L312.74 425.35C312.584 425.49 312.466 425.668 312.399 425.867C312.332 426.067 312.318 426.28 312.359 426.486C312.399 426.692 312.492 426.884 312.63 427.043C312.767 427.202 312.943 427.323 313.141 427.393C313.339 427.464 313.552 427.481 313.759 427.444C313.966 427.407 314.159 427.317 314.321 427.182C314.482 427.048 314.606 426.874 314.679 426.677C314.753 426.48 314.774 426.268 314.74 426.06Z" fill="white"/>
<path d="M306.24 391.46C306.191 391.262 306.096 391.078 305.962 390.923C305.828 390.769 305.659 390.65 305.469 390.574C305.279 390.499 305.074 390.47 304.87 390.49C304.667 390.51 304.471 390.579 304.3 390.69L304.23 390.75C304.069 390.89 303.947 391.069 303.877 391.271C303.806 391.472 303.79 391.689 303.83 391.898C303.869 392.108 303.963 392.304 304.102 392.466C304.241 392.628 304.419 392.751 304.62 392.822C304.822 392.893 305.038 392.911 305.248 392.872C305.458 392.834 305.654 392.741 305.817 392.604C305.98 392.466 306.103 392.288 306.176 392.087C306.248 391.886 306.267 391.67 306.23 391.46H306.24Z" fill="white"/>
<path d="M337.439 400.26C337.393 400.06 337.298 399.875 337.165 399.719C337.031 399.564 336.861 399.443 336.671 399.367C336.48 399.292 336.274 399.263 336.07 399.285C335.866 399.306 335.67 399.377 335.499 399.49L335.439 399.54C335.282 399.68 335.164 399.857 335.097 400.056C335.03 400.255 335.015 400.468 335.055 400.674C335.095 400.88 335.188 401.072 335.324 401.231C335.46 401.391 335.636 401.512 335.833 401.583C336.031 401.654 336.243 401.672 336.45 401.637C336.657 401.601 336.851 401.512 337.012 401.378C337.174 401.245 337.299 401.072 337.374 400.876C337.448 400.68 337.471 400.468 337.439 400.26Z" fill="white"/>
<path d="M411.609 391.41C411.564 391.211 411.471 391.025 411.338 390.869C411.206 390.714 411.037 390.593 410.847 390.517C410.657 390.441 410.451 390.413 410.248 390.434C410.044 390.456 409.849 390.526 409.679 390.64L409.609 390.69C409.452 390.83 409.334 391.007 409.267 391.206C409.2 391.405 409.185 391.618 409.225 391.824C409.265 392.03 409.357 392.222 409.494 392.381C409.63 392.541 409.806 392.662 410.003 392.733C410.201 392.804 410.413 392.822 410.62 392.787C410.827 392.751 411.02 392.662 411.182 392.528C411.344 392.395 411.469 392.222 411.544 392.026C411.618 391.83 411.641 391.618 411.609 391.41Z" fill="white"/>
<path d="M365.719 435.38C365.671 435.181 365.575 434.997 365.441 434.843C365.307 434.689 365.138 434.569 364.948 434.494C364.758 434.419 364.553 434.39 364.35 434.41C364.146 434.43 363.951 434.499 363.779 434.61L363.709 434.67C363.552 434.81 363.435 434.988 363.368 435.187C363.301 435.386 363.287 435.6 363.327 435.806C363.368 436.012 363.461 436.204 363.598 436.363C363.736 436.522 363.912 436.643 364.11 436.713C364.308 436.783 364.521 436.801 364.728 436.764C364.934 436.727 365.128 436.637 365.289 436.502C365.451 436.368 365.574 436.194 365.648 435.997C365.722 435.8 365.743 435.587 365.709 435.38H365.719Z" fill="white"/>
<path d="M385.289 410.9C385.242 410.702 385.148 410.518 385.015 410.363C384.882 410.209 384.713 410.089 384.524 410.014C384.335 409.938 384.13 409.909 383.928 409.93C383.725 409.95 383.53 410.019 383.359 410.13L383.289 410.19C383.132 410.33 383.015 410.508 382.948 410.707C382.881 410.906 382.867 411.12 382.907 411.326C382.948 411.532 383.041 411.724 383.178 411.883C383.316 412.042 383.492 412.163 383.69 412.233C383.888 412.303 384.101 412.321 384.308 412.284C384.515 412.247 384.708 412.157 384.87 412.022C385.031 411.888 385.154 411.714 385.228 411.517C385.302 411.32 385.323 411.107 385.289 410.9Z" fill="white"/>
<path d="M396.92 430.81C396.875 430.611 396.784 430.426 396.653 430.269C396.522 430.113 396.356 429.99 396.168 429.911C395.98 429.831 395.776 429.798 395.573 429.814C395.37 429.829 395.173 429.893 395 430L394.94 430.06C394.783 430.2 394.665 430.378 394.598 430.577C394.531 430.776 394.517 430.99 394.558 431.196C394.598 431.402 394.692 431.594 394.829 431.753C394.966 431.912 395.142 432.033 395.34 432.103C395.538 432.174 395.751 432.191 395.958 432.154C396.165 432.117 396.359 432.027 396.52 431.892C396.681 431.758 396.805 431.584 396.878 431.387C396.952 431.19 396.973 430.977 396.94 430.77L396.92 430.81Z" fill="white"/>
<path d="M364.569 326.55C364.52 326.352 364.425 326.168 364.291 326.014C364.157 325.859 363.988 325.74 363.798 325.664C363.608 325.589 363.402 325.56 363.199 325.58C362.996 325.6 362.8 325.669 362.629 325.78L362.559 325.84C362.402 325.98 362.284 326.158 362.217 326.357C362.15 326.557 362.136 326.77 362.177 326.976C362.217 327.182 362.311 327.374 362.448 327.533C362.585 327.692 362.762 327.813 362.96 327.883C363.158 327.954 363.37 327.971 363.577 327.934C363.784 327.897 363.978 327.807 364.139 327.672C364.3 327.538 364.424 327.364 364.498 327.167C364.571 326.97 364.592 326.758 364.559 326.55H364.569Z" fill="white"/>
<path d="M390.9 377.38C390.852 377.182 390.756 376.998 390.622 376.844C390.488 376.689 390.319 376.57 390.129 376.494C389.939 376.419 389.734 376.39 389.531 376.41C389.327 376.43 389.132 376.499 388.96 376.61L388.89 376.66C388.734 376.8 388.616 376.977 388.548 377.176C388.481 377.375 388.467 377.588 388.506 377.794C388.546 378 388.639 378.192 388.775 378.351C388.912 378.511 389.087 378.632 389.285 378.703C389.482 378.774 389.694 378.792 389.901 378.757C390.108 378.721 390.302 378.632 390.464 378.498C390.626 378.365 390.75 378.192 390.825 377.996C390.9 377.8 390.922 377.588 390.89 377.38H390.9Z" fill="white"/>
<path d="M382.359 396.63C382.311 396.432 382.215 396.248 382.081 396.094C381.947 395.939 381.778 395.82 381.588 395.744C381.398 395.669 381.193 395.64 380.99 395.66C380.786 395.68 380.591 395.749 380.419 395.86L380.349 395.91C380.192 396.05 380.075 396.227 380.007 396.426C379.94 396.625 379.926 396.838 379.965 397.044C380.005 397.25 380.098 397.442 380.234 397.601C380.371 397.761 380.546 397.882 380.744 397.953C380.941 398.024 381.153 398.042 381.36 398.007C381.567 397.971 381.761 397.882 381.923 397.748C382.085 397.615 382.209 397.442 382.284 397.246C382.359 397.05 382.381 396.838 382.349 396.63H382.359Z" fill="white"/>
<path d="M410.43 412.09C410.382 411.892 410.286 411.708 410.152 411.554C410.018 411.399 409.849 411.28 409.659 411.204C409.469 411.129 409.264 411.1 409.06 411.12C408.857 411.14 408.662 411.209 408.49 411.32L408.42 411.38C408.263 411.52 408.146 411.698 408.079 411.897C408.012 412.097 407.998 412.31 408.038 412.516C408.079 412.722 408.172 412.914 408.309 413.073C408.447 413.232 408.623 413.353 408.821 413.423C409.019 413.494 409.232 413.511 409.439 413.474C409.645 413.437 409.839 413.347 410 413.213C410.162 413.078 410.285 412.904 410.359 412.707C410.433 412.51 410.454 412.298 410.42 412.09H410.43Z" fill="white"/>
<path d="M333.619 434.42C333.573 434.22 333.478 434.035 333.345 433.879C333.211 433.724 333.041 433.603 332.851 433.527C332.66 433.452 332.454 433.423 332.25 433.445C332.046 433.466 331.85 433.537 331.679 433.65L331.609 433.7C331.452 433.84 331.334 434.017 331.267 434.216C331.2 434.415 331.185 434.628 331.225 434.834C331.265 435.04 331.357 435.232 331.494 435.391C331.63 435.55 331.806 435.672 332.003 435.743C332.201 435.814 332.413 435.832 332.62 435.796C332.827 435.761 333.02 435.672 333.182 435.538C333.344 435.405 333.469 435.232 333.544 435.036C333.618 434.84 333.641 434.627 333.609 434.42H333.619Z" fill="white"/>
<path d="M269.619 428.57C269.57 428.372 269.475 428.188 269.341 428.034C269.207 427.879 269.038 427.76 268.848 427.684C268.658 427.609 268.453 427.58 268.249 427.6C268.046 427.62 267.85 427.689 267.679 427.8L267.609 427.86C267.448 428 267.326 428.179 267.256 428.381C267.185 428.582 267.169 428.799 267.209 429.008C267.248 429.218 267.342 429.414 267.481 429.576C267.619 429.738 267.798 429.861 267.999 429.932C268.2 430.004 268.417 430.021 268.627 429.983C268.836 429.944 269.033 429.852 269.196 429.714C269.358 429.576 269.482 429.398 269.555 429.197C269.627 428.996 269.646 428.78 269.609 428.57H269.619Z" fill="white"/>
<path d="M326 418.06C325.951 417.862 325.856 417.678 325.722 417.524C325.588 417.369 325.418 417.25 325.229 417.174C325.039 417.099 324.833 417.07 324.63 417.09C324.427 417.11 324.231 417.179 324.06 417.29L323.99 417.35C323.828 417.49 323.707 417.669 323.636 417.871C323.566 418.072 323.55 418.289 323.589 418.498C323.629 418.708 323.723 418.904 323.862 419.066C324 419.228 324.179 419.351 324.38 419.422C324.581 419.494 324.798 419.511 325.007 419.473C325.217 419.434 325.414 419.342 325.576 419.204C325.739 419.066 325.863 418.888 325.936 418.687C326.008 418.486 326.027 418.27 325.99 418.06H326Z" fill="white"/>
<path d="M272 406.63C271.953 406.43 271.859 406.245 271.725 406.089C271.591 405.934 271.422 405.813 271.231 405.737C271.041 405.662 270.834 405.633 270.63 405.655C270.426 405.676 270.23 405.746 270.06 405.86L270 405.91C269.843 406.049 269.725 406.227 269.658 406.426C269.59 406.625 269.576 406.837 269.616 407.044C269.655 407.25 269.748 407.442 269.885 407.601C270.021 407.76 270.196 407.882 270.394 407.953C270.591 408.024 270.804 408.042 271.011 408.006C271.217 407.971 271.411 407.882 271.573 407.748C271.735 407.615 271.859 407.442 271.934 407.246C272.009 407.05 272.032 406.837 272 406.63Z" fill="white"/>
<path d="M362.199 370.33C362.151 370.132 362.055 369.948 361.921 369.794C361.787 369.639 361.618 369.52 361.428 369.444C361.238 369.369 361.033 369.34 360.829 369.36C360.626 369.38 360.431 369.449 360.259 369.56L360.189 369.61C360.032 369.75 359.914 369.927 359.847 370.126C359.78 370.325 359.765 370.538 359.805 370.744C359.845 370.95 359.938 371.142 360.074 371.301C360.21 371.461 360.386 371.582 360.583 371.653C360.781 371.724 360.993 371.742 361.2 371.706C361.407 371.671 361.601 371.582 361.762 371.448C361.924 371.315 362.049 371.142 362.124 370.946C362.198 370.75 362.221 370.537 362.189 370.33H362.199Z" fill="white"/>
<path d="M343.32 315.24C343.272 315.042 343.176 314.858 343.042 314.703C342.908 314.549 342.739 314.43 342.549 314.354C342.359 314.279 342.154 314.25 341.951 314.27C341.747 314.29 341.552 314.359 341.38 314.47H341.31C341.153 314.609 341.036 314.787 340.968 314.986C340.901 315.185 340.886 315.398 340.926 315.604C340.966 315.81 341.059 316.002 341.195 316.161C341.331 316.32 341.507 316.442 341.704 316.513C341.902 316.584 342.114 316.602 342.321 316.566C342.528 316.531 342.722 316.442 342.884 316.308C343.046 316.175 343.17 316.002 343.245 315.806C343.32 315.61 343.342 315.397 343.31 315.19L343.32 315.24Z" fill="white"/>
<path d="M338.6 363C338.551 362.802 338.456 362.618 338.322 362.463C338.188 362.309 338.019 362.19 337.829 362.114C337.639 362.039 337.433 362.01 337.23 362.03C337.027 362.05 336.831 362.119 336.66 362.23L336.6 362.29C336.443 362.43 336.325 362.608 336.258 362.807C336.191 363.007 336.178 363.22 336.218 363.426C336.258 363.632 336.352 363.824 336.489 363.983C336.626 364.142 336.802 364.263 337 364.333C337.198 364.404 337.411 364.421 337.618 364.384C337.825 364.347 338.019 364.257 338.18 364.122C338.341 363.988 338.465 363.814 338.539 363.617C338.612 363.42 338.633 363.207 338.6 363Z" fill="white"/>
<path d="M330.92 347.43C330.871 347.232 330.776 347.048 330.642 346.893C330.507 346.739 330.338 346.62 330.148 346.544C329.958 346.469 329.753 346.44 329.55 346.46C329.347 346.48 329.151 346.549 328.98 346.66H328.92C328.763 346.799 328.645 346.977 328.578 347.176C328.51 347.375 328.496 347.587 328.536 347.794C328.575 348 328.668 348.192 328.804 348.351C328.941 348.51 329.116 348.632 329.314 348.703C329.511 348.774 329.724 348.792 329.93 348.756C330.137 348.721 330.331 348.632 330.493 348.498C330.655 348.365 330.779 348.192 330.854 347.996C330.929 347.8 330.952 347.587 330.92 347.38V347.43Z" fill="white"/>
<path d="M364.89 396.41C364.842 396.211 364.747 396.027 364.612 395.873C364.478 395.719 364.309 395.6 364.119 395.524C363.929 395.449 363.724 395.42 363.521 395.44C363.317 395.46 363.122 395.529 362.95 395.64L362.88 395.7C362.719 395.84 362.597 396.019 362.527 396.221C362.457 396.422 362.441 396.639 362.48 396.848C362.52 397.058 362.613 397.254 362.752 397.416C362.891 397.578 363.07 397.701 363.271 397.772C363.472 397.843 363.688 397.861 363.898 397.822C364.108 397.784 364.304 397.691 364.467 397.554C364.63 397.416 364.754 397.238 364.826 397.037C364.899 396.836 364.918 396.62 364.88 396.41H364.89Z" fill="white"/>
<path d="M340.94 386.8C340.897 386.598 340.806 386.409 340.674 386.25C340.542 386.091 340.372 385.966 340.181 385.887C339.99 385.809 339.783 385.778 339.577 385.797C339.371 385.817 339.173 385.886 339 386L338.93 386.06C338.773 386.2 338.655 386.378 338.588 386.577C338.522 386.776 338.508 386.99 338.548 387.196C338.588 387.402 338.682 387.594 338.819 387.753C338.956 387.912 339.133 388.033 339.331 388.103C339.529 388.173 339.741 388.191 339.948 388.154C340.155 388.117 340.349 388.027 340.51 387.892C340.672 387.758 340.795 387.584 340.869 387.387C340.942 387.19 340.963 386.977 340.93 386.77L340.94 386.8Z" fill="white"/>
<path d="M351.189 334.05C351.142 333.852 351.048 333.668 350.915 333.514C350.782 333.359 350.613 333.239 350.424 333.164C350.235 333.088 350.03 333.06 349.827 333.08C349.625 333.1 349.43 333.169 349.259 333.28L349.189 333.33C349.032 333.47 348.914 333.647 348.847 333.846C348.78 334.045 348.765 334.258 348.805 334.464C348.845 334.67 348.938 334.862 349.074 335.021C349.21 335.18 349.386 335.302 349.583 335.373C349.781 335.444 349.993 335.462 350.2 335.426C350.407 335.391 350.601 335.302 350.762 335.168C350.924 335.035 351.049 334.862 351.124 334.666C351.198 334.47 351.221 334.257 351.189 334.05Z" fill="white"/>
<path d="M314.74 371.4C314.692 371.201 314.597 371.018 314.462 370.863C314.328 370.709 314.159 370.589 313.969 370.514C313.779 370.439 313.574 370.41 313.371 370.43C313.167 370.45 312.972 370.519 312.8 370.63L312.74 370.69C312.584 370.83 312.466 371.008 312.399 371.207C312.332 371.406 312.318 371.62 312.359 371.826C312.399 372.032 312.492 372.224 312.63 372.383C312.767 372.542 312.943 372.663 313.141 372.733C313.339 372.803 313.552 372.821 313.759 372.784C313.966 372.747 314.159 372.657 314.321 372.522C314.482 372.388 314.606 372.214 314.679 372.017C314.753 371.82 314.774 371.607 314.74 371.4Z" fill="white"/>
<path d="M371 354.26C370.951 354.062 370.856 353.878 370.722 353.723C370.588 353.569 370.419 353.45 370.229 353.374C370.039 353.299 369.834 353.27 369.63 353.29C369.427 353.31 369.231 353.379 369.06 353.49L368.99 353.54C368.833 353.68 368.715 353.857 368.648 354.056C368.581 354.255 368.566 354.468 368.606 354.674C368.646 354.88 368.738 355.072 368.875 355.231C369.011 355.39 369.187 355.512 369.384 355.583C369.582 355.654 369.794 355.672 370.001 355.636C370.208 355.601 370.401 355.512 370.563 355.378C370.725 355.245 370.85 355.072 370.925 354.876C370.999 354.68 371.022 354.467 370.99 354.26H371Z" fill="white"/>
<path d="M423.19 309.5C423.141 309.302 423.046 309.118 422.912 308.963C422.778 308.809 422.609 308.69 422.419 308.614C422.229 308.539 422.024 308.51 421.82 308.53C421.617 308.55 421.421 308.619 421.25 308.73L421.18 308.79C421.023 308.93 420.905 309.108 420.838 309.307C420.772 309.507 420.758 309.72 420.798 309.926C420.838 310.132 420.932 310.324 421.069 310.483C421.206 310.642 421.383 310.763 421.581 310.833C421.779 310.904 421.991 310.921 422.198 310.884C422.405 310.847 422.599 310.757 422.76 310.622C422.922 310.488 423.045 310.314 423.119 310.117C423.192 309.92 423.213 309.707 423.18 309.5H423.19Z" fill="white"/>
<path d="M402 275.61C401.952 275.412 401.857 275.228 401.722 275.074C401.588 274.919 401.419 274.8 401.229 274.724C401.039 274.649 400.834 274.62 400.631 274.64C400.427 274.66 400.232 274.729 400.06 274.84L399.99 274.9C399.834 275.04 399.716 275.218 399.649 275.417C399.582 275.617 399.568 275.83 399.609 276.036C399.649 276.242 399.742 276.434 399.88 276.593C400.017 276.752 400.193 276.873 400.391 276.943C400.589 277.014 400.802 277.031 401.009 276.994C401.216 276.957 401.409 276.867 401.571 276.733C401.732 276.598 401.856 276.424 401.929 276.227C402.003 276.03 402.024 275.818 401.99 275.61H402Z" fill="white"/>
<path d="M360.939 279.86C360.891 279.662 360.795 279.478 360.661 279.324C360.527 279.169 360.358 279.05 360.168 278.974C359.978 278.899 359.773 278.87 359.57 278.89C359.366 278.91 359.171 278.979 358.999 279.09L358.929 279.14C358.773 279.28 358.655 279.457 358.587 279.656C358.52 279.855 358.506 280.068 358.545 280.274C358.585 280.48 358.678 280.672 358.814 280.831C358.951 280.991 359.126 281.112 359.324 281.183C359.521 281.254 359.734 281.272 359.94 281.237C360.147 281.201 360.341 281.112 360.503 280.978C360.665 280.845 360.789 280.672 360.864 280.476C360.939 280.28 360.961 280.068 360.929 279.86H360.939Z" fill="white"/>
<path d="M319.049 158.21C311.179 163.21 308.049 173.72 309.529 179.93C310.289 183.06 311.709 186.21 311.089 189.36C310.559 192.09 308.589 194.28 307.089 196.64C304.617 200.613 303.482 205.272 303.849 209.937C304.215 214.601 306.065 219.025 309.127 222.563C312.188 226.101 316.302 228.566 320.865 229.599C325.429 230.631 330.203 230.176 334.489 228.3" fill="#263238"/>
<path d="M314.389 199.2C295.229 157.06 340.809 135.89 365.669 142.91C389.039 149.51 399.009 161.14 402.859 176.77C406.709 192.4 406.519 209.35 400.389 224.24C397.389 231.58 391.929 239.04 384.039 239.96" fill="#263238"/>
<path d="M336.839 302.11C336.509 281.97 336.269 254.32 336.269 254.43C336.269 254.54 318.999 251.56 315.369 229C313.589 217.77 314.159 199.36 315.099 184.31C315.959 170.76 324.929 154.14 338.429 155.57L380.579 166.22C382.558 166.428 384.386 167.372 385.701 168.865C387.017 170.358 387.722 172.291 387.679 174.28L384.939 261.45" fill="#FFBE9D"/>
<path d="M322.639 198.08C322.623 198.829 322.9 199.556 323.412 200.103C323.924 200.651 324.63 200.976 325.379 201.01C325.745 201.044 326.115 201.005 326.465 200.894C326.816 200.783 327.14 200.602 327.42 200.364C327.7 200.125 327.929 199.833 328.094 199.504C328.258 199.175 328.356 198.817 328.379 198.45C328.393 197.7 328.115 196.974 327.604 196.426C327.093 195.877 326.388 195.549 325.639 195.51C325.273 195.477 324.903 195.518 324.553 195.63C324.202 195.742 323.877 195.924 323.598 196.163C323.318 196.402 323.09 196.695 322.925 197.025C322.76 197.354 322.663 197.713 322.639 198.08Z" fill="#263238"/>
<path d="M352.559 198.08C352.545 198.828 352.824 199.552 353.336 200.097C353.847 200.642 354.552 200.966 355.299 201C355.665 201.034 356.034 200.995 356.385 200.884C356.736 200.773 357.06 200.593 357.34 200.354C357.62 200.115 357.849 199.823 358.013 199.494C358.178 199.166 358.275 198.807 358.299 198.44C358.316 197.691 358.038 196.965 357.526 196.417C357.014 195.869 356.308 195.544 355.559 195.51C355.192 195.476 354.822 195.516 354.471 195.627C354.12 195.739 353.795 195.92 353.515 196.16C353.235 196.4 353.006 196.693 352.842 197.023C352.678 197.353 352.582 197.712 352.559 198.08Z" fill="#263238"/>
<path d="M319.52 192.82C319.87 193.21 322.12 191.66 325.23 191.82C328.34 191.98 330.57 193.56 330.93 193.19C331.1 193.03 330.75 192.34 329.78 191.58C328.466 190.598 326.879 190.049 325.24 190.01C323.619 189.953 322.023 190.412 320.68 191.32C319.7 192 319.35 192.64 319.52 192.82Z" fill="#263238"/>
<path d="M349.101 193.56C349.461 193.94 351.651 192.3 354.761 192.3C357.871 192.3 360.171 193.84 360.501 193.46C360.671 193.29 360.301 192.61 359.301 191.89C357.95 190.957 356.342 190.467 354.701 190.49C353.081 190.49 351.504 191.009 350.201 191.97C349.241 192.71 348.921 193.39 349.101 193.56Z" fill="#263238"/>
<path d="M338.42 217.56C338.42 217.38 336.5 217.05 333.36 216.64C332.56 216.56 331.81 216.4 331.68 215.86C331.609 215.038 331.794 214.213 332.21 213.5C332.95 211.58 333.74 209.56 334.56 207.44C337.83 198.82 340.19 191.72 339.84 191.59C339.49 191.46 336.56 198.35 333.3 206.98L331.04 213.08C330.539 214.039 330.394 215.144 330.63 216.2C330.746 216.48 330.924 216.73 331.151 216.931C331.378 217.132 331.648 217.279 331.94 217.36C332.379 217.484 332.833 217.548 333.29 217.55C336.45 217.72 338.41 217.73 338.42 217.56Z" fill="#263238"/>
<path d="M336.27 254.43C346.901 254.593 357.369 251.802 366.51 246.37C366.51 246.37 358.87 262.07 336.27 259.96V254.43Z" fill="#EB996E"/>
<path d="M348.331 189.13C348.631 189.98 351.751 189.57 355.401 190.02C359.051 190.47 362.011 191.45 362.501 190.69C362.721 190.33 362.201 189.53 361.011 188.69C359.419 187.686 357.619 187.056 355.748 186.85C353.877 186.644 351.983 186.866 350.211 187.5C348.871 188.06 348.191 188.73 348.331 189.13Z" fill="#263238"/>
<path d="M320.239 185C320.789 185.71 322.939 185 325.519 184.94C328.099 184.88 330.289 185.42 330.789 184.68C331.009 184.32 330.669 183.61 329.709 182.94C328.435 182.117 326.935 181.712 325.419 181.78C323.904 181.81 322.434 182.306 321.209 183.2C320.299 183.91 319.999 184.64 320.239 185Z" fill="#263238"/>
<path d="M383.81 204C384.14 203.84 395.9 198.64 396.04 212.16C396.18 225.68 382.57 223.03 382.54 222.64C382.51 222.25 383.81 204 383.81 204Z" fill="#FFBE9D"/>
<path d="M386.619 217.46C386.679 217.46 386.859 217.62 387.259 217.8C387.824 218.025 388.454 218.025 389.019 217.8C390.439 217.26 391.619 214.98 391.659 212.54C391.689 211.382 391.453 210.233 390.969 209.18C390.84 208.758 390.609 208.374 390.297 208.062C389.985 207.75 389.601 207.519 389.179 207.39C388.908 207.32 388.621 207.348 388.369 207.469C388.117 207.59 387.915 207.795 387.799 208.05C387.619 208.43 387.709 208.7 387.639 208.72C387.569 208.74 387.339 208.5 387.449 207.94C387.52 207.606 387.703 207.305 387.969 207.09C388.152 206.948 388.36 206.842 388.583 206.781C388.806 206.719 389.039 206.702 389.269 206.73C389.825 206.835 390.345 207.08 390.779 207.442C391.213 207.804 391.547 208.272 391.749 208.8C392.338 209.965 392.633 211.255 392.609 212.56C392.549 215.28 391.179 217.85 389.229 218.43C388.867 218.539 388.486 218.566 388.112 218.509C387.738 218.452 387.382 218.312 387.069 218.1C386.649 217.79 386.579 217.48 386.619 217.46Z" fill="#EB996E"/>
<path d="M333.931 148.88C326.411 152.77 323.311 168.15 326.421 176.03C329.531 183.91 337.921 187.75 346.191 189.56C354.461 191.37 362.571 191.56 370.731 189.32C371.291 194.8 374.581 200.43 379.901 201.88C386.951 203.79 394.051 197.34 395.621 190.21C397.191 183.08 394.831 175.74 392.511 168.81" fill="#263238"/>
<path d="M393.58 197.93C393.58 197.93 393.24 198.33 392.53 198.93C391.538 199.77 390.5 200.555 389.42 201.28C387.807 202.393 386.033 203.253 384.16 203.83C381.821 204.568 379.306 204.529 376.99 203.72C374.711 202.802 372.801 201.152 371.56 199.03C370.556 197.335 369.893 195.46 369.61 193.51C369.413 192.213 369.343 190.901 369.4 189.59C369.379 189.111 369.436 188.631 369.57 188.17C369.72 188.17 369.57 190.22 370.15 193.41C370.493 195.264 371.171 197.039 372.15 198.65C373.338 200.605 375.122 202.126 377.24 202.99C379.407 203.739 381.754 203.788 383.95 203.13C385.767 202.605 387.5 201.827 389.1 200.82C391.88 199.08 393.5 197.82 393.58 197.93Z" fill="#263238"/>
<path d="M339.339 226.24C339.737 227.412 340.303 228.521 341.019 229.53C341.379 230.036 341.843 230.459 342.379 230.771C342.915 231.083 343.512 231.277 344.129 231.34C344.789 231.336 345.438 231.168 346.017 230.852C346.596 230.536 347.088 230.082 347.449 229.53C348.147 228.398 348.469 227.076 348.369 225.75C348.319 224.56 347.769 223.14 346.589 223C346.093 222.983 345.601 223.093 345.159 223.32L338.939 225.84" fill="#EB996E"/>
<path d="M341.82 231.35C341.82 231.16 343.22 231.71 345.14 230.94C346.228 230.52 347.122 229.711 347.65 228.67C347.948 228.035 348.109 227.345 348.122 226.644C348.136 225.942 348.002 225.246 347.73 224.6C347.586 224.27 347.404 223.958 347.19 223.67C346.94 223.41 346.98 223.42 346.72 223.46C346.46 223.5 346.05 223.72 345.72 223.85L344.72 224.27C343.39 224.81 342.18 225.27 341.17 225.66C339.17 226.42 337.84 226.82 337.78 226.66C337.72 226.5 338.9 225.86 340.86 224.92C341.86 224.45 343.01 223.92 344.32 223.31L345.32 222.86C345.69 222.71 345.96 222.55 346.46 222.39C346.758 222.291 347.081 222.291 347.38 222.39C347.653 222.507 347.891 222.693 348.07 222.93C348.737 223.797 349.14 224.839 349.231 225.93C349.321 227.021 349.095 228.114 348.58 229.08C348.248 229.693 347.797 230.234 347.255 230.672C346.713 231.109 346.089 231.435 345.42 231.63C344.55 231.916 343.619 231.954 342.73 231.74C342.09 231.63 341.8 231.42 341.82 231.35Z" fill="#263238"/>
<path d="M399.001 194.73C397.621 194.63 386.451 196.08 387.331 216.83C388.151 236.22 401.751 231.95 406.091 224.65C410.171 217.74 412.551 195.68 399.001 194.73Z" fill="#455A64"/>
<path d="M405.869 197.18C405.838 197.002 405.821 196.821 405.819 196.64C405.819 196.23 405.819 195.71 405.759 195.05C405.759 193.62 405.659 191.62 405.589 189.14C405.489 184.05 405.349 176.96 405.179 168.79L405.429 169.03H399.679L399.939 168.77C399.939 170.31 400.019 171.94 400.069 173.6C400.259 181.38 400.439 188.6 400.589 194.71V194.89H400.419C398.058 195.434 395.961 196.785 394.489 198.71C393.374 200.202 392.569 201.902 392.119 203.71C391.819 204.875 391.616 206.062 391.509 207.26C391.509 207.67 391.459 207.99 391.449 208.2C391.439 208.41 391.449 208.53 391.449 208.53C391.436 208.42 391.436 208.31 391.449 208.2C391.449 207.99 391.449 207.67 391.449 207.25C391.498 206.037 391.665 204.831 391.949 203.65C392.366 201.789 393.159 200.033 394.279 198.49C395.789 196.486 397.949 195.072 400.389 194.49L400.219 194.71C400.049 188.64 399.839 181.39 399.619 173.6C399.569 171.95 399.529 170.32 399.489 168.77V168.5H405.759V168.75C405.849 176.93 405.929 184.01 405.989 189.11C405.989 191.59 405.989 193.59 405.989 195.02C405.989 195.68 405.989 196.2 405.989 196.6C405.976 196.798 405.936 196.993 405.869 197.18Z" fill="#455A64"/>
<path d="M399 168.78C399 168.78 393.16 155.12 379.25 148.37C373.93 145.72 368.342 143.649 362.58 142.19C362.58 142.19 370.7 140.27 383.83 146.11C389.83 148.77 395.83 152.22 399.83 157.41C402.35 160.7 405.51 167.13 405.5 168.78H399Z" fill="#455A64"/>
<path d="M363 334.25C363 334.25 363.08 334.15 363.25 333.98C363.42 333.81 363.68 333.55 364 333.2C364.96 332.185 365.861 331.117 366.7 330C368.035 328.213 369.254 326.343 370.35 324.4C371.65 322.13 373.01 319.45 374.48 316.46C377.43 310.46 380.84 303.24 384.38 294.94C386.14 290.79 387.94 286.38 389.74 281.73L391.08 278.21C391.502 276.978 392.041 275.789 392.69 274.66C393.382 273.489 394.386 272.534 395.59 271.9C396.203 271.563 396.891 271.388 397.59 271.39C397.972 271.416 398.339 271.548 398.65 271.77C398.945 272.009 399.176 272.319 399.32 272.67V272.74V272.82C399.235 273.296 399.051 273.749 398.78 274.15C398.478 274.568 398.033 274.859 397.53 274.97C396.569 275.103 395.591 274.924 394.74 274.46C393.846 274.043 393.118 273.339 392.67 272.46C392.222 271.582 392.082 270.578 392.27 269.61C392.474 268.615 393.059 267.739 393.9 267.17C394.73 266.591 395.73 266.306 396.74 266.36C397.263 266.364 397.777 266.498 398.235 266.751C398.692 267.005 399.079 267.369 399.36 267.81C399.501 268.063 399.567 268.351 399.549 268.64C399.532 268.929 399.431 269.207 399.26 269.44C398.93 269.858 398.49 270.177 397.99 270.36C397.151 270.679 396.233 270.719 395.37 270.474C394.507 270.229 393.746 269.712 393.2 269C392.668 268.274 392.436 267.372 392.55 266.48C392.638 265.611 392.986 264.788 393.55 264.12C394.123 263.446 394.924 263.004 395.8 262.88C396.242 262.822 396.692 262.868 397.114 263.014C397.536 263.16 397.918 263.401 398.23 263.72C398.55 264.065 398.722 264.52 398.71 264.99C398.704 265.224 398.65 265.455 398.55 265.666C398.45 265.878 398.307 266.067 398.13 266.22C397.804 266.514 397.413 266.726 396.989 266.841C396.565 266.956 396.12 266.969 395.69 266.88C395.274 266.771 394.885 266.576 394.549 266.307C394.213 266.039 393.938 265.702 393.74 265.32C393.352 264.603 393.105 263.819 393.01 263.01C392.728 261.438 392.912 259.818 393.54 258.35C393.89 257.601 394.497 257.002 395.25 256.66C396.02 256.375 396.871 256.404 397.62 256.74C398.012 256.882 398.358 257.13 398.617 257.457C398.877 257.783 399.041 258.176 399.09 258.59C399.11 259.014 398.999 259.433 398.771 259.791C398.544 260.149 398.212 260.428 397.82 260.59C397.464 260.773 397.07 260.868 396.67 260.868C396.27 260.868 395.876 260.773 395.52 260.59C394.843 260.199 394.334 259.573 394.09 258.83C393.864 258.126 393.819 257.376 393.96 256.65C394.038 255.942 394.192 255.245 394.42 254.57C394.646 253.876 395.066 253.262 395.63 252.8C396.184 252.355 396.829 252.038 397.52 251.87C397.879 251.767 398.261 251.767 398.62 251.87C398.965 251.99 399.276 252.188 399.53 252.45C399.785 252.7 399.985 253 400.12 253.33C400.265 253.686 400.265 254.084 400.12 254.44C399.959 254.769 399.701 255.041 399.381 255.22C399.061 255.399 398.695 255.475 398.33 255.44C397.653 255.43 396.996 255.21 396.45 254.81C395.414 254.046 394.7 252.923 394.45 251.66C394.188 250.414 394.384 249.115 395 248C395.271 247.465 395.657 246.998 396.13 246.63C396.597 246.276 397.142 246.039 397.72 245.94C398.297 245.823 398.898 245.908 399.42 246.18C399.678 246.32 399.898 246.523 400.058 246.769C400.219 247.015 400.316 247.297 400.34 247.59C400.337 248.142 400.151 248.677 399.81 249.111C399.47 249.546 398.995 249.855 398.46 249.99C397.958 250.097 397.437 250.059 396.956 249.883C396.474 249.706 396.053 249.396 395.74 248.99C395.139 248.267 394.789 247.369 394.74 246.43C394.827 244.795 395.164 243.183 395.74 241.65C396.15 240.21 396.52 238.89 396.86 237.71C397.53 235.36 398.05 233.53 398.42 232.27C398.59 231.66 398.73 231.19 398.83 230.86C398.93 230.53 398.99 230.38 398.99 230.38C398.99 230.38 398.99 230.55 398.88 230.87C398.77 231.19 398.67 231.69 398.52 232.3C398.18 233.57 397.68 235.41 397.05 237.76L395.98 241.71C395.64 243.16 394.98 244.71 395.05 246.41C395.123 247.289 395.473 248.123 396.05 248.79C396.326 249.149 396.698 249.423 397.122 249.582C397.546 249.741 398.006 249.779 398.45 249.69C398.899 249.575 399.299 249.318 399.59 248.958C399.882 248.598 400.05 248.153 400.07 247.69C400.049 247.455 399.971 247.229 399.842 247.032C399.713 246.835 399.537 246.673 399.33 246.56C398.878 246.336 398.364 246.269 397.87 246.37C397.346 246.46 396.852 246.676 396.43 247C396.011 247.34 395.67 247.767 395.43 248.25C394.934 249.276 394.804 250.44 395.06 251.55C395.3 252.711 395.963 253.741 396.92 254.44C397.399 254.784 397.97 254.976 398.56 254.99C398.837 255.023 399.118 254.971 399.364 254.841C399.611 254.71 399.812 254.508 399.94 254.26C400.002 253.983 399.985 253.693 399.891 253.425C399.797 253.156 399.631 252.919 399.41 252.74C399.204 252.532 398.955 252.371 398.68 252.27C398.395 252.196 398.095 252.196 397.81 252.27C397.18 252.407 396.595 252.702 396.111 253.127C395.626 253.552 395.258 254.093 395.04 254.7C394.822 255.348 394.678 256.019 394.61 256.7C394.475 257.366 394.516 258.055 394.73 258.7C394.929 259.33 395.357 259.862 395.93 260.19C396.22 260.335 396.54 260.411 396.865 260.411C397.19 260.411 397.51 260.335 397.8 260.19C398.099 260.074 398.355 259.868 398.534 259.602C398.713 259.336 398.806 259.021 398.8 258.7C398.756 258.377 398.623 258.073 398.416 257.82C398.21 257.568 397.938 257.378 397.63 257.27C396.996 256.993 396.281 256.968 395.63 257.2C394.991 257.498 394.478 258.011 394.18 258.65C393.606 260.031 393.443 261.549 393.71 263.02C393.798 263.766 394.025 264.488 394.38 265.15C394.543 265.468 394.77 265.749 395.047 265.974C395.325 266.2 395.646 266.365 395.99 266.46C396.342 266.536 396.706 266.527 397.054 266.435C397.401 266.343 397.722 266.17 397.99 265.93C398.115 265.819 398.217 265.684 398.289 265.533C398.36 265.382 398.401 265.217 398.407 265.05C398.414 264.883 398.386 264.716 398.327 264.56C398.267 264.403 398.176 264.261 398.06 264.14C397.8 263.883 397.485 263.689 397.138 263.573C396.791 263.456 396.422 263.421 396.06 263.47C395.308 263.58 394.624 263.965 394.14 264.55C393.615 265.113 393.295 265.836 393.23 266.603C393.164 267.37 393.358 268.136 393.78 268.78C394.26 269.396 394.925 269.843 395.677 270.055C396.428 270.267 397.228 270.234 397.96 269.96C398.352 269.799 398.696 269.541 398.96 269.21C399.073 269.055 399.138 268.87 399.149 268.679C399.159 268.487 399.115 268.297 399.02 268.13C398.78 267.77 398.454 267.475 398.072 267.27C397.69 267.066 397.263 266.96 396.83 266.96C395.946 266.891 395.066 267.138 394.347 267.656C393.627 268.174 393.115 268.93 392.9 269.79C392.737 270.625 392.855 271.491 393.234 272.252C393.614 273.013 394.235 273.628 395 274C395.743 274.422 396.603 274.591 397.45 274.48C397.831 274.362 398.169 274.132 398.418 273.82C398.668 273.508 398.818 273.128 398.85 272.73V272.88C398.753 272.604 398.577 272.362 398.345 272.184C398.112 272.006 397.832 271.901 397.54 271.88C396.92 271.877 396.31 272.036 395.77 272.34C394.643 272.93 393.704 273.824 393.06 274.92C392.426 276.017 391.9 277.172 391.49 278.37L390.13 281.9C388.33 286.54 386.51 290.9 384.73 295.1C381.17 303.4 377.73 310.64 374.73 316.6C373.24 319.6 371.86 322.25 370.53 324.52C369.409 326.456 368.163 328.317 366.8 330.09C365.686 331.609 364.412 333.004 363 334.25Z" fill="white"/>
<path d="M411.089 185C410.967 183.729 410.661 182.483 410.179 181.3C408.726 178.12 406.178 175.568 402.999 174.11C400.816 173.124 398.47 172.551 396.079 172.42C393.327 172.279 390.568 172.487 387.869 173.04C382.139 174.1 376.119 176.57 369.379 177.59C366.093 178.025 362.765 178.025 359.479 177.59C356.429 177.131 353.442 176.319 350.579 175.17C345.718 173.213 341.298 170.302 337.579 166.61C335.076 164.142 332.959 161.31 331.299 158.21C331.019 157.738 330.771 157.247 330.559 156.74L330.079 155.63C329.959 155.36 329.869 155.13 329.789 154.95C329.751 154.875 329.724 154.794 329.709 154.71C329.762 154.778 329.805 154.852 329.839 154.93L330.169 155.59L330.699 156.67C330.927 157.17 331.188 157.654 331.479 158.12C333.194 161.154 335.336 163.925 337.839 166.35C343.743 172.132 351.331 175.89 359.509 177.08C362.748 177.51 366.03 177.51 369.269 177.08C375.919 176.08 381.949 173.62 387.749 172.58C390.486 172.033 393.282 171.838 396.069 172C398.511 172.148 400.902 172.756 403.119 173.79C406.352 175.305 408.917 177.952 410.329 181.23C410.68 182.123 410.912 183.057 411.019 184.01V184.75C411.055 184.83 411.078 184.914 411.089 185Z" fill="#455A64"/>
<path d="M396 163.45C395.764 163.508 395.523 163.548 395.28 163.57C394.81 163.64 394.11 163.74 393.22 163.9C391.44 164.19 388.89 164.76 385.75 165.54C382.077 166.53 378.338 167.256 374.56 167.71C369.919 168.186 365.236 168.081 360.62 167.4C356.003 166.73 351.481 165.515 347.15 163.78C343.6 162.375 340.199 160.616 337 158.53C335.66 157.62 334.46 156.78 333.44 155.98C332.42 155.18 331.56 154.49 330.9 153.87L329.38 152.44C329.04 152.11 328.86 151.93 328.88 151.91C329.084 152.042 329.275 152.193 329.45 152.36L331.03 153.71C331.71 154.31 332.62 154.95 333.62 155.71C334.62 156.47 335.86 157.3 337.2 158.18C344.329 162.677 352.321 165.631 360.66 166.85C365.24 167.521 369.884 167.635 374.49 167.19C378.246 166.782 381.968 166.114 385.63 165.19C388.78 164.46 391.36 163.94 393.16 163.7C394.06 163.58 394.76 163.51 395.24 163.48C395.492 163.444 395.747 163.434 396 163.45Z" fill="#455A64"/>
<path d="M397.48 230.45C397.346 230.424 397.216 230.384 397.09 230.33C396.742 230.184 396.407 230.006 396.09 229.8C394.881 229.006 393.877 227.937 393.16 226.68C392.134 224.801 391.521 222.725 391.36 220.59C391.13 218.009 391.13 215.412 391.36 212.83C391.577 210.249 392.005 207.691 392.64 205.18C393.095 203.107 393.846 201.109 394.87 199.25C395.608 197.989 396.637 196.923 397.87 196.14C398.185 195.933 398.52 195.759 398.87 195.62C399.12 195.53 399.26 195.49 399.26 195.51C399.26 195.53 398.75 195.74 397.94 196.31C396.81 197.138 395.875 198.203 395.2 199.43C394.238 201.281 393.538 203.257 393.12 205.3C392.513 207.791 392.099 210.325 391.88 212.88C391.671 215.429 391.671 217.991 391.88 220.54C392.008 222.632 392.566 224.674 393.52 226.54C394.18 227.777 395.11 228.85 396.24 229.68C397 230.21 397.51 230.4 397.48 230.45Z" fill="#263238"/>
<path d="M352.502 227.361L342.238 229.374C340.694 229.677 339.687 231.175 339.99 232.72L340.065 233.102C340.368 234.647 341.866 235.654 343.411 235.35L353.675 233.337C355.219 233.034 356.226 231.536 355.923 229.991L355.848 229.609C355.545 228.064 354.047 227.058 352.502 227.361Z" fill="#455A64"/>
<path d="M354.469 228.88L401.919 214C402.482 213.824 403.093 213.878 403.617 214.149C404.141 214.421 404.537 214.888 404.719 215.45C404.81 215.739 404.843 216.043 404.814 216.345C404.785 216.646 404.695 216.939 404.551 217.205C404.406 217.471 404.209 217.706 403.971 217.894C403.734 218.082 403.461 218.22 403.169 218.3L354.649 231.4L354.469 228.88Z" fill="#455A64"/>
<path d="M389.54 222.34C390.048 222.116 390.573 221.932 391.11 221.79L395.45 220.47C397.27 219.91 399.51 219.31 401.87 218.54C402.453 218.323 402.982 217.982 403.42 217.54C403.852 217.1 404.093 216.507 404.09 215.89C404.088 215.587 403.99 215.292 403.81 215.048C403.631 214.804 403.379 214.623 403.09 214.53C402.431 214.362 401.738 214.383 401.09 214.59L386.86 219.17L382.53 220.51C382.034 220.715 381.522 220.879 381 221C381.5 220.757 382.018 220.553 382.55 220.39L386.83 218.89C390.46 217.66 395.44 215.95 401.04 214.16C401.785 213.945 402.575 213.945 403.32 214.16C403.7 214.298 404.03 214.547 404.266 214.875C404.501 215.204 404.632 215.596 404.64 216C404.641 216.749 404.346 217.468 403.82 218C403.294 218.462 402.672 218.804 402 219C399.55 219.77 397.36 220.31 395.51 220.83L391.17 222C390.639 222.164 390.093 222.278 389.54 222.34Z" fill="#263238"/>
<path d="M311.999 186C313.619 191.7 307.829 196.59 305.789 202.16C303.789 207.54 305.489 213.57 307.919 218.77C310.349 223.97 313.549 228.89 314.789 234.48C317.859 248.28 305.379 263.15 307.789 277.08C308.649 282.16 310.699 287.46 312.469 292.29C314.179 296.845 314.179 301.865 312.469 306.42C309.769 314.42 305.189 318.17 301.969 325.95C300.319 329.95 300.449 334.39 300.529 338.69C300.609 342.99 300.589 347.49 298.669 351.35C296.749 355.21 292.369 358.19 288.209 357.07C290.454 359.585 293.465 361.29 296.777 361.921C300.089 362.552 303.517 362.074 306.529 360.56C311.999 357.64 315.059 351.72 317.679 346.1C330.359 318.89 337.069 316.59 336.679 286.57C336.679 284.64 336.299 254.57 336.299 254.57C333.671 253.865 331.151 252.805 328.809 251.42C314.649 241.64 314.129 224.22 314.239 210.71" fill="#263238"/>
<path d="M340.3 277.08V288.41C340.3 288.41 331.59 332.86 328.97 357.55C326.35 382.24 325.92 388.76 325.92 388.76C325.92 388.76 332.17 398.51 345.24 381.95C358.31 365.39 360.64 362.78 365.87 362.49C365.87 362.49 359.48 293.06 359.77 290.49C360.094 288.668 360.894 286.963 362.09 285.55L340.3 277.08Z" fill="#FFBE9D"/>
<path d="M357.439 251.52C357.439 251.52 343.209 270.4 342.049 273C340.889 275.6 340.299 277.06 340.299 277.06L362.089 285.49L383.299 262.25L391.139 241.62L388.809 217.22C388.809 217.22 384.169 216.93 383.299 221C382.766 223.577 382.567 226.212 382.709 228.84L376.209 223.61L365.719 220.42C365.719 220.42 363.249 224.48 367.319 226.52C371.389 228.56 372.549 228.52 372.549 228.52L376.209 234.91L374.609 242.07L367.189 235.07C366.47 234.391 365.537 233.986 364.55 233.924C363.564 233.862 362.587 234.147 361.789 234.73L356.989 238.21L352.499 236.21L343.789 244L340.299 247.19C340.299 247.19 342.629 251.55 347.299 249.52L351.949 247.52L357.439 251.52Z" fill="#FFBE9D"/>
<path d="M340.3 280.91C340.287 280.707 340.287 280.503 340.3 280.3C340.3 279.9 340.35 279.3 340.44 278.53C340.557 277.568 340.741 276.616 340.99 275.68C341.301 274.388 341.814 273.153 342.51 272.02C345.77 267.02 350.9 260.02 357.3 251.41V251.67L351.78 247.61H351.97L349.1 248.88C348.115 249.361 347.091 249.759 346.04 250.07C344.896 250.344 343.692 250.206 342.64 249.68C341.57 249.13 340.681 248.283 340.08 247.24L340 247.1L340.13 246.98C343.87 243.46 348.04 239.91 352.32 236.11L352.45 236L352.59 236.08L356.46 238.37H356.21L360.73 235.37C361.52 234.86 362.23 234.37 363.08 233.85C363.543 233.62 364.06 233.522 364.575 233.566C365.09 233.61 365.583 233.795 366 234.1L374.81 241.55L374.4 241.69C374.88 239.54 375.4 237.21 375.92 234.86V235.04L372.26 228.65L372.49 228.78C371.868 228.695 371.26 228.531 370.68 228.29C370.11 228.08 369.54 227.84 368.97 227.59C368.4 227.34 367.84 227.06 367.28 226.79C366.99 226.65 366.71 226.46 366.43 226.3C366.156 226.105 365.902 225.884 365.67 225.64C365.334 225.284 365.073 224.864 364.901 224.406C364.729 223.947 364.651 223.459 364.67 222.97C364.702 222.014 364.966 221.081 365.44 220.25L365.54 220.08L365.74 220.14L376.22 223.34H376.27L382.77 228.57L382.36 228.79C382.22 226.201 382.405 223.604 382.91 221.06C383.016 220.404 383.26 219.778 383.625 219.223C383.991 218.668 384.469 218.197 385.03 217.84C386.148 217.18 387.433 216.857 388.73 216.91H389V217.13C389.82 225.8 390.59 233.98 391.3 241.53V241.58C388.4 249.18 385.76 256.08 383.42 262.19L367 280.31L362.54 285.14C362.03 285.67 361.64 286.09 361.37 286.38L360.96 286.79C360.96 286.79 361.08 286.63 361.33 286.34L362.46 285.07L366.86 280.18L383.2 262.18V262.23L391 241.59V241.69C390.27 234.14 389.49 225.97 388.65 217.29L388.88 217.52C387.687 217.471 386.506 217.77 385.48 218.38C384.976 218.7 384.547 219.125 384.221 219.625C383.895 220.126 383.68 220.69 383.59 221.28C383.089 223.777 382.907 226.327 383.05 228.87V229.45L382.6 229.09L376 223.83H376.09L365.61 220.64L365.9 220.52C365.478 221.274 365.242 222.117 365.21 222.98C365.192 223.403 365.259 223.825 365.406 224.222C365.554 224.619 365.78 224.982 366.07 225.29C366.277 225.502 366.501 225.696 366.74 225.87C367.01 226.02 367.25 226.18 367.53 226.32C368.09 226.59 368.64 226.87 369.2 227.11C370.254 227.624 371.365 228.01 372.51 228.26H372.67L372.73 228.36L376.39 234.75L376.44 234.84V234.94C375.91 237.29 375.44 239.62 374.91 241.77L374.82 242.19L374.49 241.91L365.71 234.48C365.369 234.226 364.964 234.071 364.541 234.032C364.117 233.993 363.692 234.072 363.31 234.26C362.57 234.7 361.77 235.26 361.01 235.75L356.48 238.75L356.36 238.83L356.23 238.76L352.36 236.46H352.64C348.36 240.24 344.18 243.79 340.43 247.29L340.48 247.03C341.032 247.995 341.852 248.78 342.84 249.29C343.803 249.78 344.91 249.908 345.96 249.65C346.989 249.349 347.993 248.964 348.96 248.5L351.83 247.24H351.94L352.03 247.3L357.54 251.38L357.69 251.49L357.58 251.64C351.15 260.25 345.97 267.19 342.67 272.14C341.975 273.252 341.453 274.462 341.12 275.73C340.865 276.657 340.668 277.599 340.53 278.55C340.42 279.32 340.37 279.92 340.34 280.31C340.31 280.7 340.3 280.91 340.3 280.91Z" fill="#EB996E"/>
<path d="M367.26 255.89C367.16 255.89 367.54 254.35 367.7 251.89C367.805 250.456 367.572 249.018 367.02 247.69C366.185 246.136 364.997 244.8 363.55 243.79C360.966 241.809 358.271 239.976 355.48 238.3L352.93 236.8C352.602 236.638 352.293 236.441 352.01 236.21C352.362 236.296 352.699 236.434 353.01 236.62C353.65 236.91 354.56 237.37 355.66 237.98C358.522 239.577 361.262 241.382 363.86 243.38C365.372 244.435 366.602 245.847 367.44 247.49C368.014 248.888 368.227 250.408 368.06 251.91C367.974 252.902 367.811 253.885 367.57 254.85C367.516 255.21 367.411 255.56 367.26 255.89Z" fill="#EB996E"/>
<path d="M382.509 246.83C382.573 245.949 382.697 245.074 382.879 244.21C383.191 242.125 383.342 240.018 383.329 237.91C383.302 235.796 383.115 233.686 382.769 231.6C382.577 230.743 382.44 229.875 382.359 229C382.727 229.806 382.986 230.656 383.129 231.53C384.052 235.726 384.09 240.069 383.239 244.28C383.11 245.159 382.865 246.016 382.509 246.83Z" fill="#EB996E"/>
<path d="M285.4 172.73L275 154.36C281.44 143.899 283.735 131.407 281.433 119.34C279.131 107.273 272.399 96.5029 262.56 89.1472C252.721 81.7915 240.486 78.3819 228.261 79.5887C216.035 80.7955 204.703 86.5313 196.492 95.6687C188.281 104.806 183.785 116.684 183.886 128.969C183.988 141.253 188.681 153.055 197.043 162.055C205.404 171.055 216.83 176.602 229.074 177.606C241.317 178.61 253.494 174.998 263.21 167.48L285.4 172.73Z" fill="white"/>
<path d="M285.4 172.73L263.14 167.63H262.95L263.07 167.47L263.25 167.65C260.131 170.071 256.738 172.115 253.14 173.74C248.856 175.657 244.32 176.95 239.67 177.58C237.093 177.939 234.49 178.07 231.89 177.97C230.56 177.9 229.19 177.86 227.82 177.75L223.67 177.12C211.301 174.672 200.332 167.598 193 157.34C188.907 151.673 186.076 145.194 184.7 138.34C183.279 131.103 183.477 123.642 185.28 116.49C187.133 109.015 190.743 102.09 195.81 96.2901L197.81 94.0801C198.47 93.3401 199.26 92.7301 199.97 92.0801C200.679 91.3759 201.423 90.7084 202.2 90.0801L204.56 88.3201C205.336 87.7446 206.152 87.2233 207 86.7601L209.49 85.2501L212.1 84.0001C212.949 83.5512 213.828 83.1603 214.73 82.8301C221.718 80.0696 229.235 78.9112 236.73 79.4401C243.821 79.9371 250.717 81.9854 256.93 85.4401C268.098 91.6551 276.448 101.928 280.25 114.13C281.777 119.323 282.499 124.719 282.39 130.13C282.259 134.818 281.451 139.463 279.99 143.92C278.769 147.629 277.114 151.18 275.06 154.5V154.37L285.37 172.8C284.93 172.03 281.59 166.24 274.84 154.49V154.43V154.37C276.861 151.057 278.489 147.52 279.69 143.83C281.115 139.394 281.9 134.778 282.02 130.12C282.107 124.757 281.375 119.412 279.85 114.27C276.053 102.189 267.762 92.0265 256.69 85.8801C250.533 82.4796 243.707 80.4692 236.69 79.9901C229.266 79.4671 221.819 80.6188 214.9 83.3601C214.008 83.687 213.139 84.0745 212.3 84.5201L209.72 85.7701L207.25 87.2701C206.406 87.739 205.6 88.274 204.84 88.8701L202.5 90.6101C201.71 91.1701 201.04 91.9001 200.3 92.5301C199.56 93.1601 198.82 93.8101 198.16 94.5301L196.16 96.7101C191.148 102.455 187.576 109.311 185.74 116.71C183.955 123.789 183.754 131.174 185.15 138.34C186.513 145.116 189.309 151.522 193.35 157.13C200.63 167.273 211.487 174.274 223.73 176.72L227.84 177.35C229.2 177.47 230.56 177.5 231.84 177.58C234.419 177.684 237.002 177.564 239.56 177.22C248.109 176.088 256.206 172.714 263.03 167.44L263.81 166.84L263.21 167.63L263.13 167.42L285.4 172.73Z" fill="#263238"/>
<path d="M222.471 128.63C222.471 129.421 222.236 130.195 221.797 130.852C221.357 131.51 220.732 132.023 220.001 132.326C219.271 132.628 218.466 132.708 217.69 132.553C216.914 132.399 216.202 132.018 215.642 131.459C215.083 130.899 214.702 130.186 214.548 129.41C214.393 128.635 214.472 127.83 214.775 127.099C215.078 126.368 215.591 125.744 216.248 125.304C216.906 124.865 217.68 124.63 218.471 124.63C219.532 124.63 220.549 125.052 221.299 125.802C222.049 126.552 222.471 127.569 222.471 128.63Z" fill="#263238"/>
<path d="M238.43 128.63C238.43 129.421 238.195 130.195 237.756 130.852C237.316 131.51 236.691 132.023 235.96 132.326C235.23 132.628 234.425 132.708 233.649 132.553C232.873 132.399 232.161 132.018 231.601 131.459C231.042 130.899 230.661 130.186 230.507 129.41C230.352 128.635 230.431 127.83 230.734 127.099C231.037 126.368 231.55 125.744 232.207 125.304C232.865 124.865 233.639 124.63 234.43 124.63C235.491 124.63 236.508 125.052 237.258 125.802C238.008 126.552 238.43 127.569 238.43 128.63Z" fill="#263238"/>
<path d="M254.359 126.63C254.757 127.315 254.943 128.102 254.892 128.893C254.842 129.683 254.558 130.441 254.077 131.07C253.596 131.699 252.939 132.171 252.189 132.426C251.439 132.681 250.63 132.708 249.865 132.503C249.1 132.298 248.413 131.871 247.891 131.275C247.37 130.679 247.036 129.942 246.934 129.156C246.832 128.371 246.965 127.573 247.316 126.863C247.668 126.154 248.222 125.564 248.909 125.17C249.826 124.644 250.914 124.502 251.935 124.775C252.957 125.049 253.828 125.716 254.359 126.63Z" fill="#263238"/>
<path d="M482 442.14C482 442.29 380.34 442.4 255 442.4C129.66 442.4 28 442.29 28 442.14C28 441.99 129.63 441.88 255.05 441.88C380.47 441.88 482 442 482 442.14Z" fill="#263238"/>
<path d="M353.551 442.39C355.897 438.819 359.062 435.86 362.783 433.759C366.503 431.658 370.671 430.476 374.941 430.31C389.551 429.81 396.851 442.39 396.851 442.39H353.551Z" fill="#455A64"/>
<path d="M381.551 442C381.358 441.284 381.214 440.555 381.121 439.82C380.335 436.351 378.267 433.307 375.331 431.3C374.684 430.938 374.06 430.537 373.461 430.1C374.216 430.216 374.936 430.495 375.571 430.92C377.165 431.85 378.531 433.125 379.569 434.651C380.607 436.177 381.291 437.916 381.571 439.74C381.728 440.486 381.721 441.257 381.551 442Z" fill="#263238"/>
<path d="M344.511 441.86V441.76C344.488 440.289 343.886 438.886 342.836 437.855C341.786 436.824 340.373 436.247 338.901 436.25H214.561C213.073 436.25 211.646 436.841 210.594 437.893C209.542 438.945 208.951 440.372 208.951 441.86H344.511Z" fill="#455A64"/>
<path d="M106.471 224C106.471 226.62 108.471 382.78 108.471 382.78L224.471 410.69H234.001L227.901 192.69H219.181L106.471 224Z" fill="#263238"/>
<path d="M131.001 376.29L95.0508 442.17H127.911C122.031 441.59 179.911 442.17 179.911 442.17L127.911 428.38L144.181 391.43L142.791 376.29H131.001Z" fill="#263238"/>
<path d="M131.8 388.45L127.91 265.65L163.23 262.27L167.58 393.38L154.97 394.02L131.8 388.45Z" fill="#263238"/>
<path d="M172.52 398.24C172.52 398.24 172.52 398.05 172.52 397.67C172.52 397.29 172.52 396.72 172.52 395.99C172.52 394.49 172.52 392.3 172.52 389.47C172.52 383.76 172.47 375.47 172.44 365.04C172.44 344.17 172.39 314.8 172.35 280.74L172.6 280.99H130.85L131.11 280.73V286.39C131.11 319.61 131.11 350.52 131.06 376.28V376.33C120.24 396.16 111.27 412.62 104.99 424.12C101.85 429.86 99.3803 434.36 97.6903 437.44C96.8503 438.96 96.2003 440.12 95.7603 440.93C95.3203 441.74 95.0703 442.11 95.0703 442.11C95.0703 442.11 95.2803 441.69 95.7003 440.9C96.1203 440.11 96.7603 438.9 97.5703 437.37C99.2403 434.28 101.67 429.76 104.77 424L130.67 376.12V376.23C130.67 350.47 130.67 319.56 130.67 286.34V280.42H172.85V280.67C172.85 314.73 172.78 344.1 172.76 364.97C172.76 375.39 172.7 383.69 172.68 389.4C172.68 392.23 172.68 394.4 172.68 395.92C172.68 396.65 172.68 397.21 172.68 397.6C172.68 397.99 172.52 398.24 172.52 398.24Z" fill="#455A64"/>
<path d="M144.18 391.43C144.31 391.48 139.31 403.05 133.01 417.25C126.71 431.45 121.49 442.93 121.36 442.87C121.23 442.81 126.23 431.25 132.53 417.04C138.83 402.83 144.05 391.37 144.18 391.43Z" fill="#455A64"/>
<path d="M224.421 410.73C224.421 410.73 224.421 410.54 224.421 410.17C224.421 409.8 224.421 409.23 224.421 408.52C224.421 407.05 224.371 404.92 224.341 402.18C224.341 396.68 224.171 388.72 223.981 378.88C223.611 359.2 222.721 332.03 221.631 302.02C220.541 272.01 219.711 244.81 219.431 225.13C219.281 215.29 219.211 207.32 219.241 201.82C219.241 199.08 219.241 196.95 219.241 195.48C219.241 194.77 219.241 194.23 219.241 193.83C219.241 193.43 219.241 193.27 219.241 193.27C219.241 193.27 219.241 193.46 219.241 193.83C219.241 194.2 219.241 194.77 219.241 195.48C219.241 196.95 219.241 199.08 219.321 201.82C219.321 207.32 219.481 215.28 219.681 225.12C220.111 244.8 221.001 272 222.091 302C223.181 332 224.011 359.19 224.291 378.87C224.441 388.71 224.501 396.68 224.481 402.18C224.481 404.92 224.481 407.05 224.481 408.52C224.481 409.23 224.481 409.78 224.481 410.17C224.481 410.56 224.421 410.73 224.421 410.73Z" fill="#455A64"/>
<path d="M166.192 279.83C166.342 279.83 166.452 305.95 166.452 338.16C166.452 370.37 166.342 396.49 166.192 396.49C166.042 396.49 165.932 370.38 165.932 338.16C165.932 305.94 166.052 279.83 166.192 279.83Z" fill="#455A64"/>
<path d="M103.701 431.89C103.511 431.674 103.344 431.439 103.201 431.19C103.031 430.95 102.841 430.66 102.621 430.33C102.356 429.938 102.116 429.531 101.901 429.11C100.434 426.464 99.3663 423.617 98.7307 420.66C97.8082 416.265 97.5989 411.751 98.1107 407.29C98.7364 401.828 100.2 396.496 102.451 391.48C103.641 388.89 105.164 386.466 106.981 384.27C107.394 383.725 107.838 383.205 108.311 382.71C108.771 382.21 109.211 381.71 109.671 381.23C110.671 380.32 111.541 379.39 112.531 378.6C114.355 377.048 116.298 375.64 118.341 374.39C119.341 373.85 120.251 373.28 121.191 372.83C122.131 372.38 123.021 371.9 123.921 371.58C126.7 370.389 129.637 369.608 132.641 369.26C133.452 369.149 134.271 369.099 135.091 369.11C135.377 369.086 135.664 369.086 135.951 369.11C135.67 369.158 135.386 369.188 135.101 369.2C134.287 369.237 133.475 369.321 132.671 369.45C129.702 369.872 126.805 370.7 124.061 371.91C123.171 372.24 122.311 372.74 121.371 373.17C120.431 373.6 119.531 374.17 118.561 374.75C116.549 376.004 114.636 377.412 112.841 378.96C111.841 379.74 110.971 380.67 110.021 381.57C109.571 382.04 109.131 382.57 108.681 383.03C108.221 383.524 107.787 384.041 107.381 384.58C105.593 386.747 104.094 389.137 102.921 391.69C100.692 396.653 99.232 401.927 98.5906 407.33C98.0598 411.742 98.2285 416.21 99.0906 420.57C99.695 423.506 100.705 426.343 102.091 429C102.29 429.428 102.517 429.842 102.771 430.24L103.301 431.13C103.451 431.374 103.584 431.628 103.701 431.89Z" fill="#455A64"/>
</svg>
