<svg width="24" height="24" viewBox="0 0 24 24" fill="none" xmlns="http://www.w3.org/2000/svg">
<g clip-path="url(#clip0_6338_1552)">
<path d="M12.0443 24.0255C18.4566 24.0255 23.6549 18.8272 23.6549 12.4149C23.6549 6.00247 18.4566 0.804199 12.0443 0.804199C5.63186 0.804199 0.433594 6.00247 0.433594 12.4149C0.433594 18.8272 5.63186 24.0255 12.0443 24.0255Z" fill="#FFD035"/>
<path d="M23.2246 14.1912C24.2047 8.01776 19.9947 2.21861 13.8212 1.23846C7.64778 0.258305 1.84863 4.46832 0.868474 10.6418C-0.111679 16.8152 4.09833 22.6144 10.2718 23.5945C16.4453 24.5747 22.2444 20.3647 23.2246 14.1912Z" fill="#FFCD2D"/>
<path opacity="0.49" d="M20.7651 20.1203C18.6382 22.5161 15.5352 24.0258 12.0794 24.0258C5.66709 24.0258 0.46875 18.8275 0.46875 12.4151C0.46875 9.32818 1.67349 6.52263 3.63826 4.44287C3.63826 4.44287 -0.918944 12.6612 6.1989 19.7789C12.5108 26.0908 20.7651 20.1203 20.7651 20.1203Z" fill="#FFCA1C"/>
<path d="M21.8026 13.9681C22.6605 8.57819 18.9866 3.51328 13.5967 2.65535C8.20674 1.79741 3.14184 5.47132 2.2839 10.8613C1.42596 16.2512 5.09988 21.3161 10.4898 22.174C15.8798 23.032 20.9447 19.3581 21.8026 13.9681Z" fill="#E9B000"/>
<path fill-rule="evenodd" clip-rule="evenodd" d="M11.2681 6.53704C11.0411 6.45595 10.5869 6.12832 10.5869 5.46659C10.6032 5.12599 10.84 4.43507 11.6574 4.39614C12.6792 4.34748 12.8252 5.41793 12.8252 5.46659C12.8252 5.51525 12.8252 6.29376 12.144 6.53704V7.70481C13.0036 7.85078 14.7325 8.62929 14.7714 10.5756C14.7714 11.1092 14.7228 12.0337 13.7983 12.9111H18.5667C18.6478 12.684 18.9754 12.2299 19.6371 12.2299C19.9453 12.2461 20.5908 12.4732 20.7076 13.2517C20.7238 13.6247 20.5324 14.3903 19.6371 14.4681C19.329 14.4681 18.6835 14.3124 18.5667 13.6896H17.7882C17.7882 13.6896 17.4476 15.7332 15.5499 16.2684C14.739 16.4468 12.9225 16.4241 12.144 14.906V18.7013C12.0142 19.0419 11.346 19.4311 9.71113 18.2633C8.90018 17.5011 7.76485 15.5191 9.71113 13.6896H5.75195C5.50866 13.542 5.53636 12.2883 6.54842 11.1594C7.32694 10.3323 9.3608 9.29102 11.2681 11.7433L11.2681 6.53704ZM11.2681 18.0687V13.8842C10.7167 13.9815 9.60408 14.546 9.56515 16.0251C9.59759 16.5928 9.9836 17.7962 11.2681 18.0687ZM8.64067 11.2081C9.96414 11.0913 10.6194 12.2948 10.7816 12.9111H6.59709C6.83064 11.5876 8.05679 11.2243 8.64067 11.2081ZM13.847 10.5756C13.7302 9.17424 12.663 8.69416 12.144 8.62929L12.0467 12.8138C12.6954 12.6516 13.9637 11.9769 13.847 10.5756ZM14.8201 15.4412C13.3799 15.5191 12.7927 14.3059 12.6792 13.6896H16.8637C16.7826 14.241 16.2603 15.3634 14.8201 15.4412Z" fill="#BA8F00"/>
<path fill-rule="evenodd" clip-rule="evenodd" d="M11.1041 6.54194C10.8771 6.46085 10.4229 6.13322 10.4229 5.47148C10.4391 5.13088 10.6759 4.43995 11.4934 4.40102C12.5152 4.35237 12.6612 5.42283 12.6612 5.47148C12.6612 5.52014 12.6612 6.29866 11.98 6.54194V7.70972C12.8396 7.85569 14.5685 8.63421 14.6075 10.5805C14.6074 11.1141 14.5588 12.0386 13.6343 12.916H18.4027C18.4838 12.689 18.8114 12.2348 19.4732 12.2348C19.7813 12.2511 20.4269 12.4781 20.5436 13.2566C20.5599 13.6297 20.3685 14.3952 19.4732 14.4731C19.165 14.4731 18.5195 14.3174 18.4027 13.6946H17.6242C17.6242 13.6946 17.2836 15.7382 15.386 16.2734C14.575 16.4518 12.7585 16.4291 11.98 14.911V18.7063C11.8502 19.0469 11.182 19.4361 9.5471 18.2683C8.73614 17.506 7.60081 15.5241 9.5471 13.6946H5.58788C5.34459 13.547 5.3723 12.2932 6.38437 11.1644C7.16289 10.3372 9.19676 9.29594 11.1041 11.7483L11.1041 6.54194ZM11.1041 18.0737V13.8892C10.5527 13.9865 9.44005 14.5509 9.40112 16.0301C9.43356 16.5978 9.81958 17.8012 11.1041 18.0737ZM8.47664 11.213C9.80011 11.0963 10.4554 12.2997 10.6176 12.916H6.43303C6.66659 11.5926 7.89275 11.2293 8.47664 11.213ZM13.683 10.5805C13.5662 9.17917 12.499 8.69908 11.98 8.63421L11.8826 12.8187C12.5314 12.6565 13.7997 11.9818 13.683 10.5805ZM14.6561 15.4462C13.2159 15.5241 12.6287 14.3109 12.5152 13.6946H16.6997C16.6186 14.246 16.0964 15.3684 14.6561 15.4462Z" fill="#FFCD2D"/>
<g opacity="0.17">
<mask id="mask0_6338_1552" style="mask-type:luminance" maskUnits="userSpaceOnUse" x="5" y="4" width="16" height="16">
<path fill-rule="evenodd" clip-rule="evenodd" d="M11.1041 6.53706C10.8771 6.45596 10.4229 6.12834 10.4229 5.4666C10.4391 5.126 10.6759 4.43507 11.4934 4.39614C12.5152 4.34748 12.6612 5.41794 12.6612 5.4666C12.6612 5.51526 12.6612 6.29377 11.98 6.53706V7.70483C12.8396 7.85081 14.5685 8.62932 14.6075 10.5756C14.6074 11.1092 14.5588 12.0337 13.6343 12.9112H18.4027C18.4838 12.6841 18.8114 12.23 19.4732 12.23C19.7813 12.2462 20.4269 12.4732 20.5436 13.2518C20.5599 13.6248 20.3685 14.3903 19.4732 14.4682C19.165 14.4682 18.5195 14.3125 18.4027 13.6897H17.6242C17.6242 13.6897 17.2836 15.7333 15.386 16.2685C14.575 16.4469 12.7585 16.4242 11.98 14.9061V18.7014C11.8502 19.042 11.182 19.4312 9.5471 18.2635C8.73614 17.5012 7.60081 15.5192 9.5471 13.6897H5.58788C5.34459 13.5421 5.3723 12.2883 6.38437 11.1595C7.16289 10.3323 9.19676 9.29106 11.1041 11.7434L11.1041 6.53706ZM11.1041 18.0688V13.8843C10.5527 13.9816 9.44005 14.546 9.40112 16.0252C9.43356 16.5929 9.81958 17.7963 11.1041 18.0688ZM8.47664 11.2082C9.80011 11.0914 10.4554 12.2948 10.6176 12.9112H6.43303C6.66659 11.5877 7.89275 11.2244 8.47664 11.2082ZM13.683 10.5756C13.5662 9.17428 12.499 8.6942 11.98 8.62932L11.8826 12.8138C12.5314 12.6517 13.7997 11.9769 13.683 10.5756ZM14.6561 15.4413C13.2159 15.5192 12.6287 14.306 12.5152 13.6897H16.6997C16.6186 14.2411 16.0964 15.3635 14.6561 15.4413Z" fill="white"/>
</mask>
<g mask="url(#mask0_6338_1552)">
<path d="M8.21625 20.1939L7.41941 19.8637C7.07281 19.7202 6.90835 19.3228 7.05189 18.9764L12.8401 5.00535C12.9836 4.65875 13.381 4.49429 13.7274 4.63783L14.5243 4.96804C14.8707 5.11158 15.0353 5.50895 14.8918 5.85538L9.10359 19.8265C8.96005 20.173 8.56268 20.3374 8.21625 20.1939Z" fill="white"/>
</g>
<mask id="mask1_6338_1552" style="mask-type:luminance" maskUnits="userSpaceOnUse" x="5" y="4" width="16" height="16">
<path fill-rule="evenodd" clip-rule="evenodd" d="M11.1901 6.53706C10.963 6.45596 10.5089 6.12834 10.5089 5.4666C10.5251 5.126 10.7619 4.43507 11.5793 4.39614C12.6011 4.34748 12.7471 5.41794 12.7471 5.4666C12.7471 5.51526 12.7471 6.29377 12.0659 6.53706V7.70483C12.9255 7.85081 14.6545 8.62932 14.6934 10.5756C14.6934 11.1092 14.6447 12.0337 13.7202 12.9112H18.4887C18.5698 12.6841 18.8974 12.23 19.5591 12.23C19.8673 12.2462 20.5128 12.4732 20.6296 13.2518C20.6458 13.6248 20.4544 14.3903 19.5591 14.4682C19.251 14.4682 18.6054 14.3125 18.4887 13.6897H17.7101C17.7101 13.6897 17.3695 15.7333 15.4719 16.2685C14.661 16.4469 12.8444 16.4242 12.0659 14.9061V18.7014C11.9361 19.042 11.2679 19.4312 9.63303 18.2635C8.82208 17.5012 7.68674 15.5192 9.63303 13.6897H5.67382C5.43053 13.5421 5.45824 12.2883 6.47031 11.1595C7.24882 10.3323 9.2827 9.29106 11.1901 11.7434L11.1901 6.53706ZM11.1901 18.0688V13.8843C10.6386 13.9816 9.52599 14.546 9.48706 16.0252C9.5195 16.5929 9.90551 17.7963 11.1901 18.0688ZM8.56257 11.2082C9.88605 11.0914 10.5413 12.2948 10.7035 12.9112H6.51897C6.75252 11.5877 7.97869 11.2244 8.56257 11.2082ZM13.7689 10.5756C13.6521 9.17428 12.5849 8.6942 12.0659 8.62932L11.9686 12.8138C12.6173 12.6517 13.8857 11.9769 13.7689 10.5756ZM14.742 15.4413C13.3018 15.5192 12.7147 14.306 12.6011 13.6897H16.7856C16.7046 14.2411 16.1823 15.3635 14.742 15.4413Z" fill="white"/>
</mask>
<g mask="url(#mask1_6338_1552)">
<path d="M4.98851 18.8555L4.78221 18.77C4.50713 18.656 4.37641 18.3405 4.49043 18.0655L10.3859 3.83592C10.4999 3.56084 10.8153 3.43012 11.0904 3.54414L11.2967 3.62961C11.5718 3.74363 11.7025 4.05909 11.5885 4.33416L5.69306 18.5637C5.5792 18.8388 5.26375 18.9693 4.98851 18.8555Z" fill="white"/>
</g>
</g>
<path d="M21.8417 13.9681C22.6996 8.57819 19.0257 3.51328 13.6357 2.65535C8.2458 1.79741 3.1809 5.47132 2.32296 10.8613C1.46503 16.2512 5.13894 21.3161 10.5289 22.174C15.9188 23.032 20.9837 19.3581 21.8417 13.9681Z" stroke="#C99A00" stroke-width="0.366941" stroke-miterlimit="10"/>
<path opacity="0.29" d="M12.963 21.6553C7.36451 21.6553 2.82628 17.117 2.82628 11.5187C2.82628 9.63921 3.33848 7.87945 4.22987 6.37061C2.93544 8.04181 2.16406 10.1384 2.16406 12.4159C2.16406 17.8736 6.58827 22.2978 12.0459 22.2978C14.0318 22.2978 15.8809 21.7119 17.4298 20.7038C17.4298 20.7038 17.3333 20.7219 17.1604 20.7479C15.8814 21.3305 14.4601 21.6553 12.963 21.6553Z" fill="#B68C00"/>
<path opacity="0.36" d="M11.2027 3.26372C16.7342 3.26372 21.2184 7.74793 21.2184 13.2794C21.2184 15.1365 20.7124 16.8751 19.8315 18.366C21.1106 16.7147 21.8727 14.6431 21.8727 12.3929C21.8727 7.0004 17.5012 2.62891 12.1087 2.62891C10.1465 2.62891 8.31948 3.20776 6.78906 4.20393C6.78906 4.20393 6.88443 4.18593 7.05522 4.1603C8.319 3.58469 9.72323 3.26372 11.2027 3.26372Z" fill="#FFD64F"/>
</g>
<defs>
<clipPath id="clip0_6338_1552">
<rect width="24" height="24" fill="white"/>
</clipPath>
</defs>
</svg>
