<svg width="199" height="207" viewBox="0 0 199 207" fill="none" xmlns="http://www.w3.org/2000/svg">
<path d="M101.078 172.043C140.615 172.043 172.665 139.992 172.665 100.456C172.665 60.9196 140.615 28.869 101.078 28.869C61.542 28.869 29.4915 60.9196 29.4915 100.456C29.4915 139.992 61.542 172.043 101.078 172.043Z" fill="#DBA800"/>
<path d="M169.996 111.406C176.04 73.3425 150.082 37.587 112.019 31.5438C73.9558 25.5005 38.2004 51.4579 32.1571 89.5212C26.1139 127.584 52.0712 163.34 90.1345 169.383C128.198 175.426 163.953 149.469 169.996 111.406Z" fill="#FFC200"/>
<g opacity="0.3">
<mask id="mask0_1155_2607" style="mask-type:luminance" maskUnits="userSpaceOnUse" x="21" y="41" width="145" height="144">
<path d="M66.1322 178.814C102.656 193.948 144.533 176.609 159.668 140.085C174.802 103.562 157.463 61.6843 120.939 46.5497C84.4155 31.4152 42.5382 48.7546 27.4036 85.2783C12.2691 121.802 29.6085 163.679 66.1322 178.814Z" fill="white"/>
</mask>
<g mask="url(#mask0_1155_2607)">
<path d="M101.608 21.1828L88.6094 15.7964L38.8621 135.85L48 148L101.608 21.1828Z" fill="white"/>
</g>
<mask id="mask1_1155_2607" style="mask-type:luminance" maskUnits="userSpaceOnUse" x="33" y="23" width="144" height="144">
<path d="M77.8198 161.36C114.347 176.495 156.228 159.152 171.362 122.624C186.497 86.0966 169.154 44.2161 132.627 29.0815C96.0991 13.947 54.2186 31.2896 39.084 67.8173C23.9495 104.345 41.2921 146.225 77.8198 161.36Z" fill="white"/>
</mask>
<g mask="url(#mask1_1155_2607)">
<path d="M147 47.5L135 39.5L81.5144 173.644L94.5146 179.031L147 47.5Z" fill="white"/>
</g>
<mask id="mask2_1155_2607" style="mask-type:luminance" maskUnits="userSpaceOnUse" x="27" y="32" width="145" height="144">
<path d="M72.0365 169.979C108.56 185.113 150.438 167.774 165.572 131.25C180.707 94.7264 163.367 52.8491 126.844 37.7145C90.3198 22.58 48.4425 39.9194 33.3079 76.4431C18.1734 112.967 35.5128 154.844 72.0365 169.979Z" fill="white"/>
</mask>
<g mask="url(#mask2_1155_2607)">
<path d="M133.624 34.4495L106.904 23.3774L54.0469 154.588L65.5 162.5L79.7669 168.661L133.624 34.4495Z" fill="white"/>
</g>
</g>
<path opacity="0.49" d="M154.846 147.963C141.732 162.735 122.6 172.043 101.293 172.043C61.7573 172.043 29.7063 139.992 29.7063 100.456C29.7063 81.423 37.1343 64.125 49.2483 51.302C49.2483 51.302 21.1503 101.973 65.0363 145.858C103.953 184.775 154.846 147.963 154.846 147.963Z" fill="#D6A400"/>
<path d="M161.256 110.031C166.546 76.799 143.894 45.5707 110.661 40.281C77.4289 34.9913 46.2006 57.6432 40.9109 90.8756C35.6212 124.108 58.2732 155.336 91.5055 160.626C124.738 165.916 155.966 143.264 161.256 110.031Z" fill="#D4A000"/>
<g opacity="0.14">
<mask id="mask3_1155_2607" style="mask-type:luminance" maskUnits="userSpaceOnUse" x="35" y="46" width="123" height="123">
<path d="M148.669 139.128C166.277 110.453 157.306 72.9328 128.63 55.3248C99.9553 37.7168 62.4354 46.6885 44.8274 75.3636C27.2194 104.039 36.1911 141.559 64.8663 159.167C93.5414 176.775 131.061 167.803 148.669 139.128Z" fill="white"/>
</mask>
<g mask="url(#mask3_1155_2607)">
<path d="M114.142 31.6749L102.159 26.7093L49.7426 153.203L61.7262 158.169L114.142 31.6749Z" fill="white"/>
</g>
<mask id="mask4_1155_2607" style="mask-type:luminance" maskUnits="userSpaceOnUse" x="46" y="30" width="123" height="123">
<path d="M159.436 123.018C177.044 94.3428 168.073 56.8229 139.398 39.2149C110.722 21.6069 73.2025 30.5786 55.5945 59.2538C37.9865 87.9289 46.9582 125.449 75.6333 143.057C104.308 160.665 141.828 151.693 159.436 123.018Z" fill="white"/>
</mask>
<g mask="url(#mask4_1155_2607)">
<path d="M160.009 50.6809L148.025 45.7152L95.6094 172.209L107.593 177.175L160.009 50.6809Z" fill="white"/>
</g>
<mask id="mask5_1155_2607" style="mask-type:luminance" maskUnits="userSpaceOnUse" x="41" y="38" width="123" height="123">
<path d="M154.113 130.983C171.721 102.308 162.749 64.7877 134.074 47.1797C105.399 29.5717 67.8787 38.5434 50.2708 67.2185C32.6628 95.8937 41.6345 133.414 70.3096 151.022C98.9848 168.63 136.505 159.658 154.113 130.983Z" fill="white"/>
</mask>
<g mask="url(#mask5_1155_2607)">
<path d="M143.657 43.9056L119.024 33.6982L66.6081 160.192L91.2413 170.4L143.657 43.9056Z" fill="white"/>
</g>
</g>
<path fillRule="evenodd" clipRule="evenodd" d="M96.2935 64.2099C94.8935 63.7099 92.0935 61.6899 92.0935 57.6099C92.1935 55.5099 93.6535 51.2499 98.6935 51.0099C104.994 50.7099 105.894 57.3099 105.894 57.6099C105.894 57.9099 105.894 62.7099 101.694 64.2099V71.4099C106.994 72.3099 117.654 77.1099 117.894 89.1099C117.894 92.4 117.594 98.1 111.894 103.51H141.294C141.794 102.11 143.814 99.3099 147.894 99.3099C149.794 99.4099 153.774 100.81 154.494 105.61C154.594 107.91 153.414 112.63 147.894 113.11C145.994 113.11 142.014 112.15 141.294 108.31H136.494C136.494 108.31 134.394 120.91 122.694 124.21C117.694 125.31 106.494 125.17 101.694 115.81V139.21C100.894 141.31 96.7735 143.71 86.6935 136.51C81.6935 131.81 74.6935 119.59 86.6935 108.31H62.2827C60.7827 107.4 60.9535 99.6699 67.1935 92.7099C71.9935 87.6099 84.5335 81.1899 96.2935 96.3099L96.2935 64.2099ZM96.2935 135.31V109.51C92.8935 110.11 86.0335 113.59 85.7935 122.71C85.9935 126.21 88.3735 133.63 96.2935 135.31ZM80.0935 93.0099C88.2535 92.2899 92.2935 99.7099 93.2935 103.51H67.4935C68.9335 95.3499 76.4935 93.1099 80.0935 93.0099ZM112.194 89.1099C111.474 80.4699 104.894 77.5099 101.694 77.1099L101.094 102.91C105.094 101.91 112.914 97.7499 112.194 89.1099ZM118.194 119.11C109.314 119.59 105.694 112.11 104.994 108.31H130.794C130.294 111.71 127.074 118.63 118.194 119.11Z" fill="#AD8500"/>
<path fillRule="evenodd" clipRule="evenodd" d="M95.2938 64.2385C93.8938 63.7385 91.0938 61.7185 91.0938 57.6385C91.1938 55.5385 92.6538 51.2784 97.6938 51.0384C103.994 50.7384 104.894 57.3385 104.894 57.6385C104.894 57.9385 104.894 62.7385 100.694 64.2385V71.4386C105.994 72.3386 116.654 77.1386 116.894 89.1387C116.894 92.4288 116.594 98.1289 110.894 103.539H140.294C140.794 102.139 142.814 99.3388 146.894 99.3388C148.794 99.4388 152.774 100.839 153.494 105.639C153.594 107.939 152.414 112.659 146.894 113.139C144.994 113.139 141.014 112.179 140.294 108.339H135.494C135.494 108.339 133.394 120.939 121.694 124.239C116.694 125.339 105.494 125.199 100.694 115.839V139.239C99.8938 141.339 95.7738 143.739 85.6937 136.539C80.6937 131.839 73.6936 119.619 85.6937 108.339H61.2827C59.7827 107.429 59.9535 99.6988 66.1935 92.7388C70.9936 87.6387 83.5337 81.2187 95.2938 96.3388L95.2938 64.2385ZM95.2938 135.339V109.539C91.8938 110.139 85.0337 113.619 84.7937 122.739C84.9937 126.239 87.3737 133.659 95.2938 135.339ZM79.0937 93.0388C87.2537 92.3188 91.2938 99.7388 92.2938 103.539H66.4936C67.9336 95.3788 75.4936 93.1388 79.0937 93.0388ZM111.194 89.1387C110.474 80.4987 103.894 77.5386 100.694 77.1386L100.094 102.939C104.094 101.939 111.914 97.7788 111.194 89.1387ZM117.194 119.139C108.314 119.619 104.694 112.139 103.994 108.339H129.794C129.294 111.739 126.074 118.659 117.194 119.139Z" fill="#FFC200"/>
<g opacity="0.17">
<mask id="mask6_1155_2607" style="mask-type:luminance" maskUnits="userSpaceOnUse" x="60" y="51" width="94" height="91">
<path fillRule="evenodd" clipRule="evenodd" d="M95.2938 64.21C93.8938 63.71 91.0938 61.69 91.0938 57.61C91.1938 55.51 92.6538 51.2499 97.6938 51.0099C103.994 50.7099 104.894 57.31 104.894 57.61C104.894 57.91 104.894 62.71 100.694 64.21V71.4101C105.994 72.3101 116.654 77.1101 116.894 89.1102C116.894 92.4003 116.594 98.1004 110.894 103.51H140.294C140.794 102.11 142.814 99.3103 146.894 99.3103C148.794 99.4103 152.774 100.81 153.494 105.61C153.594 107.91 152.414 112.63 146.894 113.11C144.994 113.11 141.014 112.15 140.294 108.31H135.494C135.494 108.31 133.394 120.91 121.694 124.211C116.694 125.311 105.494 125.171 100.694 115.81V139.211C99.8938 141.311 95.7738 143.711 85.6937 136.511C80.6937 131.811 73.6936 119.59 85.6937 108.31H61.2827C59.7827 107.4 59.9535 99.6703 66.1935 92.7103C70.9936 87.6102 83.5337 81.1902 95.2938 96.3103L95.2938 64.21ZM95.2938 135.311V109.51C91.8938 110.11 85.0337 113.59 84.7937 122.711C84.9937 126.211 87.3737 133.631 95.2938 135.311ZM79.0937 93.0103C87.2537 92.2903 91.2938 99.7103 92.2938 103.51H66.4936C67.9336 95.3503 75.4936 93.1103 79.0937 93.0103ZM111.194 89.1102C110.474 80.4702 103.894 77.5101 100.694 77.1101L100.094 102.91C104.094 101.91 111.914 97.7503 111.194 89.1102ZM117.194 119.11C108.314 119.59 104.694 112.11 103.994 108.31H129.794C129.294 111.71 126.074 118.63 117.194 119.11Z" fill="white"/>
</mask>
<g mask="url(#mask6_1155_2607)">
<path d="M77.4823 148.412L72.5693 146.376C70.4323 145.491 69.4183 143.041 70.3033 140.905L105.991 54.765C106.876 52.628 109.326 51.614 111.462 52.499L116.375 54.535C118.511 55.42 119.526 57.87 118.641 60.006L82.9533 146.147C82.0683 148.283 79.6183 149.297 77.4823 148.412Z" fill="white"/>
</g>
<mask id="mask7_1155_2607" style="mask-type:luminance" maskUnits="userSpaceOnUse" x="60" y="51" width="93" height="91">
<path fillRule="evenodd" clipRule="evenodd" d="M94.7938 64.21C93.3938 63.71 90.5938 61.69 90.5938 57.61C90.6938 55.51 92.1538 51.2499 97.1938 51.0099C103.494 50.7099 104.394 57.31 104.394 57.61C104.394 57.91 104.394 62.71 100.194 64.21V71.4101C105.494 72.3101 116.154 77.1101 116.394 89.1102C116.394 92.4003 116.094 98.1004 110.394 103.51H139.794C140.294 102.11 142.314 99.3103 146.394 99.3103C148.294 99.4103 152.274 100.81 152.994 105.61C153.094 107.91 151.914 112.63 146.394 113.11C144.494 113.11 140.514 112.15 139.794 108.31H134.994C134.994 108.31 132.894 120.91 121.194 124.211C116.194 125.311 104.994 125.171 100.194 115.81V139.211C99.3938 141.311 95.2738 143.711 85.1937 136.511C80.1937 131.811 73.1936 119.59 85.1937 108.31H60.7827C59.2827 107.4 59.4535 99.6703 65.6935 92.7103C70.4936 87.6102 83.0337 81.1902 94.7938 96.3103L94.7938 64.21ZM94.7938 135.311V109.51C91.3938 110.11 84.5337 113.59 84.2937 122.711C84.4937 126.211 86.8737 133.631 94.7938 135.311ZM78.5937 93.0103C86.7537 92.2903 90.7938 99.7103 91.7938 103.51H65.9936C67.4336 95.3503 74.9936 93.1103 78.5937 93.0103ZM110.694 89.1102C109.974 80.4702 103.394 77.5101 100.194 77.1101L99.5938 102.91C103.594 101.91 111.414 97.7503 110.694 89.1102ZM116.694 119.11C107.814 119.59 104.194 112.11 103.494 108.31H129.294C128.794 111.71 125.574 118.63 116.694 119.11Z" fill="white"/>
</mask>
<g mask="url(#mask7_1155_2607)">
<path d="M91.7433 150.657L90.4713 150.13C88.7753 149.427 87.9693 147.482 88.6723 145.786L125.021 58.052C125.724 56.356 127.669 55.55 129.365 56.253L130.637 56.78C132.333 57.483 133.139 59.428 132.436 61.124L96.0873 148.858C95.3843 150.555 93.4393 151.36 91.7433 150.657Z" fill="white"/>
</g>
<mask id="mask8_1155_2607" style="mask-type:luminance" maskUnits="userSpaceOnUse" x="61" y="51" width="93" height="91">
<path fillRule="evenodd" clipRule="evenodd" d="M95.7938 64.21C94.3938 63.71 91.5938 61.69 91.5938 57.61C91.6938 55.51 93.1538 51.2499 98.1938 51.0099C104.494 50.7099 105.394 57.31 105.394 57.61C105.394 57.91 105.394 62.71 101.194 64.21V71.4101C106.494 72.3101 117.154 77.1101 117.394 89.1102C117.394 92.4003 117.094 98.1004 111.394 103.51H140.794C141.294 102.11 143.314 99.3103 147.394 99.3103C149.294 99.4103 153.274 100.81 153.994 105.61C154.094 107.91 152.914 112.63 147.394 113.11C145.494 113.11 141.514 112.15 140.794 108.31H135.994C135.994 108.31 133.894 120.91 122.194 124.211C117.194 125.311 105.994 125.171 101.194 115.81V139.211C100.394 141.311 96.2738 143.711 86.1937 136.511C81.1937 131.811 74.1936 119.59 86.1937 108.31H61.7827C60.2827 107.4 60.4535 99.6703 66.6935 92.7103C71.4936 87.6102 84.0337 81.1902 95.7938 96.3103L95.7938 64.21ZM95.7938 135.311V109.51C92.3938 110.11 85.5337 113.59 85.2937 122.711C85.4937 126.211 87.8737 133.631 95.7938 135.311ZM79.5937 93.0103C87.7537 92.2903 91.7938 99.7103 92.7938 103.51H66.9936C68.4336 95.3503 75.9936 93.1103 79.5937 93.0103ZM111.694 89.1102C110.974 80.4702 104.394 77.5101 101.194 77.1101L100.594 102.91C104.594 101.91 112.414 97.7503 111.694 89.1102ZM117.694 119.11C108.814 119.59 105.194 112.11 104.494 108.31H130.294C129.794 111.71 126.574 118.63 117.694 119.11Z" fill="white"/>
</mask>
<g mask="url(#mask8_1155_2607)">
<path d="M57.5602 140.159L56.2882 139.632C54.5922 138.929 53.7862 136.984 54.4892 135.288L90.8382 47.554C91.5412 45.858 93.4862 45.052 95.1822 45.755L96.4542 46.282C98.1502 46.985 98.9562 48.93 98.2532 50.626L61.9042 138.36C61.2022 140.056 59.2572 140.861 57.5602 140.159Z" fill="white"/>
</g>
</g>
<path d="M161.47 110.031C166.76 76.7987 144.108 45.5704 110.876 40.2807C77.6435 34.9909 46.4152 57.6429 41.1255 90.8753C35.8358 124.108 58.4878 155.336 91.7201 160.626C124.952 165.915 156.181 143.263 161.47 110.031Z" stroke="#BA8F00" stroke-width="2.162" stroke-miterlimit="10"/>
<path opacity="0.29" d="M106.733 157.424C72.2154 157.424 44.2344 129.442 44.2344 94.925C44.2344 83.337 47.3924 72.487 52.8884 63.184C44.9074 73.488 40.1514 86.415 40.1514 100.457C40.1514 134.107 67.4294 161.385 101.079 161.385C113.323 161.385 124.724 157.773 134.274 151.557C134.274 151.557 133.679 151.669 132.613 151.829C124.727 155.421 115.964 157.424 106.733 157.424Z" fill="#876800"/>
<path opacity="0.36" d="M95.8724 44.027C129.977 44.027 157.625 71.675 157.625 105.78C157.625 117.23 154.505 127.95 149.074 137.142C156.96 126.961 161.659 114.188 161.659 100.314C161.659 67.066 134.706 40.113 101.458 40.113C89.3604 40.113 78.0954 43.682 68.6594 49.824C68.6594 49.824 69.2474 49.713 70.3004 49.555C78.0924 46.006 86.7504 44.027 95.8724 44.027Z" fill="#FFD64F"/>
</svg>
