<svg width="15" height="15" viewBox="0 0 15 15" fill="none" xmlns="http://www.w3.org/2000/svg">
<path d="M12.0507 11.3871C12.0942 11.4307 12.1288 11.4824 12.1523 11.5393C12.1759 11.5962 12.188 11.6572 12.188 11.7188C12.188 11.7804 12.1759 11.8413 12.1523 11.8983C12.1288 11.9552 12.0942 12.0069 12.0507 12.0504C12.0071 12.094 11.9554 12.1285 11.8985 12.1521C11.8416 12.1756 11.7806 12.1878 11.719 12.1878C11.6574 12.1878 11.5964 12.1756 11.5395 12.1521C11.4826 12.1285 11.4309 12.094 11.3874 12.0504L7.50026 8.16271L3.61315 12.0504C3.52519 12.1384 3.4059 12.1878 3.28151 12.1878C3.15712 12.1878 3.03783 12.1384 2.94987 12.0504C2.86191 11.9625 2.8125 11.8432 2.8125 11.7188C2.8125 11.5944 2.86191 11.4751 2.94987 11.3871L6.83757 7.50002L2.94987 3.61291C2.86191 3.52495 2.8125 3.40566 2.8125 3.28127C2.8125 3.15688 2.86191 3.03758 2.94987 2.94963C3.03783 2.86167 3.15712 2.81226 3.28151 2.81226C3.4059 2.81226 3.52519 2.86167 3.61315 2.94963L7.50026 6.83732L11.3874 2.94963C11.4753 2.86167 11.5946 2.81226 11.719 2.81226C11.8434 2.81226 11.9627 2.86167 12.0507 2.94963C12.1386 3.03758 12.188 3.15688 12.188 3.28127C12.188 3.40566 12.1386 3.52495 12.0507 3.61291L8.16296 7.50002L12.0507 11.3871Z" fill="black"/>
</svg>
