<svg width="38" height="39" viewBox="0 0 38 39" fill="none" xmlns="http://www.w3.org/2000/svg">
<path fillRule="evenodd" clipRule="evenodd" d="M18.9998 34.9618C27.3945 34.9618 34.1998 28.1565 34.1998 19.7618C34.1998 11.367 27.3945 4.56177 18.9998 4.56177C10.6051 4.56177 3.7998 11.367 3.7998 19.7618C3.7998 28.1565 10.6051 34.9618 18.9998 34.9618ZM13.2998 17.8618C14.3491 17.8618 15.1998 17.0111 15.1998 15.9618C15.1998 14.9124 14.3491 14.0618 13.2998 14.0618C12.2505 14.0618 11.3998 14.9124 11.3998 15.9618C11.3998 17.0111 12.2505 17.8618 13.2998 17.8618ZM26.5998 15.9618C26.5998 17.0111 25.7491 17.8618 24.6998 17.8618C23.6505 17.8618 22.7998 17.0111 22.7998 15.9618C22.7998 14.9124 23.6505 14.0618 24.6998 14.0618C25.7491 14.0618 26.5998 14.9124 26.5998 15.9618ZM25.7173 26.4791C26.4593 25.7371 26.4593 24.5341 25.7173 23.7921C24.9753 23.0501 23.7723 23.0501 23.0303 23.7921C20.8043 26.0181 17.1953 26.0181 14.9693 23.7921C14.2273 23.0501 13.0243 23.0501 12.2823 23.7921C11.5403 24.5341 11.5403 25.7371 12.2823 26.4791C15.9923 30.1891 22.0073 30.1891 25.7173 26.4791Z" fill="#0555C8"/>
</svg>
