<svg width="500" height="500" viewBox="0 0 500 500" fill="none" xmlns="http://www.w3.org/2000/svg">
<path d="M70.3086 158.529C41.8421 158.529 18.7656 135.452 18.7656 106.986C18.7656 78.5196 41.8421 55.443 70.3086 55.443C98.775 55.443 121.852 78.5196 121.852 106.986C121.852 135.452 98.775 158.529 70.3086 158.529Z" fill="#F5F5F5"/>
<path d="M51.5634 105.999C53.1404 109.407 52.3254 113.138 49.7444 114.333C47.1624 115.527 43.7914 113.733 42.2154 110.325C40.6384 106.917 41.4534 103.186 44.0344 101.992C46.6154 100.797 49.9864 102.591 51.5634 105.999Z" fill="#E0E0E0"/>
<path d="M90.4384 88.011C92.0154 91.419 91.2004 95.15 88.6194 96.344C86.0384 97.538 82.6674 95.744 81.0904 92.336C79.5134 88.928 80.3284 85.197 82.9094 84.002C85.4904 82.808 88.8614 84.603 90.4384 88.011Z" fill="#E0E0E0"/>
<path d="M86.9783 100.692C91.3613 110.166 87.6893 121.189 78.7753 125.313C69.8613 129.437 59.0823 125.1 54.6983 115.627L86.9783 100.692Z" fill="#E0E0E0"/>
<path d="M86.0078 118.908C86.0078 118.908 80.9418 116.319 75.7288 118.731C70.5158 121.143 69.1898 126.689 69.1898 126.689C69.1898 126.689 79.4178 128.253 86.0078 118.908Z" fill="#EBEBEB"/>
<path d="M353.228 151.993H462.991C467.026 151.993 470.297 148.722 470.297 144.687V114.494C470.297 110.459 467.026 107.188 462.991 107.188H353.228C349.193 107.188 345.922 110.459 345.922 114.494V144.687C345.922 148.723 349.193 151.993 353.228 151.993Z" fill="#F5F5F5"/>
<path d="M449.081 137.537C444.565 137.537 440.904 133.876 440.904 129.36C440.904 124.844 444.565 121.183 449.081 121.183C453.597 121.183 457.258 124.844 457.258 129.36C457.258 133.876 453.597 137.537 449.081 137.537Z" fill="#E0E0E0"/>
<path d="M370.542 125.559H435.227V129.361H370.542V125.559Z" fill="#E0E0E0"/>
<path d="M409.125 132.268H435.227V136.07H409.125V132.268Z" fill="#E0E0E0"/>
<path d="M47.8529 288.903H157.616C161.651 288.903 164.922 285.632 164.922 281.597V251.404C164.922 247.369 161.651 244.098 157.616 244.098H47.8529C43.8179 244.098 40.5469 247.369 40.5469 251.404V281.597C40.5469 285.632 43.8179 288.903 47.8529 288.903Z" fill="#F5F5F5"/>
<path d="M143.706 274.447C139.19 274.447 135.529 270.786 135.529 266.27C135.529 261.754 139.19 258.093 143.706 258.093C148.222 258.093 151.883 261.754 151.883 266.27C151.883 270.786 148.222 274.447 143.706 274.447Z" fill="#E0E0E0"/>
<path d="M65.1665 262.468H129.852V266.27H65.1665V262.468Z" fill="#E0E0E0"/>
<path d="M103.75 269.177H129.852V272.979H103.75V269.177Z" fill="#E0E0E0"/>
<path d="M460.777 268.59L454.594 271.775C453.899 272.133 453.071 272.126 452.382 271.756L446.253 268.468C444.517 267.537 442.467 269 442.784 270.944L443.902 277.809C444.028 278.581 443.765 279.366 443.201 279.907L438.18 284.72C436.758 286.083 437.516 288.485 439.463 288.785L446.337 289.843C447.11 289.962 447.775 290.454 448.115 291.158L451.14 297.42C451.997 299.194 454.516 299.215 455.402 297.456L458.533 291.245C458.885 290.546 459.558 290.066 460.333 289.96L467.224 289.018C469.176 288.751 469.974 286.362 468.575 284.975L463.636 280.079C463.08 279.528 462.831 278.739 462.97 277.97L464.203 271.125C464.554 269.186 462.529 267.688 460.777 268.59Z" fill="#E0E0E0"/>
<path d="M163.812 149.051L160.873 151.893C160.542 152.213 160.076 152.349 159.625 152.258L155.617 151.448C154.482 151.219 153.576 152.39 154.085 153.431L155.88 157.105C156.082 157.518 156.068 158.004 155.842 158.405L153.833 161.966C153.264 162.975 154.099 164.198 155.246 164.036L159.295 163.464C159.75 163.4 160.208 163.564 160.519 163.902L163.285 166.913C164.069 167.766 165.49 167.35 165.69 166.209L166.397 162.182C166.476 161.729 166.774 161.344 167.192 161.153L170.91 159.452C171.963 158.97 172.007 157.49 170.984 156.947L167.372 155.03C166.966 154.814 166.692 154.413 166.639 153.956L166.171 149.894C166.038 148.745 164.644 148.246 163.812 149.051Z" fill="#E0E0E0"/>
<path d="M427.995 46.428L423.523 50.753C423.02 51.239 422.31 51.447 421.624 51.309L415.526 50.077C413.799 49.728 412.421 51.511 413.195 53.094L415.926 58.684C416.233 59.313 416.211 60.052 415.868 60.662L412.812 66.081C411.946 67.616 413.216 69.477 414.961 69.23L421.121 68.36C421.814 68.262 422.511 68.511 422.984 69.027L427.193 73.608C428.385 74.906 430.548 74.273 430.853 72.537L431.929 66.409C432.05 65.72 432.502 65.134 433.139 64.843L438.797 62.255C440.399 61.522 440.466 59.27 438.909 58.444L433.414 55.527C432.796 55.199 432.379 54.588 432.299 53.893L431.586 47.713C431.383 45.962 429.261 45.203 427.995 46.428Z" fill="#E0E0E0"/>
<path d="M41.5555 444.434C41.5555 444.578 137.572 444.694 255.987 444.694C374.443 444.694 470.438 444.577 470.438 444.434C470.438 444.291 374.443 444.174 255.987 444.174C137.572 444.174 41.5555 444.291 41.5555 444.434Z" fill="#424242"/>
<path d="M223.38 49.185L365.36 49.104C382.446 49.095 396.302 62.522 396.305 79.091L396.375 424.28C396.378 440.84 382.542 454.27 365.466 454.278L223.487 454.36C206.401 454.37 192.545 440.943 192.542 424.373L192.472 79.183C192.467 62.624 206.304 49.194 223.38 49.185Z" fill="#424242"/>
<path d="M223.534 61.395L251.061 61.379L331.455 61.333L341.136 61.327L365.229 61.313C377.194 61.307 386.899 70.812 386.901 82.542L386.969 423.116C386.971 434.84 377.281 444.347 365.322 444.354L223.626 444.435C211.661 444.442 201.957 434.937 201.954 423.207L201.886 82.632C201.885 70.908 211.575 61.402 223.534 61.395Z" fill="white"/>
<path d="M223.531 61.395C223.531 61.395 223.291 61.398 222.816 61.417C222.577 61.427 222.281 61.44 221.929 61.455C221.574 61.461 221.163 61.489 220.7 61.572C220.235 61.641 219.713 61.717 219.136 61.803C218.569 61.944 217.948 62.099 217.273 62.267C216.606 62.464 215.905 62.742 215.142 63.005C214.415 63.354 213.609 63.676 212.817 64.137C211.203 65.013 209.545 66.254 207.93 67.841C206.315 69.43 204.848 71.48 203.72 73.917C202.599 76.354 201.864 79.215 201.811 82.314C201.803 85.397 201.794 88.68 201.785 92.157C201.771 119.975 201.751 160.22 201.726 209.949C201.72 259.682 201.713 318.897 201.705 384.648C201.705 392.867 201.705 401.188 201.705 409.606C201.705 413.815 201.705 418.047 201.705 422.304C201.684 423.362 201.77 424.45 201.837 425.523C202.004 426.59 202.137 427.665 202.456 428.703C203.018 430.789 203.876 432.816 205.083 434.629C207.416 438.312 210.937 441.214 214.975 442.947C217.013 443.776 219.163 444.322 221.359 444.575C223.574 444.737 225.753 444.677 227.95 444.687C236.73 444.683 245.595 444.679 254.539 444.675C290.315 444.656 327.356 444.637 365.294 444.617C370.081 444.566 374.888 443.075 378.668 440.136C380.567 438.694 382.231 436.952 383.577 434.99C384.922 433.024 385.888 430.817 386.5 428.53C386.841 427.393 386.985 426.209 387.129 425.038L387.22 423.266L387.227 421.513C387.226 419.178 387.226 416.848 387.225 414.521C387.224 409.868 387.223 405.231 387.222 400.611C387.217 382.131 387.212 363.922 387.207 346.03C387.195 310.246 387.183 275.729 387.171 242.848C387.156 209.967 387.142 178.722 387.128 149.48C387.12 134.859 387.112 120.739 387.105 107.167C387.101 100.381 387.097 93.731 387.093 87.224C387.089 85.597 387.085 83.978 387.081 82.369C387.032 80.747 386.872 79.133 386.472 77.577C385.71 74.458 384.236 71.564 382.254 69.137C378.28 64.254 372.256 61.444 366.313 61.196C360.384 61.095 354.635 61.179 349.031 61.162C337.83 61.176 327.269 61.189 317.392 61.201C297.64 61.23 280.626 61.254 266.72 61.274C252.818 61.303 242.022 61.326 234.697 61.341C231.04 61.354 228.25 61.365 226.369 61.372C224.492 61.376 223.531 61.395 223.531 61.395C223.531 61.395 224.492 61.412 226.368 61.42C228.249 61.425 231.039 61.432 234.696 61.441C242.021 61.448 252.817 61.458 266.719 61.472C280.626 61.476 297.639 61.481 317.392 61.487C327.269 61.487 337.831 61.488 349.031 61.489C354.627 61.513 360.401 61.436 366.296 61.542C372.146 61.792 378.068 64.563 381.97 69.367C383.915 71.755 385.36 74.6 386.106 77.663C386.923 80.725 386.665 83.97 386.708 87.221C386.707 93.728 386.705 100.378 386.704 107.164C386.702 120.737 386.7 134.857 386.697 149.477C386.695 178.719 386.694 209.964 386.692 242.845C386.694 275.726 386.696 310.243 386.697 346.027C386.699 363.919 386.702 382.128 386.704 400.608C386.705 405.228 386.705 409.865 386.706 414.518C386.706 416.845 386.707 419.175 386.707 421.51L386.7 423.26L386.611 424.989C386.47 426.132 386.331 427.286 385.997 428.395C385.401 430.625 384.459 432.778 383.146 434.696C381.832 436.61 380.207 438.311 378.354 439.719C374.663 442.59 369.972 444.043 365.294 444.095C327.356 444.118 290.315 444.141 254.539 444.164C245.595 444.17 236.73 444.176 227.95 444.182C225.757 444.173 223.554 444.231 221.409 444.074C219.262 443.827 217.161 443.294 215.169 442.485C211.222 440.792 207.78 437.957 205.501 434.36C204.321 432.589 203.484 430.61 202.934 428.574C202.621 427.561 202.492 426.511 202.328 425.469C202.263 424.415 202.178 423.374 202.198 422.304C202.196 418.048 202.195 413.815 202.193 409.606C202.19 401.189 202.187 392.867 202.183 384.648C202.149 318.897 202.118 259.681 202.092 209.949C202.047 160.22 202.011 119.975 201.986 92.157C201.987 88.681 201.988 85.399 201.989 82.317C202.033 79.245 202.754 76.404 203.859 73.982C204.971 71.56 206.421 69.518 208.021 67.933C209.621 66.35 211.264 65.108 212.866 64.23C213.653 63.768 214.453 63.444 215.175 63.092C215.934 62.826 216.63 62.544 217.293 62.344C217.965 62.172 218.583 62.013 219.147 61.869C219.722 61.779 220.241 61.698 220.704 61.626C221.166 61.539 221.575 61.507 221.929 61.497C222.281 61.477 222.576 61.46 222.814 61.446C223.291 61.416 223.531 61.395 223.531 61.395Z" fill="#424242"/>
<path d="M393.897 142.327H398.859C399.597 142.327 400.195 141.729 400.195 140.991V98.811C400.195 98.073 399.597 97.475 398.859 97.475H393.897C393.159 97.475 392.561 98.073 392.561 98.811V140.99C392.561 141.728 393.159 142.327 393.897 142.327Z" fill="#424242"/>
<path d="M393.897 195.298H398.859C399.597 195.298 400.195 194.7 400.195 193.962V151.783C400.195 151.045 399.597 150.447 398.859 150.447H393.897C393.159 150.447 392.561 151.045 392.561 151.783V193.962C392.561 194.7 393.159 195.298 393.897 195.298Z" fill="#424242"/>
<path d="M189.991 211.607H194.953C195.691 211.607 196.289 211.009 196.289 210.271V135.473C196.289 134.735 195.691 134.137 194.953 134.137H189.991C189.253 134.137 188.655 134.735 188.655 135.473V210.271C188.655 211.009 189.253 211.607 189.991 211.607Z" fill="#424242"/>
<path d="M294.425 284.082C277.698 284.082 264.139 270.523 264.139 253.796C264.139 237.07 277.698 223.51 294.425 223.51C311.151 223.51 324.711 237.07 324.711 253.796C324.711 270.523 311.151 284.082 294.425 284.082Z" fill="#E0E0E0"/>
<path d="M284.391 248.645C284.391 250.851 283.036 252.64 281.365 252.64C279.694 252.64 278.339 250.851 278.339 248.645C278.339 246.438 279.694 244.65 281.365 244.65C283.036 244.649 284.391 246.438 284.391 248.645Z" fill="#424242"/>
<path d="M306.536 252.64C304.865 252.64 303.51 250.851 303.51 248.645C303.51 246.439 304.865 244.65 306.536 244.65C308.208 244.65 309.562 246.439 309.562 248.645C309.562 250.851 308.208 252.64 306.536 252.64Z" fill="#424242"/>
<path d="M282.845 257.965C290.327 257.965 297.809 257.965 305.29 257.965C306.485 257.965 306.487 256.108 305.29 256.108C297.809 256.108 290.327 256.108 282.845 256.108C281.651 256.108 281.649 257.965 282.845 257.965Z" fill="#424242"/>
<path d="M267.047 337.586C259.873 322.476 266.307 304.41 281.418 297.236C296.529 290.062 314.594 296.496 321.768 311.607C328.942 326.718 322.508 344.783 307.397 351.957C292.287 359.131 274.221 352.697 267.047 337.586Z" fill="#E0E0E0"/>
<path d="M284.391 319.451C284.391 321.657 283.036 323.446 281.365 323.446C279.694 323.446 278.339 321.657 278.339 319.451C278.339 317.244 279.694 315.456 281.365 315.456C283.036 315.456 284.391 317.244 284.391 319.451Z" fill="#424242"/>
<path d="M309.562 319.451C309.562 321.657 308.207 323.446 306.536 323.446C304.865 323.446 303.51 321.657 303.51 319.451C303.51 317.244 304.865 315.456 306.536 315.456C308.207 315.456 309.562 317.244 309.562 319.451Z" fill="#424242"/>
<path d="M289.282 422.561C272.798 419.721 261.738 404.056 264.578 387.572C267.418 371.088 283.083 360.027 299.567 362.867C316.051 365.708 327.112 381.373 324.272 397.857C321.431 414.341 305.766 425.401 289.282 422.561Z" fill="#E0E0E0"/>
<path d="M285.57 387.555C285.57 389.762 284.215 391.55 282.544 391.55C280.873 391.55 279.518 389.761 279.518 387.555C279.518 385.349 280.873 383.56 282.544 383.56C284.215 383.56 285.57 385.348 285.57 387.555Z" fill="#424242"/>
<path d="M306.544 391.735C304.873 391.735 303.518 389.946 303.518 387.74C303.518 385.534 304.873 383.745 306.544 383.745C308.216 383.745 309.57 385.534 309.57 387.74C309.57 389.946 308.216 391.735 306.544 391.735Z" fill="#424242"/>
<path d="M302.993 396.817C301.933 393.009 298.185 390.115 294.191 390.266C290.213 390.416 286.627 393.499 285.854 397.397C285.622 398.564 287.412 399.064 287.644 397.891C288.255 394.812 290.994 392.248 294.191 392.123C297.371 391.999 300.357 394.271 301.203 397.311C301.522 398.46 303.314 397.972 302.993 396.817Z" fill="#424242"/>
<path d="M292.999 214.168C275.516 214.168 261.342 199.995 261.342 182.511C261.342 165.027 275.516 150.854 292.999 150.854C310.483 150.854 324.656 165.027 324.656 182.511C324.656 199.995 310.483 214.168 292.999 214.168Z" fill="#B4E7FF"/>
<path d="M282.508 177.126C282.508 179.432 281.092 181.302 279.345 181.302C277.598 181.302 276.182 179.432 276.182 177.126C276.182 174.82 277.598 172.95 279.345 172.95C281.092 172.95 282.508 174.82 282.508 177.126Z" fill="#424242"/>
<path d="M308.82 177.126C308.82 179.432 307.404 181.302 305.657 181.302C303.91 181.302 302.494 179.432 302.494 177.126C302.494 174.82 303.91 172.95 305.657 172.95C307.404 172.95 308.82 174.82 308.82 177.126Z" fill="#424242"/>
<path d="M283.481 182.464C284.426 186.486 288.219 189.668 292.397 189.679C296.558 189.691 300.434 186.623 301.407 182.585C301.698 181.376 299.851 180.779 299.558 181.994C298.789 185.184 295.82 187.746 292.476 187.741C289.15 187.736 286.127 185.236 285.372 182.025C285.087 180.81 283.195 181.244 283.481 182.464Z" fill="#424242"/>
<path d="M271.208 134.019C259.174 121.985 259.174 102.473 271.208 90.4389C283.242 78.4046 302.754 78.4046 314.788 90.4389C326.822 102.473 326.822 121.985 314.788 134.019C302.754 146.053 283.242 146.053 271.208 134.019Z" fill="#E0E0E0"/>
<path d="M283.07 106.986C283.07 109.231 281.691 111.051 279.991 111.051C278.29 111.051 276.912 109.231 276.912 106.986C276.912 104.741 278.291 102.921 279.991 102.921C281.692 102.921 283.07 104.741 283.07 106.986Z" fill="#424242"/>
<path d="M308.688 106.986C308.688 109.231 307.309 111.051 305.609 111.051C303.908 111.051 302.529 109.231 302.529 106.986C302.529 104.741 303.909 102.921 305.609 102.921C307.309 102.921 308.688 104.741 308.688 106.986Z" fill="#424242"/>
<path d="M303.625 112.998C303.625 119.239 298.865 124.299 292.992 124.299C287.119 124.299 282.359 119.239 282.359 112.998H303.625Z" fill="#424242"/>
<path d="M298.523 122.639C298.523 122.639 296.424 119.962 292.99 119.962C289.556 119.962 287.444 122.639 287.444 122.639C287.444 122.639 292.601 126.055 298.523 122.639Z" fill="#ECF9FF"/>
<path d="M286.961 328.507C287.215 328.507 287.469 328.41 287.664 328.218C289.465 326.436 292.555 325.743 295.929 326.36C297.558 326.659 299.132 327.194 300.606 327.95C301.098 328.203 301.7 328.008 301.952 327.516C302.204 327.025 302.01 326.422 301.519 326.17C299.871 325.324 298.111 324.727 296.289 324.393C292.21 323.648 288.556 324.522 286.257 326.796C285.864 327.185 285.861 327.817 286.249 328.21C286.445 328.409 286.703 328.507 286.961 328.507Z" fill="#424242"/>
<path d="M239.15 151.245C239.053 151.351 242.571 154.729 247.007 158.788C251.445 162.849 255.12 166.053 255.217 165.947C255.314 165.841 251.796 162.464 247.359 158.404C242.922 154.345 239.247 151.139 239.15 151.245Z" fill="#0555C8"/>
<path d="M226.895 178.19C226.892 178.334 232.382 178.578 239.156 178.735C245.932 178.892 251.427 178.903 251.43 178.759C251.433 178.615 245.945 178.371 239.168 178.214C232.393 178.057 226.898 178.046 226.895 178.19Z" fill="#0555C8"/>
<path d="M241.619 198.99C241.655 199.05 242.348 198.706 243.422 198.069C244.495 197.433 245.944 196.498 247.487 195.383C249.03 194.268 250.374 193.186 251.315 192.367C252.256 191.548 252.8 190.999 252.755 190.945C252.658 190.83 250.254 192.747 247.182 194.961C244.116 197.182 241.541 198.862 241.619 198.99Z" fill="#0555C8"/>
<path d="M333.289 153.129L332.636 154.452C332.563 154.601 332.422 154.704 332.257 154.728L330.796 154.94C330.383 155 330.218 155.508 330.518 155.8L331.574 156.83C331.693 156.946 331.746 157.113 331.718 157.276L331.469 158.73C331.398 159.142 331.832 159.456 332.201 159.261L333.507 158.575C333.654 158.498 333.828 158.498 333.975 158.575L335.281 159.261C335.651 159.455 336.083 159.141 336.012 158.73L335.763 157.276C335.735 157.113 335.789 156.946 335.908 156.83L336.964 155.8C337.263 155.508 337.099 155 336.686 154.94L335.225 154.728C335.061 154.704 334.919 154.601 334.845 154.452L334.192 153.129C334.008 152.755 333.474 152.755 333.289 153.129Z" fill="#0555C8"/>
<path d="M341.749 179.252L341.296 180.17C341.245 180.273 341.147 180.345 341.033 180.361L340.02 180.508C339.733 180.55 339.618 180.902 339.826 181.105L340.559 181.819C340.641 181.899 340.679 182.015 340.659 182.129L340.486 183.138C340.437 183.424 340.737 183.642 340.993 183.507L341.899 183.031C342.001 182.977 342.123 182.977 342.225 183.031L343.131 183.507C343.388 183.642 343.688 183.424 343.639 183.138L343.466 182.129C343.447 182.015 343.484 181.9 343.567 181.819L344.3 181.105C344.508 180.903 344.393 180.55 344.106 180.508L343.093 180.361C342.979 180.344 342.881 180.273 342.83 180.17L342.377 179.252C342.248 178.992 341.878 178.992 341.749 179.252Z" fill="#0555C8"/>
<path d="M241.641 166.255L241.086 167.381C241.023 167.508 240.903 167.595 240.763 167.616L239.521 167.796C239.169 167.847 239.029 168.28 239.283 168.528L240.182 169.404C240.283 169.503 240.329 169.645 240.305 169.784L240.093 171.021C240.033 171.371 240.401 171.639 240.715 171.473L241.826 170.889C241.951 170.823 242.1 170.823 242.225 170.889L243.336 171.473C243.651 171.638 244.018 171.371 243.958 171.021L243.746 169.784C243.722 169.645 243.768 169.503 243.869 169.404L244.768 168.528C245.023 168.28 244.882 167.848 244.53 167.796L243.288 167.616C243.148 167.596 243.028 167.508 242.965 167.381L242.409 166.255C242.253 165.936 241.798 165.936 241.641 166.255Z" fill="#0555C8"/>
<path d="M258.769 155.023L258.454 155.662C258.419 155.734 258.35 155.784 258.271 155.795L257.566 155.897C257.366 155.926 257.287 156.171 257.431 156.312L257.941 156.809C257.998 156.865 258.025 156.945 258.011 157.024L257.891 157.726C257.857 157.925 258.066 158.076 258.244 157.983L258.874 157.652C258.945 157.615 259.03 157.615 259.101 157.652L259.731 157.983C259.909 158.077 260.118 157.925 260.084 157.726L259.964 157.024C259.95 156.945 259.977 156.864 260.034 156.809L260.544 156.312C260.688 156.171 260.609 155.926 260.409 155.897L259.704 155.795C259.625 155.783 259.556 155.734 259.521 155.662L259.206 155.023C259.116 154.842 258.858 154.842 258.769 155.023Z" fill="#0555C8"/>
<path d="M337.634 168.978C337.654 169.047 338.607 168.844 340.13 168.461C341.653 168.077 343.748 167.513 346.052 166.859C348.357 166.205 350.435 165.584 351.933 165.11C353.431 164.636 354.347 164.308 354.328 164.239C354.309 164.17 353.357 164.372 351.834 164.756C350.311 165.139 348.215 165.704 345.91 166.359C343.605 167.013 341.526 167.634 340.028 168.108C338.53 168.581 337.614 168.909 337.634 168.978Z" fill="#0555C8"/>
<path d="M335.196 192.562C335.106 192.674 336.569 194.005 338.464 195.535C340.359 197.066 341.969 198.215 342.059 198.103C342.149 197.991 340.687 196.66 338.791 195.13C336.896 193.6 335.286 192.451 335.196 192.562Z" fill="#0555C8"/>
<path d="M60.1678 412.02V376.122C60.1678 362.243 71.4188 350.992 85.2978 350.992H207.503C221.382 350.992 232.633 362.243 232.633 376.122V438.685C232.633 452.564 221.382 463.815 207.503 463.815H85.2988C71.4198 463.815 60.1688 452.564 60.1688 438.685V430.248C56.7818 431.054 53.1358 430.794 49.9318 429.422C45.5608 427.55 42.1018 423.663 40.7488 419.104C47.7738 421.752 56.4678 418.527 60.1678 412.02Z" fill="white"/>
<path d="M60.1716 412.02C60.1716 412.02 59.8936 412.435 59.3606 413.235C58.7696 413.994 57.8756 415.139 56.3886 416.309C54.9096 417.469 52.8476 418.672 50.1736 419.39C47.5196 420.068 44.1776 420.272 40.7876 419.008L40.5966 418.937L40.6536 419.133C41.5986 422.361 43.7776 425.728 47.2336 428.078C50.6426 430.46 55.4506 431.513 60.2046 430.388L60.0266 430.247C60.0246 431.805 60.0226 433.397 60.0196 435.022C60.0436 436.65 59.9546 438.3 60.0796 440.004C60.2446 443.399 61.1206 446.904 62.7796 450.173C64.4156 453.451 66.8806 456.46 70.0046 458.817C73.1126 461.176 76.8696 462.952 80.9746 463.611C81.4876 463.69 82.0016 463.769 82.5186 463.848C83.0366 463.914 83.5626 463.913 84.0866 463.948C85.1396 464.024 86.1886 464.012 87.2456 464.012C89.3606 464.014 91.5036 464.015 93.6736 464.017C98.0136 464.02 102.462 464.023 107.012 464.026C116.112 464.031 125.622 464.037 135.494 464.043C155.239 464.05 176.435 464.058 198.715 464.066C201.5 464.067 204.302 464.067 207.12 464.068C209.958 464.051 212.828 463.655 215.56 462.744C221.05 460.97 225.864 457.118 228.997 452.159C230.556 449.674 231.728 446.911 232.329 444.002C232.966 441.09 232.896 438.083 232.897 435.139C232.897 429.215 232.897 423.241 232.898 417.221C232.898 407.619 232.897 398.131 232.897 388.78C232.897 386.442 232.897 384.113 232.896 381.793C232.896 380.633 232.896 379.475 232.896 378.319C232.894 377.163 232.915 376.013 232.832 374.848C232.659 370.189 231.045 365.689 228.525 361.883C227.196 360.024 225.709 358.283 223.972 356.821C222.227 355.387 220.359 354.083 218.303 353.173C217.312 352.64 216.228 352.331 215.188 351.928C214.655 351.762 214.11 351.643 213.572 351.498C213.034 351.354 212.495 351.213 211.942 351.151L210.297 350.9C209.748 350.833 209.192 350.833 208.641 350.797C207.533 350.718 206.446 350.746 205.357 350.741C196.647 350.744 188.121 350.747 179.802 350.75C146.527 350.771 116.563 350.79 91.3956 350.806C88.2516 350.846 85.1806 350.695 82.1746 351.028C79.1796 351.373 76.3366 352.286 73.8106 353.605C71.2766 354.915 69.0436 356.607 67.1656 358.524C65.2656 360.43 63.8286 362.64 62.6926 364.872C61.5326 367.106 60.8536 369.466 60.4406 371.757C60.3536 372.334 60.2676 372.906 60.1816 373.472C60.1516 374.043 60.1216 374.609 60.0916 375.169C60.0106 376.292 60.0616 377.38 60.0496 378.45C60.0586 382.727 60.0656 386.636 60.0726 390.152C60.0936 397.182 60.1106 402.642 60.1226 406.355C60.1336 408.203 60.1426 409.614 60.1476 410.574C60.1546 411.529 60.1716 412.02 60.1716 412.02C60.1716 412.02 60.1886 411.538 60.1976 410.591C60.2036 409.634 60.2116 408.226 60.2226 406.382C60.2336 402.669 60.2506 397.208 60.2726 390.177C60.2796 386.656 60.2876 382.742 60.2956 378.458C60.3116 377.389 60.2646 376.287 60.3486 375.182C60.3796 374.628 60.4106 374.068 60.4426 373.502C60.5286 372.942 60.6166 372.377 60.7046 371.806C61.1206 369.541 61.7986 367.209 62.9516 365.005C64.0806 362.801 65.5056 360.622 67.3876 358.743C69.2486 356.854 71.4566 355.188 73.9606 353.902C76.4566 352.606 79.2626 351.712 82.2176 351.377C85.1636 351.055 88.2536 351.209 91.3956 351.175C116.563 351.191 146.528 351.21 179.802 351.231C188.121 351.234 196.647 351.237 205.357 351.24C206.445 351.245 207.542 351.218 208.619 351.297C209.159 351.333 209.704 351.332 210.242 351.399L211.855 351.646C212.398 351.707 212.925 351.846 213.452 351.987C213.979 352.129 214.514 352.246 215.036 352.409C216.055 352.806 217.117 353.107 218.088 353.631C220.103 354.523 221.932 355.803 223.642 357.209C225.344 358.642 226.8 360.35 228.102 362.171C230.569 365.902 232.15 370.309 232.317 374.875C232.399 376.007 232.379 377.165 232.38 378.321C232.38 379.477 232.38 380.635 232.38 381.795C232.38 384.115 232.38 386.445 232.379 388.782C232.379 398.133 232.378 407.621 232.378 417.223C232.378 423.242 232.378 429.216 232.378 435.141C232.377 438.11 232.445 441.047 231.822 443.896C231.234 446.745 230.086 449.451 228.56 451.886C225.492 456.745 220.776 460.522 215.398 462.261C210.021 464.15 204.261 463.411 198.715 463.564C176.436 463.572 155.24 463.58 135.494 463.587C125.622 463.593 116.113 463.598 107.012 463.604C102.462 463.607 98.0136 463.61 93.6736 463.613C91.5036 463.615 89.3606 463.616 87.2456 463.618C86.1876 463.62 85.1346 463.633 84.1046 463.56C83.5886 463.525 83.0696 463.528 82.5606 463.464C82.0516 463.387 81.5456 463.31 81.0406 463.233C76.9966 462.592 73.2936 460.849 70.2246 458.53C67.1406 456.212 64.7036 453.251 63.0826 450.02C61.4396 446.799 60.5666 443.343 60.3946 439.99C60.2666 438.317 60.3506 436.645 60.3226 435.024C60.3206 433.399 60.3186 431.807 60.3166 430.249V430.065L60.1386 430.108C55.4676 431.225 50.7376 430.207 47.3746 427.874C43.9626 425.571 41.7976 422.258 40.8516 419.076L40.7176 419.201C44.1646 420.469 47.5416 420.243 50.2156 419.543C52.9096 418.802 54.9786 417.574 56.4566 416.393C57.9416 415.201 58.8276 414.039 59.4066 413.267C59.9296 412.446 60.1716 412.02 60.1716 412.02Z" fill="#424242"/>
<path d="M88.9086 390.151H203.891V404.004H88.9086V390.151Z" fill="#E0E0E0"/>
<path d="M114.481 413.667H203.891V427.52H114.481V413.667Z" fill="#E0E0E0"/>
<path d="M220.042 235.242C220.042 235.242 223.877 219.794 226.663 214.898C229.449 210.002 235.881 203.081 237.668 204.32C239.456 205.559 237.228 207.659 236.222 209.524L233.497 212.864L232.622 215.688C232.622 215.688 236.16 216.067 235.986 219.15C235.986 219.15 238.237 218.991 238.32 221.863C238.32 221.863 240.638 222.746 239.879 225.742C239.158 228.592 237.852 229.144 237.115 228.653C236.702 228.378 236.29 227.323 236.29 227.323C236.29 227.323 233.295 232.915 231.564 233.978C230.358 234.719 229.361 235.264 229.361 235.264L229.19 239.657C229.19 239.657 227.642 241.989 223.675 237.959C219.709 233.93 220.042 235.242 220.042 235.242Z" fill="#FFBF9D"/>
<path d="M224.167 223.341C224.202 223.351 224.358 222.934 224.647 222.183C224.938 221.434 225.356 220.347 225.969 219.053C226.276 218.407 226.634 217.709 227.08 217.005C227.531 216.316 228.08 215.576 228.657 214.842C229.238 214.151 229.937 213.296 230.825 213.252C231.261 213.251 231.746 213.438 231.915 213.805C232.094 214.194 232.058 214.726 231.945 215.235C231.715 216.264 231.273 217.253 230.871 218.194C230.672 218.655 230.399 219.114 230.289 219.659C230.188 220.188 230.186 220.685 230.183 221.165C230.163 222.125 230.303 223.051 230.094 223.798C229.888 224.568 229.413 225.19 228.916 225.674C227.899 226.644 226.817 227.136 226.104 227.476C225.374 227.804 224.952 227.947 224.962 227.983C224.971 228.016 225.415 227.939 226.181 227.664C226.931 227.373 228.056 226.933 229.168 225.943C229.711 225.448 230.255 224.785 230.51 223.916C230.767 223.021 230.625 222.104 230.664 221.169C230.672 220.699 230.684 220.214 230.777 219.762C230.866 219.322 231.121 218.889 231.337 218.405C231.753 217.446 232.203 216.464 232.456 215.343C232.57 214.79 232.65 214.178 232.381 213.576C232.232 213.283 231.973 213.047 231.685 212.92C231.41 212.811 231.12 212.725 230.814 212.741C230.2 212.762 229.684 213.089 229.3 213.431C228.906 213.78 228.583 214.162 228.283 214.541C227.694 215.312 227.176 216.037 226.714 216.775C226.269 217.513 225.925 218.233 225.635 218.897C225.057 220.228 224.69 221.34 224.456 222.114C224.224 222.893 224.133 223.332 224.167 223.341Z" fill="#FF9A6C"/>
<path d="M235.71 219.357C235.661 219.312 235.018 219.965 234.333 221.255C234.002 221.902 233.616 222.692 233.477 223.697C233.408 224.665 233.459 225.844 234.221 226.816C234.609 227.277 235.094 227.654 235.758 227.702C236.116 227.713 236.435 227.485 236.601 227.258C236.78 227.029 236.886 226.787 236.984 226.572C237.38 225.696 237.666 224.878 237.864 224.181C238.26 222.784 238.333 221.886 238.269 221.876C238.191 221.86 237.99 222.727 237.513 224.069C237.273 224.739 236.959 225.526 236.549 226.369C236.358 226.787 236.103 227.218 235.763 227.193C235.386 227.17 234.92 226.868 234.626 226.49C233.997 225.71 233.911 224.631 233.954 223.743C234.049 222.858 234.383 222.058 234.664 221.416C235.246 220.121 235.771 219.404 235.71 219.357Z" fill="#FF9A6C"/>
<path d="M230.522 223.222C230.457 223.236 230.464 223.561 230.697 224.003C230.814 224.222 230.977 224.47 231.222 224.708C231.347 224.826 231.48 224.947 231.695 225.036C231.79 225.08 231.982 225.109 232.124 225.051C232.079 225.057 232.134 225.054 232.248 225.082C232.596 225.133 232.775 224.963 232.935 224.834C233.086 224.692 233.181 224.55 233.273 224.416C233.455 224.144 233.582 223.879 233.667 223.649C233.835 223.187 233.838 222.879 233.773 222.862C233.7 222.841 233.572 223.104 233.336 223.489C233.217 223.681 233.069 223.904 232.886 224.133C232.721 224.364 232.446 224.612 232.343 224.569C232.284 224.567 232.16 224.497 231.946 224.564L231.928 224.571L231.923 224.573C231.916 224.56 231.972 224.689 231.948 224.634V224.633L231.946 224.629L231.939 224.614C231.936 224.604 231.934 224.594 231.934 224.585C231.938 224.56 231.931 224.572 231.927 224.568C231.923 224.573 231.894 224.561 231.874 224.557C231.773 224.524 231.647 224.436 231.542 224.349C231.325 224.173 231.147 223.971 231.006 223.801C230.722 223.457 230.596 223.202 230.522 223.222Z" fill="#FF9A6C"/>
<path d="M177.343 433.903L182.526 462.21L193.081 483.417C193.842 484.945 193.149 486.799 191.572 487.453C190.689 487.819 189.692 487.741 188.882 487.232C183.728 483.997 164.829 472.003 164.566 469.91C164.261 467.486 157.117 440.414 157.117 440.414L177.343 433.903Z" fill="#424242"/>
<path d="M191.57 487.454L164.17 468.009L164.417 469.203C164.631 470.235 165.199 471.16 166.03 471.808C168.255 473.541 174.501 478.191 188.794 487.252C189.626 487.779 190.671 487.856 191.57 487.454Z" fill="#E0E0E0"/>
<g opacity="0.6">
<path d="M168.171 460.807C168.978 461.149 169.43 462.169 169.121 462.99C168.708 464.085 167.006 464.552 166.259 463.337C165.597 462.261 166.264 460.746 167.525 460.673C167.816 460.656 168.097 460.719 168.325 460.883" fill="white"/>
</g>
<path d="M181.573 475.076C181.736 475.155 182.382 473.647 184.093 472.834C185.778 471.97 187.369 472.373 187.405 472.195C187.43 472.124 187.065 471.901 186.392 471.807C185.725 471.71 184.751 471.805 183.813 472.267C182.877 472.731 182.209 473.446 181.881 474.035C181.546 474.628 181.502 475.053 181.573 475.076Z" fill="white"/>
<path d="M184.59 478.941C184.749 479.035 185.464 477.932 186.836 477.213C188.191 476.463 189.505 476.474 189.514 476.289C189.565 476.129 188.086 475.811 186.535 476.657C184.977 477.486 184.427 478.896 184.59 478.941Z" fill="white"/>
<path d="M177.364 471.266C177.502 471.4 178.886 469.926 181.125 469.017C183.35 468.072 185.372 468.131 185.374 467.939C185.418 467.785 183.272 467.427 180.883 468.434C178.485 469.416 177.224 471.188 177.364 471.266Z" fill="white"/>
<path d="M175.855 465.974C175.965 466.127 177.387 465.155 179.398 464.663C181.402 464.143 183.115 464.325 183.14 464.138C183.189 463.984 181.399 463.496 179.244 464.05C177.084 464.584 175.739 465.862 175.855 465.974Z" fill="white"/>
<path d="M166.865 439.665L158.145 459.81C158.145 459.81 175.693 475.439 174.444 479.319L134.777 463.814L147.076 431.868L166.865 439.665Z" fill="#424242"/>
<path d="M134.775 463.814L135.966 460.72L173.662 476.694C173.662 476.694 175.128 478.153 174.442 479.319L134.775 463.814Z" fill="#E0E0E0"/>
<path d="M158.867 459.859C158.785 460.05 157.782 459.76 156.585 460.01C155.382 460.229 154.563 460.876 154.415 460.73C154.251 460.623 154.993 459.578 156.447 459.3C157.898 459.009 158.979 459.698 158.867 459.859Z" fill="white"/>
<path d="M162.357 463.207C162.328 463.412 161.36 463.413 160.382 463.976C159.387 464.509 158.875 465.33 158.686 465.246C158.492 465.206 158.801 464.019 160.031 463.343C161.254 462.656 162.425 463.02 162.357 463.207Z" fill="white"/>
<path d="M162.769 469.11C162.577 469.082 162.686 468.009 163.598 467.143C164.504 466.27 165.581 466.208 165.6 466.402C165.647 466.604 164.837 466.943 164.099 467.666C163.343 468.371 162.969 469.166 162.769 469.11Z" fill="white"/>
<path d="M104.439 348.111C104.439 348.111 106.426 360.89 115.887 363.343C125.348 365.796 143.482 376.744 143.482 376.744C143.482 376.744 144.975 402.624 148.732 415.616C152.49 428.608 160.933 456.883 160.933 456.883L182.703 452.032C182.703 452.032 171.021 376.405 168.927 362.235C166.833 348.065 146.81 335.367 146.81 335.367L141.247 311.947L115.708 311.158C115.708 311.158 102.521 336.23 104.439 348.111Z" fill="#424242"/>
<path d="M167.866 309.395C167.694 310.411 176.399 322.57 177.71 326.579C177.71 326.579 201.342 342.743 196.566 372.411C190.662 409.082 164.554 451.737 164.359 450.255L141.843 440.86C141.843 440.86 158.83 377.5 158.274 376.791C157.718 376.082 146.407 336.608 146.407 336.608L141.249 311.946L167.866 309.395Z" fill="#424242"/>
<path d="M130.047 328.53C130.047 328.53 130.292 328.591 130.772 328.684C131.254 328.765 131.96 328.954 132.874 329.227C134.702 329.781 137.34 330.797 140.629 332.349C142.273 333.125 144.082 334.032 146.032 335.081C147.023 335.565 147.927 336.288 148.917 336.969C149.891 337.671 150.888 338.423 151.899 339.227C153.927 340.829 156.024 342.638 158.102 344.706C160.168 346.779 162.293 349.057 164.134 351.74C165.969 354.407 167.637 357.446 168.427 360.892C168.523 361.323 168.62 361.755 168.718 362.19C168.787 362.635 168.857 363.082 168.927 363.531C169.064 364.431 169.202 365.339 169.341 366.256C169.62 368.09 169.904 369.958 170.193 371.86C171.352 379.466 172.592 387.6 173.897 396.169C176.519 413.309 179.408 432.189 182.45 452.071L182.651 451.777C180.995 452.146 179.209 452.544 177.415 452.944C171.814 454.193 166.286 455.425 160.881 456.63L161.185 456.808C156.728 441.665 152.388 427.265 148.548 413.966C146.864 407.266 146.017 400.668 145.264 394.433C144.556 388.188 144.034 382.265 143.681 376.733L143.674 376.629L143.587 376.577C136.835 372.591 130.573 369.235 124.9 366.629C122.06 365.338 119.365 364.227 116.789 363.471C116.139 363.29 115.523 363.087 114.928 362.881C114.314 362.714 113.774 362.409 113.237 362.134C112.169 361.573 111.258 360.852 110.467 360.105C108.891 358.591 107.833 356.927 107.043 355.444C106.256 353.952 105.734 352.614 105.374 351.516C105.006 350.42 104.783 349.564 104.647 348.987C104.506 348.41 104.443 348.112 104.443 348.112C104.443 348.112 104.567 349.335 105.267 351.551C105.611 352.659 106.119 354.009 106.896 355.521C107.677 357.023 108.729 358.713 110.316 360.262C111.113 361.026 112.035 361.767 113.121 362.347C113.667 362.632 114.217 362.946 114.843 363.121C115.454 363.337 116.079 363.546 116.715 363.727C119.264 364.491 121.944 365.612 124.77 366.912C130.415 369.537 136.661 372.914 143.385 376.912L143.291 376.757C143.627 382.301 144.134 388.228 144.828 394.485C145.569 400.732 146.403 407.337 148.087 414.087C151.914 427.418 156.235 441.806 160.688 456.958L160.756 457.189L160.992 457.136C166.397 455.932 171.925 454.701 177.526 453.453C179.319 453.053 181.105 452.655 182.762 452.286L183 452.233L182.963 451.992C179.905 432.113 177.001 413.236 174.365 396.099C173.042 387.533 171.786 379.402 170.612 371.798C170.318 369.898 170.029 368.03 169.745 366.197C169.603 365.28 169.462 364.373 169.323 363.473C169.252 363.024 169.181 362.576 169.11 362.131C169.01 361.687 168.91 361.245 168.81 360.805C167.992 357.287 166.289 354.218 164.427 351.532C162.559 348.83 160.412 346.549 158.327 344.474C156.23 342.405 154.116 340.599 152.072 339.002C151.053 338.2 150.049 337.452 149.067 336.753C148.074 336.078 147.153 335.352 146.143 334.866C144.182 333.828 142.364 332.933 140.709 332.169C137.401 330.641 134.743 329.653 132.899 329.128C131.059 328.6 130.047 328.53 130.047 328.53Z" fill="#455A64"/>
<path d="M160.975 331.136C160.911 331.014 158.382 332.242 155.501 334.161C152.615 336.074 150.503 337.929 150.591 338.035C150.685 338.152 152.926 336.492 155.79 334.594C158.647 332.691 161.047 331.268 160.975 331.136Z" fill="#455A64"/>
<path d="M142.894 367.208C142.763 367.19 142.423 369.571 142.77 372.495C143.103 375.423 143.98 377.661 144.103 377.614C144.252 377.568 143.612 375.302 143.287 372.435C142.946 369.571 143.049 367.218 142.894 367.208Z" fill="#455A64"/>
<path d="M120.651 218.231C118.633 212.042 116.616 205.854 114.598 199.665L110.129 191.214C106.881 189.361 100.125 193.376 97.848 196.342C95.571 199.308 95.128 203.342 95.679 207.041C96.045 209.491 96.781 212.117 95.697 214.344C94.454 216.9 91.163 218.081 90.208 220.758C89.585 222.507 90.162 224.507 91.261 226.003C92.36 227.499 93.919 228.584 95.471 229.603C96.869 230.522 98.315 231.425 99.935 231.844C101.555 232.263 103.397 232.131 104.728 231.117C104.788 233.567 107.025 235.67 109.467 235.873C111.91 236.076 114.323 234.578 115.518 232.438C116.713 230.298 116.777 227.639 116.014 225.31C116.686 226.559 118.536 226.814 119.731 226.05C120.926 225.286 121.495 223.795 121.515 222.377C121.535 220.959 121.09 219.58 120.651 218.231Z" fill="#424242"/>
<path d="M110.888 191.352C113.866 183.954 119.278 178.54 126.849 176.035C131.12 174.622 133.176 174.959 136.529 174.827C139.882 174.694 143.19 175.481 145.853 177.523C149.016 179.948 151.945 182.855 153.541 186.506C155.18 190.257 156.829 194.034 157.754 198.022C158.679 202.01 158.847 206.265 157.542 210.145L148.166 214.967C142.749 216.865 137.254 218.78 131.529 219.199C125.804 219.617 119.724 218.368 115.406 214.586C109.409 209.33 107.91 198.749 110.888 191.352Z" fill="#424242"/>
<path d="M134.843 178.465L131.265 179.143L119.69 188.528C117.811 189.221 116.775 191.237 117.306 193.169L131.625 234.407L153.191 235.242L150.311 224.995C150.311 224.995 158.884 221.368 157.879 210.309C157.379 204.809 154.917 196.207 152.675 189.235C150.657 182.957 142.621 176.064 134.843 178.465Z" fill="#FFBF9D"/>
<path d="M141.577 212.742C141.478 212.173 141.631 211.596 141.914 211.143C142.481 210.238 143.592 209.82 144.6 210.132C145.607 210.445 146.449 211.469 146.633 212.608C146.368 213.393 145.791 214.047 145.025 214.361C144.906 214.41 144.784 214.453 144.66 214.488C144.058 214.659 143.387 214.648 142.793 214.35C142.199 214.052 141.699 213.443 141.577 212.742Z" fill="#FF9A6C"/>
<path d="M151.963 199.087C152.171 199.801 151.738 200.565 150.997 200.796C150.257 201.026 149.489 200.637 149.281 199.923C149.073 199.209 149.505 198.444 150.245 198.214C150.986 197.983 151.756 198.374 151.963 199.087Z" fill="#424242"/>
<path d="M151.396 193.469C151.272 193.69 150.046 193.187 148.579 193.563C147.109 193.917 146.224 194.945 146.019 194.805C145.92 194.745 146.012 194.381 146.394 193.921C146.769 193.464 147.473 192.935 148.388 192.706C149.303 192.48 150.158 192.621 150.686 192.854C151.224 193.085 151.459 193.368 151.396 193.469Z" fill="#424242"/>
<path d="M145.661 207.68C145.633 207.598 146.505 207.21 147.935 206.646C148.299 206.513 148.636 206.348 148.634 206.076C148.654 205.783 148.395 205.419 148.103 205.029C147.521 204.212 146.911 203.355 146.272 202.457C143.705 198.785 141.744 195.727 141.893 195.625C142.042 195.523 144.244 198.416 146.812 202.088C147.436 202.996 148.032 203.861 148.6 204.689C148.85 205.079 149.216 205.5 149.167 206.11C149.137 206.416 148.913 206.688 148.69 206.814C148.468 206.948 148.259 207.005 148.076 207.064C146.609 207.521 145.688 207.762 145.661 207.68Z" fill="#424242"/>
<path d="M150.322 224.977C150.322 224.977 143.287 227.25 135.122 224.787C135.122 224.787 140.713 231.507 151.102 227.816L150.322 224.977Z" fill="#FF9A6C"/>
<path d="M141.601 209.788C141.836 209.714 142.242 211.305 143.892 212.09C145.54 212.88 147.192 212.27 147.261 212.49C147.308 212.584 146.961 212.895 146.25 213.096C145.553 213.298 144.469 213.333 143.46 212.852C142.452 212.37 141.861 211.535 141.641 210.896C141.412 210.247 141.489 209.807 141.601 209.788Z" fill="#424242"/>
<path d="M149.327 188.571C149.171 188.992 147.987 189.037 146.702 189.479C145.403 189.879 144.417 190.542 144.047 190.292C143.879 190.167 143.934 189.782 144.297 189.306C144.654 188.834 145.345 188.305 146.233 188.015C147.121 187.726 147.988 187.747 148.551 187.919C149.123 188.09 149.391 188.37 149.327 188.571Z" fill="#424242"/>
<path d="M136.49 203.209C136.674 203.929 137.435 204.367 138.191 204.188C138.945 204.01 139.409 203.283 139.225 202.563C139.041 201.843 138.279 201.404 137.525 201.582C136.769 201.761 136.306 202.489 136.49 203.209Z" fill="#424242"/>
<path d="M131.7 199.013C131.919 199.14 132.719 198.083 134.173 197.66C135.619 197.217 136.904 197.652 137.009 197.427C137.063 197.326 136.799 197.058 136.236 196.856C135.68 196.654 134.805 196.555 133.902 196.825C132.998 197.096 132.336 197.652 131.998 198.121C131.653 198.596 131.594 198.958 131.7 199.013Z" fill="#424242"/>
<path d="M131.124 194.12C131.507 194.365 132.527 193.695 133.869 193.283C135.198 192.829 136.422 192.774 136.584 192.352C136.65 192.151 136.373 191.873 135.783 191.707C135.2 191.54 134.304 191.527 133.386 191.824C132.468 192.122 131.753 192.656 131.384 193.132C131.007 193.611 130.95 193.997 131.124 194.12Z" fill="#424242"/>
<path d="M124.589 210.173C124.387 209.382 122.998 207.747 122.185 207.823C120.015 208.027 116.294 209.148 117.602 214.459C119.391 221.72 126.312 218.426 126.273 218.215C126.244 218.049 125.288 212.905 124.589 210.173Z" fill="#FFBF9D"/>
<path d="M123.618 216.056C123.58 216.041 123.513 216.176 123.324 216.326C123.139 216.473 122.796 216.627 122.383 216.579C121.547 216.487 120.601 215.428 120.244 214.128C120.062 213.472 120.046 212.808 120.151 212.23C120.242 211.644 120.494 211.189 120.864 211.025C121.226 210.841 121.556 211.005 121.696 211.187C121.843 211.366 121.833 211.523 121.874 211.526C121.899 211.539 122 211.366 121.868 211.081C121.802 210.944 121.675 210.793 121.47 210.696C121.261 210.597 120.987 210.588 120.725 210.684C120.175 210.861 119.798 211.5 119.681 212.135C119.535 212.78 119.538 213.53 119.741 214.267C120.148 215.719 121.234 216.903 122.359 216.948C122.902 216.955 123.291 216.696 123.468 216.471C123.648 216.235 123.647 216.063 123.618 216.056Z" fill="#FF9A6C"/>
<path d="M121.902 207.934L124.299 209.246C129.776 199.321 139.195 175.814 138.692 177.197C138.692 177.197 132.649 176.669 127.147 179.476C121.645 182.283 111.53 188.638 113.842 195.439C116.154 202.24 121.902 207.934 121.902 207.934Z" fill="#424242"/>
<path d="M109.217 191.894C109.307 191.929 108.628 193.339 108.172 195.781C107.706 198.2 107.598 201.723 108.771 205.321C109.946 208.92 112.112 211.7 113.916 213.378C115.725 215.08 117.106 215.818 117.053 215.899C117.039 215.924 116.684 215.764 116.079 215.404C115.474 215.047 114.632 214.465 113.683 213.632C111.787 211.991 109.514 209.17 108.306 205.471C107.1 201.773 107.271 198.155 107.833 195.711C108.108 194.479 108.445 193.512 108.723 192.866C108.999 192.221 109.19 191.882 109.217 191.894Z" fill="#455A64"/>
<path d="M90.8879 346.497L80.1019 349.427C80.1019 349.427 71.4629 348.751 69.9809 350.27C68.4989 351.79 64.7639 356.196 64.7639 356.196C64.7639 356.196 62.4489 356.824 63.0209 357.564C63.5929 358.305 65.5649 358.507 66.9879 358.13C68.4109 357.753 77.8479 354.697 77.8479 354.697C77.8479 354.697 78.813 357.458 81.019 356.751C83.225 356.044 87.4879 354.253 88.8329 353.971C90.1779 353.688 99.3599 352.652 99.9089 351.993C100.458 351.333 102.086 341.841 102.086 341.841L93.3059 339.926L90.8879 346.497Z" fill="#FFBF9D"/>
<path d="M75.9286 351.523C75.8676 351.393 73.2966 352.357 70.1876 353.677C67.0776 354.997 64.5976 356.176 64.6496 356.311C64.7006 356.445 67.2716 355.481 70.3916 354.157C73.5096 352.833 75.9896 351.654 75.9286 351.523Z" fill="#FF9A6C"/>
<path d="M86.6867 350.312C86.6457 350.18 84.5027 350.749 82.0387 351.914C80.8057 352.496 79.7367 353.095 78.9837 353.594C78.2187 354.103 77.9187 354.624 77.9797 354.66C78.0387 354.705 78.4057 354.309 79.1767 353.908C79.9497 353.506 81.0477 352.958 82.2617 352.385C84.6907 351.236 86.7337 350.453 86.6867 350.312Z" fill="#FF9A6C"/>
<path d="M159.601 233.104C159.601 233.104 171.015 232.683 177.154 236.802C183.293 240.921 204.659 257.465 204.659 257.465L218.928 231.043L232.578 239.536C232.578 239.536 218.798 277.292 208.563 280.078C195.005 283.768 175.974 266.242 175.974 266.242L159.601 233.104Z" fill="#0555C8"/>
<path d="M167.25 233.672L151.385 230.995L131.173 230.218L118.827 234.248L134.72 257.532L156.909 260.733L167.25 233.672Z" fill="#FFBF9D"/>
<path d="M116.912 268.221C116.912 269.393 117.554 292.829 115.011 300.446C112.468 308.063 101.804 343.423 101.804 343.423L89.9481 341.716L97.7321 291.944C97.7321 291.944 101.083 249.693 102.41 245.178C104.72 237.315 111.484 236.27 111.484 236.27L116.912 268.221Z" fill="#0555C8"/>
<path d="M110.467 236.624C111.287 236.389 126.527 231.733 126.527 231.733C126.527 231.733 135.449 247.709 147.873 245.911C158.508 244.371 159.187 232.362 159.187 232.362L169.758 234.081C170.778 233.528 180.879 273.004 174.129 282.707C168.572 290.696 168.492 292.588 168.492 292.588C167.025 292.518 175.243 315.074 173.837 317.77C161.351 341.715 110.467 317.161 110.467 317.161L115.452 288.485L110.467 236.624Z" fill="#0555C8"/>
<path d="M111.646 249.782C111.628 249.785 111.645 250.023 111.692 250.475C111.752 250.978 111.829 251.633 111.926 252.447C112.155 254.218 112.474 256.677 112.864 259.689C113.262 262.746 113.734 266.386 114.182 270.435C114.645 274.481 115.072 278.941 115.25 283.631C115.433 288.322 115.248 292.797 114.731 296.828C114.217 300.86 113.483 304.456 112.778 307.454C112.092 310.457 111.48 312.875 111.064 314.548C110.872 315.345 110.717 315.986 110.598 316.478C110.497 316.921 110.452 317.156 110.47 317.16C110.487 317.165 110.566 316.939 110.7 316.505C110.843 316.019 111.029 315.386 111.26 314.599C111.736 312.941 112.402 310.535 113.136 307.537C113.888 304.545 114.662 300.942 115.206 296.888C115.753 292.835 115.954 288.324 115.769 283.611C115.589 278.899 115.147 274.428 114.657 270.379C114.183 266.327 113.672 262.69 113.228 259.638C112.79 256.585 112.401 254.12 112.126 252.417C111.989 251.608 111.88 250.958 111.795 250.458C111.715 250.013 111.664 249.779 111.646 249.782Z" fill="#424242"/>
<path d="M174.499 254.45C174.464 254.458 174.531 254.968 174.683 255.884C174.846 256.798 175.05 258.126 175.301 259.764C175.519 261.407 175.782 263.363 175.911 265.547C176.067 267.728 176.097 270.137 175.882 272.645C175.668 275.153 175.235 277.521 174.613 279.611C173.957 281.687 173.245 283.527 172.462 284.982C170.949 287.921 169.665 289.544 169.759 289.609C169.788 289.631 170.111 289.231 170.672 288.486C170.958 288.117 171.295 287.657 171.638 287.089C171.989 286.527 172.416 285.901 172.788 285.152C173.623 283.702 174.382 281.85 175.073 279.749C175.73 277.634 176.185 275.23 176.401 272.688C176.619 270.145 176.574 267.709 176.39 265.512C176.234 263.311 175.931 261.348 175.665 259.705C175.366 258.067 175.107 256.746 174.882 255.843C174.669 254.939 174.535 254.443 174.499 254.45Z" fill="#424242"/>
<path d="M127.764 295.446C127.759 295.463 127.965 295.539 128.361 295.668C128.758 295.796 129.343 295.983 130.102 296.203C131.619 296.653 133.825 297.267 136.569 297.956C139.314 298.64 142.598 299.401 146.268 300.127C148.103 300.493 150.034 300.85 152.042 301.189C153.047 301.352 154.07 301.517 155.107 301.685C156.129 301.817 157.222 302.126 158.382 301.816C158.943 301.687 159.56 301.226 159.666 300.567C159.805 299.907 159.428 299.295 159.027 298.923C158.183 298.135 157.172 297.809 156.282 297.334C154.445 296.45 152.652 295.643 150.929 294.91C147.483 293.442 144.315 292.279 141.629 291.387C138.943 290.492 136.74 289.863 135.21 289.459C134.446 289.253 133.848 289.111 133.442 289.018C133.036 288.925 132.821 288.884 132.816 288.902C132.811 288.92 133.018 288.994 133.415 289.119C133.865 289.257 134.442 289.435 135.155 289.654C136.665 290.117 138.848 290.799 141.511 291.735C144.175 292.67 147.318 293.864 150.741 295.351C152.453 296.093 154.234 296.907 156.061 297.794C156.956 298.268 157.968 298.624 158.667 299.295C159.015 299.627 159.248 300.051 159.157 300.468C159.083 300.896 158.716 301.191 158.242 301.316C157.282 301.585 156.225 301.315 155.187 301.174C154.151 301.009 153.131 300.847 152.127 300.687C150.123 300.356 148.194 300.01 146.361 299.658C142.693 298.96 139.408 298.237 136.656 297.6C133.905 296.957 131.688 296.399 130.156 296.009C129.432 295.828 128.847 295.682 128.39 295.568C127.984 295.471 127.769 295.429 127.764 295.446Z" fill="#424242"/>
</svg>
