<svg width="65" height="65" viewBox="0 0 65 65" fill="none" xmlns="http://www.w3.org/2000/svg">
<g id="Setting">
<g id="Group 35313">
<g id="Group 34043">
<rect id="Rectangle 1253" width="64.0158" height="64.0158" rx="18.582" fill="#FFF1D7"/>
<g id="Group">
<path id="Vector" d="M36.0272 45.9785H27.9672C27.7839 45.9785 27.6037 46.0254 27.4437 46.1147C27.2836 46.204 27.1491 46.3327 27.0528 46.4886C26.9565 46.6445 26.9017 46.8225 26.8936 47.0056C26.8855 47.1887 26.9244 47.3708 27.0065 47.5346L27.7286 48.9768C28.0832 49.6914 28.6306 50.2926 29.3089 50.7123C29.9873 51.132 30.7696 51.3535 31.5673 51.3518H32.427C33.2239 51.3547 34.0058 51.1348 34.6844 50.7171C35.363 50.2993 35.9115 49.7003 36.2679 48.9876L36.99 47.5454C37.0722 47.3814 37.1111 47.1991 37.1029 47.0158C37.0946 46.8325 37.0396 46.6544 36.9431 46.4984C36.8466 46.3425 36.7117 46.2138 36.5514 46.1246C36.3911 46.0355 36.2106 45.9889 36.0272 45.9893V45.9785Z" fill="#FFC147"/>
<path id="Vector_2" d="M31.9967 12.6638C29.0266 12.6682 26.1351 13.6191 23.7421 15.3785C21.3491 17.1378 19.579 19.6141 18.6889 22.4477C17.7989 25.2814 17.835 28.325 18.7922 31.1367C19.7494 33.9484 21.5778 36.3819 24.012 38.0838C24.1547 38.1828 24.2712 38.3148 24.3517 38.4687C24.4322 38.6225 24.4742 38.7936 24.4741 38.9672V40.605C24.4741 41.175 24.7005 41.7217 25.1036 42.1248C25.5067 42.5279 26.0534 42.7543 26.6234 42.7543H37.37C37.9401 42.7543 38.4867 42.5279 38.8898 42.1248C39.2929 41.7217 39.5193 41.175 39.5193 40.605V38.9651C39.5193 38.7914 39.5613 38.6204 39.6418 38.4665C39.7222 38.3127 39.8388 38.1806 39.9814 38.0817C42.4218 36.3833 44.2561 33.9502 45.2173 31.1367C46.1785 28.3232 46.2163 25.2764 45.3252 22.4399C44.4342 19.6034 42.6608 17.1255 40.2634 15.3671C37.866 13.6087 34.9699 12.6616 31.9967 12.6638Z" fill="#FFC147"/>
</g>
</g>
</g>
</g>
</svg>
