<svg width="15" height="16" viewBox="0 0 15 16" fill="none" xmlns="http://www.w3.org/2000/svg">
<g id="Infinity">
<path id="Vector" d="M14.5337 7.99999C14.5338 8.649 14.3414 9.28344 13.9808 9.82308C13.6203 10.3627 13.1078 10.7833 12.5082 11.0317C11.9086 11.2801 11.2488 11.345 10.6123 11.2184C9.97576 11.0918 9.39108 10.7792 8.93219 10.3203L8.91285 10.2998L5.40015 6.333C5.07129 6.00798 4.65363 5.78749 4.19975 5.69929C3.74586 5.61108 3.27603 5.6591 2.84937 5.8373C2.42271 6.01549 2.05829 6.31591 1.80197 6.70074C1.54565 7.08557 1.40889 7.53762 1.40889 7.99999C1.40889 8.46237 1.54565 8.91442 1.80197 9.29925C2.05829 9.68408 2.42271 9.98449 2.84937 10.1627C3.27603 10.3409 3.74586 10.3889 4.19975 10.3007C4.65363 10.2125 5.07129 9.99201 5.40015 9.66699L5.89937 9.10331C5.94019 9.05715 5.98971 9.01947 6.04509 8.99244C6.10047 8.96541 6.16063 8.94955 6.22214 8.94577C6.28365 8.94198 6.3453 8.95035 6.40358 8.9704C6.46185 8.99044 6.51561 9.02177 6.56178 9.06259C6.60794 9.10341 6.64562 9.15293 6.67265 9.20831C6.69968 9.26369 6.71554 9.32385 6.71932 9.38536C6.72311 9.44687 6.71474 9.50852 6.69469 9.5668C6.67464 9.62507 6.64332 9.67883 6.6025 9.72499L6.09332 10.2998L6.07398 10.3203C5.61508 10.7792 5.03041 11.0916 4.39392 11.2182C3.75743 11.3448 3.0977 11.2798 2.49815 11.0314C1.8986 10.7831 1.38616 10.3625 1.02562 9.82292C0.66509 9.28333 0.472656 8.64895 0.472656 7.99999C0.472656 7.35104 0.66509 6.71666 1.02562 6.17706C1.38616 5.63747 1.8986 5.21691 2.49815 4.96855C3.0977 4.72019 3.75743 4.65519 4.39392 4.78177C5.03041 4.90835 5.61508 5.22082 6.07398 5.67968L6.09332 5.70019L9.60601 9.66699C9.93488 9.99201 10.3525 10.2125 10.8064 10.3007C11.2603 10.3889 11.7301 10.3409 12.1568 10.1627C12.5835 9.98449 12.9479 9.68408 13.2042 9.29925C13.4605 8.91442 13.5973 8.46237 13.5973 7.99999C13.5973 7.53762 13.4605 7.08557 13.2042 6.70074C12.9479 6.31591 12.5835 6.01549 12.1568 5.8373C11.7301 5.6591 11.2603 5.61108 10.8064 5.69929C10.3525 5.78749 9.93488 6.00798 9.60601 6.333L9.1068 6.89667C9.02435 6.98991 8.90825 7.04659 8.78403 7.05422C8.6598 7.06186 8.53763 7.01984 8.44439 6.9374C8.35115 6.85496 8.29448 6.73885 8.28684 6.61463C8.27921 6.4904 8.32123 6.36823 8.40367 6.27499L8.91285 5.70019L8.93219 5.67968C9.39108 5.22074 9.97576 4.9082 10.6123 4.78157C11.2488 4.65494 11.9086 4.71992 12.5082 4.96829C13.1078 5.21666 13.6203 5.63726 13.9808 6.17691C14.3414 6.71655 14.5338 7.35099 14.5337 7.99999Z" fill="black"/>
</g>
</svg>
