<svg width="60" height="60" viewBox="0 0 60 60" fill="none" xmlns="http://www.w3.org/2000/svg">
<g id="Frame">
<g id="Group">
<path id="Vector" d="M48.3748 40.6242L43.8748 33.75V33.6258L51.2506 30L43.8748 26.3742V26.25L48.3748 19.3758L40.1248 19.875L40.624 11.625L33.7498 16.125H33.6256L29.9998 8.74918L26.374 16.125H26.2498L19.3756 11.625L19.8748 19.875L11.6248 19.3758L16.1248 26.25V26.3742L8.74902 30L16.1248 33.6258V33.75L11.6248 40.6242L19.8748 40.125L19.3756 48.375L26.2498 43.875H26.374L29.9998 51.2508L33.6256 43.875H33.7498L40.624 48.375L40.1248 40.125L48.3748 40.6242ZM29.9998 40.0007C24.499 40.0007 19.999 35.5007 19.999 29.9999C19.999 24.4991 24.499 19.9991 29.9998 19.9991C35.5006 19.9991 40.0006 24.4991 40.0006 29.9999C40.0006 35.5007 35.5006 40.0007 29.9998 40.0007Z" fill="#0555C8"/>
<path id="Vector_2" d="M30 22.5C25.875 22.5 22.5 25.875 22.5 30C22.5 34.125 25.875 37.5 30 37.5C34.125 37.5 37.5 34.125 37.5 30C37.5 25.875 34.125 22.5 30 22.5Z" fill="#0555C8"/>
</g>
</g>
</svg>
