<svg width="60" height="60" viewBox="0 0 60 60" fill="none" xmlns="http://www.w3.org/2000/svg">
<g id="Frame">
<g id="Group">
<path id="Vector" d="M11.2502 28.7508C11.126 28.7508 10.8752 28.7508 10.751 28.875C10.2494 28.9992 10.001 29.5008 10.001 30V38.7492C10.001 44.3742 15.626 49.9992 21.251 49.9992H25.001V42L12.1244 29.1258C11.8759 28.875 11.6252 28.7508 11.2502 28.7508L11.2502 28.7508Z" fill="#0555C8"/>
<path id="Vector_2" d="M49.249 28.875C49.1248 28.7508 48.874 28.7508 48.7498 28.7508C48.3748 28.7508 48.124 28.875 47.8756 29.1258L32.5006 44.5008V32.25C48.6256 29.8758 39.8764 10.7508 39.8764 10.7508C39.7498 10.3758 39.2506 10.0008 38.749 10.0008C38.2498 10.0008 37.7482 10.3758 37.624 10.875L34.3732 16.6242L31.1224 10.875C31.0005 10.3758 30.499 10.0008 29.9998 10.0008C29.5006 10.0008 28.999 10.3758 28.8748 10.875L25.624 16.6242L22.3732 10.875C22.2489 10.3758 21.7497 10.0008 21.2505 10.0008C20.7513 10.0008 20.2497 10.3758 20.1255 10.875C20.1255 10.875 11.3763 30 27.5013 32.3742L27.499 49.9992H38.749C44.374 49.9992 49.999 44.3742 49.999 38.7492V30C49.999 29.5008 49.7505 28.9992 49.2489 28.875L49.249 28.875Z" fill="#0555C8"/>
</g>
</g>
</svg>
