<svg width="60" height="60" viewBox="0 0 60 60" fill="none" xmlns="http://www.w3.org/2000/svg">
<path d="M42.3751 15C42.4994 13.7508 42.4994 12.6258 42.4994 11.25H17.501C17.501 12.6258 17.501 13.7508 17.6252 15H10.001V16.2492C10.001 27.375 24.1268 35.25 27.5018 36.9984L27.4994 41.2499C27.4994 43.3757 25.8752 44.9999 23.7494 44.9999H21.2486V49.9991H38.7494V44.9999H36.2486C34.1228 44.9999 32.4986 43.3757 32.4986 41.2499V37.0007C35.8736 35.2499 49.9994 27.3749 49.9994 16.2515V15.0023L42.3751 15ZM12.6259 17.5008H17.8759C18.3752 23.1258 19.7509 27.1266 21.2509 30C17.2501 26.8758 13.1251 22.5 12.6259 17.5008ZM38.8759 30C40.3759 27.1242 41.7517 23.1258 42.2509 17.5008H47.5009C46.8751 22.5 42.7501 26.8758 38.8759 30Z" fill="#0555C8"/>
</svg>
