<svg width="48" height="48" viewBox="0 0 48 48" fill="none" xmlns="http://www.w3.org/2000/svg">
<path d="M18.1183 5.88232V9.80392M29.8831 5.88232V9.80392M18.1183 37.2551V41.1767M29.8831 37.2551V41.1767M10.2751 17.6471H6.35352M10.2751 29.4119H6.35352M41.6479 17.6471H37.7263M41.6479 29.4119H37.7263M14.1967 37.2551H33.8047C35.9706 37.2551 37.7263 35.4994 37.7263 33.3335V13.7255C37.7263 11.5597 35.9706 9.80392 33.8047 9.80392H14.1967C12.0309 9.80392 10.2751 11.5597 10.2751 13.7255V33.3335C10.2751 35.4994 12.0309 37.2551 14.1967 37.2551ZM18.1183 17.6471H29.8831V29.4119H18.1183V17.6471Z" stroke="url(#paint0_linear_734_6102)" stroke-width="3.9216" stroke-linecap="round" stroke-linejoin="round"/>
<defs>
<linearGradient id="paint0_linear_734_6102" x1="24.0007" y1="5.88232" x2="24.0007" y2="41.1767" gradientUnits="userSpaceOnUse">
<stop stop-color="#C642DC"/>
<stop offset="1" stop-color="#0C66E4"/>
</linearGradient>
</defs>
</svg>
