<svg width="119" height="119" viewBox="0 0 119 119" fill="none" xmlns="http://www.w3.org/2000/svg">
<g id="Group 18285">
<path id="Ellipse 33" d="M9.6312 38.3774C6.88395 37.2195 5.57402 34.0391 6.97677 31.4084C12.0074 21.9741 19.5131 14.0429 28.7309 8.4951C37.9488 2.94732 48.4711 0.0283895 59.1628 0.0001525C62.1441 -0.00772114 64.3411 2.63878 64.078 5.60845C63.815 8.57812 61.1896 10.7407 58.2091 10.8089C49.8022 11.0014 41.5558 13.3772 34.2981 17.7452C27.0404 22.1133 21.0803 28.2877 16.9742 35.6262C15.5185 38.2279 12.3785 39.5353 9.6312 38.3774Z" fill="#C0C0C0"/>
<path id="Ellipse 35" d="M81.681 108.387C82.9174 111.1 81.7264 114.326 78.9124 115.311C69.5957 118.571 59.5831 119.464 49.7848 117.869C38.2049 115.983 27.4444 110.705 18.8639 102.704C10.2833 94.7024 4.26821 84.3362 1.57914 72.9162C-0.696236 63.253 -0.503737 53.2025 2.09859 43.681C2.88458 40.8052 6.02037 39.3921 8.81287 40.4362C11.6054 41.4802 12.9911 44.5864 12.2635 47.4776C10.3747 54.9826 10.3022 62.8579 12.088 70.4417C14.2876 79.7833 19.208 88.2628 26.2269 94.808C33.2457 101.353 42.0479 105.67 51.5202 107.213C59.21 108.465 67.0611 107.843 74.4161 105.436C77.2494 104.508 80.4447 105.674 81.681 108.387Z" fill="#9E9E9E"/>
<path id="Ellipse 36" d="M66.8245 5.92288C67.2394 2.9706 69.9777 0.889121 72.8801 1.57059C83.284 4.01342 92.8704 9.23134 100.594 16.7136C109.615 25.4519 115.629 36.8278 117.771 49.2028C119.913 61.5778 118.072 74.3133 112.513 85.5751C107.754 95.2181 100.479 103.355 91.5013 109.152C88.9968 110.769 85.7182 109.729 84.3351 107.088C82.9521 104.447 83.9929 101.209 86.4641 99.5413C93.4311 94.8396 99.0848 88.389 102.832 80.7967C107.379 71.5845 108.885 61.1669 107.133 51.0441C105.381 40.9214 100.461 31.6159 93.0822 24.4679C87.001 18.5769 79.5082 14.4018 71.3662 12.3152C68.4783 11.5751 66.4096 8.87517 66.8245 5.92288Z" fill="#E3E3E3"/>
</g>
</svg>
