<svg width="119" height="119" viewBox="0 0 119 119" fill="none" xmlns="http://www.w3.org/2000/svg">
<g id="Group 18286">
<circle id="Ellipse 43" cx="59.5" cy="59.5" r="59.5" fill="#999999"/>
<path id="Ellipse 47" d="M119 59.5C119 48.2939 115.835 37.3156 109.871 27.8289C103.906 18.3422 95.383 10.7328 85.2837 5.87679C75.1844 1.02073 63.9191 -0.884586 52.7846 0.380176C41.6501 1.64494 31.0991 6.02836 22.3463 13.0258C13.5934 20.0233 6.99455 29.3503 3.30937 39.9331C-0.375819 50.5159 -0.997515 61.9243 1.51585 72.845C4.02921 83.7656 9.57545 93.7544 17.5161 101.662C25.4567 109.569 35.4689 115.073 46.4 117.54L59.5 59.5H119Z" fill="#ACACAC"/>
<path id="Ellipse 46" d="M119 59.5C119 49.4511 116.455 39.5659 111.602 30.7664C106.749 21.967 99.747 14.5399 91.2481 9.17798C82.7493 3.81607 73.0309 0.694006 62.9994 0.102995C52.9679 -0.488015 42.9501 1.47128 33.8805 5.79814C24.8108 10.125 16.9848 16.6784 11.1323 24.8472C5.27983 33.016 1.5916 42.5339 0.411624 52.5133C-0.768351 62.4927 0.598375 72.6084 4.38432 81.9168C8.17027 91.2252 14.2521 99.4231 22.0625 105.746L59.5 59.5H119Z" fill="#CACACA"/>
<path id="Ellipse 45" d="M119 59.5C119 46.7659 114.915 34.3677 107.344 24.1281C99.7741 13.8886 89.1185 6.34782 76.9439 2.6145C64.7694 -1.11882 51.7182 -0.847754 39.7092 3.38785C27.7001 7.62345 17.3668 15.6001 10.2282 26.1452L59.5 59.5H119Z" fill="#E2E2E2"/>
<path id="Ellipse 44" d="M119 59.5C119 51.6863 117.461 43.9492 114.471 36.7303C111.481 29.5115 107.098 22.9522 101.573 17.4271C96.0478 11.9021 89.4885 7.51932 82.2697 4.52917C75.0508 1.53901 67.3137 -3.41546e-07 59.5 0L59.5 59.5H119Z" fill="#F4F4F4"/>
</g>
</svg>
